<svg width="271" height="258" viewBox="0 0 271 258" fill="none" xmlns="http://www.w3.org/2000/svg">
<g clip-path="url(#clip0_4671_2374)">
<g filter="url(#filter0_f_4671_2374)">
<g filter="url(#filter1_f_4671_2374)">
<path d="M187.649 7L194.674 28.696C194.578 28.7018 194.485 28.7077 194.389 28.7135C188.943 19.7636 171.948 12.954 156.257 10.0929C168.802 17.0768 177.697 23.0569 183.062 30.1038C181.687 30.3688 180.321 30.6673 178.966 31.0012C169.497 23.0304 155.405 18.7926 140.823 16.4932C145.034 18.3472 148.753 20.5684 152.057 23.0302C151.137 23.1908 150.12 23.4867 148.925 23.7322C143.824 26.7854 141.473 29.2099 140.113 32.602C127.605 29.125 114.995 27.6401 103.71 27.7094C99.6794 27.7326 95.818 27.9552 92.1911 28.3512C114.625 31.7397 126.807 40.0414 135.939 49.8006C102.464 39.5733 60.9069 28.004 32.686 46.5779C55.3303 46.7353 79.4481 48.0783 89.7967 57.5989C76.6927 56.6112 64.1537 58.2461 53.8828 65.0062C58.4876 65.0382 63.1635 65.1415 67.7144 65.3955C49.0551 68.6593 30.9305 77.4658 15.5743 89.1613C28.6373 89.869 49.4971 83.3738 62.8158 85.1765C54.907 88.5284 47.3746 92.9919 40.547 98.1919C49.9884 98.7034 64.65 94.3943 75.0091 94.8851C75.1691 95.6396 75.2913 96.4391 75.3503 97.3006C58.8388 100.409 16.7332 124.632 7.77173 129.045C12.5042 127.797 24.7258 126.98 37.4688 127.706C36.3315 128.309 35.1523 128.937 34.4685 129.273C36.2931 128.792 39.5583 128.395 43.5834 128.181C49.9293 128.804 56.1328 129.843 61.3202 131.469C42.5652 143.113 32.6052 165.213 27.6368 188.196C27.8899 188.95 38.4495 181.47 49.9581 175.327C49.9552 175.342 49.9581 175.356 49.9581 175.369C50.0366 175.606 51.4524 174.778 53.6499 173.426C61.0828 169.743 68.4997 167.024 73.4413 167.797C72.4369 170.72 72.1848 174.19 72.4343 177.92L67.7446 183.127L67.2124 185.528L70.1976 191.803L70.3778 194.647L68.2453 198.34L79.9048 205.073C84.1736 215.144 88.5148 222.208 87.7571 219.72C86.4574 215.454 85.7295 211.651 85.4287 208.261L114.591 225.097L106.77 216.182L111.384 218.979L130.37 251.865L157.538 236.18L159.247 236.764L161.936 237.533L166.904 237.265L171.978 235.407L175.406 234.253L178.086 233.15L182.213 231.193L185.989 227.185L187.63 225.614L187.328 224.825H207.785V201.417C216.089 196.204 223.825 188.771 229.668 178.31C232.306 175.345 234.643 172.491 236.504 169.924L226.655 173.993C225.635 174.193 224.558 174.382 223.377 174.541C234.708 168.092 244.123 159.934 248.625 149.782C247.769 150.074 245.573 151.098 242.374 152.597C242.44 152.481 242.504 152.365 242.571 152.247C238.921 153.674 234.934 155.323 230.788 156.982L232.431 155.467L234.171 149.083L229.308 150.112L226.556 149.509L218.077 148.039L220.203 152.621L216.235 138.684L217.672 138.485L221.636 143.017L211.577 137.622C212.956 136.057 215.051 132.655 215.055 129.816C215.053 129.318 215.014 128.821 214.936 128.327C217.111 125.368 219.868 122.773 224.463 121.325C238.114 116.279 258.18 101.25 257.375 101.518C250.981 103.648 248.286 103.928 243.647 103.919C261.26 92.0504 265.981 67.8088 266 65.2273C261.976 71.5135 259.5 74.57 255.096 78.1435C262.782 62.0297 253.489 51.9363 252.934 51.3535C253.354 50.7799 253.629 50.0064 253.726 49.0117C254.325 42.403 253.522 25.7561 242.06 24.1756C238.188 24.9073 236.934 34.4068 234.334 37.8405L233.997 37.5956C232.292 36.5398 230.501 35.5807 228.643 34.7126C228.078 30.3099 226.931 25.9424 224.822 21.0629C224.822 21.0629 222.756 26.689 221.004 31.78C219.693 31.3747 218.361 31.0073 217.009 30.6797C214.652 23.8735 210.864 15.7745 209.283 15.8245L208.755 29.1856C208.075 29.1016 207.391 29.0234 206.705 28.9571C201.629 18.5736 196.114 11.2536 187.659 7.00098L187.649 7ZM34.4685 129.273C33.8187 129.445 33.3469 129.625 33.0898 129.812C33.0578 129.933 33.5898 129.706 34.4685 129.273ZM7.77173 129.045C6.93722 129.265 6.33215 129.497 6.00172 129.737C5.961 129.892 6.64402 129.6 7.77173 129.045ZM156.148 26.3765C159.507 29.3953 162.362 32.6608 164.805 36.001C162.883 36.9113 161.024 37.9085 159.229 38.9832C159.259 38.9658 159.267 38.9512 159.288 38.9352L156.148 26.3765ZM177.459 124.48C178.513 124.986 179.478 125.434 180.32 125.787L183.548 128.219C183.548 128.26 183.548 128.302 183.548 128.343L178.411 125.714L177.459 124.48ZM219.993 155.956L216.516 159.426L215.741 159.942L213.333 161.125L214.568 158.986L217.227 157.594L219.993 155.956ZM166.873 224.824H177.255L176.924 225.457L169.454 229.294L176.706 225.107L161.005 228.231L166.873 224.824ZM182.666 224.824H183.974L183.907 225.287L182.726 227.77L182.166 228.634L178.807 232.084L180.409 229.3L182.672 224.848L182.666 224.824Z" fill="black"/>
</g>
<path d="M166.03 156.827C194.595 176.613 217.609 171.677 224.953 169.172C205.215 213.683 151.368 207.328 151.686 204.012C151.967 201.101 146.26 214.662 149.349 224.572C140.546 225.768 91.2725 183.138 99.5496 178.903C101.402 177.955 82.454 184.221 91.1704 212.84C92.6837 217.809 72.1706 181.696 77.9476 164.883C65.5007 162.938 36.0581 184.94 35.6516 183.724C40.2405 162.496 49.4383 142.086 66.7607 131.331C49.1261 125.801 18.8426 127.426 15.6672 129.731C15.3206 131.015 62.5504 103.004 79.7196 99.7719C78.2498 78.6908 42.9574 93.2542 24.5096 92.2547C45.4171 76.3306 71.8809 66.191 97.293 69.729C92.9819 54.8699 65.641 53.0991 40.3146 52.9231C66.3798 35.7676 104.762 46.4534 135.68 55.8998C127.245 46.8857 115.995 39.2198 95.2746 36.0897C131.004 32.1868 191.368 46.6862 203.345 103.372C141.727 131.831 155.317 151.018 166.03 156.827Z" fill="#0E96DF"/>
<path d="M191.262 163.846C206.964 162.377 222.198 155.197 234.158 150.521C224.624 167.862 206.634 176.442 192.413 181.773L191.262 163.846Z" fill="#38BFF9"/>
<path d="M141.531 172.077C163.792 187.495 234.026 150.197 239.75 148.245C224.367 182.932 146.943 192.454 147.191 189.871C147.411 187.602 142.457 195.987 144.863 203.71C138.003 204.643 99.605 171.421 106.055 168.121C107.499 167.382 92.7324 172.265 99.5249 194.568C100.705 198.44 84.7182 170.297 89.2203 157.195C79.5203 155.679 56.5759 172.825 56.2589 171.877C59.8354 155.335 67.0031 139.428 80.5026 131.047C66.7599 126.738 43.1597 128.004 40.6857 129.8C40.4119 130.801 77.2209 108.972 90.6011 106.453C89.4564 90.0247 61.9524 101.374 47.5755 100.595C63.869 88.1854 84.4933 80.2835 104.296 83.0406C100.937 71.461 79.6297 70.081 59.8927 69.9439C80.2057 56.5744 110.117 64.9019 134.212 72.2636C127.639 65.2387 118.871 59.2646 102.724 56.8255C130.567 53.784 177.609 65.0833 186.944 109.259C84.8797 87.7311 123.757 175.992 141.531 172.077Z" fill="#38BFF9"/>
<path d="M87.635 181.788L89.4965 122.564L114.465 123.822L156.388 101.724L174.897 126.016L209.28 143.612L198.455 164.774L197.235 212.838L171.174 213.534L132.734 235.859L119.945 216.371L79.17 191.652L87.635 181.788Z" fill="#14171C"/>
<path d="M180.424 205.329H168.102L160.418 189.894L152.814 205.329H140.762L153.839 180.066L141.544 155.952H153.354L160.472 171.217L167.32 155.952H179.48L166.997 181.113L180.424 205.329Z" fill="white"/>
<path d="M129.197 205.235H118.28V166.577H108.414V155.614H139.035V166.577H129.197V205.235Z" fill="white"/>
<path d="M173.349 118.433L216.154 143.146L187.458 192.849L199.431 148.165L173.349 118.433Z" fill="#3BCEAE"/>
<path d="M87.2728 168.11V118.684H144.665L99.9811 130.657L87.2728 168.11Z" fill="#3B56C8"/>
<path d="M117.881 118.658C115.267 118.623 114.691 118.68 112.294 118.629L107.664 120.85L106.736 124.784L106.254 125.89C106.459 127.907 106.996 129.227 106.06 129.917L103.044 131.052C101.659 129.073 102.199 126.654 102.377 124.824L102.223 120.928C104.993 115.775 106.145 115.225 108.859 111.974L104.086 117.178L101.643 120.972L101.877 125.386L101.744 130.343C101.297 132.794 100.189 131.674 98.8034 132.23L97.1248 126.681L97.2452 118.708L103.088 111.701L102.174 112.304L100.298 114.606L96.8722 118.656L96.6219 127.181C95.8134 128.61 94.6354 128.206 92.9275 127.03L92.81 124.7L92.2196 125.447C91.0896 125.599 89.4175 125.178 90.1419 122.863L93.1591 120.101L93.2951 117.063L97.4102 113.092L103.55 111.287L105.541 109.069C107.542 108.172 108.178 107.273 110.625 108.938C112.149 109.064 115.239 106.797 118.718 108.463C121.094 109.353 123.135 108.428 124.513 118.602C124.05 118.661 118.826 118.492 117.881 118.658Z" fill="white"/>
<g filter="url(#filter2_f_4671_2374)">
<path d="M100.999 129.829C102.243 127.994 104.101 130.872 105.782 129.209C107.462 127.546 106.2 122.292 107.036 121.169C107.872 120.046 110.792 118.776 110.792 118.776C112.232 117.156 114.078 113.679 118.091 117.808" stroke="black" stroke-width="0.759824"/>
</g>
<g filter="url(#filter3_f_4671_2374)">
<path d="M98.8582 131.476C103.276 132.112 101.43 128.017 101.393 126.333C101.373 125.448 102.589 120.284 101.555 120.12C100.588 119.966 104.213 116.639 104.953 116.462L108.613 112.507" stroke="black" stroke-width="0.759824"/>
</g>
<path d="M103.924 132.727C105.11 135.291 106.68 136.995 107.429 136.533C108.178 136.071 105.855 133.898 105.695 131.077C105.466 127.048 103.88 126.785 103.131 127.247C102.382 127.709 102.737 130.162 103.924 132.727Z" fill="#5E5E5E"/>
<path d="M97.6082 131.682C98.2275 134.14 99.4247 135.37 101.125 136.295C101.882 136.707 100.234 133.485 99.9952 130.962C99.7032 127.88 98.8147 126.562 97.9865 126.801C97.1582 127.04 96.9889 129.225 97.6082 131.682Z" fill="#5E5E5E"/>
<path d="M93.6782 128.417C93.9358 129.475 94.3692 131.226 94.9085 132.113C95.353 132.845 96.3603 133.259 96.6267 133.169C97.2163 132.972 95.6527 130.962 95.71 128.977C95.7914 126.202 95.2394 125.516 94.6499 125.713C94.0603 125.911 93.0352 125.771 93.6782 128.417Z" fill="#5E5E5E"/>
<path d="M89.4443 124.54C89.0559 125.057 88.9481 125.546 88.5093 126.903C88.4274 127.155 89.2797 127.862 89.5418 127.231C90.3067 125.393 91.4059 124.765 91.8868 124.119C92.2331 123.655 92.7624 122.822 92.1755 122.644C91.5887 122.467 90.5353 123.087 89.4443 124.54Z" fill="#5E5E5E"/>
<g filter="url(#filter4_f_4671_2374)">
<path d="M96.464 127.671C96.3951 126.365 96.3702 121.726 96.3334 120.043C96.3827 118.746 94.9831 120.379 99.521 115.475" stroke="black" stroke-width="0.759824"/>
</g>
<path d="M115.971 118.423L158.775 93.71L187.471 143.413L154.761 110.702L115.971 118.423Z" fill="#359AC8"/>
<path d="M151.707 31.0676C150.56 31.0596 152.434 29.2949 147.674 31.8228C142.915 34.3507 139.025 39.5857 137.779 47.8396C137.515 53.3787 139.602 58.1307 141.565 63.1441C140.551 65.5523 139.71 67.9869 138.773 70.4064L127.808 69.5372C133.165 76.569 139.852 81.0939 143.132 92.043L124.69 88.65C146.318 102.692 146.529 103.052 156.1 109.617L144.99 113.299C161.698 117.939 171.272 123.826 176.669 126.084L191.385 137.164L203.891 135.816C207.485 130.624 209.516 124.456 217.431 121.961C230.039 117.3 248.574 103.419 247.83 103.667C241.925 105.634 239.434 105.893 235.15 105.884C251.417 94.922 255.778 72.5324 255.795 70.1481C252.078 75.9541 249.793 78.7773 245.726 82.0777C252.823 67.1979 244.243 57.8777 243.727 57.3355C244.115 56.8056 244.37 56.0906 244.46 55.1712C245.013 49.0674 244.272 33.6935 233.685 32.2338C230.109 32.9096 228.95 41.682 226.549 44.8534L226.238 44.6271C207.366 32.9449 177.525 33.7521 157.232 45.8767C157.237 45.874 157.24 45.8685 157.245 45.8658L153.698 31.6761C153.042 31.2365 152.396 31.073 151.707 31.0676Z" fill="#FFFEFA"/>
<path d="M175.297 93.1201C175.297 93.1201 175.458 88.7742 174.882 86.7132C174.502 85.3539 174.093 83.7491 172.924 82.9588C172.235 82.4929 171.261 82.5818 170.44 82.7132C169.522 82.8602 168.603 83.2447 167.89 83.8402C167.308 84.3263 166.863 84.8453 166.615 85.7238C166.498 86.5846 166.527 87.8538 166.848 88.847C167.17 89.84 167.77 90.7575 168.489 91.5143C169.114 92.1731 169.868 92.7845 170.734 93.0598C172.184 93.5213 175.3 93.1192 175.3 93.1192L175.297 93.1201Z" fill="black"/>
<g filter="url(#filter5_f_4671_2374)">
<path d="M209.479 128.781C203.517 115.727 203.989 106.52 204.075 95.1757" stroke="#3E3E3E" stroke-width="3.61221" stroke-linecap="round"/>
</g>
<path d="M174.426 67.2258C179.177 80.0429 194.233 97.5885 180.884 125.693C190.463 132.818 193.288 122.611 194.487 122.968C195.686 123.324 204.423 131.012 208.023 128.208C202.512 105.072 215.23 81.2015 216.9 74.5369C218.571 67.8724 221.415 57.6391 221.415 57.6391C222.843 49.0041 222.049 39.278 217.763 29.3578C217.763 29.3578 211.15 47.2802 212.123 46.6552C214.019 45.4385 205.854 24.4425 203.412 24.5197L202.785 40.3951C197.581 28.7947 192.231 20.7916 183.439 16.3697L191.185 40.2901C189.404 30.1346 171.127 22.2668 154.446 19.2258C173.486 29.8255 183.442 37.9151 184.74 52.0016C179.311 35.4178 160.244 28.2986 140.191 25.1364C162.707 35.05 170.191 56.2295 174.426 67.2258Z" fill="#38BFF9"/>
<path d="M196.908 179.922L228.554 166.847C220.339 178.181 202.201 195.527 190.569 201.521L196.908 179.922Z" fill="#0E96DF"/>
<path d="M202.031 168.129V217.555L144.638 217.555L189.322 205.582L202.031 168.129Z" fill="#C2B035"/>
<path d="M173.333 217.816L130.529 242.529L101.832 192.825L134.543 225.537L173.333 217.816Z" fill="#B54D65"/>
<g filter="url(#filter6_f_4671_2374)">
<path d="M187.725 138.932C191.96 142.616 194.774 142.388 197.622 142.253L204.852 139.602L210.221 134.398" stroke="black" stroke-width="2.01869"/>
</g>
<path d="M194.136 141.346C202.204 141.346 208.744 136.178 208.744 129.803C208.744 123.427 202.204 118.259 194.136 118.259C186.068 118.259 179.527 123.427 179.527 129.803C179.527 136.178 186.068 141.346 194.136 141.346Z" fill="#38BFF9"/>
<g filter="url(#filter7_f_4671_2374)">
<path d="M192.312 133.958C195.405 133.958 197.912 131.943 197.912 129.457C197.912 126.971 195.405 124.956 192.312 124.956C189.22 124.956 186.713 126.971 186.713 129.457C186.713 131.943 189.22 133.958 192.312 133.958Z" fill="white"/>
</g>
<g filter="url(#filter8_f_4671_2374)">
<path d="M183.067 122.733C187.933 114.986 191.597 96.3272 184.366 87.6194" stroke="white" stroke-width="2.54033"/>
</g>
<path d="M115.954 217.806L73.1493 193.093L101.846 143.39L89.8726 188.074L115.954 217.806Z" fill="#A839C7"/>
<path d="M121.686 140.646H114.306V137.118H123.652V133.554H112.884C111.412 133.554 110.293 133.845 109.527 134.427C108.761 135.009 108.378 135.894 108.378 137.082V149.592C108.378 150.78 108.761 151.664 109.527 152.246C110.293 152.828 111.412 153.119 112.884 153.119H123.652V149.555H114.306V144.246H121.686V140.646Z" fill="#FFFEFA"/>
<path d="M136.78 137.118H126.375V133.554H138.201C139.673 133.554 140.792 133.845 141.559 134.427C142.325 135.009 142.708 135.894 142.708 137.082V149.592C142.708 150.78 142.325 151.664 141.559 152.246C140.792 152.828 139.673 153.119 138.201 153.119H126.375V138.9H132.303V149.555H136.78V137.118Z" fill="#FFFEFA"/>
<path d="M155.835 149.555H151.359V137.118H161.764V133.554H149.937C148.465 133.554 147.346 133.845 146.58 134.427C145.813 135.009 145.43 135.894 145.43 137.082V149.592C145.43 150.78 145.813 151.664 146.58 152.246C147.346 152.828 148.465 153.119 149.937 153.119H157.257C158.729 153.119 159.848 152.828 160.614 152.246C161.381 151.664 161.764 150.78 161.764 149.592V140.646H155.835V149.555Z" fill="#FFFEFA"/>
<path d="M177.795 140.646H170.414V137.118H179.761V133.554H168.993C167.521 133.554 166.402 133.845 165.635 134.427C164.869 135.009 164.486 135.894 164.486 137.082V149.592C164.486 150.78 164.869 151.664 165.635 152.246C166.402 152.828 167.521 153.119 168.993 153.119H179.761V149.555H170.414V144.246H177.795V140.646Z" fill="#FFFEFA"/>
<path d="M217.245 95.5205C217.245 95.5205 217.264 91.378 217.9 89.442C218.313 88.185 218.771 86.7035 219.9 86.0128C220.571 85.6019 221.486 85.7238 222.257 85.8817C223.119 86.0579 223.972 86.4586 224.621 87.0503C225.152 87.5334 225.552 88.042 225.751 88.8823C225.826 89.7007 225.748 90.8991 225.403 91.8248C225.059 92.7503 224.455 93.5929 223.745 94.2791C223.127 94.8764 222.39 95.4236 221.56 95.6488C220.17 96.026 217.241 95.5196 217.241 95.5196L217.245 95.5205Z" fill="black"/>
<path d="M210.729 152.502L207.809 156.715L204.167 157.208L203.124 157.545C201.317 157.182 200.17 156.58 199.462 157.366L198.169 159.995C199.837 161.423 202.075 161.148 203.745 161.149L207.258 161.632C212.524 158.84 212.511 158.395 214.385 155.848C213.493 157.232 213.942 157.23 211.651 159.336L207.167 162.153L203.193 161.551L198.695 161.234C196.437 161.422 197.354 162.524 196.728 163.728L201.601 165.737L208.827 166.333L215.685 161.664L215.058 162.438L212.809 163.932L208.842 166.675L201.104 166.148C199.74 166.754 200.001 167.856 200.915 169.505L203.012 169.817L202.284 170.285C202.047 171.295 202.28 172.845 204.439 172.394L207.206 169.908L209.967 170.053L213.924 166.68L216.1 161.283L218.283 159.677C219.271 157.945 219.14 156.156 217.85 153.794C217.87 152.404 218.049 151.552 217.24 150.104C215.549 147.95 215.079 148.055 213.332 148.085C211.666 151.067 211.324 151.611 210.729 152.502Z" fill="white"/>
<g filter="url(#filter9_f_4671_2374)">
<path d="M199.095 161.954C200.865 160.99 198.425 159.054 200.079 157.68C201.732 156.306 206.227 157.371 207.316 156.714C208.406 156.057 209.963 154.068 209.963 154.068C211.556 152.907 210.66 154.178 211.988 151.447" stroke="black" stroke-width="0.69088"/>
</g>
<g filter="url(#filter10_f_4671_2374)">
<path d="M197.415 163.745C197.23 159.691 200.773 161.724 202.293 161.906C203.092 162.002 207.873 161.358 207.931 162.308C207.984 163.197 211.315 160.21 211.541 159.556L213.76 156.283" stroke="black" stroke-width="0.69088"/>
</g>
<path d="M196.731 159.051C194.515 157.75 193.111 156.18 193.595 155.543C194.08 154.906 195.841 157.2 198.38 157.594C202.006 158.157 202.104 159.615 201.619 160.252C201.135 160.889 198.946 160.352 196.731 159.051Z" fill="#5E5E5E"/>
<path d="M197.118 164.858C194.949 164.081 193.941 162.888 193.255 161.268C192.949 160.547 195.719 162.322 197.981 162.762C200.744 163.298 201.858 164.219 201.569 164.947C201.28 165.676 199.287 165.636 197.118 164.858Z" fill="#5E5E5E"/>
<path d="M199.725 168.703C198.791 168.377 197.245 167.83 196.49 167.263C195.867 166.796 195.581 165.848 195.685 165.615C195.916 165.099 197.597 166.692 199.398 166.815C201.917 166.987 202.488 167.547 202.258 168.063C202.027 168.579 202.063 169.519 199.725 168.703Z" fill="#5E5E5E"/>
<path d="M202.86 172.877C202.358 173.183 201.906 173.237 200.639 173.515C200.404 173.566 199.839 172.733 200.433 172.551C202.165 172.022 202.83 171.082 203.457 170.704C203.908 170.432 204.708 170.026 204.817 170.573C204.926 171.12 204.272 172.018 202.86 172.877Z" fill="#5E5E5E"/>
<g filter="url(#filter11_f_4671_2374)">
<path d="M200.647 166.248C201.823 166.426 206.019 166.858 207.539 167.04C208.717 167.11 207.115 168.233 211.954 164.559" stroke="black" stroke-width="0.69088"/>
</g>
<path d="M176.419 217.78L168.739 219.068L165.921 216.708L164.969 216.165C164.02 214.584 163.692 213.331 162.635 213.338L159.82 214.153C159.889 216.348 161.6 217.816 162.725 219.052L164.734 221.973C169.556 224.218 170.695 223.991 174.441 224.882L168.132 223.69L164.288 222.256L162.055 218.915L159.259 215.377C157.599 213.835 157.402 215.255 156.091 215.604L157.889 220.558L162.317 226.299L170.387 228.222L169.393 228.28L166.774 227.625L162.074 226.541L157.25 220.468C155.884 219.868 155.246 220.803 154.642 222.59L155.825 224.35L154.988 224.127C154.083 224.633 153.094 225.849 154.882 227.141L158.583 227.51L160.336 229.648L165.495 230.3L170.949 228.272L173.606 228.804C175.552 228.367 176.505 228.676 177.381 226.131C178.421 225.21 179.442 226.209 181.069 223.102C182.874 220.416 183.412 219.373 183.715 217.565C181.71 217.66 177.711 217.364 176.419 217.78Z" fill="white"/>
<g filter="url(#filter12_f_4671_2374)">
<path d="M158.996 216.157C160.902 216.816 160.688 213.709 162.817 214.005C164.947 214.302 166.888 218.815 168.108 219.177C169.328 219.54 172.371 218.291 172.371 218.291C174.302 218.687 173.938 218.06 178.189 217.608" stroke="black" stroke-width="0.69088"/>
</g>
<g filter="url(#filter13_f_4671_2374)">
<path d="M156.541 216.123C159.413 213.255 160.297 217.243 161.187 218.489C161.654 219.144 165.351 222.243 164.688 222.925C164.066 223.564 168.518 224.014 169.154 223.74L173.972 224.628" stroke="black" stroke-width="0.69088"/>
</g>
<path d="M159.549 212.455C159.017 209.941 159.232 207.845 160.029 207.774C160.826 207.703 160.318 210.55 161.737 212.692C163.764 215.751 162.752 216.805 161.955 216.877C161.158 216.948 160.081 214.968 159.549 212.455Z" fill="#5E5E5E"/>
<path d="M155.518 216.653C154.632 214.526 154.834 212.979 155.568 211.38C155.896 210.667 156.45 213.911 157.649 215.878C159.114 218.282 159.185 219.725 158.451 220.002C157.718 220.279 156.405 218.78 155.518 216.653Z" fill="#5E5E5E"/>
<path d="M154.433 221.17C154.045 220.26 153.408 218.749 153.318 217.809C153.243 217.034 153.751 216.185 153.994 216.104C154.531 215.927 154.486 218.243 155.609 219.657C157.178 221.633 157.15 222.433 156.613 222.611C156.076 222.788 155.406 223.447 154.433 221.17Z" fill="#5E5E5E"/>
<path d="M153.461 226.299C152.897 226.134 152.552 225.837 151.494 225.087C151.297 224.948 151.533 223.97 152.067 224.286C153.625 225.209 154.767 225.067 155.469 225.276C155.974 225.426 156.813 225.744 156.482 226.193C156.151 226.642 155.047 226.763 153.461 226.299Z" fill="#5E5E5E"/>
<g filter="url(#filter14_f_4671_2374)">
<path d="M156.869 220.197C157.53 221.186 160.037 224.578 160.926 225.824C161.668 226.742 159.76 226.314 165.735 227.415" stroke="black" stroke-width="0.69088"/>
</g>
<path d="M84.7007 173.056C83.7782 174.584 82.387 177.433 81.0694 179.361L83.6803 183.773L87.2496 184.65L88.251 185.096C90.0862 184.927 91.291 184.45 91.9109 185.307L92.9174 188.058C91.107 189.301 88.9114 188.79 87.2498 188.613L83.7056 188.72C79.044 186.159 78.5529 185.107 75.6195 182.613L80.3118 186.996L83.7413 189.248L87.756 189.072L92.2623 189.235C94.4874 189.662 93.4591 190.66 93.9533 191.924L88.8945 193.404L81.6465 193.228L75.3236 187.857L75.8644 188.693L77.9414 190.418L81.5951 193.567L89.3447 193.865C90.6372 194.612 90.2599 195.68 89.1765 197.223L87.0572 197.31L87.7317 197.854C87.8597 198.882 87.4636 200.399 85.3644 199.721L82.8782 196.955L80.1173 196.806L76.541 193.031L74.9508 187.434L72.9508 185.605C72.1522 183.778 71.3396 183.193 72.8738 180.981C73.0016 179.597 71.5916 179.365 73.1359 176.215C76.7685 172.747 85.0985 169.792 87.0594 168.981C86.7997 169.577 85.3541 171.943 84.7007 173.056Z" fill="white"/>
<g filter="url(#filter15_f_4671_2374)">
<path d="M91.7888 189.908C90.1307 188.761 92.7626 187.096 91.2645 185.554C89.7664 184.012 84.9788 185.116 83.965 184.347C82.9512 183.577 81.8202 180.912 81.8202 180.912C80.3593 179.588 77.2133 177.881 81.0008 174.267" stroke="black" stroke-width="0.69088"/>
</g>
<g filter="url(#filter16_f_4671_2374)">
<path d="M93.2681 191.868C93.8827 187.856 90.1441 189.501 88.6132 189.52C87.8085 189.531 83.1229 188.382 82.9652 189.321C82.8175 190.199 79.8224 186.875 79.6674 186.201L76.1021 182.841" stroke="black" stroke-width="0.69088"/>
</g>
<path d="M94.4476 187.273C96.789 186.215 98.3517 184.802 97.9379 184.118C97.5242 183.433 95.5289 185.527 92.9625 185.649C89.2972 185.823 89.0451 187.263 89.4588 187.948C89.8726 188.633 92.1062 188.33 94.4476 187.273Z" fill="#5E5E5E"/>
<path d="M93.4455 193.006C95.6849 192.464 96.8133 191.385 97.6685 189.847C98.0494 189.162 95.1061 190.634 92.8103 190.83C90.0056 191.07 88.8 191.867 89.0102 192.622C89.2205 193.377 91.2061 193.549 93.4455 193.006Z" fill="#5E5E5E"/>
<path d="M90.4442 196.552C91.4076 196.327 93.0032 195.947 93.8144 195.464C94.4835 195.066 94.8682 194.154 94.7894 193.911C94.615 193.373 92.7739 194.778 90.9698 194.71C88.4474 194.612 87.8196 195.109 87.9938 195.646C88.1681 196.184 88.033 197.115 90.4442 196.552Z" fill="#5E5E5E"/>
<path d="M86.8835 200.369C87.3506 200.727 87.7939 200.829 89.024 201.239C89.2528 201.316 89.9025 200.547 89.3316 200.303C87.6661 199.592 87.1046 198.588 86.5212 198.145C86.1019 197.826 85.349 197.338 85.1827 197.87C85.0165 198.402 85.5715 199.365 86.8835 200.369Z" fill="#5E5E5E"/>
<g filter="url(#filter17_f_4671_2374)">
<path d="M89.7889 194.013C88.6005 194.065 84.3826 194.049 82.8517 194.068C81.6733 194.013 83.1461 195.299 78.7251 191.132" stroke="black" stroke-width="0.69088"/>
</g>
<path d="M147.724 31.7914C147.855 31.5821 152.33 29.4846 152.413 29.6959C152.848 29.5302 153.262 29.9466 153.304 30.2374L154.854 36.2633L147.724 31.7914Z" fill="white"/>
<g filter="url(#filter18_f_4671_2374)">
<path d="M206.458 125.925L207.832 128.197L208.313 130.055L208.374 133.067L207.397 136.3L204.865 138.921L202.175 140.606L198.403 142.097L195.658 142.524" stroke="black" stroke-width="0.945328"/>
</g>
</g>
</g>
<defs>
<filter id="filter0_f_4671_2374" x="5.84788" y="6.84788" width="260.304" height="245.169" filterUnits="userSpaceOnUse" color-interpolation-filters="sRGB">
<feFlood flood-opacity="0" result="BackgroundImageFix"/>
<feBlend mode="normal" in="SourceGraphic" in2="BackgroundImageFix" result="shape"/>
<feGaussianBlur stdDeviation="0.0760591" result="effect1_foregroundBlur_4671_2374"/>
</filter>
<filter id="filter1_f_4671_2374" x="-8.8052" y="-7.8052" width="289.61" height="274.475" filterUnits="userSpaceOnUse" color-interpolation-filters="sRGB">
<feFlood flood-opacity="0" result="BackgroundImageFix"/>
<feBlend mode="normal" in="SourceGraphic" in2="BackgroundImageFix" result="shape"/>
<feGaussianBlur stdDeviation="7.4026" result="effect1_foregroundBlur_4671_2374"/>
</filter>
<filter id="filter2_f_4671_2374" x="98.4128" y="113.21" width="22.2214" height="19.1904" filterUnits="userSpaceOnUse" color-interpolation-filters="sRGB">
<feFlood flood-opacity="0" result="BackgroundImageFix"/>
<feBlend mode="normal" in="SourceGraphic" in2="BackgroundImageFix" result="shape"/>
<feGaussianBlur stdDeviation="1.13562" result="effect1_foregroundBlur_4671_2374"/>
</filter>
<filter id="filter3_f_4671_2374" x="96.3725" y="109.817" width="14.951" height="24.5367" filterUnits="userSpaceOnUse" color-interpolation-filters="sRGB">
<feFlood flood-opacity="0" result="BackgroundImageFix"/>
<feBlend mode="normal" in="SourceGraphic" in2="BackgroundImageFix" result="shape"/>
<feGaussianBlur stdDeviation="1.21583" result="effect1_foregroundBlur_4671_2374"/>
</filter>
<filter id="filter4_f_4671_2374" x="93.3556" y="112.785" width="8.87597" height="17.3378" filterUnits="userSpaceOnUse" color-interpolation-filters="sRGB">
<feFlood flood-opacity="0" result="BackgroundImageFix"/>
<feBlend mode="normal" in="SourceGraphic" in2="BackgroundImageFix" result="shape"/>
<feGaussianBlur stdDeviation="1.21583" result="effect1_foregroundBlur_4671_2374"/>
</filter>
<filter id="filter5_f_4671_2374" x="195.268" y="86.4134" width="22.9738" height="51.1307" filterUnits="userSpaceOnUse" color-interpolation-filters="sRGB">
<feFlood flood-opacity="0" result="BackgroundImageFix"/>
<feBlend mode="normal" in="SourceGraphic" in2="BackgroundImageFix" result="shape"/>
<feGaussianBlur stdDeviation="3.47811" result="effect1_foregroundBlur_4671_2374"/>
</filter>
<filter id="filter6_f_4671_2374" x="182.232" y="128.843" width="33.5205" height="19.3094" filterUnits="userSpaceOnUse" color-interpolation-filters="sRGB">
<feFlood flood-opacity="0" result="BackgroundImageFix"/>
<feBlend mode="normal" in="SourceGraphic" in2="BackgroundImageFix" result="shape"/>
<feGaussianBlur stdDeviation="2.41487" result="effect1_foregroundBlur_4671_2374"/>
</filter>
<filter id="filter7_f_4671_2374" x="182.202" y="120.446" width="20.2196" height="18.0217" filterUnits="userSpaceOnUse" color-interpolation-filters="sRGB">
<feFlood flood-opacity="0" result="BackgroundImageFix"/>
<feBlend mode="normal" in="SourceGraphic" in2="BackgroundImageFix" result="shape"/>
<feGaussianBlur stdDeviation="2.25514" result="effect1_foregroundBlur_4671_2374"/>
</filter>
<filter id="filter8_f_4671_2374" x="175.521" y="80.3374" width="20.6543" height="49.5418" filterUnits="userSpaceOnUse" color-interpolation-filters="sRGB">
<feFlood flood-opacity="0" result="BackgroundImageFix"/>
<feBlend mode="normal" in="SourceGraphic" in2="BackgroundImageFix" result="shape"/>
<feGaussianBlur stdDeviation="3.23531" result="effect1_foregroundBlur_4671_2374"/>
</filter>
<filter id="filter9_f_4671_2374" x="196.864" y="149.23" width="17.4999" height="15.092" filterUnits="userSpaceOnUse" color-interpolation-filters="sRGB">
<feFlood flood-opacity="0" result="BackgroundImageFix"/>
<feBlend mode="normal" in="SourceGraphic" in2="BackgroundImageFix" result="shape"/>
<feGaussianBlur stdDeviation="1.03258" result="effect1_foregroundBlur_4671_2374"/>
</filter>
<filter id="filter10_f_4671_2374" x="194.852" y="153.878" width="21.4056" height="12.0942" filterUnits="userSpaceOnUse" color-interpolation-filters="sRGB">
<feFlood flood-opacity="0" result="BackgroundImageFix"/>
<feBlend mode="normal" in="SourceGraphic" in2="BackgroundImageFix" result="shape"/>
<feGaussianBlur stdDeviation="1.10551" result="effect1_foregroundBlur_4671_2374"/>
</filter>
<filter id="filter11_f_4671_2374" x="198.384" y="162.073" width="15.9899" height="7.73889" filterUnits="userSpaceOnUse" color-interpolation-filters="sRGB">
<feFlood flood-opacity="0" result="BackgroundImageFix"/>
<feBlend mode="normal" in="SourceGraphic" in2="BackgroundImageFix" result="shape"/>
<feGaussianBlur stdDeviation="1.10551" result="effect1_foregroundBlur_4671_2374"/>
</filter>
<filter id="filter12_f_4671_2374" x="156.818" y="211.575" width="23.4728" height="10.0796" filterUnits="userSpaceOnUse" color-interpolation-filters="sRGB">
<feFlood flood-opacity="0" result="BackgroundImageFix"/>
<feBlend mode="normal" in="SourceGraphic" in2="BackgroundImageFix" result="shape"/>
<feGaussianBlur stdDeviation="1.03258" result="effect1_foregroundBlur_4671_2374"/>
</filter>
<filter id="filter13_f_4671_2374" x="154.086" y="212.551" width="22.1597" height="14.6275" filterUnits="userSpaceOnUse" color-interpolation-filters="sRGB">
<feFlood flood-opacity="0" result="BackgroundImageFix"/>
<feBlend mode="normal" in="SourceGraphic" in2="BackgroundImageFix" result="shape"/>
<feGaussianBlur stdDeviation="1.10551" result="effect1_foregroundBlur_4671_2374"/>
</filter>
<filter id="filter14_f_4671_2374" x="154.37" y="217.794" width="13.6379" height="12.1719" filterUnits="userSpaceOnUse" color-interpolation-filters="sRGB">
<feFlood flood-opacity="0" result="BackgroundImageFix"/>
<feBlend mode="normal" in="SourceGraphic" in2="BackgroundImageFix" result="shape"/>
<feGaussianBlur stdDeviation="1.10551" result="effect1_foregroundBlur_4671_2374"/>
</filter>
<filter id="filter15_f_4671_2374" x="76.7918" y="171.952" width="17.3646" height="20.305" filterUnits="userSpaceOnUse" color-interpolation-filters="sRGB">
<feFlood flood-opacity="0" result="BackgroundImageFix"/>
<feBlend mode="normal" in="SourceGraphic" in2="BackgroundImageFix" result="shape"/>
<feGaussianBlur stdDeviation="1.03258" result="effect1_foregroundBlur_4671_2374"/>
</filter>
<filter id="filter16_f_4671_2374" x="73.6541" y="180.378" width="22.2379" height="13.753" filterUnits="userSpaceOnUse" color-interpolation-filters="sRGB">
<feFlood flood-opacity="0" result="BackgroundImageFix"/>
<feBlend mode="normal" in="SourceGraphic" in2="BackgroundImageFix" result="shape"/>
<feGaussianBlur stdDeviation="1.10551" result="effect1_foregroundBlur_4671_2374"/>
</filter>
<filter id="filter17_f_4671_2374" x="76.2772" y="188.669" width="15.7378" height="8.10037" filterUnits="userSpaceOnUse" color-interpolation-filters="sRGB">
<feFlood flood-opacity="0" result="BackgroundImageFix"/>
<feBlend mode="normal" in="SourceGraphic" in2="BackgroundImageFix" result="shape"/>
<feGaussianBlur stdDeviation="1.10551" result="effect1_foregroundBlur_4671_2374"/>
</filter>
<filter id="filter18_f_4671_2374" x="190.934" y="121.03" width="22.5644" height="26.6122" filterUnits="userSpaceOnUse" color-interpolation-filters="sRGB">
<feFlood flood-opacity="0" result="BackgroundImageFix"/>
<feBlend mode="normal" in="SourceGraphic" in2="BackgroundImageFix" result="shape"/>
<feGaussianBlur stdDeviation="2.32539" result="effect1_foregroundBlur_4671_2374"/>
</filter>
<clipPath id="clip0_4671_2374">
<rect width="271" height="258" fill="white"/>
</clipPath>
</defs>
</svg>
