<svg width="90" height="90" viewBox="0 0 90 90" fill="none" xmlns="http://www.w3.org/2000/svg">
<g clip-path="url(#clip0_4671_2781)">
<path d="M82.4964 2H7.50365C4.46407 2 2 4.46407 2 7.50365V82.4964C2 85.5359 4.46407 88 7.50365 88H82.4964C85.5359 88 88 85.5359 88 82.4964V7.50365C88 4.46407 85.5359 2 82.4964 2Z" stroke="black" stroke-width="2.5"/>
<path d="M7.5542 45H82.4459" stroke="black" stroke-width="1.50284"/>
<path d="M45 81.4458V6.55414" stroke="black" stroke-width="1.50284"/>
<path d="M44.9999 78.6995C63.6117 78.6995 78.6995 63.6117 78.6995 45C78.6995 26.3882 63.6117 11.3005 44.9999 11.3005C26.3882 11.3005 11.3004 26.3882 11.3004 45C11.3004 63.6117 26.3882 78.6995 44.9999 78.6995Z" stroke="#E5201E" stroke-width="10"/>
<path d="M44.8733 81.7401V76.1657" stroke="white" stroke-width="1.50284" stroke-linecap="round"/>
<path d="M44.8733 81.7401V76.1657" stroke="white" stroke-width="1.50284" stroke-linecap="round"/>
<path d="M38.4954 81.16L39.4634 75.6703" stroke="white" stroke-width="1.50284" stroke-linecap="round"/>
<path d="M32.3151 79.4811L34.2217 74.2429" stroke="white" stroke-width="1.50284" stroke-linecap="round"/>
<path d="M26.5202 76.7545L29.3074 71.9269" stroke="white" stroke-width="1.50284" stroke-linecap="round"/>
<path d="M21.2869 73.0631L24.87 68.7929" stroke="white" stroke-width="1.50284" stroke-linecap="round"/>
<path d="M16.774 68.519L21.0442 64.9359" stroke="white" stroke-width="1.50284" stroke-linecap="round"/>
<path d="M13.1188 63.2603L17.9463 60.4731" stroke="white" stroke-width="1.50284" stroke-linecap="round"/>
<path d="M10.4322 57.4468L15.6704 55.5403" stroke="white" stroke-width="1.50284" stroke-linecap="round"/>
<path d="M8.7961 51.2551L14.2858 50.2871" stroke="white" stroke-width="1.50284" stroke-linecap="round"/>
<path d="M8.25988 44.8733H13.8342" stroke="white" stroke-width="1.50284" stroke-linecap="round"/>
<path d="M8.84005 38.4954L14.3297 39.4633" stroke="white" stroke-width="1.50284" stroke-linecap="round"/>
<path d="M10.5189 32.3152L15.7571 34.2217" stroke="white" stroke-width="1.50284" stroke-linecap="round"/>
<path d="M13.2455 26.5202L18.073 29.3074" stroke="white" stroke-width="1.50284" stroke-linecap="round"/>
<path d="M16.9368 21.2869L21.207 24.87" stroke="white" stroke-width="1.50284" stroke-linecap="round"/>
<path d="M21.481 16.774L25.0641 21.0442" stroke="white" stroke-width="1.50284" stroke-linecap="round"/>
<path d="M26.7397 13.1188L29.5269 17.9464" stroke="white" stroke-width="1.50284" stroke-linecap="round"/>
<path d="M32.5532 10.4323L34.4597 15.6705" stroke="white" stroke-width="1.50284" stroke-linecap="round"/>
<path d="M38.7449 8.79612L39.7129 14.2858" stroke="white" stroke-width="1.50284" stroke-linecap="round"/>
<path d="M45.1267 8.25996V13.8343" stroke="white" stroke-width="1.50284" stroke-linecap="round"/>
<path d="M51.5046 8.84005L50.5366 14.3297" stroke="white" stroke-width="1.50284" stroke-linecap="round"/>
<path d="M57.6849 10.5189L55.7783 15.7571" stroke="white" stroke-width="1.50284" stroke-linecap="round"/>
<path d="M63.4798 13.2455L60.6926 18.0731" stroke="white" stroke-width="1.50284" stroke-linecap="round"/>
<path d="M68.7131 16.9369L65.13 21.2071" stroke="white" stroke-width="1.50284" stroke-linecap="round"/>
<path d="M73.226 21.481L68.9558 25.0641" stroke="white" stroke-width="1.50284" stroke-linecap="round"/>
<path d="M76.8812 26.7397L72.0537 29.5269" stroke="white" stroke-width="1.50284" stroke-linecap="round"/>
<path d="M79.5678 32.5532L74.3296 34.4597" stroke="white" stroke-width="1.50284" stroke-linecap="round"/>
<path d="M81.2039 38.7449L75.7142 39.7129" stroke="white" stroke-width="1.50284" stroke-linecap="round"/>
<path d="M81.7401 45.1267H76.1658" stroke="white" stroke-width="1.50284" stroke-linecap="round"/>
<path d="M81.16 51.5046L75.6703 50.5366" stroke="white" stroke-width="1.50284" stroke-linecap="round"/>
<path d="M79.4811 57.6848L74.2429 55.7783" stroke="white" stroke-width="1.50284" stroke-linecap="round"/>
<path d="M76.7545 63.4798L71.927 60.6926" stroke="white" stroke-width="1.50284" stroke-linecap="round"/>
<path d="M73.0632 68.7131L68.793 65.1299" stroke="white" stroke-width="1.50284" stroke-linecap="round"/>
<path d="M68.519 73.226L64.9359 68.9558" stroke="white" stroke-width="1.50284" stroke-linecap="round"/>
<path d="M63.2603 76.8812L60.4731 72.0536" stroke="white" stroke-width="1.50284" stroke-linecap="round"/>
<path d="M57.4468 79.5677L55.5403 74.3295" stroke="white" stroke-width="1.50284" stroke-linecap="round"/>
<path d="M51.2551 81.2039L50.2871 75.7142" stroke="white" stroke-width="1.50284" stroke-linecap="round"/>
</g>
<defs>
<clipPath id="clip0_4671_2781">
<rect width="90" height="90" fill="white"/>
</clipPath>
</defs>
</svg>
