<svg width="52" height="54" viewBox="0 0 52 54" fill="none" xmlns="http://www.w3.org/2000/svg">
<g clip-path="url(#clip0_4671_2331)">
<g clip-path="url(#clip1_4671_2331)">
<path d="M8.53793 39.2781C3.11181 50.3021 20.7061 59.3528 29.7709 39.6972C38.8357 20.0415 42.3226 38.6687 50.9845 38.3491" stroke="#797979" stroke-width="5.09254"/>
<path d="M10.2985 8.51717L15.6106 10.3022L20.9228 12.0872L26.2349 13.8723L31.547 15.6573L28.5134 24.4765L24.8176 34.5488C22.7769 40.1103 13.334 43.3606 11.0399 38.5981L10.3492 37.1641C8.05512 32.4016 2.69952 30.2052 4.43254 25.3371L7.69853 9.15101L10.2985 8.51717Z" fill="#3B3636"/>
<path d="M17.448 0.940102L30.1735 5.34125L26.0431 17.2837L10.748 11.9936L14.3725 1.35579L17.448 0.940102Z" fill="#636363"/>
<path d="M27.4407 6.58801L14.7152 2.18677L10.5848 14.1292L23.3103 18.5304L27.4407 6.58801Z" fill="#B9B9B9"/>
<path d="M8.00027 10.3431L28.4509 17.4161L25.5312 26.153L22.7917 34.0739C21.1237 38.8964 15.8983 41.4361 11.0756 39.7682L8.04906 38.7214C3.22634 37.0535 0.68664 31.828 2.35459 27.0055L5.09413 19.0846L8.00027 10.3431Z" fill="white" stroke="#3B3636" stroke-width="2.10932" stroke-linecap="round"/>
<path d="M24.454 15.2709L26.8992 14.6431L30.5077 15.8613L28.8241 16.7519L24.454 15.2709Z" fill="#3F3F3F"/>
<path d="M7.82278 9.58113L28.2734 16.6542L25.3537 25.3911L22.6142 33.312C20.9462 38.1345 15.7208 40.6742 10.8981 39.0063L7.87157 37.9595C3.04886 36.2916 0.509144 31.0661 2.17711 26.2436L4.91663 18.3226L7.82278 9.58113Z" fill="url(#paint0_linear_4671_2331)"/>
<path d="M13.3079 36.6432C17.7116 36.6432 21.2815 33.0733 21.2815 28.6695C21.2815 24.2658 17.7116 20.6959 13.3079 20.6959C8.90415 20.6959 5.33423 24.2658 5.33423 28.6695C5.33423 33.0733 8.90415 36.6432 13.3079 36.6432Z" fill="#5EE029"/>
<path d="M13.2586 35.8472L26.3146 21.0406L13.2597 31.2385L9.16001 27.8308L7.8407 29.0446L13.2586 35.8472Z" fill="#FDFEFF"/>
<path d="M12.6976 10.0273L15.0571 3.13753L26.0052 6.91275C21.6156 6.35434 13.8622 4.50147 12.6976 10.0273Z" fill="#E9E9E9"/>
<g filter="url(#filter0_f_4671_2331)">
<path d="M24.7567 15.1399L27.6932 6.99804L29.5618 5.93025L26.7922 14.5393L24.7567 15.1399Z" fill="#3C3C3C"/>
</g>
<path d="M17.6135 1.65845L16.5648 1.87491L27.665 5.81122" stroke="black" stroke-width="0.896168"/>
</g>
</g>
<defs>
<filter id="filter0_f_4671_2331" x="24.2312" y="5.4047" width="5.85616" height="10.2608" filterUnits="userSpaceOnUse" color-interpolation-filters="sRGB">
<feFlood flood-opacity="0" result="BackgroundImageFix"/>
<feBlend mode="normal" in="SourceGraphic" in2="BackgroundImageFix" result="shape"/>
<feGaussianBlur stdDeviation="0.262776" result="effect1_foregroundBlur_4671_2331"/>
</filter>
<linearGradient id="paint0_linear_4671_2331" x1="21.5068" y1="37.0989" x2="14.1977" y2="20.649" gradientUnits="userSpaceOnUse">
<stop stop-color="#D4D4D4"/>
<stop offset="1" stop-color="#D4D4D4" stop-opacity="0"/>
</linearGradient>
<clipPath id="clip0_4671_2331">
<rect width="52" height="54" fill="white"/>
</clipPath>
<clipPath id="clip1_4671_2331">
<rect width="52" height="54" fill="white"/>
</clipPath>
</defs>
</svg>
