<svg width="111" height="60" viewBox="0 0 111 60" fill="none" xmlns="http://www.w3.org/2000/svg">
<g clip-path="url(#clip0_4671_2302)">
<path d="M93.4993 30.2855C92.8036 32.8407 91.5679 44.6944 83.6897 41.5614C75.8115 38.4285 72.4871 40.7789 70.9182 46.6206C69.3493 52.4623 59.4197 48.0971 54.6959 49.2707" stroke="#797979" stroke-width="5.06317"/>
<path d="M94.3993 8.66957L98.2171 10.0088L102.035 11.3482L105.853 12.6874L109.67 14.0267L107.49 20.6438L105.445 26.643C104.199 30.2956 100.297 32.2193 96.6957 30.9558L94.4357 30.1632C90.8344 28.8997 88.938 24.9421 90.1835 21.2895L92.5307 9.14509L94.3993 8.66957Z" fill="#3B3636"/>
<path d="M99.9175 2.71622L109.42 6.04961L106.336 15.0947L94.9144 11.0881L97.6209 3.03105L99.9175 2.71622Z" fill="#636363"/>
<path d="M107.379 6.99425L97.8768 3.6608L94.7925 12.7058L104.295 16.0392L107.379 6.99425Z" fill="#B9B9B9"/>
<path d="M92.8626 9.83816L108.134 15.1952L105.954 21.8124L103.908 27.8116C102.662 31.4641 98.7603 33.3877 95.1591 32.1244L92.899 31.3315C89.2978 30.0683 87.4013 26.1105 88.6468 22.458L90.6925 16.4588L92.8626 9.83816Z" fill="white" stroke="#3B3636" stroke-width="1.57983" stroke-linecap="round"/>
<path d="M105.149 13.5704L106.975 13.0947L109.67 14.0175L108.412 14.692L105.149 13.5704Z" fill="#3D3D3D"/>
<path d="M92.73 9.26111L108.001 14.6181L105.821 21.2353L103.775 27.2346C102.53 30.8871 98.6278 32.8107 95.0265 31.5475L92.7665 30.7546C89.1652 29.4913 87.2687 25.5336 88.5142 21.8811L90.5599 15.8819L92.73 9.26111Z" fill="url(#paint0_linear_4671_2302)"/>
<path d="M28.7473 8.04004L58.4957 14.8581C64.8725 16.3194 66.4518 24.6074 64.11 30.7983L56.8147 50.0851C54.473 56.276 47.3059 57.8611 41.0988 55.7798L10.8925 45.6507C4.68528 43.5694 2.39073 35.6595 5.27801 29.7103L13.0314 13.7344C15.9187 7.78552 22.3705 6.5785 28.7473 8.04004Z" fill="#1F374C" stroke="#121212" stroke-width="2.5353"/>
<path d="M28.3737 4.26704L58.1221 11.0851C64.4989 12.5464 66.0782 20.8343 63.7365 27.0253L56.4411 46.3121C54.0993 52.503 46.9324 54.0881 40.7252 52.0068L10.5189 41.8777C4.3117 39.7964 2.01713 31.8865 4.90441 25.9373L12.6578 9.96143C15.5451 4.01252 21.9969 2.80548 28.3737 4.26704Z" fill="#93CCFF" stroke="#121212" stroke-width="2.5353"/>
<path d="M27.6561 4.25725L57.4045 11.075C63.7813 12.5366 65.3606 20.8243 63.0189 27.0154L55.7235 46.3023C53.3817 52.4932 46.2147 54.0783 40.0076 51.997L9.80127 41.8679C3.59411 39.7863 1.29954 31.8767 4.18682 25.9275L11.9402 9.95161C14.8275 4.00243 21.2794 2.79569 27.6561 4.25725Z" fill="url(#paint1_linear_4671_2302)"/>
<path d="M15.0479 28.2112L46.4605 37.9607L42.9765 47.5209L11.2173 36.1583L15.0479 28.2112Z" fill="#61AE37" stroke="#121212" stroke-width="0.774767" stroke-linecap="round"/>
<path d="M46.9148 32.288C52.4107 34.0528 57.9497 32.0116 59.2865 27.7289C60.6233 23.4462 57.2517 18.5438 51.7558 16.779C46.2599 15.0142 40.7209 17.0554 39.3842 21.3381C38.0474 25.6208 41.419 30.5232 46.9148 32.288Z" fill="url(#paint2_radial_4671_2302)" stroke="#121212" stroke-width="0.64348" stroke-linecap="round"/>
<path d="M42.4215 12.9157L47.8093 24.2766L49.7943 23.8451L50.5032 11.4776L42.4215 12.9157Z" fill="white" stroke="black" stroke-width="1.01362"/>
<path d="M50.6033 12.0529C50.6033 14.4307 48.7288 16.3583 46.4165 16.3583C44.1042 16.3583 42.2297 14.4307 42.2297 12.0529C42.2297 9.67488 44.1042 7.74754 46.4165 7.74754C48.7288 7.74754 50.6033 9.67488 50.6033 12.0529Z" fill="white" stroke="#121212" stroke-width="1.03987" stroke-linecap="round"/>
<path d="M41.9962 12.6999L47.384 24.0609L49.369 23.6293L50.0779 11.2618L41.9962 12.6999Z" fill="url(#paint3_linear_4671_2302)"/>
<path d="M48.2754 11.8787C48.2754 13.0293 47.3685 13.9619 46.2497 13.9619C45.1309 13.9619 44.2239 13.0293 44.2239 11.8787C44.2239 10.728 45.1309 9.79585 46.2497 9.79585C47.3685 9.79585 48.2754 10.728 48.2754 11.8787Z" fill="white" stroke="#121212" stroke-width="0.503132" stroke-linecap="round"/>
<path d="M24.6675 25.7972C30.042 27.523 35.4586 25.5269 36.7658 21.3388C38.0731 17.1507 34.776 12.3566 29.4015 10.6308C24.027 8.90496 18.6104 10.9011 17.3032 15.0892C15.9959 19.2773 19.293 24.0714 24.6675 25.7972Z" fill="url(#paint4_radial_4671_2302)" stroke="#121212" stroke-width="0.629265" stroke-linecap="round"/>
<path d="M20.2734 6.85274L25.5422 17.9626L27.4834 17.5407L28.1766 5.44643L20.2734 6.85274Z" fill="white" stroke="black" stroke-width="0.991232"/>
<path d="M28.2745 6.00905C28.2745 8.33433 26.4415 10.2193 24.1802 10.2193C21.919 10.2193 20.0859 8.33433 20.0859 6.00905C20.0859 3.68356 21.919 1.7988 24.1802 1.7988C26.4415 1.7988 28.2745 3.68356 28.2745 6.00905Z" fill="white" stroke="#121212" stroke-width="1.0169" stroke-linecap="round"/>
<path d="M19.8575 6.64174L25.1263 17.7517L27.0674 17.3297L27.7607 5.23542L19.8575 6.64174Z" fill="url(#paint5_linear_4671_2302)"/>
<path d="M25.9981 5.83889C25.9981 6.96399 25.1112 7.87604 24.0171 7.87604C22.923 7.87604 22.0361 6.96399 22.0361 5.83889C22.0361 4.71356 22.923 3.80201 24.0171 3.80201C25.1112 3.80201 25.9981 4.71356 25.9981 5.83889Z" fill="white" stroke="#121212" stroke-width="0.492018" stroke-linecap="round"/>
<path d="M16.7783 29.0854L46.1373 38.1976L42.8811 47.1325L13.1983 36.5131L16.7783 29.0854Z" fill="url(#paint6_linear_4671_2302)"/>
</g>
<defs>
<linearGradient id="paint0_linear_4671_2302" x1="102.948" y1="30.1029" x2="97.3599" y2="17.7027" gradientUnits="userSpaceOnUse">
<stop stop-color="#D4D4D4"/>
<stop offset="1" stop-color="#D4D4D4" stop-opacity="0"/>
</linearGradient>
<linearGradient id="paint1_linear_4671_2302" x1="46.9045" y1="46.1105" x2="17.8925" y2="9.98334" gradientUnits="userSpaceOnUse">
<stop stop-color="#164876"/>
<stop offset="1" stop-color="#164876" stop-opacity="0"/>
</linearGradient>
<radialGradient id="paint2_radial_4671_2302" cx="0" cy="0" r="1" gradientTransform="matrix(-15.4207 -9.00555 8.31621 -14.6497 49.3353 24.3897)" gradientUnits="userSpaceOnUse">
<stop/>
<stop offset="1" stop-opacity="0"/>
</radialGradient>
<linearGradient id="paint3_linear_4671_2302" x1="52.63" y1="19.9627" x2="47.5135" y2="18.4211" gradientUnits="userSpaceOnUse">
<stop stop-color="#2C2CD8"/>
<stop offset="1" stop-color="#2C2CD8" stop-opacity="0"/>
</linearGradient>
<radialGradient id="paint4_radial_4671_2302" cx="0" cy="0" r="1" gradientTransform="matrix(-15.0801 -8.80661 8.1325 -14.3261 27.0345 18.0733)" gradientUnits="userSpaceOnUse">
<stop/>
<stop offset="1" stop-opacity="0"/>
</radialGradient>
<linearGradient id="paint5_linear_4671_2302" x1="30.2564" y1="13.7441" x2="25.253" y2="12.2365" gradientUnits="userSpaceOnUse">
<stop stop-color="#2C2CD8"/>
<stop offset="1" stop-color="#2C2CD8" stop-opacity="0"/>
</linearGradient>
<linearGradient id="paint6_linear_4671_2302" x1="39.1743" y1="50.0525" x2="25.4381" y2="29.8575" gradientUnits="userSpaceOnUse">
<stop stop-color="#4C643F"/>
<stop offset="1" stop-color="#4C643F" stop-opacity="0"/>
</linearGradient>
<clipPath id="clip0_4671_2302">
<rect width="111" height="60" fill="white"/>
</clipPath>
</defs>
</svg>
