<svg width="30" height="30" viewBox="0 0 30 30" fill="none" xmlns="http://www.w3.org/2000/svg">
<rect width="30" height="30" fill="white"/>
<g style="mix-blend-mode:difference">
<path d="M25.7158 1C27.5284 1.00002 28.9999 2.48751 29 4.31934V25.6807C28.9999 27.5128 27.5284 29 25.7158 29H4.28418C2.47159 29 1.00013 27.5128 1 25.6807V4.31934C1.00013 2.48751 2.47159 1.00002 4.28418 1H25.7158ZM18.71 15.3389L18.0771 21.0811L19.7256 21.4795C19.9026 21.3025 20.1059 21.1487 20.335 21.0186C20.5693 20.8884 20.9028 20.8232 21.335 20.8232C21.6578 20.8233 21.9392 20.8754 22.1787 20.9795C22.4234 21.0836 22.6267 21.2322 22.7881 21.4248C22.9495 21.6174 23.0693 21.8468 23.1475 22.1123C23.2256 22.3726 23.2646 22.662 23.2646 22.9795C23.2646 23.3074 23.2307 23.6098 23.1631 23.8857C23.0954 24.1616 22.9911 24.4014 22.8506 24.6045C22.71 24.8075 22.5301 24.9665 22.3115 25.0811C22.098 25.1904 21.8427 25.2451 21.5459 25.2451C21.2178 25.2451 20.9287 25.18 20.6787 25.0498C20.434 24.9196 20.236 24.7321 20.085 24.4873C19.934 24.2426 19.8402 23.9455 19.8037 23.5967H17.7646C17.7855 24.1226 17.9002 24.5889 18.1084 24.9951C18.3219 25.4013 18.6059 25.7451 18.96 26.0264C19.3141 26.3024 19.7126 26.5133 20.1553 26.6592C20.6032 26.7998 21.0693 26.8701 21.5537 26.8701C22.1943 26.8701 22.7517 26.7711 23.2256 26.5732C23.6994 26.3701 24.0928 26.094 24.4053 25.7451C24.7176 25.391 24.9496 24.9872 25.1006 24.5342C25.2567 24.076 25.335 23.5861 25.335 23.0654C25.3349 22.4719 25.2568 21.9403 25.1006 21.4717C24.9495 20.9979 24.7229 20.5966 24.4209 20.2686C24.1241 19.9405 23.762 19.6904 23.335 19.5186C22.9079 19.3415 22.4234 19.2529 21.8818 19.2529C21.4913 19.2529 21.1396 19.3051 20.8271 19.4092C20.52 19.5081 20.2855 19.6072 20.124 19.7061L20.4209 17.0498H24.9678V15.3389H18.71Z" fill="white"/>
</g>
</svg>
