<svg width="30" height="30" viewBox="0 0 30 30" fill="none" xmlns="http://www.w3.org/2000/svg">
<rect width="30" height="30" fill="white"/>
<g style="mix-blend-mode:difference">
<path fill-rule="evenodd" clip-rule="evenodd" d="M1 14.9882V25.2025L18.6916 14.9882L1 4.77382V14.9882ZM3.82186 20.3148V9.66152L13.0479 14.9882L3.82186 20.3148ZM16.988 1V1.0434C16.8731 1.0434 16.2741 1.02599 15.5329 1.26379C14.7257 1.52212 13.7142 2.08087 12.7991 3.07156C11.7534 4.20389 10.8666 5.85313 10.2858 8.23032L10.6826 8.45096L14.1659 10.435C14.5926 7.85531 15.3252 6.54443 15.8856 5.93759C16.2964 5.49266 16.6242 5.33621 16.8115 5.27618C16.8677 5.25799 16.8461 5.23953 16.8557 5.23303H28.9475V1H16.988Z" fill="white"/>
<path d="M14.1659 19.5193L10.6826 21.5477L10.2858 21.7681C10.8671 24.1123 11.7658 25.7639 12.7991 26.883C13.7142 27.8739 14.7257 28.4324 15.5329 28.6907C15.5329 28.6907 16.2898 29 17.1203 29H29V24.767L16.988 24.6783H16.8557C16.8461 24.6783 16.8677 24.6513 16.8115 24.6349C16.6242 24.5744 16.2964 24.4626 15.8856 24.0177C15.3284 23.4143 14.5939 22.0849 14.1659 19.5204V19.5193Z" fill="white"/>
</g>
</svg>
