<svg width="30" height="30" viewBox="0 0 30 30" fill="none" xmlns="http://www.w3.org/2000/svg">
<rect width="30" height="30" fill="white"/>
<g style="mix-blend-mode:difference">
<path fill-rule="evenodd" clip-rule="evenodd" d="M29 4.32678C29 2.49072 27.5095 1 25.6735 1H4.32678C2.49072 1 1 2.49072 1 4.32678V25.6734C1 27.5095 2.49072 29 4.32678 29H25.6735C27.5095 29 29 27.5095 29 25.6734V4.32678ZM26.8258 4.32678V25.6734C26.8258 26.3093 26.3093 26.8258 25.6735 26.8258H4.32678C3.69068 26.8258 3.17449 26.3093 3.17449 25.6734V4.32678C3.17449 3.69068 3.69068 3.17449 4.32678 3.17449H25.6735C26.3093 3.17449 26.8258 3.69068 26.8258 4.32678ZM4.80277 15.3088L8.92193 19.0973L4.94675 22.4891C4.40416 22.9521 4.33935 23.7687 4.80252 24.3113C5.26545 24.8542 6.08188 24.9188 6.62473 24.4556L12.8195 19.17L6.55302 13.4062C6.02785 12.923 5.20959 12.9573 4.72669 13.4822C4.24353 14.0074 4.27786 14.8259 4.80277 15.3088ZM13.8604 24.7087H21.7162C22.4297 24.7087 23.0089 24.1295 23.0089 23.416C23.0089 22.7028 22.4297 22.1236 21.7162 22.1236H13.8604C13.1469 22.1236 12.5677 22.7028 12.5677 23.416C12.5677 24.1295 13.1469 24.7087 13.8604 24.7087Z" fill="white"/>
</g>
</svg>
