<svg width="30" height="30" viewBox="0 0 30 30" fill="none" xmlns="http://www.w3.org/2000/svg">
<rect width="30" height="30" fill="white"/>
<g style="mix-blend-mode:difference">
<path d="M25.7158 1C27.5284 1.00002 28.9999 2.48751 29 4.31934V25.6807C28.9999 27.5128 27.5284 29 25.7158 29H4.28418C2.47159 29 1.00013 27.5128 1 25.6807V4.31934C1.00013 2.48751 2.47159 1.00002 4.28418 1H25.7158ZM21.1699 15.1826C20.6024 15.1826 20.0865 15.2739 19.623 15.4561C19.1597 15.6331 18.761 15.9172 18.4277 16.3076C18.0945 16.6981 17.8366 17.2011 17.6543 17.8154C17.4772 18.4299 17.3887 19.175 17.3887 20.0498V21.9639C17.3887 22.6616 17.446 23.2791 17.5605 23.8154C17.6803 24.3518 17.8497 24.8129 18.0684 25.1982C18.2923 25.5836 18.558 25.9014 18.8652 26.1514C19.1777 26.3962 19.5293 26.5785 19.9199 26.6982C20.3105 26.8128 20.7325 26.8701 21.1855 26.8701C21.7531 26.8701 22.269 26.7789 22.7324 26.5967C23.1958 26.4092 23.5945 26.12 23.9277 25.7295C24.2609 25.3337 24.5163 24.8256 24.6934 24.2061C24.8704 23.5864 24.959 22.8386 24.959 21.9639V20.0498C24.959 19.3521 24.8991 18.7372 24.7793 18.2061C24.6647 17.6697 24.498 17.2112 24.2793 16.8311C24.0606 16.4457 23.7949 16.1331 23.4824 15.8936C23.1752 15.6488 22.8261 15.4691 22.4355 15.3545C22.0502 15.2399 21.6281 15.1826 21.1699 15.1826ZM13.3652 15.3076L8.78711 16.9561V18.6279L11.5293 17.7217V26.7139H13.5996V15.3076H13.3652ZM21.1699 16.8076C21.3886 16.8076 21.5893 16.8415 21.7715 16.9092C21.9537 16.9769 22.1153 17.0837 22.2559 17.2295C22.3964 17.3701 22.5137 17.5551 22.6074 17.7842C22.7011 18.0133 22.7715 18.2922 22.8184 18.6201C22.8704 18.9429 22.8965 19.3234 22.8965 19.7607V22.2451C22.8965 22.7866 22.8574 23.2504 22.7793 23.6357C22.7064 24.0157 22.5969 24.3259 22.4512 24.5654C22.3054 24.7997 22.1255 24.9717 21.9121 25.0811C21.7038 25.1904 21.4615 25.2451 21.1855 25.2451C20.9668 25.2451 20.7662 25.2112 20.584 25.1436C20.4017 25.0706 20.2402 24.9613 20.0996 24.8154C19.9642 24.6644 19.847 24.4716 19.748 24.2373C19.6543 24.003 19.5814 23.7216 19.5293 23.3936C19.4825 23.0655 19.459 22.6824 19.459 22.2451V19.7607C19.459 19.2193 19.4955 18.7606 19.5684 18.3857C19.6465 18.0058 19.7585 17.7008 19.9043 17.4717C20.0501 17.2427 20.23 17.0758 20.4434 16.9717C20.6568 16.8624 20.8993 16.8076 21.1699 16.8076Z" fill="white"/>
</g>
</svg>
