<svg width="24" height="16" viewBox="0 0 24 16" fill="none" xmlns="http://www.w3.org/2000/svg">
<rect width="24" height="16" fill="white"/>
<g style="mix-blend-mode:difference">
<mask id="path-1-inside-1_4671_3061" fill="white">
<path d="M9.35284 1.04383C11.8839 1.80579 13.8842 4.514 14.138 7.87308C14.4503 12.0073 12.0008 15.5639 8.664 15.816C5.32726 16.0678 2.36712 12.9206 2.05477 8.78638C1.74242 4.65209 4.1945 1.09634 7.53129 0.844259C8.1569 0.796877 8.76875 0.869607 9.35284 1.04383ZM9.20057 1.94064C8.68825 1.78665 8.15077 1.72075 7.60197 1.76246C4.67503 1.98357 2.5232 5.10431 2.79719 8.7308C3.07117 12.3573 5.66719 15.1169 8.59413 14.8957C11.521 14.6749 13.6721 11.5563 13.3981 7.92986C13.1755 4.98335 11.4207 2.60907 9.20057 1.94064Z"/>
</mask>
<path d="M9.35284 1.04383C11.8839 1.80579 13.8842 4.514 14.138 7.87308C14.4503 12.0073 12.0008 15.5639 8.664 15.816C5.32726 16.0678 2.36712 12.9206 2.05477 8.78638C1.74242 4.65209 4.1945 1.09634 7.53129 0.844259C8.1569 0.796877 8.76875 0.869607 9.35284 1.04383ZM9.20057 1.94064C8.68825 1.78665 8.15077 1.72075 7.60197 1.76246C4.67503 1.98357 2.5232 5.10431 2.79719 8.7308C3.07117 12.3573 5.66719 15.1169 8.59413 14.8957C11.521 14.6749 13.6721 11.5563 13.3981 7.92986C13.1755 4.98335 11.4207 2.60907 9.20057 1.94064Z" fill="white"/>
<path d="M9.35284 1.04383L10.4424 -2.57526L10.4332 -2.578L9.35284 1.04383ZM14.138 7.87308L10.3692 8.15778L10.3692 8.15783L14.138 7.87308ZM8.664 15.816L8.94851 19.5848L8.94873 19.5847L8.664 15.816ZM2.05477 8.78638L5.82356 8.50165L5.82356 8.50164L2.05477 8.78638ZM7.53129 0.844259L7.81601 4.61305L7.81672 4.61299L7.53129 0.844259ZM9.20057 1.94064L10.2902 -1.67842L10.2885 -1.67891L9.20057 1.94064ZM7.60197 1.76246L7.88668 5.53125L7.88837 5.53112L7.60197 1.76246ZM2.79719 8.7308L6.56598 8.44608L6.56598 8.44606L2.79719 8.7308ZM8.59413 14.8957L8.30973 11.1269L8.30939 11.1269L8.59413 14.8957ZM13.3981 7.92986L17.1669 7.64512L17.1669 7.6451L13.3981 7.92986ZM9.35284 1.04383L8.26332 4.66292C8.97004 4.87567 10.2051 5.98561 10.3692 8.15778L14.138 7.87308L17.9068 7.58838C17.5633 3.04239 14.7977 -1.26409 10.4424 -2.57525L9.35284 1.04383ZM14.138 7.87308L10.3692 8.15783C10.4647 9.42148 10.126 10.4755 9.65715 11.1559C9.19381 11.8283 8.71061 12.0221 8.37928 12.0472L8.664 15.816L8.94873 19.5847C15.0831 19.1213 18.3162 13.0071 17.9068 7.58833L14.138 7.87308ZM8.664 15.816L8.3795 12.0472C8.04728 12.0722 7.53886 11.9526 6.97868 11.3569C6.4122 10.7544 5.91892 9.76383 5.82356 8.50165L2.05477 8.78638L-1.71401 9.07111C-1.30432 14.494 2.81762 20.0476 8.94851 19.5848L8.664 15.816ZM2.05477 8.78638L5.82356 8.50164C5.72815 7.23886 6.06694 6.18541 6.53608 5.50508C6.99988 4.83249 7.48392 4.63814 7.81601 4.61305L7.53129 0.844259L7.24656 -2.92453C1.11445 -2.46126 -2.12363 3.64948 -1.71401 9.07112L2.05477 8.78638ZM7.53129 0.844259L7.81672 4.61299C7.96024 4.60212 8.10954 4.61706 8.2725 4.66567L9.35284 1.04383L10.4332 -2.578C9.42796 -2.87785 8.35357 -3.00837 7.24586 -2.92448L7.53129 0.844259ZM9.20057 1.94064L10.2885 -1.67891C9.3596 -1.95813 8.35648 -2.08531 7.31557 -2.00621L7.60197 1.76246L7.88837 5.53112C7.94506 5.52681 8.01691 5.53143 8.1126 5.5602L9.20057 1.94064ZM7.60197 1.76246L7.31726 -2.00633C1.59474 -1.57403 -1.34282 4.102 -0.971593 9.01554L2.79719 8.7308L6.56598 8.44606C6.48978 7.43752 6.76289 6.61964 7.11079 6.11508C7.45346 5.61811 7.76013 5.54081 7.88668 5.53125L7.60197 1.76246ZM2.79719 8.7308L-0.971594 9.01553C-0.600243 13.931 3.15791 19.0967 8.87888 18.6645L8.59413 14.8957L8.30939 11.1269C8.1817 11.1366 7.86686 11.1058 7.45407 10.6668C7.03489 10.2211 6.64217 9.4545 6.56598 8.44608L2.79719 8.7308ZM8.59413 14.8957L8.87853 18.6645C14.6007 18.2327 17.5382 12.5593 17.1669 7.64512L13.3981 7.92986L9.62934 8.2146C9.70555 9.2234 9.43247 10.0405 9.08515 10.5441C8.74318 11.0399 8.43697 11.1173 8.30973 11.1269L8.59413 14.8957ZM13.3981 7.92986L17.1669 7.6451C16.8545 3.51063 14.3337 -0.461027 10.2902 -1.67842L9.20057 1.94064L8.11097 5.5597C8.50778 5.67917 9.49646 6.45607 9.62934 8.21463L13.3981 7.92986Z" fill="white" mask="url(#path-1-inside-1_4671_3061)"/>
<mask id="path-3-inside-2_4671_3061" fill="white">
<path d="M9.00419 3.07301C10.8309 3.62296 12.2753 5.57519 12.4584 7.99951C12.6839 10.9832 10.9126 13.5499 8.5044 13.7318C6.09622 13.9137 3.96319 11.642 3.73776 8.65834C3.51232 5.67461 5.28033 3.10966 7.68851 2.92774C8.14003 2.89368 8.58268 2.94493 9.00419 3.07301ZM8.16003 5.81277C7.96042 5.75305 7.7501 5.7301 7.53634 5.74589C6.39627 5.83202 5.55844 7.04556 5.66516 8.45808C5.7719 9.87063 6.78397 10.9452 7.92403 10.859C9.0641 10.7729 9.90192 9.55937 9.79521 8.14682C9.70852 6.99912 9.02482 6.07315 8.16003 5.81277Z"/>
</mask>
<path d="M9.00419 3.07301C10.8309 3.62296 12.2753 5.57519 12.4584 7.99951C12.6839 10.9832 10.9126 13.5499 8.5044 13.7318C6.09622 13.9137 3.96319 11.642 3.73776 8.65834C3.51232 5.67461 5.28033 3.10966 7.68851 2.92774C8.14003 2.89368 8.58268 2.94493 9.00419 3.07301ZM8.16003 5.81277C7.96042 5.75305 7.7501 5.7301 7.53634 5.74589C6.39627 5.83202 5.55844 7.04556 5.66516 8.45808C5.7719 9.87063 6.78397 10.9452 7.92403 10.859C9.0641 10.7729 9.90192 9.55937 9.79521 8.14682C9.70852 6.99912 9.02482 6.07315 8.16003 5.81277Z" fill="white"/>
<path d="M9.00419 3.07301L7.90534 6.68929L7.9146 6.69208L9.00419 3.07301ZM12.4584 7.99951L8.68963 8.28424L8.68963 8.28427L12.4584 7.99951ZM8.5044 13.7318L8.78904 17.5006L8.78912 17.5006L8.5044 13.7318ZM3.73776 8.65834L7.50654 8.37359L7.50654 8.37358L3.73776 8.65834ZM7.68851 2.92774L7.40425 -0.841086L7.4038 -0.841051L7.68851 2.92774ZM8.16003 5.81277L9.24968 2.19372L9.24339 2.19184L8.16003 5.81277ZM7.53634 5.74589L7.25784 1.97663L7.25162 1.9771L7.53634 5.74589ZM5.66516 8.45808L1.89637 8.74281L1.89638 8.74289L5.66516 8.45808ZM7.92403 10.859L7.63932 7.09023L7.63924 7.09023L7.92403 10.859ZM9.79521 8.14682L6.02642 8.43148L6.02642 8.43154L9.79521 8.14682ZM9.00419 3.07301L7.9146 6.69208C7.90535 6.68929 8.06521 6.73969 8.26897 7.02581C8.46698 7.30386 8.648 7.73325 8.68963 8.28424L12.4584 7.99951L16.2272 7.71479C15.9542 4.10054 13.7422 0.55238 10.0938 -0.546052L9.00419 3.07301ZM12.4584 7.99951L8.68963 8.28427C8.74151 8.97096 8.55166 9.48935 8.35797 9.77012C8.16946 10.0434 8.08754 9.97304 8.21969 9.96306L8.5044 13.7318L8.78912 17.5006C13.9913 17.1076 16.55 11.9874 16.2272 7.71476L12.4584 7.99951ZM8.5044 13.7318L8.21977 9.96305C8.35254 9.95302 8.28362 10.0354 8.05732 9.7945C7.82437 9.54651 7.55857 9.06213 7.50654 8.37359L3.73776 8.65834L-0.0310291 8.94309C0.291452 13.2113 3.58329 17.8938 8.78904 17.5006L8.5044 13.7318ZM3.73776 8.65834L7.50654 8.37358C7.45454 7.6853 7.64451 7.16717 7.83728 6.88754C8.02453 6.61592 8.10514 6.68656 7.97323 6.69653L7.68851 2.92774L7.4038 -0.841051C2.19944 -0.447888 -0.353658 4.67304 -0.0310287 8.94309L3.73776 8.65834ZM7.68851 2.92774L7.97278 6.69656C7.96364 6.69725 7.95147 6.69724 7.93778 6.69571C7.92421 6.6942 7.91305 6.69162 7.90535 6.68928L9.00419 3.07301L10.103 -0.543253C9.24105 -0.805173 8.32967 -0.910885 7.40425 -0.841085L7.68851 2.92774ZM8.16003 5.81277L9.24339 2.19184C8.59682 1.99839 7.92469 1.92737 7.25784 1.97664L7.53634 5.74589L7.81483 9.51515C7.57551 9.53283 7.32403 9.50771 7.07667 9.4337L8.16003 5.81277ZM7.53634 5.74589L7.25162 1.9771C3.31831 2.27425 1.6922 6.04036 1.89637 8.74281L5.66516 8.45808L9.43395 8.17336C9.44137 8.27157 9.42795 8.4846 9.24397 8.75121C9.05455 9.0257 8.58574 9.45691 7.82105 9.51468L7.53634 5.74589ZM5.66516 8.45808L1.89638 8.74289C2.10074 11.4472 4.27704 14.9249 8.20883 14.6278L7.92403 10.859L7.63924 7.09023C8.40429 7.03242 8.93184 7.38847 9.15939 7.63024C9.38072 7.86542 9.42642 8.07381 9.43394 8.17328L5.66516 8.45808ZM7.92403 10.859L8.20875 14.6278C12.142 14.3307 13.7682 10.5646 13.564 7.86211L9.79521 8.14682L6.02642 8.43154C6.019 8.33336 6.03242 8.12032 6.21641 7.8537C6.40583 7.57919 6.87466 7.14799 7.63932 7.09023L7.92403 10.859ZM9.79521 8.14682L13.564 7.86216C13.3877 5.52808 11.9391 3.00348 9.24968 2.19372L8.16003 5.81277L7.07038 9.43182C6.57808 9.28359 6.30733 9.00337 6.18955 8.83778C6.06592 8.66398 6.03298 8.51831 6.02642 8.43148L9.79521 8.14682Z" fill="white" mask="url(#path-3-inside-2_4671_3061)"/>
<path d="M7.32003 7.897C7.35275 7.96425 7.4295 8.06983 7.59509 8.14763C7.76507 8.22744 8.09815 8.29711 8.46235 8.11992C8.82652 7.94273 8.97733 7.63767 9.01945 7.45467C9.05018 7.32096 9.03725 7.217 9.01539 7.14497L8.99204 7.08357C8.95932 7.01632 8.88253 6.91073 8.71698 6.83294C8.547 6.75313 8.2139 6.68349 7.84971 6.86065L7.72271 6.93221C7.4493 7.11178 7.32948 7.36576 7.29261 7.52589C7.25161 7.70419 7.28731 7.82974 7.32003 7.897Z" fill="white" stroke="white" stroke-width="3.77953"/>
<mask id="path-6-inside-3_4671_3061" fill="white">
<path d="M2.19621 12.489C-0.454157 12.3644 -0.762186 5.84816 1.58069 5.26501C0.791552 8.26288 1.05385 10.3227 2.19621 12.489Z"/>
</mask>
<path d="M2.19621 12.489C-0.454157 12.3644 -0.762186 5.84816 1.58069 5.26501C0.791552 8.26288 1.05385 10.3227 2.19621 12.489Z" fill="white"/>
<path d="M2.19621 12.489L2.01869 16.2644L8.62366 16.575L5.53939 10.7261L2.19621 12.489ZM1.58069 5.26501L5.23571 6.22714L6.86012 0.056119L0.667815 1.59739L1.58069 5.26501ZM2.19621 12.489L2.37374 8.71369C2.59938 8.7243 2.82688 8.77055 3.04305 8.85086C3.25688 8.9303 3.43154 9.03251 3.56626 9.13257C3.69889 9.23107 3.78873 9.32427 3.84364 9.38938C3.89826 9.45414 3.92519 9.49916 3.9325 9.51194C3.94007 9.52515 3.93416 9.51698 3.9205 9.48254C3.90705 9.44861 3.88925 9.39718 3.87067 9.32756C3.83255 9.18476 3.80088 9.00199 3.787 8.7955C3.77316 8.58953 3.77927 8.39334 3.79935 8.22683C3.80919 8.14528 3.82144 8.07868 3.83325 8.02778C3.84518 7.97635 3.8548 7.94892 3.85697 7.94312C3.85939 7.93662 3.85003 7.96364 3.82036 8.01545C3.79088 8.06694 3.73339 8.15676 3.63618 8.26487C3.53783 8.37425 3.3941 8.50737 3.1968 8.63252C2.99604 8.75986 2.75877 8.86663 2.49356 8.93264L1.58069 5.26501L0.667815 1.59739C-1.66883 2.17898 -2.77101 4.08303 -3.22545 5.3014C-3.71431 6.61203 -3.83963 8.04394 -3.75503 9.30244C-3.67102 10.5523 -3.35523 11.9965 -2.62761 13.2675C-1.89817 14.5417 -0.407694 16.1503 2.01869 16.2644L2.19621 12.489ZM1.58069 5.26501L-2.07433 4.30289C-3.07667 8.11069 -2.77919 11.1567 -1.14697 14.252L2.19621 12.489L5.53939 10.7261C4.88688 9.4887 4.65977 8.41508 5.23571 6.22714L1.58069 5.26501Z" fill="white" mask="url(#path-6-inside-3_4671_3061)"/>
<path d="M15.5372 5.39302C15.8458 5.73178 16.2171 6.30858 16.571 6.99918C16.9249 7.68977 17.2331 8.43894 17.4293 9.0854C17.6256 9.73192 17.6941 10.224 17.6202 10.4558C17.5463 10.6875 17.3358 10.6403 17.034 10.3243" stroke="white" stroke-width="1.69445" stroke-linecap="round" stroke-linejoin="round"/>
<path d="M18.2643 4.03391C18.734 4.54934 19.299 5.42704 19.8376 6.47804C20.3762 7.52904 20.8454 8.66932 21.1441 9.65327C21.4428 10.6372 21.5471 11.3861 21.4346 11.7388C21.3221 12.0914 21.0017 12.0196 20.5425 11.5388" stroke="white" stroke-width="2.57882" stroke-linecap="round" stroke-linejoin="round"/>
</g>
</svg>
