<svg width="30" height="30" viewBox="0 0 30 30" fill="none" xmlns="http://www.w3.org/2000/svg">
<rect width="30" height="30" fill="white"/>
<g style="mix-blend-mode:difference">
<path d="M13.3902 23.9061C13.0401 24.2304 12.7557 24.3539 12.5859 24.4087C12.4876 24.4399 12.5058 24.4391 12.519 24.4424H12.4183L1 24.5428L1.03346 29H12.4183C12.539 29 13.1467 28.914 13.9265 28.6649C14.7756 28.3931 15.846 27.797 16.8086 26.7547C17.2536 26.2729 17.6651 25.6838 18.0484 25.012L13.3902 23.9061ZM7.93772 21.2894L25.7888 25.4728L25.596 25.4028C25.9486 25.4365 26.4276 25.419 26.9357 25.2154C27.5184 24.9817 28.1911 24.5102 28.6652 23.4449C29.1269 22.4077 29.0392 21.5947 28.8297 20.9976C28.5082 20.0808 27.8182 19.6098 27.6854 19.5233C27.6718 19.5143 27.6581 19.5058 27.645 19.4979C27.663 19.5089 12.877 9.96093 12.877 9.96093L12.8041 9.91383L12.7261 9.87574C12.7261 9.87574 10.9598 8.98935 8.93815 9.65929C7.70585 10.0677 6.30983 11.0422 5.28111 13.3528C4.41763 15.2924 4.48815 16.8379 4.87061 18.0118C5.48933 19.9102 7.00628 20.8995 7.47264 21.1299C7.63607 21.2109 7.79127 21.2622 7.93772 21.2894ZM26.0248 21.9843C26.0179 22.023 25.9939 22.1478 25.9538 22.2379C25.9211 22.3109 25.8678 22.3907 25.8354 22.4353L8.73943 18.4293C8.44989 18.1837 6.99574 16.7991 7.99254 14.5599C8.54795 13.3127 9.20682 12.6971 9.87187 12.4768C10.5601 12.2487 11.1765 12.4453 11.3613 12.5164L11.3654 12.5179L26.0248 21.9843ZM28.3512 15.8172C28.3512 15.8172 28.3587 14.6034 28.369 12.8574L25.4092 12.8396C25.3986 14.5857 25.3915 15.7994 25.3915 15.7994L28.3512 15.8172ZM1.03346 1.01517V5.47235H12.5524C12.5625 5.4829 12.5269 5.48651 12.5859 5.50581C12.783 5.56912 13.1256 5.74157 13.5577 6.20947C14.0624 6.75587 14.7393 7.86334 15.2 9.86236L20.0592 12.9454C19.7107 7.95909 18.4501 4.97073 16.8086 3.19357C15.846 2.15121 14.081 1.55488 13.2319 1.28335C12.4523 1.03345 11.8444 1.04863 11.7237 1.04863V1.01517H1.03346ZM28.387 9.89762C28.3927 8.92861 28.3989 7.91996 28.4048 6.93757L25.445 6.91982C25.4391 7.90221 25.4329 8.91085 25.427 9.8796L28.387 9.89762ZM28.4225 3.97779C28.4302 2.70225 28.4367 1.64213 28.4403 1.018L25.4805 1C25.4766 1.62439 25.4705 2.6845 25.4627 3.96004L28.4225 3.97779Z" fill="white"/>
</g>
</svg>
