<svg width="30" height="30" viewBox="0 0 30 30" fill="none" xmlns="http://www.w3.org/2000/svg">
<rect width="30" height="30" fill="white"/>
<g style="mix-blend-mode:difference">
<path d="M25.7158 1C27.5284 1.00002 28.9999 2.48751 29 4.31934V25.6807C28.9999 27.5128 27.5284 29 25.7158 29H4.28418C2.47159 29 1.00013 27.5128 1 25.6807V4.31934C1.00013 2.48751 2.47159 1.00002 4.28418 1H25.7158ZM21.4209 15.1748C20.7387 15.1748 20.1292 15.2973 19.5928 15.542C19.0617 15.7867 18.6422 16.1463 18.335 16.6201C18.0277 17.0888 17.8741 17.662 17.874 18.3389C17.874 18.9117 18.0252 19.4223 18.3271 19.8701C18.6106 20.2785 18.9921 20.6042 19.4707 20.8486C19.1864 20.9765 18.9299 21.1341 18.7021 21.3232C18.3637 21.5992 18.098 21.9302 17.9053 22.3154C17.7178 22.7007 17.6241 23.1307 17.624 23.6045C17.624 24.3127 17.7908 24.9118 18.124 25.4014C18.4626 25.8857 18.9183 26.2529 19.4912 26.5029C20.0693 26.7477 20.7178 26.8701 21.4365 26.8701C22.1604 26.8701 22.8063 26.7477 23.374 26.5029C23.9468 26.2529 24.3975 25.8857 24.7256 25.4014C25.0588 24.9118 25.2256 24.3127 25.2256 23.6045C25.2255 22.9745 25.0614 22.4247 24.7334 21.9561C24.4464 21.5415 24.0633 21.2092 23.585 20.958L23.374 20.8545C23.858 20.6094 24.2414 20.282 24.5225 19.8701C24.8244 19.4223 24.9756 18.9116 24.9756 18.3389C24.9755 17.662 24.8245 17.0888 24.5225 16.6201C24.2204 16.1463 23.801 15.7867 23.2646 15.542C22.7282 15.2972 22.1135 15.1748 21.4209 15.1748ZM21.4209 21.6904C21.7646 21.6904 22.0668 21.7634 22.3271 21.9092C22.5875 22.055 22.7881 22.2635 22.9287 22.5342C23.0745 22.7997 23.1474 23.1151 23.1475 23.4795C23.1475 23.8491 23.077 24.1671 22.9365 24.4326C22.8012 24.6929 22.6057 24.8936 22.3506 25.0342C22.0954 25.1748 21.7906 25.2451 21.4365 25.2451C21.0824 25.2451 20.7751 25.1748 20.5146 25.0342C20.2543 24.8936 20.0511 24.693 19.9053 24.4326C19.7647 24.167 19.6943 23.8492 19.6943 23.4795C19.6944 23.1151 19.7647 22.7997 19.9053 22.5342C20.0511 22.2635 20.2517 22.0549 20.5068 21.9092C20.7672 21.7635 21.0721 21.6904 21.4209 21.6904ZM21.4209 16.8076C21.7333 16.8076 21.9991 16.8754 22.2178 17.0107C22.4416 17.1461 22.6136 17.3364 22.7334 17.5811C22.8531 17.8205 22.913 18.1021 22.9131 18.4248C22.9131 18.7528 22.8531 19.0395 22.7334 19.2842C22.6137 19.5289 22.4442 19.7217 22.2256 19.8623C22.0069 19.9977 21.7438 20.0654 21.4365 20.0654C21.1292 20.0654 20.8636 19.9977 20.6396 19.8623C20.4209 19.7217 20.2516 19.5289 20.1318 19.2842C20.0121 19.0395 19.9521 18.7528 19.9521 18.4248C19.9522 18.0917 20.0121 17.8049 20.1318 17.5654C20.2516 17.3208 20.421 17.1331 20.6396 17.0029C20.8583 16.8728 21.1189 16.8076 21.4209 16.8076Z" fill="white"/>
</g>
</svg>
