<svg width="23" height="23" viewBox="0 0 23 23" fill="none" xmlns="http://www.w3.org/2000/svg">
<rect width="23" height="23" fill="white"/>
<g style="mix-blend-mode:difference" clip-path="url(#clip0_4670_1649)">
<path d="M11.5 0C17.844 0 22.9999 5.14986 23 11.5C23 17.85 17.844 23 11.5 23C5.15622 23 0 17.85 0 11.5C5.48866e-05 5.14986 5.15625 2.17989e-06 11.5 0ZM16.9033 5.96191C16.3659 5.43472 15.4977 5.43902 14.9658 5.97168L11.4346 9.51074L7.90332 5.97168C7.37151 5.4388 6.50337 5.43476 5.96582 5.96191C5.4285 6.48899 5.42323 7.3501 5.95508 7.88281L9.50684 11.4414L5.95508 15.001C5.42323 15.5339 5.4285 16.3946 5.96582 16.9219C6.50337 17.449 7.37152 17.445 7.90332 16.9121L11.4346 13.373L14.9658 16.9121C15.4977 17.4448 16.3659 17.4491 16.9033 16.9219C17.4407 16.3946 17.4449 15.5338 16.9131 15.001L13.3613 11.4414L16.9131 7.88281C17.4449 7.35017 17.4406 6.48901 16.9033 5.96191Z" fill="white"/>
</g>
<defs>
<clipPath id="clip0_4670_1649">
<rect width="23" height="23" fill="white"/>
</clipPath>
</defs>
</svg>
