<svg width="30" height="30" viewBox="0 0 30 30" fill="none" xmlns="http://www.w3.org/2000/svg">
<rect width="30" height="30" fill="white"/>
<g style="mix-blend-mode:difference">
<path d="M5.95274 1L9.18073 15.0196L5.95274 29H12.7629L15.9909 15.0196L12.7629 1H5.95274ZM7.96038 2.60999H11.4247L14.3771 15.0196L11.3458 27.5471H8.03923L10.9128 15.0196L7.96038 2.60999ZM1 23.2941L2.95428 14.8116L1 6.32895H5.11417L7.06872 14.8116L5.11417 23.2941H1ZM16.3975 23.1505L18.3518 14.6681L16.3975 6.18538H20.5119L22.4662 14.6681L20.5119 23.1505H16.3975ZM22.9313 23.1435L24.8856 14.661L22.9313 6.17836H27.0457L29 14.661L27.0457 23.1435H22.9313Z" fill="white"/>
</g>
</svg>
