<svg width="15" height="16" viewBox="0 0 15 16" fill="none" xmlns="http://www.w3.org/2000/svg">
<rect width="15" height="16" fill="white"/>
<g style="mix-blend-mode:difference">
<path d="M1.62496 5.39302C1.93362 5.73178 2.30484 6.30858 2.65874 6.99918C3.01263 7.68977 3.32088 8.43894 3.51711 9.0854C3.71337 9.73192 3.78191 10.224 3.70798 10.4558C3.63404 10.6875 3.42355 10.6403 3.12182 10.3243" stroke="white" stroke-width="1.69445" stroke-linecap="round" stroke-linejoin="round"/>
<path d="M4.35205 4.03379C4.82176 4.54922 5.38675 5.42691 5.92538 6.47792C6.46401 7.52892 6.93318 8.6692 7.23189 9.65315C7.53056 10.6371 7.63486 11.386 7.52234 11.7386C7.40983 12.0913 7.08949 12.0195 6.63029 11.5387" stroke="white" stroke-width="2.57882" stroke-linecap="round" stroke-linejoin="round"/>
<path d="M7.89321 2.2893C8.5697 3.03169 9.38339 4.29579 10.1591 5.80943C10.9348 7.32308 11.6105 8.96518 12.0406 10.3822C12.4708 11.7992 12.621 12.8778 12.4589 13.3857C12.2969 13.8936 11.8355 13.7902 11.1742 13.0977" stroke="white" stroke-width="3.71398" stroke-linecap="round" stroke-linejoin="round"/>
</g>
</svg>
