<svg width="30" height="30" viewBox="0 0 30 30" fill="none" xmlns="http://www.w3.org/2000/svg">
<rect width="30" height="30" fill="white"/>
<g style="mix-blend-mode:difference">
<g clip-path="url(#clip0_4670_1603)">
<path d="M24.3333 1H5.66667C3.0902 1 1 3.08927 1 5.66667V24.3333C1 26.9107 3.0902 29 5.66667 29H24.3333C26.9107 29 29 26.9107 29 24.3333V5.66667C29 3.08927 26.9107 1 24.3333 1ZM26.6667 21.1108C26.6669 21.6215 26.5665 22.1273 26.3712 22.5992C26.1759 23.0711 25.8895 23.4999 25.5284 23.8611C25.1673 24.2223 24.7386 24.5088 24.2667 24.7042C23.7949 24.8996 23.2891 25.0001 22.7784 25H7.22253C6.19105 25 5.20182 24.5902 4.47245 23.8609C3.74309 23.1315 3.33333 22.1423 3.33333 21.1108V5.8892C3.33333 4.85772 3.74309 3.86849 4.47245 3.13912C5.20182 2.40975 6.19105 2 7.22253 2H22.7784C23.2891 1.99988 23.7949 2.03373 24.2667 2.22915C24.7386 2.42457 25.1673 2.77772 25.5284 3.1389C25.8895 3.50009 26.1759 3.86222 26.3712 4.33413C26.5665 4.80604 26.6669 5.37847 26.6667 5.8892V21.1108Z" fill="white"/>
<path d="M18.6838 17.9914L19.1402 17.5124C21.2516 17.5853 21.284 17.5071 21.3768 17.2778L21.9569 15.7858L22 15.6444L21.9528 15.5206C21.928 15.4553 21.8514 15.2603 20.5331 13.9322V13.2336C22.0543 11.6854 22.0218 11.6061 21.9351 11.3795L21.3576 9.87198C21.2708 9.6459 21.2379 9.55751 19.1417 9.61804L18.6853 9.11982C18.733 8.38595 18.7091 7.64883 18.6138 6.92015L18.555 6.77925L17.047 6.08281C16.8249 5.97567 16.7468 5.9371 15.323 7.57533L14.6831 7.56516C13.2172 5.91192 13.1477 5.94192 12.9281 6.03567L11.5261 6.63461C11.3066 6.72836 11.229 6.76157 11.3142 9.01161L10.8614 9.4884C8.75096 9.41554 8.71851 9.49483 8.62673 9.72305L8.04564 11.2156L8 11.3586L8.04766 11.4829C8.07251 11.5472 8.14603 11.74 9.46744 13.0697V13.7661C7.94625 15.3144 7.97921 15.3937 8.06643 15.6208L8.64346 17.1299C8.73169 17.3608 8.76313 17.4428 10.8588 17.3849L11.3152 17.8858C11.2677 18.6186 11.291 19.3545 11.3846 20.0823L11.4435 20.2243L12.9611 20.925C13.1817 21.0225 13.2582 21.0573 14.678 19.425L15.3179 19.4335C16.7859 21.0889 16.8609 21.0568 17.0754 20.9652L18.4744 20.3678C18.6955 20.2752 18.7725 20.2425 18.6838 17.9914ZM12.6711 14.4963C12.4941 14.0078 12.4577 13.4749 12.5663 12.9646C12.675 12.4542 12.9239 11.9891 13.2818 11.6277C13.6397 11.2662 14.0906 11.0245 14.5781 10.9328C15.0655 10.8412 15.5678 10.9036 16.0217 11.1124C16.4757 11.3212 16.8612 11.6669 17.1299 12.1063C17.3985 12.5457 17.5384 13.0591 17.5319 13.5822C17.5254 14.1052 17.3728 14.6146 17.0933 15.0464C16.8138 15.4782 16.4199 15.8131 15.9609 16.0092C15.3346 16.2679 14.6369 16.254 14.0203 15.9705C13.4037 15.687 12.9186 15.1569 12.6711 14.4963Z" fill="white"/>
</g>
</g>
<defs>
<clipPath id="clip0_4670_1603">
<rect width="28" height="28" fill="white" transform="translate(1 1)"/>
</clipPath>
</defs>
</svg>
