<svg width="30" height="30" viewBox="0 0 30 30" fill="none" xmlns="http://www.w3.org/2000/svg">
<rect width="30" height="30" fill="white"/>
<g style="mix-blend-mode:difference">
<path d="M27.4756 16C28.3169 16.0002 28.9999 16.6907 29 17.541V27.459C28.9999 28.3094 28.3169 28.9998 27.4756 29H17.5244C16.6831 28.9998 16.0001 28.3094 16 27.459V17.541C16.0001 16.6907 16.6831 16.0002 17.5244 16H27.4756ZM25.8037 22.6572L23.5654 26.1865L23.6055 26.7676H25.8223V27.9385H26.7832V26.7676H27.4111V26.0127H26.7832V22.6572H25.8037ZM25.8223 26.0127H24.542L25.7422 24.0615L25.8223 23.9248V26.0127Z" fill="white"/>
<path d="M12.4756 16C13.3169 16.0002 13.9999 16.6907 14 17.541V27.459C13.9999 28.3094 13.3169 28.9998 12.4756 29H2.52441C1.68306 28.9998 1.00011 28.3094 1 27.459V17.541C1.00012 16.6907 1.68307 16.0002 2.52441 16H12.4756ZM10.3906 22.5811C10.0714 22.5811 9.78218 22.6433 9.52344 22.7666C9.26495 22.8898 9.05951 23.06 8.90723 23.2773C8.75735 23.4925 8.68169 23.7431 8.68164 24.0283H9.64355C9.6436 23.8858 9.67746 23.7636 9.74512 23.6621C9.81522 23.5583 9.90845 23.4784 10.0244 23.4229C10.1428 23.3673 10.272 23.3399 10.4121 23.3398C10.5861 23.3398 10.7287 23.3708 10.8398 23.4336C10.9535 23.494 11.0381 23.5817 11.0938 23.6953C11.1493 23.8064 11.1777 23.9378 11.1777 24.0898C11.1777 24.2446 11.1459 24.3815 11.083 24.5C11.0226 24.6161 10.9294 24.7077 10.8037 24.7754C10.6804 24.8407 10.5231 24.874 10.332 24.874H9.79199V25.6133H10.332C10.5229 25.6133 10.6874 25.6432 10.8252 25.7012C10.9654 25.7592 11.0735 25.8494 11.1484 25.9727C11.2234 26.0959 11.2607 26.2569 11.2607 26.4551C11.2607 26.6219 11.2269 26.7658 11.1592 26.8867C11.0915 27.0052 10.9934 27.0968 10.8652 27.1621C10.7395 27.225 10.5886 27.2568 10.4121 27.2568C10.2525 27.2568 10.1086 27.225 9.98047 27.1621C9.85485 27.0968 9.75512 27.0081 9.68262 26.8945C9.61249 26.7809 9.57812 26.6509 9.57812 26.5059H8.61621C8.61621 26.7573 8.66648 26.9789 8.76562 27.1699C8.86476 27.3585 8.99875 27.5159 9.16797 27.6416C9.33719 27.7649 9.527 27.858 9.7373 27.9209C9.94996 27.9813 10.1688 28.0117 10.3936 28.0117C10.6523 28.0117 10.8937 27.9779 11.1162 27.9102C11.3385 27.8401 11.5319 27.7384 11.6963 27.6055C11.8631 27.4725 11.9921 27.3101 12.084 27.1191C12.1759 26.9257 12.2217 26.7056 12.2217 26.459C12.2217 26.2705 12.1872 26.094 12.1172 25.9297C12.0495 25.7654 11.9442 25.6213 11.8018 25.498C11.6711 25.3829 11.5071 25.293 11.3115 25.2266C11.4622 25.158 11.5928 25.0755 11.7031 24.9785C11.8457 24.8529 11.9538 24.7132 12.0264 24.5586C12.1013 24.4015 12.1386 24.244 12.1387 24.0869C12.1387 23.758 12.0645 23.4822 11.917 23.2598C11.772 23.0375 11.5681 22.8695 11.3047 22.7559C11.0436 22.6398 10.7387 22.5811 10.3906 22.5811Z" fill="white"/>
<path d="M27.4756 1C28.3169 1.00022 28.9999 1.6907 29 2.54102V12.459C28.9999 13.3094 28.3169 13.9998 27.4756 14H17.5244C16.6831 13.9998 16.0001 13.3094 16 12.459V2.54102C16.0001 1.6907 16.6831 1.00022 17.5244 1H27.4756ZM25.4443 7.58105C25.0721 7.58112 24.7502 7.65878 24.4795 7.81348C24.2089 7.96816 24.0015 8.17509 23.8564 8.43359C23.7114 8.68991 23.6387 8.9742 23.6387 9.28613H24.5996C24.5996 9.10245 24.6315 8.93949 24.6943 8.79688C24.7596 8.65431 24.8534 8.54268 24.9766 8.46289C25.1023 8.38067 25.2541 8.33984 25.4307 8.33984C25.5901 8.3399 25.7243 8.37375 25.833 8.44141C25.9441 8.50911 26.0289 8.6043 26.0869 8.72754C26.1449 8.84844 26.1738 8.99033 26.1738 9.15234C26.1738 9.26346 26.1504 9.38073 26.1045 9.50391C26.061 9.62475 25.9877 9.76033 25.8838 9.91016C25.7798 10.0601 25.6379 10.2363 25.459 10.4395L23.7432 12.293V12.9385H27.3203V12.1846H24.9697L26 11.0381C26.1691 10.8666 26.3222 10.6985 26.46 10.5342C26.5977 10.3698 26.7163 10.2074 26.8154 10.0479C26.9169 9.88594 26.9961 9.72292 27.0518 9.55859C27.1074 9.39416 27.1348 9.22689 27.1348 9.05762C27.1348 8.75298 27.07 8.49054 26.9395 8.27051C26.8089 8.05047 26.6177 7.88118 26.3662 7.7627C26.1147 7.64179 25.8071 7.58105 25.4443 7.58105Z" fill="white"/>
<path d="M12.4756 1C13.3169 1.00022 13.9999 1.6907 14 2.54102V12.459C13.9999 13.3094 13.3169 13.9998 12.4756 14H2.52441C1.68306 13.9998 1.00011 13.3094 1 12.459V2.54102C1.00012 1.6907 1.68307 1.00022 2.52441 1H12.4756ZM11.1016 7.64258L8.97559 8.4082V9.18457L10.249 8.76367V12.9385H11.21V7.64258H11.1016Z" fill="white"/>
</g>
</svg>
