<?xml version="1.0" encoding="UTF-8" standalone="no"?>
<!-- Created with Inkscape (http://www.inkscape.org/) -->

<svg
   width="33"
   height="15"
   viewBox="0 0 8.7312496 3.9687498"
   version="1.1"
   id="svg1"
   xml:space="preserve"
   inkscape:version="1.4.1 (1:1.4.1+202503302257+93de688d07)"
   sodipodi:docname="mask_topmenu_usb.svg"
   inkscape:export-filename="mask_topmenu_usb.png"
   inkscape:export-xdpi="96"
   inkscape:export-ydpi="96"
   xmlns:inkscape="http://www.inkscape.org/namespaces/inkscape"
   xmlns:sodipodi="http://sodipodi.sourceforge.net/DTD/sodipodi-0.dtd"
   xmlns="http://www.w3.org/2000/svg"
   xmlns:svg="http://www.w3.org/2000/svg"><sodipodi:namedview
     id="namedview1"
     pagecolor="#ffffff"
     bordercolor="#999999"
     borderopacity="1"
     inkscape:showpageshadow="0"
     inkscape:pageopacity="0"
     inkscape:pagecheckerboard="0"
     inkscape:deskcolor="#d1d1d1"
     inkscape:document-units="px"
     inkscape:zoom="11.313709"
     inkscape:cx="31.687223"
     inkscape:cy="9.0156114"
     inkscape:current-layer="layer1"
     inkscape:export-bgcolor="#ffffffff"
     showguides="false" /><defs
     id="defs1" /><g
     inkscape:label="Vrstva 1"
     inkscape:groupmode="layer"
     id="layer1"
     transform="translate(0,-293.03124)"><path
       id="path1"
       style="fill:#000000;stroke-width:0.138711"
       d="m 5.2791323,293.0859 c -0.1875985,0.0174 -0.3635213,0.12876 -0.4486238,0.29707 -0.3135706,0.0129 -0.6346639,-0.0306 -0.942904,0.0399 -0.3054525,0.0838 -0.4986017,0.35582 -0.7213071,0.55971 -0.2502059,0.245 -0.4836926,0.51328 -0.7435884,0.73149 -0.1389441,0.0904 -0.3210319,0.047 -0.4791837,0.0555 -0.091768,-0.002 -0.1978459,0.021 -0.2058858,-0.0956 -0.1952659,-0.48065 -0.87900532,-0.67385 -1.29663059,-0.35575 -0.45399478,0.28984 -0.47781007,1.02179 -0.0579647,1.35072 0.37047026,0.32988 1.00708299,0.22712 1.28034079,-0.1758 0.048891,-0.069 0.082269,-0.14747 0.1064832,-0.22801 0.5812576,0.002 1.1640117,-0.0288 1.7443386,0.008 0.1629273,0.0579 0.2669961,0.21593 0.3916223,0.32909 0.3014406,0.29668 0.5651285,0.63636 0.9067952,0.88971 0.2877154,0.19977 0.6570774,0.12999 0.9862574,0.15308 0.06018,-0.0116 0.1082466,0.004 0.1508884,-0.002 -1.162e-4,0.25583 -0.00234,0.17811 -0.00207,0.30268 h 1.1197232 v -1.07713 h -1.114208 v 0.30063 c -0.2592764,-0.0106 -0.524319,0.023 -0.7797884,-0.0273 -0.2080854,-0.11439 -0.3525146,-0.31594 -0.5250511,-0.47533 -0.1326119,-0.13733 -0.2631956,-0.27659 -0.394899,-0.41477 h 3.3256321 c 0.010298,0.12133 -0.036039,0.30842 0.1101139,0.36119 0.255066,-0.091 0.4794518,-0.25182 0.7145457,-0.38363 0.069602,-0.0551 0.2006015,-0.1315 0.2709943,-0.17888 0.026528,-0.0296 0.022551,-0.0601 0.010058,-0.0906 -0.3189386,-0.1994 -0.6484713,-0.38479 -0.9874295,-0.54845 -0.1546303,0.0469 -0.1087033,0.24082 -0.1182828,0.36412 H 3.0729358 c 0.287994,-0.28759 0.5531496,-0.59958 0.8613054,-0.86624 0.1545889,-0.0719 0.3384073,-0.0371 0.5053982,-0.0509 0.129851,-5e-4 0.2597086,-7e-5 0.3895622,-1.7e-4 0.1283075,0.26106 0.4697855,0.37278 0.7332205,0.2543 0.3097744,-0.13039 0.4164435,-0.56217 0.2019298,-0.81991 -0.1081735,-0.15441 -0.2985647,-0.23095 -0.4852196,-0.20734 z"
       sodipodi:nodetypes="ccccccccccccccccccccccccccccccccccccccc" /></g></svg>
