<svg width="30" height="30" viewBox="0 0 30 30" fill="none" xmlns="http://www.w3.org/2000/svg">
<rect width="30" height="30" fill="white"/>
<g style="mix-blend-mode:difference">
<path d="M11.5317 7.25177C5.73286 7.25177 1 12.1145 1 18.126C1 24.1376 5.73286 29 11.5317 29C17.3306 29 22.021 24.1376 22.021 18.126C22.021 12.1145 17.3306 7.25177 11.5317 7.25177ZM25.574 25.6418L24.9818 26.8266L26.8005 27.7909L27.3927 26.6072V26.5637L27.4349 26.5202L27.6887 25.8187L25.8278 25.0295L25.574 25.6418ZM26.8005 21.3449H26.8428L26.5891 22.748H26.5467L26.4622 23.1427L28.4078 23.7126L28.4923 23.3618V23.3184L28.5348 23.2749L28.8309 21.6523V21.477L26.8428 21.2578L26.8005 21.3449ZM26.8852 17.2671L26.9696 18.1439V19.2844H29V18.0571L28.9153 17.0485L26.8852 17.2671ZM14.6617 10.8035C16.8526 10.8035 18.6374 12.6097 18.6374 14.8813C18.6374 17.1528 16.8526 19.0031 14.6617 19.0031C12.4705 19.0031 10.6857 17.1528 10.6857 14.8813C10.6857 12.6097 12.4705 10.8035 14.6617 10.8035ZM26.3775 13.3646L26.0392 13.453V13.54H26.0814L26.5044 15.0307V15.1193L26.5467 15.2946L28.5348 14.8999L28.4923 14.593V14.5494L28.4501 14.5059L27.9426 12.8399V12.7529L27.9001 12.6646L26.3775 13.3646ZM22.9517 3.1313C25.0751 3.1313 26.7992 4.91863 26.7992 7.12018C26.7992 9.32173 25.0751 11.1091 22.9517 11.1091C20.828 11.1091 19.104 9.32173 19.104 7.12018C19.104 4.91863 20.828 3.1313 22.9517 3.1313ZM4.00303 2.79761H3.96084L3.91834 2.84138L2.98785 3.36744L3.96084 5.20909L4.80657 4.72679H4.84908L4.89126 4.6833L5.6948 4.33258L4.89126 2.40312L4.00303 2.79761ZM15.0422 3.49902H15.2114L15.3383 3.54253L16.6496 3.93702L16.8187 4.02402L17.58 2.05078L17.4109 2.00728L17.3687 1.96379H17.3261L15.8036 1.48148H15.7191L15.423 1.43826L15.0422 3.49902ZM7.34439 1.52579H7.25995L6.92137 1.65766L7.51352 3.67492L7.76741 3.58657L7.85211 3.54307L9.28999 3.23585H9.37475L9.20529 2.35907L9.16311 2.18372L9.07867 1.17509H8.95172L7.34439 1.52579ZM11.1935 3.10427H12.3778V3.06078L13.1391 3.14912L13.3504 1.08834L12.5044 1H11.1935V3.10427Z" fill="white"/>
</g>
</svg>
