<svg width="30" height="16" viewBox="0 0 30 16" fill="none" xmlns="http://www.w3.org/2000/svg">
<rect width="30" height="16" fill="white"/>
<g style="mix-blend-mode:difference">
<path d="M9.35284 1.04371C11.8839 1.80567 13.8842 4.51388 14.138 7.87296C14.4503 12.0072 12.0008 15.5637 8.664 15.8158C5.32726 16.0677 2.36712 12.9205 2.05477 8.78626C1.74242 4.65197 4.1945 1.09622 7.53129 0.844136C8.1569 0.796755 8.76875 0.869485 9.35284 1.04371ZM9.20057 1.94052C8.68825 1.78653 8.15077 1.72063 7.60197 1.76233C4.67503 1.98345 2.5232 5.10419 2.79719 8.73068C3.07117 12.3571 5.66719 15.1167 8.59413 14.8956C11.521 14.6747 13.6721 11.5562 13.3981 7.92974C13.1755 4.98323 11.4207 2.60895 9.20057 1.94052Z" fill="white"/>
<path d="M9.00407 3.07289C10.8307 3.62284 12.2751 5.57507 12.4583 7.99939C12.6837 10.9831 10.9124 13.5498 8.50428 13.7317C6.09609 13.9136 3.96307 11.6419 3.73763 8.65822C3.5122 5.67449 5.2802 3.10954 7.68839 2.92762C8.13991 2.89356 8.58256 2.94481 9.00407 3.07289ZM8.15991 5.81265C7.9603 5.75293 7.74998 5.72998 7.53621 5.74577C6.39615 5.8319 5.55832 7.04544 5.66504 8.45796C5.77178 9.87051 6.78385 10.945 7.92391 10.8589C9.06398 10.7728 9.9018 9.55925 9.79509 8.1467C9.7084 6.999 9.0247 6.07303 8.15991 5.81265Z" fill="white"/>
<path d="M8.67636 8.55981C8.19958 8.79176 7.5801 8.5009 7.29272 7.91018C7.00533 7.31946 7.15885 6.65254 7.63563 6.42059C8.1124 6.18864 8.73188 6.47949 9.01927 7.07022C9.30665 7.66094 9.15313 8.32786 8.67636 8.55981Z" fill="white"/>
<path d="M2.19621 12.4889C-0.454157 12.3643 -0.762186 5.84804 1.58069 5.26489C0.791552 8.26276 1.05385 10.3226 2.19621 12.4889Z" fill="white"/>
<path d="M15.5372 5.39289C15.8458 5.73166 16.2171 6.30846 16.571 6.99906C16.9249 7.68965 17.2331 8.43882 17.4293 9.08528C17.6256 9.7318 17.6941 10.2239 17.6202 10.4556C17.5463 10.6874 17.3358 10.6402 17.034 10.3242" stroke="white" stroke-width="1.69445" stroke-linecap="round" stroke-linejoin="round"/>
<path d="M18.2643 4.03367C18.734 4.5491 19.299 5.42679 19.8376 6.47779C20.3762 7.5288 20.8454 8.66908 21.1441 9.65303C21.4428 10.6369 21.5471 11.3858 21.4346 11.7385C21.3221 12.0912 21.0017 12.0193 20.5425 11.5385" stroke="white" stroke-width="2.57882" stroke-linecap="round" stroke-linejoin="round"/>
<path d="M21.8054 2.28918C22.4819 3.03156 23.2956 4.29567 24.0713 5.80931C24.847 7.32296 25.5227 8.96506 25.9529 10.3821C26.383 11.7991 26.5332 12.8777 26.3712 13.3855C26.2091 13.8934 25.7478 13.79 25.0865 13.0976" stroke="white" stroke-width="3.71398" stroke-linecap="round" stroke-linejoin="round"/>
</g>
</svg>
