<svg width="97" height="96" viewBox="0 0 97 96" fill="none" xmlns="http://www.w3.org/2000/svg">
<rect width="96" height="96" transform="translate(0.5)" fill="white"/>
<g style="mix-blend-mode:difference" clip-path="url(#clip0_4670_1713)">
<path d="M45.51 6.60105C46.9074 3.88402 49.4767 3.73293 51.092 6.54929L92.1653 85.1675C93.7666 88.0058 92.9415 90.6164 88.8518 90.7124H7.85374C3.88814 90.5875 2.7279 88.6933 4.63499 84.8393L45.51 6.60105ZM48.6994 66.3872C44.0783 66.3872 40.3323 70.1332 40.3323 74.7544C40.3323 79.3756 44.0783 83.1215 48.6994 83.1216C53.3207 83.1216 57.0666 79.3756 57.0666 74.7544C57.0666 70.1332 53.3206 66.3872 48.6994 66.3872ZM44.2463 33.6665C42.0673 33.6665 40.0053 35.4428 40.3127 37.6001L43.0627 56.8999C43.3693 59.0516 44.2268 60.8335 45.6721 60.8335H51.2873C52.7326 60.8335 53.5901 59.0516 53.8967 56.8999L56.6467 37.6001C56.9541 35.4429 54.8921 33.6666 52.7131 33.6665H44.2463Z" fill="white"/>
</g>
<defs>
<clipPath id="clip0_4670_1713">
<rect width="96" height="96" fill="white"/>
</clipPath>
</defs>
</svg>
