<svg width="30" height="30" viewBox="0 0 30 30" fill="none" xmlns="http://www.w3.org/2000/svg">
<rect width="30" height="30" fill="white"/>
<g style="mix-blend-mode:difference">
<path fill-rule="evenodd" clip-rule="evenodd" d="M7.48696 15.6713C3.95254 15.125 1.24274 12.066 1.24274 8.37901C1.24274 4.30653 4.549 1 8.62174 1C12.6942 1 16.0007 4.30653 16.0007 8.37901C16.0007 11.407 14.1729 14.0114 11.5612 15.1483C13.1362 15.2711 14.6767 15.744 16.1225 16.5089C16.5777 16.3602 17.0398 16.2405 17.5062 16.152C16.9237 15.2065 16.5876 14.0937 16.5876 12.9031C16.5876 9.47772 19.3685 6.69681 22.7939 6.69681C26.2191 6.69681 29 9.47772 29 12.9031C29 15.2973 27.6415 17.3769 25.6538 18.4115C28.1178 20.7628 29.3832 24.6786 28.7031 29H7.69744H1.29531L1.1872 28.3376C0.241366 22.3259 2.96207 17.298 7.48696 15.6713ZM9.91228 20.7857C8.29834 22.6613 7.06335 24.9685 6.42639 27.494C5.85769 27.4937 2.54675 27.4937 2.54675 27.4937C1.8667 21.4294 5.39619 16.5769 10.7444 16.5769C11.922 16.5769 13.0838 16.8087 14.1981 17.2349C12.6073 18.0995 11.1452 19.3155 9.91228 20.7857ZM8.62174 2.48597C11.874 2.48597 14.5148 5.12673 14.5148 8.37901C14.5148 11.6315 11.874 14.272 8.62174 14.272C5.3692 14.272 2.72871 11.6315 2.72871 8.37901C2.72871 5.12673 5.3692 2.48597 8.62174 2.48597Z" fill="white"/>
</g>
</svg>
