<svg width="30" height="30" viewBox="0 0 30 30" fill="none" xmlns="http://www.w3.org/2000/svg">
<rect width="30" height="30" fill="white"/>
<g style="mix-blend-mode:difference">
<path fill-rule="evenodd" clip-rule="evenodd" d="M12.1921 1.00025L12.0576 1C7.73881 1 4.24744 4.45784 4.24744 8.71069C4.24744 9.04277 4.27692 9.36809 4.32398 9.68771C1.38721 12.6998 0.964446 15.4973 1.0022 19.071C1.0552 24.089 5.30574 29 10.5861 29L22.8984 28.879L22.9372 28.8756C26.2905 28.5742 29 24.7884 29 21.0559C29 18.8633 28.5775 16.2324 26.7159 14.4313C27.1125 13.5295 27.3395 12.5237 27.3395 11.4558C27.3395 7.5496 24.3939 4.42174 20.8123 4.42174C20.1028 4.42174 19.4334 4.56066 18.8023 4.79796C17.4663 2.55912 15.0086 1.04673 12.1921 1.00025ZM12.0576 2.96881L12.0589 2.96804C14.4816 2.96855 16.5714 4.40565 17.4593 6.47288L17.8846 7.46339L18.8281 6.94775C19.4326 6.61723 20.0899 6.39084 20.8123 6.39084C23.3576 6.39084 25.3788 8.6798 25.3788 11.4558C25.3788 12.4617 25.1037 13.3925 24.6445 14.1838L24.2005 14.9482L24.9103 15.4727C26.7699 16.8472 27.0391 19.1842 27.0391 21.0559C27.0391 22.7433 26.3324 24.4657 25.2195 25.6221C24.5457 26.3224 23.7204 26.8154 22.8053 26.9105C22.7981 26.911 10.5825 27.0309 10.5825 27.0309C6.36119 27.0288 3.00529 23.0621 2.96289 19.0502C2.92953 15.8863 3.27058 13.4192 6.05738 10.7346L6.44652 10.3594L6.33946 9.82868C6.26629 9.46571 6.20813 9.0947 6.20813 8.71069C6.20813 5.53456 8.83227 2.96881 12.0576 2.96881ZM19.8474 24.3343H9.68375L14.7655 15.496L19.8474 24.3343ZM7.56663 16.896L22.0341 13.0035L21.5 11.0415L7 14.9482L7.56663 16.896Z" fill="white"/>
</g>
</svg>
