<svg width="19" height="16" viewBox="0 0 19 16" fill="none" xmlns="http://www.w3.org/2000/svg">
<rect width="19" height="16" fill="white"/>
<g style="mix-blend-mode:difference">
<path d="M9.35284 1.04383C11.8839 1.80579 13.8842 4.514 14.138 7.87308C14.4503 12.0073 12.0008 15.5639 8.664 15.816C5.32726 16.0678 2.36712 12.9206 2.05477 8.78638C1.74242 4.65209 4.1945 1.09634 7.53129 0.844259C8.1569 0.796877 8.76875 0.869607 9.35284 1.04383ZM9.20057 1.94064C8.68825 1.78665 8.15077 1.72075 7.60197 1.76246C4.67503 1.98357 2.5232 5.10431 2.79719 8.7308C3.07117 12.3573 5.66719 15.1169 8.59413 14.8957C11.521 14.6749 13.6721 11.5563 13.3981 7.92986C13.1755 4.98335 11.4207 2.60907 9.20057 1.94064Z" fill="white"/>
<path d="M9.00406 3.07301C10.8307 3.62296 12.2751 5.57519 12.4583 7.99951C12.6837 10.9832 10.9124 13.5499 8.50428 13.7318C6.09609 13.9137 3.96307 11.642 3.73763 8.65834C3.5122 5.67461 5.2802 3.10966 7.68839 2.92774C8.13991 2.89368 8.58256 2.94493 9.00406 3.07301ZM8.15991 5.81277C7.9603 5.75305 7.74998 5.7301 7.53621 5.74589C6.39615 5.83202 5.55832 7.04556 5.66504 8.45808C5.77178 9.87063 6.78385 10.9452 7.92391 10.859C9.06398 10.7729 9.9018 9.55937 9.79509 8.14682C9.7084 6.99912 9.0247 6.07315 8.15991 5.81277Z" fill="white"/>
<path d="M8.67636 8.55993C8.19958 8.79188 7.5801 8.50103 7.29272 7.9103C7.00533 7.31958 7.15885 6.65266 7.63563 6.42071C8.1124 6.18876 8.73188 6.47962 9.01927 7.07034C9.30665 7.66106 9.15313 8.32798 8.67636 8.55993Z" fill="white"/>
<path d="M2.19621 12.489C-0.454157 12.3644 -0.762186 5.84816 1.58069 5.26501C0.791552 8.26288 1.05385 10.3227 2.19621 12.489Z" fill="white"/>
<path d="M15.5372 5.39302C15.8458 5.73178 16.2171 6.30858 16.571 6.99918C16.9249 7.68977 17.2331 8.43894 17.4293 9.0854C17.6256 9.73192 17.6941 10.224 17.6202 10.4558C17.5463 10.6875 17.3358 10.6403 17.034 10.3243" stroke="white" stroke-width="1.69445" stroke-linecap="round" stroke-linejoin="round"/>
</g>
</svg>
