<svg width="30" height="30" viewBox="0 0 30 30" fill="none" xmlns="http://www.w3.org/2000/svg">
<rect width="30" height="30" fill="white"/>
<g style="mix-blend-mode:difference">
<path d="M12.8625 13.7301C3.9812 13.7301 1 20.6078 1 20.6078V21.4675C1 21.4675 3.67631 29 12.8205 29C21.2891 29 24.0521 21.5493 24.0521 21.5493V20.6078C24.0521 20.6078 21.1071 13.7301 12.8625 13.7301V13.7301ZM12.0633 14.8766C12.2825 14.8549 12.5113 14.8766 12.7364 14.8766C16.3367 14.8766 19.2567 17.6771 19.2567 21.1808C19.2567 24.6845 16.3367 27.5262 12.7364 27.5262C9.13609 27.5262 6.21611 24.6845 6.21611 21.1808C6.21611 17.8962 8.7761 15.2013 12.0633 14.8766ZM12.7252 18.1124C14.5701 18.1124 16.0677 19.5698 16.0677 21.3649C16.0677 23.1603 14.5701 24.6178 12.7252 24.6178C10.8806 24.6178 9.38299 23.1603 9.38299 21.3649C9.38299 19.5698 10.8806 18.1124 12.7252 18.1124ZM12.1317 9.59696V11.7258C15.1432 11.7913 17.8351 12.7897 20.2084 14.264L21.8909 12.9539C19.0635 11.0371 15.8081 9.66506 12.1317 9.59696ZM12.1317 5.21678V7.30447C16.5833 7.37645 20.6734 8.85515 23.9944 11.2755L25.6349 9.92449C21.8888 7.06522 17.2272 5.29161 12.1317 5.21678ZM12.1317 1V3.04702C17.9474 3.12418 23.2093 5.1896 27.4015 8.53253L29 7.22264C24.4081 3.45741 18.5759 1.07923 12.1317 1V1Z" fill="white"/>
</g>
</svg>
