<svg width="30" height="30" viewBox="0 0 30 30" fill="none" xmlns="http://www.w3.org/2000/svg">
<rect width="30" height="30" fill="white"/>
<g style="mix-blend-mode:difference">
<path fill-rule="evenodd" clip-rule="evenodd" d="M29 4.31306C29 2.48468 27.5166 1 25.6897 1H4.31032C2.48319 1 1 2.48468 1 4.31306V25.6869C1 27.5153 2.48319 29 4.31032 29H25.6897C27.5166 29 29 27.5153 29 25.6869V4.31306ZM26.7426 4.31306V25.6869C26.7426 26.2686 26.2709 26.7407 25.6897 26.7407H4.31032C3.7291 26.7407 3.25711 26.2686 3.25711 25.6869V4.31306C3.25711 3.73136 3.7291 3.25924 4.31032 3.25924H25.6897C26.2709 3.25924 26.7426 3.73136 26.7426 4.31306ZM12.814 4.95173C9.83369 5.01103 7.43873 7.42988 7.43873 10.4013C7.43873 10.6331 7.45907 10.8605 7.49154 11.0841C5.44053 13.2064 5.14401 15.1782 5.17055 17.6971C5.20765 21.2432 8.19384 24.7097 11.8981 24.7097L20.5061 24.6249L20.5347 24.6223C21.515 24.5336 22.4159 24.039 23.1355 23.2856C24.1498 22.2238 24.7978 20.644 24.7978 19.0951C24.7978 17.5501 24.5009 15.6977 23.204 14.426C23.4794 13.792 23.6371 13.0847 23.6371 12.3344C23.6371 9.56976 21.5624 7.36028 19.0461 7.36028C18.5556 7.36028 18.0924 7.4549 17.6549 7.61734C16.6983 6.0187 14.9369 4.94968 12.9266 4.94968H12.8137L12.814 4.95173ZM12.9268 6.37891C14.6084 6.37917 16.0586 7.38554 16.6751 8.83128L16.9845 9.55713L17.6755 9.17682C18.0931 8.94707 18.5471 8.78876 19.0461 8.78876C20.8127 8.78876 22.2098 10.3938 22.2098 12.3344C22.2098 13.0399 22.0184 13.693 21.6987 14.2476L21.381 14.7984L21.8906 15.1779C23.1857 16.142 23.3702 17.7819 23.3702 19.0951C23.3702 20.2786 22.8786 21.4871 22.1037 22.2986C21.6399 22.7841 21.0729 23.1278 20.4433 23.1959C20.4324 23.1969 11.8955 23.2812 11.8955 23.2812C8.95798 23.2794 6.62744 20.4947 6.59781 17.6821C6.57462 15.459 6.8114 13.7252 8.75498 11.8388L9.03425 11.5678L8.95798 11.1859C8.90697 10.9312 8.86628 10.6707 8.86628 10.4013C8.86628 8.17815 10.6862 6.37891 12.9268 6.37891ZM18.3716 21.4033H11.2674L14.8194 15.1794L18.3716 21.4033ZM9.79453 16.1809L19.9074 13.4395L19.6155 12.3615L9.50287 15.1026L9.79453 16.1809Z" fill="white"/>
</g>
</svg>
