<svg width="97" height="96" viewBox="0 0 97 96" fill="none" xmlns="http://www.w3.org/2000/svg">
<rect width="96" height="96" transform="translate(0.5)" fill="white"/>
<g style="mix-blend-mode:difference" clip-path="url(#clip0_4670_1711)">
<path d="M48.0004 3.05682C72.9257 3.05699 93.1312 23.1788 93.1312 48.0002C93.1311 72.8214 72.9256 92.9434 48.0004 92.9435C23.075 92.9435 2.86863 72.8215 2.86853 48.0002C2.86853 23.1787 23.0749 3.05682 48.0004 3.05682ZM66.7064 23.8596C65.1771 22.6774 62.9785 22.9591 61.7963 24.4885C60.6146 26.0178 60.8961 28.2165 62.4252 29.3986C68.0059 33.7128 71.5978 40.4349 71.6332 47.9865C71.6937 60.9849 61.1782 71.551 48.1215 71.5705C35.0563 71.59 24.4268 61.0409 24.3656 48.0334C24.3303 40.4832 27.8582 33.7591 33.389 29.4357C34.9119 28.2453 35.1809 26.0456 33.9906 24.5226C32.8001 23 30.6013 22.7308 29.0785 23.9211C21.9151 29.5205 17.3197 38.2586 17.3656 48.0666C17.4452 64.9482 31.2263 78.5956 48.1312 78.5705C65.0451 78.5454 78.7121 64.8444 78.6332 47.9533C78.5872 38.1465 73.913 29.4304 66.7064 23.8596ZM47.8314 16.1965C45.3466 16.221 43.3513 18.2557 43.3754 20.7404L43.6244 46.0041C43.6491 48.4891 45.6843 50.4837 48.1693 50.4592C50.6543 50.4345 52.6488 48.4002 52.6244 45.9152L52.3754 20.6525C52.3506 18.1677 50.3162 16.1722 47.8314 16.1965Z" fill="white"/>
</g>
<defs>
<clipPath id="clip0_4670_1711">
<rect width="96" height="96" fill="white"/>
</clipPath>
</defs>
</svg>
