<svg width="30" height="30" viewBox="0 0 30 30" fill="none" xmlns="http://www.w3.org/2000/svg">
<rect width="30" height="30" fill="white"/>
<g style="mix-blend-mode:difference">
<path d="M25.5596 8.15051C27.5043 8.15051 29.001 9.75636 29.001 11.6525V11.7482L28.9883 11.8439L26.873 27.7413L26.7061 29.0011H3.5332L3.35059 27.7609L1.01465 11.8634L1 11.7579V11.6525C1 9.75647 2.49583 8.1507 4.44043 8.15051H25.5596ZM14.8096 11.2706C13.9761 11.2846 13.5361 11.7062 13.5361 11.7062V13.8097H13.418L7.67285 15.3175L8.04688 18.2765H13.5361L13.8184 22.4083L11.6328 23.1427L11.8184 24.7111H17.8555L18.04 23.1427L15.749 22.4083L16.0527 18.2765L21.9297 18.2081L22.4346 15.296L16.0527 13.8351V11.7579C16.0527 11.7579 15.7974 11.2669 14.8096 11.2706Z" fill="white"/>
<path d="M5.75395 4.24188C4.79119 4.24188 4.02216 4.80555 4.02216 5.51129L4.18651 7.17727H25.7079L25.9056 5.51129C25.9056 4.80555 25.1366 4.24188 24.1738 4.24188H5.75395Z" fill="white"/>
<path d="M7.12352 1C6.30012 1 5.6424 1.38274 5.6424 1.86184L5.7823 3.25303H24.2102L24.3584 1.86184C24.3584 1.38274 23.7007 1 22.8773 1H7.12352Z" fill="white"/>
</g>
</svg>
