<svg width="30" height="30" viewBox="0 0 30 30" fill="none" xmlns="http://www.w3.org/2000/svg">
<rect width="30" height="30" fill="white"/>
<g style="mix-blend-mode:difference">
<path d="M17.3571 25.092V29H19.5136V25.092H17.3571ZM13.9247 25.092V29H16.0812V25.092H13.9247ZM10.4927 25.092V29H12.6492V25.092H10.4927ZM9.5411 6.75732C7.77745 6.75732 6.34297 8.19463 6.34297 9.96121V20.1129C6.34297 21.8795 7.77745 23.3168 9.5411 23.3168H20.0697L16.9075 20.0769L13.853 20.0046L11.8769 18.0607L11.805 16.1528L12.9188 14.9288L14.6437 16.7646L16.62 16.6923L16.692 15.0364L14.7516 13.0925L15.9733 11.9046L18.0573 11.9401L19.9618 13.812L20.0697 17.124L23.5913 20.6519C23.6208 20.4762 23.663 20.2965 23.663 20.1119V9.96017C23.663 8.19334 22.2645 6.75628 20.5008 6.75628H9.5411V6.75732V6.75732ZM25.099 19.5553H29V17.3946H25.099V19.5553ZM1 19.5553H4.90099V17.3946H1V19.5553ZM25.099 16.1167H29V13.9564H25.099V16.1167ZM1 16.1167H4.90099V13.9564H1V16.1167ZM25.099 12.6785H29V10.5178H25.099V12.6785ZM1 12.6785H4.90099V10.5178H1V12.6785ZM19.5136 4.90804V1H17.3571V4.90804H19.5136ZM16.0812 4.90804V1H13.9247V4.90804H16.0812ZM12.6492 4.90804V1H10.4927V4.90804H12.6492Z" fill="white"/>
</g>
</svg>
