<svg width="30" height="30" viewBox="0 0 30 30" fill="none" xmlns="http://www.w3.org/2000/svg">
<rect width="30" height="30" fill="white"/>
<g style="mix-blend-mode:difference">
<path d="M25.7158 1C27.5284 1.00002 28.9999 2.48751 29 4.31934V25.6807C28.9999 27.5128 27.5284 29 25.7158 29H4.28418C2.47159 29 1.00013 27.5128 1 25.6807V4.31934C1.00013 2.48751 2.47159 1.00002 4.28418 1H25.7158ZM23.4209 15.2451C22.4835 15.2451 21.6578 15.4067 20.9443 15.7295C20.2309 16.0471 19.6318 16.4953 19.1475 17.0732C18.6684 17.6461 18.3063 18.3156 18.0615 19.0811C17.8168 19.8466 17.6944 20.675 17.6943 21.5654V22.3936C17.6943 23.0236 17.7856 23.6098 17.9678 24.1514C18.15 24.693 18.4132 25.167 18.7568 25.5732C19.1006 25.9795 19.5121 26.2972 19.9912 26.5264C20.4756 26.7555 21.0225 26.8701 21.6318 26.8701C22.2099 26.8701 22.7308 26.7711 23.1943 26.5732C23.6578 26.3753 24.0538 26.0992 24.3818 25.7451C24.7098 25.391 24.96 24.9768 25.1318 24.5029C25.3088 24.0291 25.3975 23.5184 25.3975 22.9717C25.3974 22.4614 25.3297 21.9768 25.1943 21.5186C25.0589 21.0552 24.8557 20.6461 24.585 20.292C24.3194 19.9379 23.9833 19.6591 23.5771 19.4561C23.1709 19.2478 22.6969 19.1436 22.1553 19.1436C21.6866 19.1436 21.2594 19.2191 20.874 19.3701C20.4939 19.5211 20.163 19.7348 19.8818 20.0107C19.8565 20.0361 19.833 20.0637 19.8086 20.0898C19.8481 19.7912 19.914 19.5067 20.0068 19.2373C20.1683 18.7635 20.4054 18.3544 20.7178 18.0107C21.0354 17.6619 21.4314 17.3909 21.9053 17.1982C22.3844 17.0056 22.9392 16.9092 23.5693 16.9092H23.7021V15.2451H23.4209ZM21.5615 20.7686C21.8427 20.7686 22.0928 20.8259 22.3115 20.9404C22.5354 21.0498 22.723 21.2088 22.874 21.417C23.025 21.62 23.1397 21.8572 23.2178 22.1279C23.2959 22.3986 23.3349 22.6932 23.335 23.0107C23.335 23.3335 23.2932 23.6306 23.21 23.9014C23.1319 24.1721 23.0145 24.4093 22.8584 24.6123C22.7074 24.8101 22.5249 24.9639 22.3115 25.0732C22.098 25.1826 21.8583 25.2373 21.5928 25.2373C21.3271 25.2373 21.0824 25.1826 20.8584 25.0732C20.6397 24.9639 20.4469 24.7998 20.2803 24.5811C20.1189 24.3571 19.9912 24.0836 19.8975 23.7607C19.809 23.4327 19.7646 23.0522 19.7646 22.6201V21.9639C19.8037 21.8688 19.849 21.7741 19.9053 21.6826C20.0719 21.412 20.2986 21.193 20.585 21.0264C20.8714 20.8546 21.1971 20.7686 21.5615 20.7686Z" fill="white"/>
</g>
</svg>
