<?xml version="1.0" encoding="UTF-8" standalone="no"?>
<!-- Created with Inkscape (http://www.inkscape.org/) -->

<svg
   width="113"
   height="113"
   viewBox="0 0 29.897915 29.897916"
   version="1.1"
   id="svg1"
   xml:space="preserve"
   inkscape:version="1.4.1 (1:1.4.1+202503302257+93de688d07)"
   sodipodi:docname="mask_shutdown_circle0.svg"
   inkscape:export-filename="mask_shutdown_circle0.png"
   inkscape:export-xdpi="96"
   inkscape:export-ydpi="96"
   xmlns:inkscape="http://www.inkscape.org/namespaces/inkscape"
   xmlns:sodipodi="http://sodipodi.sourceforge.net/DTD/sodipodi-0.dtd"
   xmlns="http://www.w3.org/2000/svg"
   xmlns:svg="http://www.w3.org/2000/svg"><sodipodi:namedview
     id="namedview1"
     pagecolor="#ffffff"
     bordercolor="#999999"
     borderopacity="1"
     inkscape:showpageshadow="0"
     inkscape:pageopacity="0"
     inkscape:pagecheckerboard="0"
     inkscape:deskcolor="#d1d1d1"
     inkscape:document-units="px"
     inkscape:zoom="0.67348485"
     inkscape:cx="275.43307"
     inkscape:cy="-132.14848"
     inkscape:current-layer="layer1"
     inkscape:export-bgcolor="#ffffffff" /><defs
     id="defs1" /><g
     inkscape:label="Vrstva 1"
     inkscape:groupmode="layer"
     id="layer1"
     transform="translate(0,-267.10207)"><path
       style="fill:#000000;fill-opacity:1;stroke:none;stroke-width:1.04553"
       d="m -2.5288493,267.52794 c -14.3189627,1.20151 -25.7057947,12.57538 -26.9227017,26.89 l 7.286117,0.65345 c 0.903541,-10.75233 9.41999,-19.30839 20.1593518,-20.25735 z"
       id="path2997-7-4"
       inkscape:connector-curvature="0" /><path
       style="fill:#000000;fill-opacity:1;stroke:none;stroke-width:1.04553"
       d="m 2.5681638,267.32956 c 14.3189422,1.20155 25.7057702,12.57542 26.9226762,26.88993 l -7.286114,0.65344 C 21.301181,284.1206 12.784738,275.56463 2.0453913,274.6157 Z"
       id="path2997-7-0-7"
       inkscape:connector-curvature="0" /><path
       style="fill:#000000;fill-opacity:1;stroke:none;stroke-width:1.04553"
       d="M -2.4915138,326.4259 C -16.810466,325.22437 -28.197296,313.85058 -29.414202,299.53597 l 7.286114,-0.65349 c 0.903537,10.75234 9.41999,19.30842 20.1593441,20.25738 z"
       id="path2997-7-9-9"
       inkscape:connector-curvature="0" /><path
       style="fill:#000000;fill-opacity:1;stroke:none;stroke-width:1.04553"
       d="M 2.6615084,326.61263 C 16.980451,325.41109 28.367279,314.0373 29.584185,299.72267 l -7.286113,-0.65343 c -0.903538,10.75231 -9.419988,19.30843 -20.1593359,20.25734 z"
       id="path2997-7-03-8"
       inkscape:connector-curvature="0" /><circle
       style="fill:none;stroke:#e11919;stroke-width:0.522773;stroke-linecap:round;stroke-miterlimit:4;stroke-dasharray:none;stroke-opacity:1"
       id="path2995-5-8"
       cx="73.739487"
       cy="296.75903"
       r="22.257933" /><circle
       id="path2997-1-6"
       style="fill:none;stroke:#e11919;stroke-width:0.522773;stroke-linecap:round;stroke-miterlimit:4;stroke-dasharray:none;stroke-opacity:1"
       cx="73.739471"
       cy="296.75903"
       r="29.561316" /><path
       style="fill:none;stroke:#000000;stroke-width:1.04553px;stroke-linecap:butt;stroke-linejoin:miter;stroke-opacity:1"
       d="M 34.438329,296.75896 H 113.04062"
       id="path3010-6-8"
       inkscape:connector-curvature="0" /><path
       style="fill:none;stroke:#000000;stroke-width:1.04553px;stroke-linecap:butt;stroke-linejoin:miter;stroke-opacity:1"
       d="m 73.739474,260.91181 v 71.69425"
       id="path3012-3-8"
       inkscape:connector-curvature="0" /><path
       inkscape:connector-curvature="0"
       id="path3014-5-4"
       d="m 34.58231,293.39786 78.31431,6.72224"
       style="fill:none;stroke:#000000;stroke-width:1.04553px;stroke-linecap:butt;stroke-linejoin:miter;stroke-opacity:1" /><path
       inkscape:connector-curvature="0"
       id="path3016-5-3"
       d="m 76.805164,261.04312 -6.13137,71.43162"
       style="fill:none;stroke:#000000;stroke-width:1.04553px;stroke-linecap:butt;stroke-linejoin:miter;stroke-opacity:1" /><path
       inkscape:connector-curvature="0"
       id="path3018-4-1"
       d="m 34.584986,300.15092 78.308984,-6.78389"
       style="fill:none;stroke:#000000;stroke-width:1.04553px;stroke-linecap:butt;stroke-linejoin:miter;stroke-opacity:1" /><path
       inkscape:connector-curvature="0"
       id="path3020-7-4"
       d="m 70.645624,261.04556 6.18772,71.42676"
       style="fill:none;stroke:#000000;stroke-width:1.04553px;stroke-linecap:butt;stroke-linejoin:miter;stroke-opacity:1" /><path
       style="fill:#000000;fill-opacity:1;stroke:none;stroke-width:1.04553"
       d="m 71.218984,267.31577 c -14.318962,1.20151 -25.705794,12.57538 -26.922701,26.89 l 7.286117,0.65345 c 0.903541,-10.75233 9.41999,-19.30839 20.159354,-20.25735 z"
       id="path2997-7-4-9"
       inkscape:connector-curvature="0" /><path
       style="fill:#000000;fill-opacity:1;stroke:none;stroke-width:1.04553"
       d="m 76.315994,267.11739 c 14.31895,1.20155 25.705766,12.57542 26.922676,26.88993 l -7.286106,0.65344 c -0.90355,-10.75233 -9.41999,-19.3083 -20.15934,-20.25723 z"
       id="path2997-7-0-7-2"
       inkscape:connector-curvature="0" /><path
       style="fill:#000000;fill-opacity:1;stroke:none;stroke-width:1.04553"
       d="M 71.256324,326.21373 C 56.937368,325.0122 45.550538,313.63841 44.333632,299.3238 l 7.286114,-0.65349 c 0.903537,10.75234 9.41999,19.30842 20.159348,20.25738 z"
       id="path2997-7-9-9-0"
       inkscape:connector-curvature="0" /><path
       style="fill:#000000;fill-opacity:1;stroke:none;stroke-width:1.04553"
       d="m 76.409344,326.40046 c 14.31894,-1.20154 25.705766,-12.57533 26.922666,-26.88996 l -7.286106,-0.65343 c -0.90354,10.75231 -9.41999,19.30843 -20.15933,20.25734 z"
       id="path2997-7-03-8-6"
       inkscape:connector-curvature="0" /></g></svg>
