<svg width="30" height="30" viewBox="0 0 30 30" fill="none" xmlns="http://www.w3.org/2000/svg">
<rect width="30" height="30" fill="white"/>
<g style="mix-blend-mode:difference">
<path d="M7.98948 8.68316C8.49072 8.20844 8.51222 7.41728 8.0375 6.91604C7.56279 6.41481 6.77162 6.39331 6.27039 6.86802L7.12994 7.77559L7.98948 8.68316ZM25.4924 11.4538L24.3636 11.9909L24.3636 11.9909L25.4924 11.4538ZM22.7931 7.77559L21.8843 8.63389L21.8843 8.63389L22.7931 7.77559ZM21.0201 6.36256L19.9047 5.7984L19.4485 6.70046L20.2351 7.33531L21.0201 6.36256ZM22.7883 2.86664L23.9037 3.4308L25.0032 1.25694L22.5961 1.6315L22.7883 2.86664ZM9.73933 4.89713L9.54713 3.662L7.89451 3.91915L8.60919 5.43127L9.73933 4.89713ZM14.8196 15.6459L13.6895 16.1801L14.7946 18.5183L15.9403 16.1997L14.8196 15.6459ZM18.3243 11.3748C18.6301 10.7559 18.3763 10.0063 17.7574 9.70044C17.1385 9.39462 16.3888 9.64844 16.083 10.2674L17.2036 10.8211L18.3243 11.3748ZM7.12994 7.77559L6.27039 6.86802C3.86202 9.14896 2.13963 12.3538 2.13963 15.9581H3.38963H4.63963C4.63963 13.1715 5.97568 10.5904 7.98948 8.68316L7.12994 7.77559ZM3.38963 15.9581H2.13963C2.13963 23.0395 7.88019 28.78 14.9615 28.78V27.53V26.28C9.2609 26.28 4.63963 21.6587 4.63963 15.9581H3.38963ZM14.9615 27.53V28.78C22.0428 28.78 27.7834 23.0395 27.7834 15.9581H26.5334H25.2834C25.2834 21.6587 20.6621 26.28 14.9615 26.28V27.53ZM26.5334 15.9581H27.7834C27.7834 14.1581 27.3522 12.4534 26.6211 10.9168L25.4924 11.4538L24.3636 11.9909C24.9499 13.2231 25.2834 14.5627 25.2834 15.9581H26.5334ZM25.4924 11.4538L26.6211 10.9168C25.8764 9.35141 24.7715 8.04979 23.7018 6.91729L22.7931 7.77559L21.8843 8.63389C22.9058 9.71535 23.791 10.7874 24.3636 11.9909L25.4924 11.4538ZM22.7931 7.77559L23.7018 6.91729C23.368 6.56383 22.9796 6.26059 22.6522 6.01769C22.2851 5.74523 22.0372 5.57705 21.8052 5.38981L21.0201 6.36256L20.2351 7.33531C20.5154 7.56149 20.8988 7.8297 21.1625 8.02534C21.466 8.25055 21.7079 8.44711 21.8843 8.63389L22.7931 7.77559ZM21.0201 6.36256L22.1356 6.92672L23.9037 3.4308L22.7883 2.86664L21.6728 2.30248L19.9047 5.7984L21.0201 6.36256ZM22.7883 2.86664L22.5961 1.6315L9.54713 3.662L9.73933 4.89713L9.93152 6.13227L22.9805 4.10177L22.7883 2.86664ZM9.73933 4.89713L8.60919 5.43127L13.6895 16.1801L14.8196 15.6459L15.9497 15.1118L10.8695 4.36299L9.73933 4.89713ZM14.8196 15.6459L15.9403 16.1997L18.3243 11.3748L17.2036 10.8211L16.083 10.2674L13.6989 15.0922L14.8196 15.6459ZM3.23999 16.2703V17.5203H7.15663V16.2703V15.0203H3.23999V16.2703ZM14.9899 27.3959L16.2398 27.379L16.183 23.1785L14.9331 23.1954L13.6833 23.2123L13.74 27.4128L14.9899 27.3959ZM26.8533 16.2702L26.8689 15.0203L22.3279 14.9636L22.3123 16.2135L22.2967 17.4634L26.8377 17.5201L26.8533 16.2702Z" fill="white"/>
</g>
</svg>
