<svg width="211" height="110" viewBox="0 0 211 110" fill="none" xmlns="http://www.w3.org/2000/svg">
<rect width="211" height="110" fill="white"/>
<g style="mix-blend-mode:difference" clip-path="url(#clip0_4676_3312)">
<path d="M67.4431 10.1353C64.8324 10.4321 62.4083 12.0476 61.0848 14.6858L34.7539 67.1748C32.6363 71.396 34.1608 76.5884 38.1716 78.8171L92.4823 108.996C96.4931 111.225 101.427 109.62 103.544 105.399L129.875 52.91C131.993 48.6888 130.47 43.4962 126.459 41.2675L72.1469 11.0888C70.6428 10.253 69.0096 9.95716 67.4431 10.1353ZM71.9077 32.2276L79.6306 36.518C79.0715 37.6455 79.4096 36.9359 78.2501 39.2451C78.571 39.3552 78.8316 39.6823 79.2989 39.8081C81.4649 41.2783 84.3287 42.0635 85.4086 44.9697C86.6175 48.5666 86.8989 52.6438 87.6345 56.4776C87.9816 57.9768 87.9836 59.8025 88.8452 60.9494C92.6815 63.5057 96.8394 65.4632 100.841 67.7071C101.372 67.0728 101.958 66.4916 102.608 66.0565C106.318 63.4662 111.174 64.979 112.235 69.3769C113.642 73.9557 110.163 80.4727 105.718 81.3495C101.397 82.6207 97.5558 78.2548 98.3858 73.1671C98.8583 72.0838 98.0236 71.8827 97.3986 71.5149C96.2693 70.9857 95.2089 69.8971 93.8412 70.1809C91.0603 71.1548 88.2347 72.6818 85.3993 73.9347C82.9397 74.9217 80.3764 76.636 77.8899 76.2217C75.4443 75.6771 73.4261 74.0537 71.2048 72.9682C69.8555 74.1615 68.1377 74.4938 66.765 73.9316L66.7589 73.9325C65.3645 73.4302 64.3982 72.0095 64.3514 70.2008C64.039 67.0517 66.7307 63.5629 69.4579 63.5731C71.8115 63.513 73.661 65.8295 73.3637 68.6781C74.2598 69.1748 75.152 69.6772 76.0503 70.1699C77.2647 70.685 78.376 71.705 79.768 71.6484C83.1012 70.4221 86.342 68.6217 89.6309 67.1293L58.5494 49.8571C57.925 50.9336 57.3635 52.8617 56.0845 52.692C54.4877 49.9153 53.0547 46.9785 51.7578 43.9559C51.8103 43.6329 51.9204 43.3422 52.2377 43.1763C52.9378 43.0185 54.1869 42.8306 54.9167 42.6C57.1353 42.3115 59.4107 41.7192 61.5822 41.8754C62.3517 42.9122 61.1856 44.4225 60.7071 45.5573L83.6464 58.305C83.3638 56.5527 83.0937 54.795 82.8009 53.0469C82.3327 50.9466 82.2483 48.5729 81.3309 46.7426C79.7966 45.3092 77.817 44.5976 76.0768 43.5077L74.7148 46.2207L67.0289 41.9514L71.9077 32.2276Z" fill="#414143"/>
<path d="M21.6451 0.093087C19.467 0.528874 17.1703 2.46647 15.7144 5.36852L1.31682 34.0682C-0.800796 38.2894 -0.312919 42.9052 2.41006 44.4183L33.8975 61.9166L55.9394 17.9775L24.4522 0.480758C23.6013 0.00795464 22.6352 -0.104983 21.6451 0.093087ZM33.8299 14.0316L41.546 18.318L35.9658 29.4397L28.2513 25.1531L33.8299 14.0316ZM23.9113 33.8037L31.6274 38.0901L26.0487 49.2115L18.3324 44.9236L23.9113 33.8037Z" fill="#414143"/>
<path d="M126.004 91.5751L132.617 78.3917C133.59 76.4526 133.752 74.5466 132.981 74.1181L124.063 69.1626L113.938 89.3462L122.856 94.3017C123.627 94.7302 125.031 93.5141 126.004 91.5751Z" fill="#414143"/>
<path d="M188.999 19.2153C179.837 18.3677 171.237 21.4006 165.993 26.3485C158.559 33.3643 157.809 44.6905 170.08 51.546L170.196 51.6066L181.485 56.8212C187.508 59.705 190.362 63.6558 191.217 67.9079C192.101 72.2984 190.77 77.1874 187.566 81.4881C180.808 90.5607 166.082 97.638 148.044 88.7429L136.404 82.4848L133.318 80.9364L129.236 89.5248L131.318 90.756L142.288 96.3979C163.825 107.276 185.202 98.9549 194.545 85.6995C198.876 79.5553 200.625 72.5067 199.144 66.1178C197.73 60.0162 193.267 54.5467 185.774 51.0341L185.751 51.0209L174.96 46.1424C165.575 41.0039 166.547 34.1241 171.494 29.2555C176.209 24.6148 184.798 21.8521 195.155 25.8794L204.785 30.0603L207.776 31.3601L211 26.8139L208.065 25.5595L198.434 21.4467L198.365 21.4235C195.189 20.2049 192.042 19.4968 188.999 19.2153Z" fill="#414143"/>
</g>
<defs>
<clipPath id="clip0_4676_3312">
<rect width="211" height="110" fill="white"/>
</clipPath>
</defs>
</svg>
