<svg width="30" height="30" viewBox="0 0 30 30" fill="none" xmlns="http://www.w3.org/2000/svg">
<rect width="30" height="30" fill="white"/>
<g style="mix-blend-mode:difference">
<path d="M15.0009 1C7.28065 1 1 7.28063 1 15.0009C1 22.7212 7.28065 29 15.0009 29C22.7212 29 29 22.7212 29 15.0009C29 12.8254 28.487 10.7722 27.5981 8.93376L26.693 12.2025C26.9064 13.1015 27.0321 14.0358 27.0321 15.0009C27.0321 21.6573 21.6574 27.0321 15.0009 27.0321C8.34473 27.0318 2.97002 21.6573 2.97002 15.0009C2.96976 8.34447 8.34473 2.96974 15.0009 2.96974C17.9166 2.96974 20.587 3.9992 22.6669 5.71745L23.4317 3.84877C21.0836 2.06874 18.1686 1 15.0009 1V1ZM17.3227 25.1409C18.8745 25.2128 19.9481 24.6113 20.9791 23.709C21.7884 22.9569 22.6046 22.1624 23.1058 21.1634C23.4593 20.3922 23.3314 19.4695 22.9804 18.7212C22.7059 18.1932 22.3058 17.6481 21.6928 17.5067C21.1857 17.372 20.6928 17.1981 20.1988 17.0229C19.7228 16.8841 19.2901 17.217 18.8634 17.3777C17.952 17.7876 17.2922 18.6853 17.1792 19.6788C17.0771 20.5498 17.5057 21.5028 17.1071 22.0874C16.4144 22.8646 14.0686 22.6682 12.6773 22.0761C13.0172 23.2934 14.9686 24.9135 17.3227 25.1373V25.1409V25.1409ZM6.53627 18.6008C7.15813 18.0851 7.88674 17.586 8.70478 17.6246C9.23126 17.6946 9.55589 18.2038 9.84899 18.6238C10.3279 19.3281 10.8552 20.0314 11.5822 20.4555C11.919 20.6176 11.7825 21.0158 11.4827 21.1143C11.0467 21.3862 10.6461 21.731 10.1604 21.9019C9.45327 22.1999 8.69726 22.4027 7.93169 22.349C7.35093 22.3136 6.74331 22.1952 6.28428 21.7824C5.81724 21.4041 5.48511 20.7656 5.60607 20.1278C5.69834 19.5018 6.0819 18.983 6.53602 18.6005L6.53627 18.6008V18.6008ZM21.3252 13.1317L24.173 14.1379L22.5697 17.1857L20.6884 16.5258L21.3252 13.1317V13.1317ZM5.35149 13.0167C5.87901 12.4246 6.58357 11.9508 7.36309 11.9053C8.23669 11.882 9.13951 12.0234 9.9043 12.5013C10.178 12.7104 10.0557 13.1139 9.90222 13.3617C9.66805 13.8787 9.2938 14.2958 8.97434 14.7507C8.48482 15.3878 7.92032 15.9789 7.2478 16.3909C6.96143 16.5323 6.57218 16.5067 6.35663 16.2392C6.13719 15.9722 5.82446 15.8603 5.53524 15.7106C5.19329 15.5214 4.85187 15.3147 4.56291 15.0415C4.32228 14.6866 4.47036 14.2149 4.67946 13.8877C4.86607 13.5667 5.10879 13.2891 5.35149 13.0167V13.0167ZM26.0905 1.82165L27.7529 2.36571L24.5405 13.2444L21.6499 12.2111L26.0905 1.82165V1.82165ZM10.034 6.12221C10.5812 6.13565 11.0625 6.46467 11.5114 6.76629C11.9079 7.06017 12.3165 7.48714 12.3152 8.03999C12.2783 8.54891 11.9462 8.95496 11.6502 9.32611C11.0635 9.91799 10.7089 10.7831 9.92417 10.4915C9.44964 10.1739 8.97407 9.84587 8.58069 9.41476C8.32559 9.13432 8.08008 8.83296 7.90768 8.48636C7.79215 8.17776 7.95135 7.84848 8.15864 7.63447C8.68771 7.02062 9.36901 6.23438 10.034 6.12221V6.12221ZM13.7936 6.28426C13.8182 5.97437 13.9735 5.67584 14.2255 5.51482C14.6311 5.18916 15.1588 5.11653 15.6517 5.15013C15.9195 5.13953 16.2198 5.1951 16.3917 5.43883C16.7137 5.81644 16.9084 6.29253 17.0955 6.75621C17.1935 7.04414 17.2942 7.33724 17.3333 7.64119C17.317 7.88725 17.044 8.00226 16.8443 7.94101C16.508 7.8813 16.1487 7.74302 15.8192 7.91206C15.6285 8.01312 15.4201 8.10513 15.203 8.06171C14.8435 8.00226 14.5739 7.71123 14.3286 7.44657C14.0968 7.17467 13.9006 6.8565 13.8037 6.50137C13.7928 6.42926 13.7903 6.35689 13.7936 6.28452V6.28426V6.28426Z" fill="white"/>
</g>
</svg>
