<svg width="17" height="17" viewBox="0 0 17 17" fill="none" xmlns="http://www.w3.org/2000/svg">
<rect width="17" height="17" fill="white"/>
<g style="mix-blend-mode:difference" clip-path="url(#clip0_4671_2954)">
<path d="M3.00702 0L4.96687 8.51191L3.00702 17H7.14179L9.10164 8.51191L7.14179 0H3.00702ZM4.22594 0.977494H6.32927L8.12179 8.51191L6.2814 16.1179H4.27382L6.01846 8.51191L4.22594 0.977494ZM0 13.5357L1.18653 8.38564L0 3.23543H2.49789L3.68458 8.38564L2.49789 13.5357H0ZM9.34846 13.4485L10.535 8.29847L9.34846 3.14827H11.8465L13.033 8.29847L11.8465 13.4485H9.34846ZM13.3154 13.4443L14.5019 8.29421L13.3154 3.144H15.8135L17 8.29421L15.8135 13.4443H13.3154Z" fill="white"/>
</g>
<defs>
<clipPath id="clip0_4671_2954">
<rect width="17" height="17" fill="white"/>
</clipPath>
</defs>
</svg>
