<svg width="30" height="30" viewBox="0 0 30 30" fill="none" xmlns="http://www.w3.org/2000/svg">
<rect width="30" height="30" fill="white"/>
<g style="mix-blend-mode:difference">
<path d="M25.7158 1C27.5284 1.00002 28.9999 2.48751 29 4.31934V25.6807C28.9999 27.5128 27.5284 29 25.7158 29H4.28418C2.47159 29 1.00013 27.5128 1 25.6807V4.31934C1.00013 2.48751 2.47159 1.00002 4.28418 1H25.7158ZM21.3428 15.1748C20.5408 15.1748 19.8479 15.3416 19.2646 15.6748C18.6814 16.0081 18.2334 16.4536 17.9209 17.0107C17.6085 17.5627 17.4522 18.175 17.4521 18.8467H19.5225C19.5225 18.451 19.5902 18.0992 19.7256 17.792C19.8662 17.4849 20.0695 17.245 20.335 17.0732C20.6057 16.8963 20.9315 16.8076 21.3115 16.8076C21.6552 16.8076 21.9444 16.8806 22.1787 17.0264C22.4182 17.1721 22.6006 17.3781 22.7256 17.6436C22.8505 17.9039 22.913 18.2088 22.9131 18.5576C22.9131 18.7971 22.8635 19.05 22.7646 19.3154C22.6709 19.5758 22.5119 19.8677 22.2881 20.1904C22.0642 20.5133 21.7593 20.8937 21.374 21.3311L17.6787 25.3232V26.7139H25.3818V25.0889H20.3193L22.5381 22.6201C22.9026 22.2504 23.2335 21.8883 23.5303 21.5342C23.827 21.1801 24.0824 20.831 24.2959 20.4873C24.5145 20.1385 24.684 19.7867 24.8037 19.4326C24.9234 19.0786 24.9834 18.7189 24.9834 18.3545C24.9833 17.6984 24.8427 17.133 24.5615 16.6592C24.2803 16.1853 23.8687 15.8206 23.3271 15.5654C22.7855 15.305 22.1239 15.1748 21.3428 15.1748Z" fill="white"/>
</g>
</svg>
