<svg width="122" height="25" viewBox="0 0 122 25" fill="none" xmlns="http://www.w3.org/2000/svg">
<rect width="122" height="25" fill="white"/>
<g style="mix-blend-mode:difference" clip-path="url(#clip0_4670_1717)">
<path d="M115.5 25H6L0 0H122L115.5 25ZM68.375 3C66.9847 3 65.9273 3.28286 65.2031 3.84766C64.4796 4.41315 64.1182 5.27284 64.1182 6.42676V18.5771C64.1182 19.7311 64.4796 20.5908 65.2031 21.1562C65.9273 21.7211 66.9846 22.0039 68.375 22.0039H78.5449V18.542H69.7178V13.3848H76.6885V9.88867H69.7178V6.46191H78.5449V3H68.375ZM15.2568 2.99902C13.8665 2.99902 12.8093 3.2824 12.0859 3.84766C11.3619 4.4119 11 5.27211 11 6.42578V18.5762C11 19.7299 11.3618 20.59 12.0859 21.1553C12.8093 21.7205 13.8665 22.0029 15.2568 22.0029H25.4277V18.541H16.5996V13.3838H23.5703V9.8877H16.5996V6.46094H25.4277V2.99902H15.2568ZM27.999 6.46094H37.8262V18.541H33.5977V8.19141H27.999V22.0029H39.1689C40.5589 22.0029 41.6158 21.7203 42.3398 21.1553C43.0632 20.59 43.4248 19.7299 43.4248 18.5762V6.4248C43.4247 5.27132 43.0631 4.41182 42.3398 3.84766C41.6158 3.28249 40.559 2.99907 39.1689 2.99902H27.999V6.46094ZM50.2539 2.99902C48.8636 2.99902 47.8063 3.28242 47.083 3.84766C46.359 4.41182 45.9972 5.27132 45.9971 6.4248V18.5762C45.9971 19.7299 46.3589 20.59 47.083 21.1553C47.8063 21.7204 48.8638 22.0029 50.2539 22.0029H57.167C58.5571 22.0029 59.6146 21.7204 60.3379 21.1553C61.062 20.59 61.4238 19.7299 61.4238 18.5762V9.8877H55.8242V18.541H51.5967V6.46094H61.4238V2.99902H50.2539ZM83.9668 7.19727H87.6406V22H91.7051V7.19727H95.3682V3H83.9668V7.19727ZM102.053 12.2793L97.1592 22H101.669L104.514 16.0615L107.39 22H112L106.976 12.6826L111.647 3H107.097L104.534 8.87402L101.871 3H97.4521L102.053 12.2793Z" fill="white"/>
</g>
<defs>
<clipPath id="clip0_4670_1717">
<rect width="122" height="25" fill="white"/>
</clipPath>
</defs>
</svg>
