<svg width="30" height="30" viewBox="0 0 30 30" fill="none" xmlns="http://www.w3.org/2000/svg">
<rect width="30" height="30" fill="white"/>
<g style="mix-blend-mode:difference">
<path d="M4.19722 1C2.45051 1 1 2.45049 1 4.1972L1 25.8349C1 27.5816 2.45051 29 4.19722 29H25.8028C27.5495 29 29 27.5816 29 25.8349V4.1972C29 2.45049 27.5495 1 25.8028 1H4.19722ZM4.19722 3.16395H25.8028C26.383 3.16395 26.8039 3.61695 26.8039 4.1972V7.49133H3.16396V4.1972C3.16396 3.61695 3.61697 3.16395 4.19722 3.16395ZM3.16396 10.4302H26.8039L26.8039 25.8349C26.8039 26.4154 26.383 26.8361 25.8028 26.8361H4.19722C3.61697 26.8361 3.16396 26.4154 3.16396 25.8349L3.16396 10.4302Z" fill="white"/>
</g>
</svg>
