<svg width="30" height="30" viewBox="0 0 30 30" fill="none" xmlns="http://www.w3.org/2000/svg">
<rect width="30" height="30" fill="white"/>
<g style="mix-blend-mode:difference">
<path d="M19.4891 1.00052L7.0837 1.10256C5.14716 1.12865 3.33826 2.81947 3.31111 5.28222L3.34505 13.0977L1.27199 15.4083L1 15.7139V24.6846C1.00548 25.9057 1.28921 26.9926 1.91776 27.7768C2.55231 28.5684 3.54003 28.9859 4.53479 29H19.7951C20.9013 28.9502 21.9117 28.4585 22.5481 27.6409C22.8216 27.2894 23.0171 26.913 23.1599 26.4856L21.2565 24.8203C21.2372 25.5278 21.0464 26.0179 20.8149 26.3157C20.5711 26.6289 20.2829 26.7922 19.7272 26.8254C19.7128 26.8261 19.7079 26.8246 19.6933 26.8254H4.56873C4.13516 26.8144 3.85952 26.7199 3.61703 26.4175C3.37454 26.1153 3.17486 25.5644 3.17512 24.6846V16.5633L5.24843 14.1846L5.55435 13.8788L5.52042 13.4711L5.48649 5.28195C5.50319 3.75764 6.28549 3.30017 7.0837 3.27694H7.11789L18.4357 3.1749H19.5573C20.1456 3.15846 20.5293 3.3033 20.7807 3.54861C21.0323 3.79366 21.2659 4.26497 21.2565 5.24751V11.2281H23.4319V5.24751C23.445 3.87404 23.0782 2.73413 22.3103 1.98541C21.8394 1.52637 21.2456 1.13779 20.6447 1L19.4891 1.00052ZM20.9115 22.7582C20.9997 22.8727 21.1002 22.9774 21.2119 23.0698L25.9385 27.2395C26.3567 27.5973 26.8981 27.7539 27.4261 27.6701C28.4462 27.5078 29.1452 26.4905 28.9743 25.4161C28.8988 24.9406 28.6613 24.5074 28.3065 24.1974L23.5478 20.0741C23.4199 19.9556 23.2792 19.857 23.1299 19.7792C23.4849 18.7826 23.6029 17.6745 23.4225 16.5401C22.8678 13.051 19.7068 10.6725 16.3931 11.1989C13.0797 11.7255 10.8122 14.9667 11.3668 18.4559C11.9218 21.9453 15.0828 24.3237 18.3962 23.7971C19.3312 23.6483 20.1829 23.2838 20.9115 22.7582ZM16.6829 13.0215C19.0172 12.6504 21.209 14.3717 21.5998 16.8298C21.9905 19.2878 20.4408 21.6037 18.1065 21.9748C15.7722 22.3456 13.5806 20.6242 13.1896 18.1662C12.7988 15.7081 14.3488 13.3923 16.6829 13.0215ZM7.24945 4.69608H9.46685V9.85464H7.24945V4.69608ZM13.987 4.67468H16.2044V9.83324H13.987V4.67468ZM10.6608 4.67468H12.8782V9.83324H10.6608V4.67468ZM17.0997 4.63189H19.3171V9.79044H17.0997V4.63189Z" fill="white"/>
</g>
</svg>
