<svg width="30" height="30" viewBox="0 0 30 30" fill="none" xmlns="http://www.w3.org/2000/svg">
<rect width="30" height="30" fill="white"/>
<g style="mix-blend-mode:difference">
<path d="M29 4.18194C29 2.42572 27.5746 1 25.8188 1H4.18118C2.42539 1 1 2.42572 1 4.18194V25.8181C1 27.574 2.42539 29 4.18118 29H25.8188C27.5746 29 29 27.574 29 25.8181V4.18194V4.18194ZM26.8439 4.18194V25.8181C26.8439 26.3838 26.3844 26.8432 25.8188 26.8432H4.18118C3.61532 26.8432 3.15606 26.3838 3.15606 25.8181V4.18194C3.15606 3.61594 3.61532 3.15657 4.18118 3.15657H25.8188C26.3844 3.15657 26.8439 3.61594 26.8439 4.18194V4.18194ZM15.0114 13.2202H20.9217V23.8124H22.7029V25.1416H15.0114V23.8124H16.7926V14.5908H15.0114V13.2202ZM18.6547 7.69565C19.2697 7.69565 19.8053 7.89984 20.2335 8.31858C20.6695 8.73007 20.8811 9.24948 20.8811 9.85533C20.8811 10.4464 20.6695 10.9319 20.2335 11.3507C19.8053 11.7624 19.2697 11.9739 18.6547 11.9739C18.0241 11.9739 17.4715 11.7624 17.0355 11.3507C16.5995 10.9394 16.3879 10.4539 16.3879 9.85533C16.3879 9.24948 16.5995 8.73007 17.0355 8.31858C17.4715 7.89984 18.0241 7.69565 18.6547 7.69565Z" fill="white"/>
</g>
</svg>
