<svg width="30" height="30" viewBox="0 0 30 30" fill="none" xmlns="http://www.w3.org/2000/svg">
<rect width="30" height="30" fill="white"/>
<g style="mix-blend-mode:difference">
<path fill-rule="evenodd" clip-rule="evenodd" d="M29 4.34824C29 2.50023 27.4995 1 25.6517 1H4.34826C2.5005 1 1 2.50023 1 4.34824V25.6518C1 27.4998 2.5005 29 4.34826 29H25.6517C27.4995 29 29 27.4998 29 25.6518V4.34824ZM3.17442 17.8831V25.6518C3.17442 26.2997 3.70033 26.8258 4.34826 26.8258H25.6517C26.2997 26.8258 26.8256 26.2997 26.8256 25.6518V4.34824C26.8256 3.70032 26.2997 3.17414 25.6517 3.17414H4.34826C3.70033 3.17414 3.17442 3.70032 3.17442 4.34824V14.0952L8.03217 8.83919L13.0938 14.5449L21.2929 5.1035C21.7606 4.56498 22.5776 4.50734 23.1164 4.97507C23.6549 5.4428 23.7126 6.25984 23.2449 6.79862L13.1144 18.4638L7.9928 12.6904L3.31471 17.7521C3.2707 17.7997 3.22385 17.8434 3.17442 17.8831ZM11.3014 19.6948V24.6787H13.8864V19.6948H11.3014ZM6.30232 17.3803V24.6787H8.88758V17.3803H6.30232ZM21.392 13.5849V24.6787H23.977V13.5849H21.392ZM16.3002 17.3803V24.6787H18.8855V17.3803H16.3002Z" fill="white"/>
</g>
</svg>
