<svg width="30" height="30" viewBox="0 0 30 30" fill="none" xmlns="http://www.w3.org/2000/svg">
<rect width="30" height="30" fill="white"/>
<g style="mix-blend-mode:difference">
<path fill-rule="evenodd" clip-rule="evenodd" d="M25 5C27.2091 5 29 6.79086 29 9L29 25C29 27.2091 27.2091 29 25 29H5.00001C2.79087 29 1.00001 27.2091 1.00001 25L1 9C1 6.79086 2.79086 5 5 5H11.5L15 1L18.5 5H25ZM5 7C3.89543 7 3 7.89543 3 9L3.00001 25C3.00001 26.1046 3.89544 27 5.00001 27H25C26.1046 27 27 26.1046 27 25L27 9C27 7.89543 26.1046 7 25 7H18L15 3.5L12 7H5Z" fill="white"/>
<rect x="6" y="9" width="4" height="4" rx="1" fill="white"/>
<rect x="13" y="9" width="4" height="4" rx="1" fill="white"/>
<rect x="20" y="9" width="4" height="4" rx="1" fill="white"/>
<rect x="6" y="15" width="4" height="4" rx="1" fill="white"/>
<rect x="6" y="21" width="4" height="4" rx="1" fill="white"/>
<rect x="13" y="15" width="4" height="4" rx="1" fill="white"/>
<path d="M13 22C13 21.4477 13.4477 21 14 21H16C16.5523 21 17 21.4477 17 22V24C17 24.5523 16.5523 25 16 25H14C13.4477 25 13 24.5523 13 24V22Z" fill="white"/>
<rect x="20" y="15" width="4" height="4" rx="1" fill="white"/>
<rect x="20" y="21" width="4" height="4" rx="1" fill="white"/>
</g>
</svg>
