<svg width="30" height="30" viewBox="0 0 30 30" fill="none" xmlns="http://www.w3.org/2000/svg">
<rect width="30" height="30" fill="white"/>
<g style="mix-blend-mode:difference">
<path d="M25.7158 1C27.5284 1.00002 28.9999 2.48751 29 4.31934V25.6807C28.9999 27.5128 27.5284 29 25.7158 29H4.28418C2.47159 29 1.00013 27.5128 1 25.6807V4.31934C1.00013 2.48751 2.47159 1.00002 4.28418 1H25.7158ZM21.3115 15.1748C20.7335 15.1748 20.2125 15.2817 19.749 15.4951C19.2856 15.7034 18.8896 15.9927 18.5615 16.3623C18.2387 16.7268 17.9912 17.1515 17.8193 17.6357C17.6475 18.1148 17.5616 18.6281 17.5615 19.1748C17.5615 19.7007 17.6319 20.1957 17.7725 20.6592C17.9131 21.1174 18.1215 21.5238 18.3975 21.8779C18.6787 22.2269 19.0251 22.5003 19.4365 22.6982C19.848 22.8962 20.3219 22.9951 20.8584 22.9951C21.2906 22.9951 21.6944 22.9066 22.0693 22.7295C22.4342 22.5521 22.7532 22.3191 23.0293 22.0332C22.9997 22.3752 22.9421 22.696 22.8506 22.9951C22.7204 23.4325 22.5093 23.8103 22.2178 24.1279C21.9314 24.4404 21.5536 24.6826 21.085 24.8545C20.6214 25.0264 20.0537 25.1123 19.3818 25.1123H19.2334V26.7998H19.4131C20.2099 26.7998 20.9183 26.6982 21.5381 26.4951C22.163 26.2868 22.6996 25.9925 23.1475 25.6123C23.6005 25.2321 23.973 24.7815 24.2646 24.2607C24.5562 23.74 24.7725 23.1642 24.9131 22.5342C25.0536 21.9041 25.124 21.2371 25.124 20.5342V19.8076C25.124 19.1411 25.0354 18.5262 24.8584 17.9639C24.6865 17.4015 24.4365 16.9143 24.1084 16.5029C23.7803 16.0864 23.3818 15.7607 22.9131 15.5264C22.4444 15.292 21.9104 15.1748 21.3115 15.1748ZM21.3037 16.8076C21.5484 16.8076 21.7777 16.865 21.9912 16.9795C22.2047 17.0888 22.3897 17.2556 22.5459 17.4795C22.7073 17.7034 22.8324 17.9823 22.9209 18.3154C23.0094 18.6434 23.0537 19.0265 23.0537 19.4639V20.2959C22.9665 20.4947 22.8478 20.6788 22.6943 20.8467C22.5277 21.0237 22.3296 21.167 22.1006 21.2764C21.8767 21.3805 21.6266 21.4326 21.3506 21.4326C21.0589 21.4326 20.8037 21.3727 20.585 21.2529C20.3663 21.1279 20.1839 20.9586 20.0381 20.7451C19.8975 20.5316 19.7907 20.2867 19.7178 20.0107C19.6501 19.7348 19.6162 19.4455 19.6162 19.1436C19.6162 18.8312 19.6527 18.5341 19.7256 18.2529C19.8037 17.9719 19.9132 17.7242 20.0537 17.5107C20.1995 17.2922 20.3767 17.12 20.585 16.9951C20.7932 16.8702 21.033 16.8076 21.3037 16.8076Z" fill="white"/>
</g>
</svg>
