<svg width="30" height="30" viewBox="0 0 30 30" fill="none" xmlns="http://www.w3.org/2000/svg">
<rect width="30" height="30" fill="white"/>
<g style="mix-blend-mode:difference">
<path d="M19.2757 1V7.26346C16.8427 7.9113 15.0665 10.1489 15.0665 12.786C15.0665 15.4231 16.8427 17.6273 19.2757 18.2749V29H22.1045V18.3085C24.5973 17.7023 26.4485 15.4655 26.4485 12.786C26.4485 10.1095 24.5934 7.87276 22.1045 7.26346V1H19.2757ZM10.4889 8.89663C9.30733 8.83611 8.22294 9.03214 7.00175 9.55869C3.37153 11.1246 2.48913 15.802 2.0112 19.2462C1.48673 23.027 1 28.9834 1 28.9834H3.81326C3.81326 28.9834 4.29221 23.3203 4.91109 19.7694C5.51263 16.3187 6.32805 13.0823 8.14949 12.1635C9.94869 11.3232 12.299 12.2346 13.1527 12.6422C13.3614 12.7423 13.5926 12.854 13.815 12.9512C13.8135 12.8918 13.815 12.8338 13.815 12.7746C13.815 11.8177 13.994 10.911 14.3447 10.0819C14.326 10.0679 14.3191 10.0464 14.3004 10.0376C13.1281 9.55455 11.8136 8.96516 10.4889 8.89663ZM20.7576 9.55326C22.5372 9.55326 23.9565 11.0064 23.9565 12.786C23.9565 14.5658 22.5372 15.9851 20.7576 15.9851C18.9778 15.9851 17.5249 14.5658 17.5249 12.786C17.5249 11.0064 18.9778 9.55326 20.7576 9.55326ZM26.1749 3.76901C26.1749 3.76901 25.8661 5.48857 24.9387 7.30044C25.7701 7.93716 26.4513 8.74041 26.9251 9.68437C28.5992 7.01725 29 4.16625 29 4.16625L26.1749 3.76901Z" fill="white"/>
</g>
</svg>
