<?xml version="1.0" encoding="UTF-8" standalone="no"?>
<!-- Created with Inkscape (http://www.inkscape.org/) -->

<svg
   width="27"
   height="27"
   viewBox="0 0 7.1437497 7.1437497"
   version="1.1"
   id="svg1"
   xml:space="preserve"
   inkscape:version="1.4.1 (1:1.4.1+202503302257+93de688d07)"
   sodipodi:docname="mask_topmenu_gps.svg"
   inkscape:export-filename="mask_topmenu_gps_18.png"
   inkscape:export-xdpi="96"
   inkscape:export-ydpi="96"
   xmlns:inkscape="http://www.inkscape.org/namespaces/inkscape"
   xmlns:sodipodi="http://sodipodi.sourceforge.net/DTD/sodipodi-0.dtd"
   xmlns="http://www.w3.org/2000/svg"
   xmlns:svg="http://www.w3.org/2000/svg"><sodipodi:namedview
     id="namedview1"
     pagecolor="#ffffff"
     bordercolor="#999999"
     borderopacity="1"
     inkscape:showpageshadow="0"
     inkscape:pageopacity="0"
     inkscape:pagecheckerboard="0"
     inkscape:deskcolor="#d1d1d1"
     inkscape:document-units="px"
     inkscape:zoom="21.551515"
     inkscape:cx="25.357846"
     inkscape:cy="12.249719"
     inkscape:current-layer="layer1"
     inkscape:export-bgcolor="#ffffffff" /><defs
     id="defs1" /><g
     inkscape:label="Vrstva 1"
     inkscape:groupmode="layer"
     id="layer1"
     transform="translate(0,-289.85624)"><path
       id="path2"
       style="fill:#000000;fill-opacity:1;stroke-width:0.100345;stroke-linecap:round;stroke-linejoin:round"
       d="M 3.5718748 290.07328 C 2.4403998 290.07328 1.5229037 290.99078 1.5229044 292.12225 C 1.5229048 293.25374 2.5956065 294.55519 3.5718748 295.45538 C 4.5481431 294.50862 5.6208448 293.25374 5.6208453 292.12225 C 5.6208462 290.99078 4.7033496 290.07328 3.5718748 290.07328 z M 3.5718748 290.98072 A 1.141369 1.141369 0 0 1 4.7134072 292.12225 A 1.141369 1.141369 0 0 1 3.5718748 293.26327 A 1.141369 1.141369 0 0 1 2.4303425 292.12225 A 1.141369 1.141369 0 0 1 3.5718748 290.98072 z " /><path
       id="path3"
       style="baseline-shift:baseline;display:inline;overflow:visible;opacity:1;vector-effect:none;stroke-width:1.0836;stroke-linecap:round;stroke-linejoin:round;enable-background:accumulate;stop-color:#000000;stop-opacity:1"
       d="M 5.4322263 293.64722 L 5.0503375 294.19758 C 5.2127063 294.24522 5.3610454 294.30064 5.492171 294.36139 C 5.542036 294.38449 5.589191 294.40862 5.6337644 294.43322 L 5.6342812 294.43322 L 6.2053057 294.06632 C 6.0587912 293.94627 5.8872578 293.84468 5.6952594 293.75574 C 5.6115322 293.71698 5.5237294 293.68082 5.4322263 293.64722 z M 1.716691 293.69528 C 1.6693332 293.71467 1.6233028 293.73483 1.5781982 293.75574 C 1.3572897 293.85807 1.1633074 293.97754 1.0035563 294.12213 L 1.5595947 294.47973 C 1.6262977 294.43863 1.7003195 294.39892 1.7812865 294.36139 C 1.8748111 294.31808 1.9772994 294.27743 2.087211 294.24047 L 1.716691 293.69528 z M 6.5902951 294.54898 L 5.9856809 294.69212 C 5.9899609 294.69612 5.9940212 294.70116 5.9980832 294.70556 C 6.101263 294.81852 6.1267572 294.89904 6.1267576 294.96446 C 6.1267585 295.02986 6.1012616 295.11293 5.9980832 295.22594 C 5.8949052 295.3389 5.7202126 295.46186 5.492171 295.56752 C 5.454827 295.58482 5.415966 295.60176 5.375899 295.61816 L 6.0962685 295.94682 L 6.0967852 295.94682 C 6.2009899 295.87332 6.2948436 295.79276 6.3768715 295.70291 C 6.5538449 295.50906 6.6817664 295.25318 6.6817624 294.96446 C 6.6817615 294.8154 6.6476341 294.67588 6.5902951 294.54898 z M 0.66817624 294.58153 C 0.61898674 294.69953 0.58962887 294.82818 0.58962807 294.96446 C 0.58962408 295.25318 0.71961271 295.50906 0.89658606 295.70291 C 0.96891006 295.78211 1.0502932 295.85415 1.139982 295.92047 L 1.8484659 295.59749 C 1.8256849 295.58749 1.8031275 295.57762 1.7812865 295.56752 C 1.5532449 295.46184 1.3785523 295.33896 1.2753743 295.22594 C 1.1721964 295.11298 1.1466991 295.02988 1.1467 294.96446 C 1.1467004 294.90226 1.169785 294.82618 1.2609049 294.72158 L 0.66817624 294.58153 z M 2.4132893 295.78198 L 1.7316772 296.24086 C 2.2556154 296.45277 2.914779 296.57418 3.6364704 296.57418 C 4.3313011 296.57418 4.9687307 296.46208 5.4828692 296.26463 L 4.7904051 295.798 C 4.4448771 295.8756 4.0517556 295.92047 3.6364704 295.92047 C 3.1928819 295.92047 2.7751913 295.86944 2.4132893 295.78198 z " /></g></svg>
