<svg width="30" height="30" viewBox="0 0 30 30" fill="none" xmlns="http://www.w3.org/2000/svg">
<rect width="30" height="30" fill="white"/>
<g style="mix-blend-mode:difference">
<path fill-rule="evenodd" clip-rule="evenodd" d="M29 4.28216C29 2.47087 27.5285 1 25.7158 1H4.28421C2.47153 1 1 2.47087 1 4.28216V25.7179C1 27.5294 2.47153 29 4.28421 29H25.7158C27.5285 29 29 27.5294 29 25.7179V4.28216ZM26.8257 4.28216V25.7179C26.8257 26.33 26.3283 26.827 25.7158 26.827H4.28421C3.67168 26.827 3.17434 26.33 3.17434 25.7179V4.28216C3.17434 3.67001 3.67168 3.17298 4.28421 3.17298H25.7158C26.3283 3.17298 26.8257 3.67001 26.8257 4.28216ZM17.4496 24.0827V19.4954H12.8591V18.1845H17.4496V13.5971H18.7611V18.1845H23.3515V19.4954H18.7611V24.0827H17.4496Z" fill="white"/>
</g>
</svg>
