<svg width="30" height="30" viewBox="0 0 30 30" fill="none" xmlns="http://www.w3.org/2000/svg">
<rect width="30" height="30" fill="white"/>
<g style="mix-blend-mode:difference">
<path fill-rule="evenodd" clip-rule="evenodd" d="M1.3671 21.9488L1.11408 22.2008L1.08383 22.5566C0.907464 24.6364 1.37478 26.2281 2.41198 27.3278C3.42919 28.4063 4.98311 28.9521 7.27591 29H7.75938L19.7165 16.8994L24.9512 16.7769L29 12.6667L29 8.87102L26.1348 5.72866L22.7925 9.27939L20.7191 9.20505L20.6547 7.72205L24.3349 3.97445L21.2705 1L16.9492 1.07562L13.0985 4.78401L12.9152 10.4604L1.3671 21.9488ZM22.5838 17.7339L28.5821 23.7563C29.9434 25.0955 25.2127 29.9518 23.8107 28.5276L16.88 21.6686L20.5819 17.7754L22.5838 17.7339ZM3.00006 23.0693L14.8356 11.2951L15.0181 5.6374L17.7482 3.008L20.4955 2.95981L21.5748 4.00752L18.6739 6.96197L18.8531 11.0854L23.6046 11.2561L26.1119 8.59211L27.0251 9.59342L26.9325 12.0436L24.1262 14.8496L18.88 14.9724L6.96171 27.1338C5.53767 27.0512 4.49074 26.6954 3.82782 25.9925C3.1813 25.307 2.94315 24.3185 3.00006 23.0693ZM4.86885 6.77689L9.58701 11.495L11.0082 10.0738L6.29007 5.35593L6.78739 4.85861L3.52019 1.5914L1 4.1116L4.2672 7.3788L4.86885 6.77689Z" fill="white"/>
</g>
</svg>
