<svg width="30" height="30" viewBox="0 0 30 30" fill="none" xmlns="http://www.w3.org/2000/svg">
<rect width="30" height="30" fill="white"/>
<g style="mix-blend-mode:difference" clip-path="url(#clip0_4670_1633)">
<path d="M14.7487 27.3459C16.6587 27.3459 18.2071 25.7975 18.2071 23.8875C18.2071 21.9776 16.6587 20.4292 14.7487 20.4292C12.8388 20.4292 11.2904 21.9776 11.2904 23.8875C11.2904 25.7975 12.8388 27.3459 14.7487 27.3459Z" fill="white"/>
<path d="M8.55857 16.0328C9.78609 16.0328 10.7812 15.0377 10.7812 13.8102C10.7812 12.5826 9.78609 11.5875 8.55857 11.5875C7.33104 11.5875 6.33594 12.5826 6.33594 13.8102C6.33594 15.0377 7.33104 16.0328 8.55857 16.0328Z" fill="white"/>
<path d="M23.6641 8.57574H19.5581V12.6818H23.6641V8.57574Z" fill="white"/>
<path d="M17.8957 8.34055H11.3296L14.6127 2.65411L17.8957 8.34055Z" fill="white"/>
<path d="M14.7062 7.65289V24.977" stroke="white" stroke-width="2.7"/>
<path d="M14.8384 19.8564C12.219 16.8862 8.20096 19.4742 8.75977 14.6952" stroke="white" stroke-width="2"/>
<path d="M14.7765 17.5535C17.4218 14.1121 21.5073 17.2669 21.4637 11.6604" stroke="white" stroke-width="2"/>
</g>
<defs>
<clipPath id="clip0_4670_1633">
<rect width="30" height="30" fill="white"/>
</clipPath>
</defs>
</svg>
