<svg width="97" height="96" viewBox="0 0 97 96" fill="none" xmlns="http://www.w3.org/2000/svg">
<rect width="96" height="96" transform="translate(0.5)" fill="white"/>
<g style="mix-blend-mode:difference" clip-path="url(#clip0_4670_1715)">
<path d="M48.0003 1.33331C73.7734 1.33349 94.6663 22.2271 94.6663 48.0003C94.6662 73.7734 73.7733 94.6661 48.0003 94.6663C22.2271 94.6663 1.33347 73.7735 1.33331 48.0003C1.33331 22.227 22.227 1.33331 48.0003 1.33331ZM35.0804 73.2991C35.941 75.8234 38.1339 77.3486 40.1331 79.0189H74.264C77.6012 77.7966 78.8598 75.5343 80.1712 73.2991H35.0804ZM36.595 13.1985C36.1724 13.2163 35.4783 13.4162 32.6761 14.222C30.7296 14.7817 30.3681 14.9762 29.9505 15.6878C29.5909 16.3006 29.5827 17.0017 29.8997 19.929C30.2906 23.5378 30.3189 23.4669 27.6224 25.6048C25.6532 27.1659 25.3664 27.3097 24.3558 27.2513C23.8511 27.2223 23.4407 27.1089 21.9935 26.597C18.6913 25.4292 18.5903 25.3976 18.2259 25.4095C17.4513 25.4359 16.6712 25.8194 16.3099 26.3519C16.1976 26.5174 15.5396 27.6586 14.847 28.887C13.6363 31.0345 13.5848 31.1448 13.5032 31.764C13.4324 32.3008 13.4473 32.4875 13.5931 32.8782C13.6893 33.1361 13.8716 33.4593 13.9984 33.596C14.1256 33.7334 15.078 34.5326 16.1155 35.3724C18.2848 37.1281 18.5966 37.4259 18.8265 37.9612C19.1735 38.7691 19.178 38.9598 18.8948 41.3235C18.4954 44.6587 18.5569 44.581 14.97 46.2991C13.6544 46.9293 12.4388 47.5559 12.2689 47.6927C11.8031 48.068 11.5253 48.5818 11.4437 49.2191C11.3671 49.8143 11.3727 49.8412 12.4398 53.5403C12.9944 55.4631 13.166 55.79 13.8401 56.2191C14.4895 56.6322 14.9703 56.6472 17.7659 56.3362C21.7127 55.8973 21.6742 55.8815 23.8226 58.5921C25.4042 60.5875 25.5329 60.8499 25.4593 61.8968C25.422 62.4275 25.3126 62.828 24.8607 64.0921C24.5566 64.9424 24.1454 66.1285 23.9456 66.7278C23.5918 67.7893 23.5836 67.8311 23.6634 68.3245C23.764 68.9462 24.1138 69.5666 24.5345 69.8724C24.8132 70.0749 28.8434 72.3522 29.3821 72.6116C30.0023 72.91 31.2295 72.7197 31.7952 72.2366C31.9346 72.1175 32.7836 71.1095 33.681 69.9974C35.4294 67.8304 35.6217 67.6305 36.1956 67.3821C36.93 67.064 37.1566 67.0387 39.0862 67.2669V56.1927C38.8626 56.1476 38.6709 56.1008 38.5257 56.055C37.0308 55.5832 35.2455 54.6115 34.1107 53.6507C31.5568 51.4884 29.9557 48.3613 29.6429 44.931C29.5484 43.8924 29.9122 40.9728 30.2581 39.9984C31.9746 35.1639 36.1183 31.9218 41.2122 31.429C42.2139 31.3321 44.6889 31.5939 45.7474 31.9085C47.3411 32.382 49.1199 33.3305 50.3206 34.347C51.2788 35.1582 52.1246 36.1405 52.8138 37.221H72.7786C71.457 32.4624 71.3569 32.2209 70.5267 31.7337C69.9139 31.3742 69.2144 31.3649 66.2874 31.6819C62.6785 32.0728 62.7484 32.1009 60.6107 29.4046C59.0284 27.4089 58.8983 27.1482 58.972 26.1009C59.0093 25.5709 59.1192 25.1671 59.5696 23.9046C60.665 20.8345 60.8151 20.3609 60.804 20.0042C60.7798 19.2362 60.3949 18.4531 59.8616 18.0911C59.6952 17.9782 58.554 17.3207 57.3265 16.6292C55.1837 15.4223 55.0689 15.3687 54.4505 15.2864C53.9148 15.2151 53.729 15.2293 53.348 15.3724C53.0961 15.4671 52.7772 15.6431 52.638 15.762C52.4988 15.8812 51.6506 16.8889 50.7542 18.0013C49.0069 20.1697 48.9025 20.2806 48.3323 20.5755C47.5975 20.9558 47.2651 20.9658 44.8714 20.6761C41.5687 20.2761 41.6076 20.3069 39.9017 16.7308C39.3049 15.4797 38.712 14.3109 38.5843 14.1331C38.231 13.6414 37.6476 13.3083 36.9954 13.2259C36.8471 13.2083 36.7358 13.1928 36.595 13.1985ZM43.1263 66.3382C43.6057 69.0328 45.3487 70.3065 47.637 70.9661H67.2318C70.6254 70.0553 71.5336 68.1087 72.2523 66.0833V60.1292C75.455 59.7975 78.5211 58.316 80.5052 55.7132C82.8181 52.7575 82.8832 48.3319 80.595 45.3441C78.6608 42.6492 75.5123 41.131 72.2523 40.7835V40.636H43.1263V66.3382ZM72.2523 46.1585C74.7493 46.5995 77.1598 49.0718 76.265 51.7171C75.623 53.5075 74.0327 54.587 72.2523 54.9495V46.1585Z" fill="white"/>
</g>
<defs>
<clipPath id="clip0_4670_1715">
<rect width="96" height="96" fill="white"/>
</clipPath>
</defs>
</svg>
