<svg width="30" height="30" viewBox="0 0 30 30" fill="none" xmlns="http://www.w3.org/2000/svg">
<rect width="30" height="30" fill="white"/>
<g style="mix-blend-mode:difference">
<path d="M25.7158 1C27.5284 1.00002 28.9999 2.48751 29 4.31934V25.6807C28.9999 27.5128 27.5284 29 25.7158 29H4.28418C2.47159 29 1.00013 27.5128 1 25.6807V4.31934C1.00013 2.48751 2.47159 1.00002 4.28418 1H25.7158ZM21.2256 15.1748C20.5382 15.1748 19.9156 15.3077 19.3584 15.5732C18.8012 15.8388 18.3584 16.2062 18.0303 16.6748C17.7074 17.1382 17.546 17.6776 17.5459 18.292H19.6162C19.6163 17.9849 19.6892 17.7216 19.835 17.5029C19.986 17.2791 20.1867 17.107 20.4365 16.9873C20.6917 16.8676 20.9705 16.8076 21.2725 16.8076C21.6474 16.8076 21.9548 16.8754 22.1943 17.0107C22.439 17.1409 22.6214 17.3286 22.7412 17.5732C22.861 17.8127 22.9208 18.0969 22.9209 18.4248C22.9209 18.758 22.8531 19.0525 22.7178 19.3076C22.5876 19.5575 22.3869 19.7555 22.1162 19.9014C21.8506 20.042 21.512 20.1123 21.1006 20.1123H19.9365V21.7061H21.1006C21.512 21.7061 21.8663 21.7686 22.1631 21.8936C22.4651 22.0185 22.6969 22.214 22.8584 22.4795C23.0198 22.745 23.1005 23.0917 23.1006 23.5186C23.1006 23.8778 23.0275 24.1879 22.8818 24.4482C22.7361 24.7034 22.5249 24.9014 22.249 25.042C21.9782 25.1774 21.6526 25.2451 21.2725 25.2451C20.9287 25.2451 20.6188 25.1774 20.3428 25.042C20.072 24.9014 19.8584 24.7086 19.7021 24.4639C19.5512 24.2191 19.4756 23.9403 19.4756 23.6279H17.4053C17.4053 24.1695 17.5121 24.6462 17.7256 25.0576C17.9391 25.4638 18.2282 25.8024 18.5928 26.0732C18.9574 26.3389 19.3662 26.5394 19.8193 26.6748C20.2777 26.805 20.749 26.8701 21.2334 26.8701C21.7906 26.8701 22.309 26.7972 22.7881 26.6514C23.2671 26.5003 23.684 26.2815 24.0381 25.9951C24.3973 25.7087 24.6762 25.3596 24.874 24.9482C25.0718 24.5317 25.1709 24.0574 25.1709 23.5264C25.1708 23.1203 25.0953 22.7398 24.9443 22.3857C24.7985 22.0317 24.5718 21.7216 24.2646 21.4561C23.9837 21.2085 23.633 21.0132 23.2129 20.8701C23.5359 20.7227 23.817 20.547 24.0537 20.3389C24.3609 20.0681 24.5928 19.7658 24.749 19.4326C24.9104 19.0942 24.9912 18.7554 24.9912 18.417C24.9911 17.7088 24.8323 17.1148 24.5146 16.6357C24.2022 16.1567 23.762 15.7946 23.1943 15.5498C22.6319 15.2998 21.9755 15.1748 21.2256 15.1748Z" fill="white"/>
</g>
</svg>
