<svg width="30" height="30" viewBox="0 0 30 30" fill="none" xmlns="http://www.w3.org/2000/svg">
<rect width="30" height="30" fill="white"/>
<g style="mix-blend-mode:difference">
<path fill-rule="evenodd" clip-rule="evenodd" d="M3.74116 1C2.33941 1 1 2.43371 1 4.4092V25.5905C1 27.5663 2.33968 29 3.74116 29H22.6293C23.3484 29 23.9434 28.6423 24.3959 28.0134C24.7987 27.4541 25.0812 26.625 25.3146 25.9319L29 15.0001L25.3146 4.06758C25.0809 3.37477 24.7987 2.54568 24.3959 1.98632C23.9431 1.35765 23.3484 1 22.6293 1H3.74116V1ZM22.552 3.15522C22.5925 3.20461 22.6799 3.31426 22.7247 3.39443C22.9511 3.79811 23.1058 4.31403 23.2529 4.75081L26.708 14.9999C26.708 15.0001 23.2529 25.2489 23.2529 25.2489C23.1058 25.6857 22.9511 26.2016 22.7247 26.6053C22.6799 26.6855 22.5925 26.7954 22.5518 26.8448H3.74116C3.61935 26.8448 3.53874 26.7331 3.45918 26.6211C3.2732 26.3589 3.17357 25.9922 3.17357 25.5905V4.4092C3.17357 4.00758 3.2732 3.64088 3.45918 3.37891C3.53874 3.26694 3.61935 3.15522 3.74116 3.15522H22.552V3.15522ZM5.93352 19.0067L11.0559 24.3562L19.1831 14.2667L16.9291 12.4386L10.9875 19.955L7.9824 16.7721L5.93352 19.0067V19.0067ZM7.85093 7.20705C7.37203 7.21765 7.11955 7.47393 7.11955 7.47393V8.41733H7.05148L4.55055 9.03022V10.7277H7.11955V12.3779H6.26867V13.8713H9.4671V12.3779H8.56563V10.7277H11.2705V9.03022L8.56563 8.43284V7.50548C8.56563 7.50548 8.41878 7.20446 7.85093 7.20705V7.20705ZM14.4288 4.03215C13.9499 4.04301 13.6971 4.29929 13.6971 4.29929V5.24242H13.6293L11.1284 5.85532V7.55281H13.6971V9.20323H12.8465V10.6964H16.0449V9.20323H15.1432V7.55281H17.8484V5.85532L15.1432 5.25794V4.33058C15.1432 4.33058 14.9966 4.02957 14.4288 4.03215V4.03215Z" fill="white"/>
</g>
</svg>
