<svg width="23" height="23" viewBox="0 0 23 23" fill="none" xmlns="http://www.w3.org/2000/svg">
<rect width="23" height="23" fill="white"/>
<g style="mix-blend-mode:difference" clip-path="url(#clip0_4670_1651)">
<path d="M11.5 0C17.844 0 23 5.15001 23 11.5C22.9999 17.8501 17.8439 23 11.5 23C5.15626 23 6.9391e-05 17.8501 0 11.5C0 5.15001 5.15622 1.86883e-06 11.5 0ZM11.4502 3.69922C10.6933 3.69922 10.0781 4.3083 10.0781 5.05859V10.0898H5.07129C4.31449 10.09 3.7002 10.6988 3.7002 11.4492C3.70029 12.1993 4.31455 12.8084 5.07129 12.8086H10.0781V17.8398C10.0784 18.5899 10.6934 19.1992 11.4502 19.1992C12.2069 19.1992 12.821 18.5899 12.8213 17.8398V12.8086H17.8291C18.5858 12.8083 19.2001 12.1993 19.2002 11.4492C19.2002 10.6989 18.5858 10.0901 17.8291 10.0898H12.8213V5.05859C12.8213 4.30833 12.2071 3.69927 11.4502 3.69922Z" fill="white"/>
</g>
<defs>
<clipPath id="clip0_4670_1651">
<rect width="23" height="23" fill="white"/>
</clipPath>
</defs>
</svg>
