<svg width="30" height="30" viewBox="0 0 30 30" fill="none" xmlns="http://www.w3.org/2000/svg">
<rect width="30" height="30" fill="white"/>
<g style="mix-blend-mode:difference">
<path d="M15.0156 2.0625L14.502 4.05566L14.457 4.23047L14.2764 4.24219C8.65159 4.6155 4.21312 9.26375 4.21289 14.9844C4.21289 20.9504 9.04698 25.7566 15.0146 25.7568C20.9816 25.7568 25.7871 20.9515 25.7871 14.9844C25.7871 14.5151 25.7292 14.071 25.668 13.5977L25.6445 13.4111L25.8164 13.3359L27.6885 12.5215L27.9795 12.3945L28.0352 12.707C28.1654 13.4487 28.25 14.1985 28.25 14.9844C28.25 22.2882 22.3199 28.25 15.0146 28.25C7.71034 28.2498 1.75 22.2888 1.75 14.9844C1.75024 7.76225 7.57883 1.88293 14.7686 1.75L15.0977 1.74414L15.0156 2.0625Z" fill="white" stroke="white" stroke-width="0.5"/>
<path d="M25.5384 10.7044C26.1595 10.7044 26.663 10.2009 26.663 9.57982C26.663 8.95871 26.1595 8.4552 25.5384 8.4552C24.9173 8.4552 24.4138 8.95871 24.4138 9.57982C24.4138 10.2009 24.9173 10.7044 25.5384 10.7044Z" fill="white" stroke="white"/>
<path d="M22.4901 6.93894C23.1112 6.93894 23.6147 6.43542 23.6147 5.81432C23.6147 5.19321 23.1112 4.6897 22.4901 4.6897C21.869 4.6897 21.3655 5.19321 21.3655 5.81432C21.3655 6.43542 21.869 6.93894 22.4901 6.93894Z" fill="white" stroke="white"/>
<path d="M14.4327 8.45038L14.4939 16.6472L20.7333 16.7696" stroke="white" stroke-width="3" stroke-linecap="round"/>
</g>
</svg>
