<svg width="18" height="18" viewBox="0 0 18 18" fill="none" xmlns="http://www.w3.org/2000/svg">
<rect width="18" height="18" fill="white"/>
<g style="mix-blend-mode:difference">
<path d="M10.2334 9.91237C9.20946 9.91237 8.37935 9.09823 8.37935 8.09394C8.37935 7.08966 9.20946 6.27551 10.2334 6.27551C11.2574 6.27551 12.0875 7.08966 12.0875 8.09394C12.0875 9.09823 11.2574 9.91237 10.2334 9.91237Z" fill="white"/>
<path d="M10.2329 3.99158C12.5369 3.99158 14.4173 5.83583 14.4173 8.09547C14.4173 8.76643 14.2365 9.39111 13.9431 9.95141H12.5837C13.0014 9.4425 13.2611 8.80344 13.2611 8.09547C13.2611 6.44866 11.912 5.12552 10.2329 5.12552C9.50448 5.12552 8.84808 5.38453 8.32706 5.80102L8.32477 4.46553C8.89986 4.17282 9.54262 3.99158 10.2329 3.99158Z" fill="white"/>
<path d="M10.2329 1.5C13.9398 1.5 16.9577 4.45986 16.9577 8.09546C16.9577 8.74042 16.8592 9.36173 16.6822 9.9514H15.4515C15.6661 9.36973 15.8015 8.75097 15.8015 8.09546C15.8015 5.07269 13.315 2.63394 10.2329 2.63394C9.55899 2.63394 8.92202 2.76781 8.32478 2.98165V1.77462C8.93068 1.59813 9.56957 1.5 10.2329 1.5Z" fill="white"/>
<path d="M7.9125 8.1931C8.93647 8.1931 9.76658 9.00724 9.76658 10.0115C9.76658 11.0158 8.93647 11.83 7.9125 11.83C6.88852 11.83 6.05841 11.0158 6.05841 10.0115C6.05841 9.00724 6.88852 8.1931 7.9125 8.1931Z" fill="white"/>
<path d="M7.91306 14.1139C5.60911 14.1139 3.7287 12.2696 3.7287 10.01C3.7287 9.33904 3.90946 8.71436 4.20291 8.15406H5.56232C5.14462 8.66297 4.88487 9.30203 4.88487 10.01C4.88487 11.6568 6.23396 12.98 7.91306 12.98C8.64152 12.98 9.29792 12.7209 9.81894 12.3045L9.82123 13.6399C9.24614 13.9326 8.60337 14.1139 7.91306 14.1139Z" fill="white"/>
<path d="M7.91301 16.6053C4.20613 16.6053 1.18823 13.6455 1.18823 10.0099C1.18823 9.36493 1.28674 8.74362 1.46373 8.15395H2.69442C2.47983 8.73561 2.34441 9.35438 2.34441 10.0099C2.34441 13.0327 4.83097 15.4714 7.91301 15.4714C8.58695 15.4714 9.22392 15.3375 9.82115 15.1237V16.3307C9.21526 16.5072 8.57637 16.6053 7.91301 16.6053Z" fill="white"/>
</g>
</svg>
