<?xml version="1.0" encoding="UTF-8" standalone="no"?>
<!-- Created with Inkscape (http://www.inkscape.org/) -->

<svg
   width="317"
   height="165"
   viewBox="0 0 83.872913 43.656248"
   version="1.1"
   id="svg1"
   xml:space="preserve"
   inkscape:version="1.4.2 (1:1.4.2+202505120737+ebf0e940d0)"
   sodipodi:docname="mask_usb_symbol.svg"
   inkscape:export-filename="mask_usb_symbol.png"
   inkscape:export-xdpi="96"
   inkscape:export-ydpi="96"
   xmlns:inkscape="http://www.inkscape.org/namespaces/inkscape"
   xmlns:sodipodi="http://sodipodi.sourceforge.net/DTD/sodipodi-0.dtd"
   xmlns="http://www.w3.org/2000/svg"
   xmlns:svg="http://www.w3.org/2000/svg"><sodipodi:namedview
     id="namedview1"
     pagecolor="#ffffff"
     bordercolor="#999999"
     borderopacity="1"
     inkscape:showpageshadow="0"
     inkscape:pageopacity="0"
     inkscape:pagecheckerboard="0"
     inkscape:deskcolor="#d1d1d1"
     inkscape:document-units="px"
     inkscape:zoom="1.4142136"
     inkscape:cx="173.59472"
     inkscape:cy="62.225397"
     inkscape:current-layer="layer1"
     inkscape:export-bgcolor="#ffffffff"
     showguides="false" /><defs
     id="defs1"><inkscape:path-effect
       effect="perspective-envelope"
       up_left_point="106.49532,264.85378"
       up_right_point="126.54248,265.64754"
       down_left_point="97.367197,290.14567"
       down_right_point="125.48415,290.14567"
       id="path-effect2"
       is_visible="true"
       lpeversion="1"
       deform_type="perspective"
       horizontal_mirror="false"
       vertical_mirror="false"
       overflow_perspective="false" /><inkscape:path-effect
       effect="perspective-envelope"
       up_left_point="102.72306,268.22103"
       up_right_point="118.25084,266.50124"
       down_left_point="100.07723,295.78112"
       down_right_point="124.07167,295.78112"
       id="path-effect1"
       is_visible="true"
       lpeversion="1"
       deform_type="perspective"
       horizontal_mirror="false"
       vertical_mirror="false"
       overflow_perspective="false" /></defs><g
     inkscape:label="Vrstva 1"
     inkscape:groupmode="layer"
     id="layer1"
     transform="translate(0,-253.34374)"><path
       id="rect17-3-6"
       style="fill:#414143;fill-opacity:1;stroke:none;stroke-width:4.55075;stroke-linecap:round;stroke-linejoin:round;stroke-dasharray:none;stroke-opacity:1"
       d="m 27.325064,258.13375 c -1.023634,0.11058 -1.9741,0.71241 -2.493024,1.69528 l -10.323954,19.55445 c -0.830282,1.57258 -0.232542,3.507 1.340044,4.33728 l 21.294407,11.24298 c 1.572585,0.83028 3.506995,0.23252 4.337278,-1.34005 l 10.323963,-19.55446 c 0.830284,-1.57258 0.233142,-3.50706 -1.339455,-4.33736 l -21.295,-11.24288 c -0.589724,-0.31136 -1.230077,-0.4216 -1.844259,-0.35524 z m 1.750499,8.2304 3.028007,1.59834 c -0.219208,0.42003 -0.08664,0.1557 -0.541257,1.01597 0.125813,0.041 0.227989,0.16289 0.411219,0.20975 0.849276,0.54771 1.972124,0.84023 2.395517,1.92291 0.474011,1.34 0.584328,2.85896 0.872743,4.2872 0.136106,0.55853 0.136877,1.23867 0.474694,1.66596 1.504184,0.95233 3.134409,1.6816 4.703235,2.51752 0.208517,-0.23629 0.438207,-0.45282 0.692973,-0.61492 1.454476,-0.965 3.35853,-0.4014 3.774669,1.23702 0.551434,1.70578 -0.812635,4.13364 -2.555118,4.4603 -1.694322,0.47356 -3.20044,-1.15289 -2.875007,-3.04828 0.185265,-0.40359 -0.142002,-0.4785 -0.387058,-0.61554 -0.442812,-0.19714 -0.858548,-0.60273 -1.394826,-0.49697 -1.090358,0.36281 -2.198233,0.93169 -3.30995,1.39845 -0.964367,0.36771 -1.969417,1.00633 -2.944323,0.85201 -0.958865,-0.2029 -1.750184,-0.80768 -2.621124,-1.21209 -0.529025,0.44456 -1.202585,0.56837 -1.740787,0.35893 l -0.0024,3.2e-4 c -0.546718,-0.18713 -0.925602,-0.71642 -0.943955,-1.39021 -0.122457,-1.17318 0.932891,-2.47293 2.002203,-2.4691 0.922817,-0.0224 1.647968,0.84057 1.531418,1.90181 0.351339,0.18505 0.701161,0.37224 1.053354,0.55577 0.476168,0.1919 0.911904,0.57192 1.45766,0.55082 1.306923,-0.45685 2.577592,-1.12757 3.867128,-1.68357 l -12.186604,-6.43467 c -0.244856,0.40105 -0.465008,1.11934 -0.966484,1.05612 -0.626082,-1.03442 -1.187922,-2.1285 -1.696405,-3.25456 0.02055,-0.12031 0.06374,-0.22865 0.188135,-0.29044 0.274525,-0.0588 0.764265,-0.12881 1.050422,-0.21471 0.869875,-0.1075 1.762029,-0.32812 2.613425,-0.26995 0.30173,0.38625 -0.155498,0.94892 -0.343109,1.37167 l 8.994155,4.7491 c -0.1108,-0.65279 -0.216689,-1.30764 -0.331494,-1.95887 -0.183569,-0.78246 -0.216682,-1.66677 -0.576354,-2.34862 -0.601575,-0.53401 -1.377768,-0.79915 -2.060068,-1.20516 l -0.534019,1.01072 -3.013517,-1.59052 z" /><path
       id="path18-9-5"
       style="fill:#414143;fill-opacity:1;stroke-width:3.18488;stroke-linecap:round;stroke-linejoin:round"
       d="m 9.3683484,254.39258 c -0.8540369,0.16235 -1.7545289,0.88418 -2.3253459,1.96532 l -5.6450951,10.6919 c -0.83028743,1.57258 -0.63899823,3.29218 0.4286416,3.85587 l 12.345766,6.51889 8.642321,-16.36925 -12.345684,-6.5183 c -0.333636,-0.17614 -0.7124046,-0.21822 -1.1006036,-0.14443 z m 4.7774816,5.19273 3.025366,1.59686 -2.18792,4.14334 -3.024765,-1.59696 z m -3.888949,7.36596 3.025366,1.59688 -2.18732,4.14324 -3.0254455,-1.59747 z" /><path
       id="path19-8-7"
       style="fill:#414143;fill-opacity:1;stroke-width:1.14876;stroke-linecap:round;stroke-linejoin:round"
       d="m 50.285724,288.4737 2.593068,-4.91138 c 0.381406,-0.7224 0.44502,-1.43248 0.142648,-1.59213 l -3.496656,-1.84614 -3.969972,7.51928 3.496659,1.84614 c 0.302369,0.15963 0.852844,-0.29341 1.234253,-1.01577 z"
       sodipodi:nodetypes="sssccss" /><path
       style="baseline-shift:baseline;display:inline;overflow:visible;opacity:1;vector-effect:none;fill:#414143;stroke-linecap:square;enable-background:accumulate;stop-color:#000000;stop-opacity:1"
       d="m 118.97408,265.35948 c -3.11582,-0.25593 -6.04029,0.65979 -7.82339,2.15378 -2.52825,2.11833 -2.78324,5.5382 1.38965,7.60814 l 0.0396,0.0183 3.83881,1.5745 c 2.04813,0.87073 3.01866,2.06363 3.30959,3.34753 0.30038,1.32566 -0.1523,2.80183 -1.24169,4.1004 -2.29811,2.7394 -7.30575,4.8763 -13.43995,2.19052 l -3.95814,-1.88957 -1.04949,-0.46754 -1.388163,2.5932 0.708125,0.37174 3.730438,1.70353 c 7.32386,3.28456 14.59337,0.77208 17.77053,-3.23025 1.47269,-1.85519 2.06743,-3.98348 1.56398,-5.91255 -0.48083,-1.84232 -1.99858,-3.49375 -4.54658,-4.55434 l -0.008,-0.004 -3.66942,-1.47303 c -3.19153,-1.55153 -2.86115,-3.62881 -1.17895,-5.09886 1.60343,-1.4012 4.52444,-2.23535 8.04646,-1.01936 l 3.27454,1.26238 1.01709,0.39245 1.09648,-1.37266 -0.99816,-0.37878 -3.27495,-1.24181 -0.0234,-0.007 c -1.08018,-0.36796 -2.15078,-0.58143 -3.18533,-0.66641 z"
       id="path20-4-6-20"
       inkscape:path-effect="#path-effect2"
       inkscape:original-d="m 114.98047,252.31055 c -4.28896,-0.27859 -7.89849,1.85029 -9.69531,4.9414 -2.39577,4.12149 -1.47644,10.03174 4.01757,13.18946 l 0.0508,0.0273 4.80273,2.29883 c 2.51556,1.24747 3.80916,2.97521 4.31836,4.80078 0.50939,1.82626 0.20541,3.80507 -0.78711,5.49414 -1.98504,3.37814 -6.60839,5.85881 -13.30522,2.80295 l -4.52171,-2.22982 -1.210179,-0.56141 -0.451522,3.10953 0.812192,0.42476 4.125659,1.91297 c 7.78681,3.55323 14.43888,0.83487 17.2168,-3.89257 1.38895,-2.36372 1.84902,-5.20384 1.09961,-7.89063 -0.74942,-2.68678 -2.73737,-5.16403 -5.92579,-6.74414 l -0.01,-0.006 -4.6836,-2.23828 c -4.25631,-2.45319 -4.51669,-6.11911 -2.875,-8.94336 1.64238,-2.82541 5.27836,-4.72654 10.23438,-2.53516 l 4.52734,2.25196 1.38477,0.68945 1.37891,-2.76953 -1.38477,-0.68945 -4.61328,-2.29493 -0.0332,-0.0137 c -1.53846,-0.68148 -3.04301,-1.0419 -4.47266,-1.13476 z"
       transform="matrix(1.1529916,0,0,1.2338331,-62.190596,-65.892824)"
       sodipodi:nodetypes="cscccssccccccssccccccccccccc" /></g></svg>
