<svg width="30" height="30" viewBox="0 0 30 30" fill="none" xmlns="http://www.w3.org/2000/svg">
<rect width="30" height="30" fill="white"/>
<g style="mix-blend-mode:difference">
<path fill-rule="evenodd" clip-rule="evenodd" d="M15.0001 1C7.27326 1 1 7.27321 1 15C1 22.7268 7.27326 29 15.0001 29C22.727 29 29 22.7268 29 15C29 7.27321 22.727 1 15.0001 1ZM15.0001 3.11554C21.5592 3.11554 26.8847 8.44069 26.8847 15C26.8847 21.559 21.5592 26.8845 15.0001 26.8845C8.44076 26.8845 3.11529 21.559 3.11529 15C3.11529 8.44069 8.44076 3.11554 15.0001 3.11554ZM9.57454 21.5386V8.46119H12.2963V13.7718H17.704V8.46119H20.4255V21.5386H17.704V15.5743H12.2963V21.5386H9.57454Z" fill="white"/>
</g>
</svg>
