<svg width="30" height="30" viewBox="0 0 30 30" fill="none" xmlns="http://www.w3.org/2000/svg">
<rect width="30" height="30" fill="white"/>
<g style="mix-blend-mode:difference">
<path fill-rule="evenodd" clip-rule="evenodd" d="M29 4.18883C29 2.42902 27.5735 1 25.8165 1H4.18348C2.42651 1 1 2.42902 1 4.18883V25.8112C1 27.5712 2.42651 29 4.18348 29H25.8165C27.5735 29 29 27.5712 29 25.8112V4.18883ZM26.9584 4.18883V25.8112C26.9584 26.4424 26.4469 26.9551 25.8165 26.9551H4.18348C3.5531 26.9551 3.04162 26.4424 3.04162 25.8112V4.18883C3.04162 3.5576 3.5531 3.0452 4.18348 3.0452H25.8165C26.4469 3.0452 26.9584 3.5576 26.9584 4.18883ZM14.5679 24.9638H12.1715L17.1148 19.0314L12.209 12.0933H16.1612L19.2602 16.4673L22.9114 12.0933H25.3079L20.3643 18.0258L25.2827 24.9638H21.3179L18.2189 20.5899L14.5679 24.9638V24.9638Z" fill="white"/>
</g>
</svg>
