<svg width="11" height="16" viewBox="0 0 11 16" fill="none" xmlns="http://www.w3.org/2000/svg">
<rect width="11" height="16" fill="white"/>
<g style="mix-blend-mode:difference" clip-path="url(#clip0_4670_1583)">
<path fill-rule="evenodd" clip-rule="evenodd" d="M5.09213 15.889C4.78952 15.7871 4.27256 15.5834 4.21068 15.5418C4.1954 15.531 4.10714 15.4856 4.01485 15.4398C3.8127 15.3395 3.34311 15.057 3.18062 14.9379C3.11612 14.8907 3.02645 14.8261 2.98139 14.7942C2.49175 14.4487 1.75782 13.6984 1.37913 13.156C0.649058 12.1106 0.195366 10.9293 0.0425927 9.67652C-0.0145043 9.20754 -0.0140428 8.31959 0.0430542 7.85555C0.0953675 7.43432 0.1912 6.97314 0.311413 6.56447L0.398752 6.26789L0.709551 6.11255C3.66548 4.63635 7.2467 4.6368 10.2045 6.1142C10.4779 6.25082 10.5205 6.28091 10.5356 6.34885C10.5447 6.3915 10.577 6.49937 10.6063 6.58825C10.6863 6.83082 10.8204 7.48223 10.8688 7.86381C10.925 8.3039 10.9254 9.21354 10.87 9.66501C10.7142 10.9323 10.2636 12.1097 9.53598 13.1512C9.15405 13.698 8.48323 14.3875 7.95331 14.7785C7.62076 15.0238 7.18605 15.2958 6.89671 15.4396C6.80443 15.4856 6.71615 15.5315 6.70088 15.5418C6.5839 15.6199 5.51141 16.0081 5.43487 15.9999C5.42314 15.9984 5.26882 15.9487 5.09182 15.8891L5.09213 15.889V15.889ZM4.60527 9.83379C4.01562 9.56279 3.6181 8.97666 3.6181 8.30119C3.6181 7.3399 4.42302 6.55939 5.41434 6.55939C6.40567 6.55939 7.21043 7.3399 7.21043 8.30119C7.21043 9.0232 6.75643 9.64316 6.11 9.90653L7.49653 13.2796H3.39558L4.60527 9.83379ZM1.09071 4.21363C1.09071 3.25937 1.11293 3.34422 1.2549 2.89799C1.47619 2.20157 1.80936 1.69157 2.39128 1.15795C3.23509 0.384314 4.43305 -0.0434837 5.62375 0.00350333C6.95149 0.0561766 8.17167 0.643371 8.95529 1.6072C9.30126 2.03263 9.52302 2.44413 9.66962 2.93255C9.79786 3.35978 9.81992 3.2875 9.82054 4.22021L9.82085 5.08049L9.49123 4.95821C9.05976 4.7981 8.557 4.64832 8.07198 4.53519C7.85655 4.48507 7.67199 4.43583 7.66196 4.42611C7.65193 4.41638 7.63743 4.1608 7.63018 3.85853C7.61629 3.29274 7.60317 3.51915 7.47216 3.21762C7.40163 3.05556 7.31768 2.93465 7.12556 2.71902C6.77341 2.32382 6.28546 2.08306 5.68672 2.00943C5.14784 1.94314 4.51268 2.1194 4.06161 2.46058C3.81733 2.64524 3.54326 2.9788 3.43941 3.21762C3.30747 3.52139 3.29496 3.29167 3.28092 3.87318L3.26719 4.43765L2.85192 4.53297C2.35719 4.64669 1.86877 4.79184 1.4194 4.95854L1.09056 5.08049L1.09071 4.21363V4.21363Z" fill="white"/>
</g>
<defs>
<clipPath id="clip0_4670_1583">
<rect width="11" height="16" fill="white"/>
</clipPath>
</defs>
</svg>
