<svg width="30" height="30" viewBox="0 0 30 30" fill="none" xmlns="http://www.w3.org/2000/svg">
<rect width="30" height="30" fill="white"/>
<g style="mix-blend-mode:difference">
<path fill-rule="evenodd" clip-rule="evenodd" d="M17.4068 1.00025L17.3897 1C17.3117 1 17.2543 1.01 17.2326 1.01436L17.2233 1.01641L14.7756 1.08361C13.7158 1.10053 13.0735 1.08361 12.6697 1.1526C12.3002 1.21569 12.0341 1.33957 11.8225 1.50243C11.535 1.72351 11.3174 2.03024 11.189 2.53241C11.1012 2.87634 11.0521 3.39313 10.9418 4.1728C10.8911 4.53032 10.8157 4.87451 10.7834 5.01531L10.6051 5.10431C10.5602 5.08482 10.4927 5.05404 10.4424 5.02634C10.2023 4.894 9.90212 4.69216 9.49391 4.41132L7.35752 2.96278L5.01184 5.38258C3.93085 6.49105 3.43015 7.09324 3.26635 7.41922C2.95089 8.04706 3.11029 8.4687 3.32499 8.77288L4.37705 10.2214C4.60311 10.5318 4.79094 10.8121 4.88318 10.9524L4.81187 11.1296C4.75064 11.1486 4.66796 11.1727 4.59329 11.1901C4.28377 11.2617 3.85464 11.3379 3.24517 11.4471L1 11.8372L1.04598 15.2519C1.06355 16.3321 1.04857 16.9892 1.12065 17.4044C1.18369 17.7691 1.30486 18.0343 1.46376 18.2456C1.68672 18.5421 1.99469 18.764 2.49539 18.8996C2.84392 18.994 3.36556 19.0487 4.15046 19.1636C4.50054 19.2148 4.81704 19.2741 4.96689 19.3033L5.05627 19.4826L4.42407 20.4131C3.89185 21.1938 3.44797 21.8883 3.36348 22.0855C3.26996 22.3038 3.2635 22.4728 3.26531 22.5662C3.26737 22.679 3.28443 22.9065 3.46296 23.1791C3.61823 23.4161 4.41529 24.2591 5.24695 25.0683C6.07811 25.8772 6.94233 26.6515 7.18338 26.8008C7.46241 26.9734 7.69208 26.9857 7.80473 26.9857C7.89877 26.9857 8.07369 26.9764 8.29846 26.8736C8.5005 26.781 9.21385 26.3042 9.98092 25.7492L10.8862 25.1073L11.1273 25.2176C11.1436 25.3001 11.164 25.4107 11.1784 25.5066C11.2559 26.0255 11.4192 26.8477 11.5306 27.3258L11.9352 29L15.2513 28.9551C16.5405 28.9359 17.6132 28.8815 17.8183 28.8507C18.5849 28.7356 18.7236 28.127 18.7503 27.9703C18.766 27.8695 18.8743 27.1352 19.0213 26.2583C19.097 25.8051 19.1517 25.4838 19.2081 25.2476C19.2197 25.1988 19.2378 25.1391 19.251 25.0973L19.4623 24.9729L20.3498 25.5669C21.145 26.1014 21.8713 26.5353 22.0671 26.6187C22.2852 26.7115 22.4497 26.7177 22.5322 26.7177C22.6523 26.7177 22.8616 26.7025 23.113 26.5571C23.2951 26.4514 23.9043 25.9098 24.5724 25.2376C25.4951 24.3094 26.5649 23.1407 26.7703 22.8206C26.9628 22.5205 26.9726 22.2733 26.9708 22.1599V22.1563C26.9685 22.055 26.9455 21.8245 26.7788 21.53C26.6308 21.2684 26.221 20.6878 25.7594 20.0512C25.5124 19.7109 25.3325 19.457 25.2067 19.2561C25.1752 19.2061 25.1429 19.1474 25.1186 19.102L25.1553 19.004C25.2181 18.9812 25.3323 18.942 25.4263 18.9184L26.0381 18.7865C26.6721 18.6596 27.3958 18.5062 27.6632 18.4503L27.4413 18.4734L28.1249 18.3518L29 18.1408L28.9085 11.4056L26.6225 11.0734C26.0138 10.9844 25.5845 10.9203 25.2739 10.8562C25.1951 10.84 25.1073 10.8162 25.0445 10.798L24.9956 10.6877C25.1091 10.5097 25.3356 10.1594 25.6087 9.75926C26.1379 8.98395 26.5634 8.26609 26.6445 8.06784C26.7316 7.85471 26.7367 7.69288 26.7352 7.6067C26.7336 7.50206 26.7225 7.25687 26.5145 6.96398C26.3613 6.74804 25.5617 5.91784 24.6244 5.01993L22.2175 2.72272L20.1738 4.23128C19.7845 4.51981 19.4972 4.72858 19.2662 4.86989C19.207 4.90606 19.1303 4.94479 19.083 4.96761L18.9293 4.90477L18.8146 4.41928C18.7588 4.13126 18.6311 3.44519 18.5131 2.89045L18.4121 2.31057C18.3971 2.24671 18.3209 1.92406 18.3043 1.85405C18.131 1.12079 17.6669 1.00461 17.4068 1.00025ZM18.7503 27.9703L18.7484 27.9816L18.7544 27.9472L18.7503 27.9703ZM16.3787 3.1777L16.4015 3.30645C16.5175 3.85145 16.6449 4.53674 16.6999 4.82193C16.8634 5.6688 17.0495 6.05787 17.2688 6.31614C17.4639 6.54568 17.6997 6.70982 18.0666 6.86858C18.4255 7.024 18.7117 7.10273 18.9923 7.11735C19.5248 7.14505 20.125 6.93449 21.461 5.94451L22.0392 5.51749L23.1298 6.55825C23.5731 6.98322 24.0263 7.44205 24.3404 7.76571C24.1888 8.00962 24.0012 8.30379 23.826 8.56077C23.3881 9.20272 23.1341 9.57281 23.0026 9.83185C22.8068 10.2181 22.7696 10.5048 22.7936 10.788C22.8122 11.0057 22.8828 11.2347 23.0249 11.5571C23.1752 11.899 23.3093 12.1291 23.4904 12.3171C23.6935 12.5281 23.9544 12.7074 24.4092 12.8436C24.768 12.951 25.3377 13.0457 26.3086 13.188L26.7804 13.2565L26.8236 16.4419C26.4872 16.5127 26.0309 16.6078 25.6147 16.6909C24.528 16.9048 24.0196 17.1226 23.6969 17.409C23.4155 17.6591 23.2222 17.9722 23.0564 18.4721C22.8332 19.1423 22.7151 19.5121 24.0123 21.3002C24.195 21.5521 24.3965 21.8406 24.5611 22.0794L22.3849 24.3286C22.1312 24.1714 21.825 23.9775 21.5553 23.7962L19.5494 22.4533L18.3302 23.154C18.047 23.313 17.8522 23.4443 17.6948 23.6005C17.3768 23.9157 17.1549 24.3704 16.8973 25.9077C16.8446 26.2229 16.797 26.5192 16.7575 26.7725C16.3346 26.7902 15.7783 26.8097 15.22 26.8182L13.6272 26.8397L13.6262 26.8359C13.5272 26.4104 13.3786 25.6638 13.3079 25.1924C13.2092 24.533 13.0839 24.1912 12.9123 23.9457C12.7147 23.6626 12.4423 23.4497 11.8734 23.2045L10.641 22.6546L8.72166 24.0157C8.45942 24.2053 8.15947 24.4133 7.91015 24.5831L5.67687 22.4113C5.8355 22.1663 6.02927 21.8719 6.20805 21.6098L7.52726 19.668L6.96196 18.4836C6.74597 18.0276 6.55684 17.7753 6.30106 17.5822C6.01092 17.3634 5.5619 17.2103 4.46567 17.0492C3.98124 16.9784 3.50791 16.9035 3.24154 16.8604C3.23017 16.5424 3.21002 15.9105 3.19865 15.2198L3.17722 13.6286L3.62211 13.5512C4.58736 13.3783 5.14981 13.2716 5.50196 13.158C5.9559 13.0113 6.21194 12.8256 6.40958 12.6079C6.58372 12.416 6.71187 12.1811 6.85423 11.8272C7.04257 11.3589 7.10328 11.0591 7.0697 10.7418C7.03249 10.3899 6.83149 9.94341 6.12151 8.96882C5.88408 8.6431 5.64819 8.31918 5.46011 8.0604C5.69832 7.78649 6.08352 7.35664 6.56072 6.8673L7.64661 5.74703L8.27159 6.17072C9.70473 7.15659 10.3341 7.32073 10.8909 7.23841C11.1683 7.19737 11.4531 7.0894 11.8101 6.8991C12.0688 6.76163 12.2576 6.62159 12.417 6.44463C12.6857 6.14661 12.9015 5.6865 13.0738 4.47057L13.252 3.25643C13.5696 3.24694 14.1643 3.23079 14.8159 3.22053L16.3787 3.1777Z" fill="white"/>
<path fill-rule="evenodd" clip-rule="evenodd" d="M17.7443 16.5196C17.7443 15.8319 18.2995 15.299 18.985 15.299C19.6706 15.299 20.2018 15.8319 20.2018 16.5196C20.2018 17.2073 19.6706 17.764 18.985 17.764C18.2995 17.764 17.7443 17.2073 17.7443 16.5196ZM10.2364 16.495C10.2364 15.8075 10.7677 15.2504 11.4532 15.2504C12.1388 15.2504 12.694 15.8075 12.694 16.495C12.694 17.1828 12.1388 17.7156 11.4532 17.7156C10.7677 17.7156 10.2364 17.1828 10.2364 16.495ZM17.7732 8C18.5848 8 19.244 8.66105 19.244 9.47542V11.5187C19.244 12.3331 18.5848 12.9941 17.7732 12.9941H13.1386C12.327 12.9941 11.6678 12.3331 11.6678 11.5187V9.47542C11.6678 8.66105 12.327 8 13.1386 8H17.7732Z" fill="white"/>
<path fill-rule="evenodd" clip-rule="evenodd" d="M10.9999 10.6434C9.69801 10.9561 8.20001 12.111 8.20001 13.5154V19.0322C8.20001 20.6775 10.0515 22 11.6919 22H19.1415C20.7818 22 22.2 20.6775 22.2 19.0322V13.5154C22.2 12.138 21.1688 11.0062 19.9051 10.6674V12.0913C19.9051 13.1972 19.0272 13.6352 17.9247 13.6352H13.004C11.9017 13.6352 10.9999 12.7305 10.9999 11.6246V10.6434ZM18.985 14.5086C20.0873 14.5086 20.9892 15.4133 20.9892 16.519C20.9892 17.6248 20.0873 18.5294 18.985 18.5294C17.8827 18.5294 16.9809 17.6248 16.9809 16.519C16.9809 15.4133 17.8827 14.5086 18.985 14.5086ZM11.4532 14.4848C12.5555 14.4848 13.4574 15.3895 13.4574 16.4952C13.4574 17.601 12.5555 18.5056 11.4532 18.5056C10.3509 18.5056 9.44911 17.601 9.44911 16.4952C9.44911 15.3895 10.3509 14.4848 11.4532 14.4848Z" fill="white"/>
</g>
</svg>
