<svg width="30" height="30" viewBox="0 0 30 30" fill="none" xmlns="http://www.w3.org/2000/svg">
<rect width="30" height="30" fill="white"/>
<g style="mix-blend-mode:difference" clip-path="url(#clip0_4670_1719)">
<path fill-rule="evenodd" clip-rule="evenodd" d="M21.3843 14.7638L24.1796 9.48982H29.3168L23.931 19.4949L29.3168 29.5H24.1796L21.3843 24.226L18.5453 29.5H13.5739L18.8768 19.4949L13.5739 9.48982H18.5453L21.3843 14.7638ZM0.509625 9.48982L12.7597 9.50605L12.7453 13.9229L8.85988 13.9508L8.85105 29.5H4.45961L4.46331 13.9759L0.5 13.9618L0.509625 9.48982V9.48982ZM1.89105 8.45429C0.614025 8.45429 0.648188 7.29428 0.648188 7.29428V1.8257C0.646757 0.501949 1.89105 0.5 1.89105 0.5H6.62982V1.8257H2.96818V3.31713H5.95104V4.80856H2.96818V6.96286H6.62982L6.61391 8.45429C6.61391 8.45429 3.00174 8.45191 1.89105 8.45429ZM24.578 8.45429C23.301 8.45429 23.3351 7.29428 23.3351 7.29428V1.8257C23.3337 0.501949 24.578 0.5 24.578 0.5H29.3168V1.8257H25.6551V3.31713H28.638V4.80856H25.6551V6.96286H29.3168L29.3008 8.45429C29.3008 8.45429 25.6887 8.45191 24.578 8.45429ZM16.8054 8.45429C15.5284 8.45429 15.5626 7.29428 15.5626 7.29428V1.8257C15.5611 0.501949 16.8054 0.5 16.8054 0.5H22.0254V1.8257H17.8826V6.96286H19.6225V3.31713H22.0254V7.21143C22.0254 7.89988 21.2904 8.45429 20.6996 8.45429C19.5426 8.45429 17.5249 8.45274 16.8054 8.45429V8.45429ZM13.0767 8.45429C14.3537 8.45429 14.3195 7.29428 14.3195 7.29428V1.8257C14.3209 0.501949 13.0767 0.5 13.0767 0.5H7.85677V1.8257H11.9995V6.96286H10.1768V2.73714H7.85677V8.45429C7.85677 8.45429 12.3572 8.45274 13.0767 8.45429V8.45429Z" fill="white"/>
</g>
<defs>
<clipPath id="clip0_4670_1719">
<rect width="30" height="30" fill="white"/>
</clipPath>
</defs>
</svg>
