<svg width="30" height="30" viewBox="0 0 30 30" fill="none" xmlns="http://www.w3.org/2000/svg">
<rect width="30" height="30" fill="white"/>
<g style="mix-blend-mode:difference">
<path fill-rule="evenodd" clip-rule="evenodd" d="M29 4.19432C29 2.43133 27.569 1 25.8065 1H4.19379C2.43124 1 1 2.43133 1 4.19432V25.8057C1 27.5687 2.43124 29 4.19379 29H25.8065C27.569 29 29 27.5687 29 25.8057V4.19432ZM26.8141 4.19432V25.8057C26.8141 26.362 26.3626 26.8136 25.8065 26.8136H4.19379C3.63737 26.8136 3.18587 26.362 3.18587 25.8057V4.19432C3.18587 3.63776 3.63737 3.18617 4.19379 3.18617H25.8065C26.3626 3.18617 26.8141 3.63776 26.8141 4.19432ZM21.833 20.3686C21.833 19.9524 21.4955 19.6145 21.0794 19.6145H8.88961C8.47353 19.6145 8.13575 19.9524 8.13575 20.3686V21.8638C8.13575 22.28 8.47353 22.6178 8.88961 22.6178H21.0794C21.4955 22.6178 21.833 22.28 21.833 21.8638V20.3686ZM21.833 14.3292C21.833 13.9133 21.4955 13.5754 21.0794 13.5754H8.88961C8.47353 13.5754 8.13575 13.9133 8.13575 14.3292V15.8246C8.13575 16.2406 8.47353 16.5784 8.88961 16.5784H21.0794C21.4955 16.5784 21.833 16.2406 21.833 15.8246V14.3292ZM21.833 8.28979C21.833 7.87386 21.4955 7.53599 21.0794 7.53599H8.88961C8.47353 7.53599 8.13575 7.87386 8.13575 8.28979V9.78522C8.13575 10.2012 8.47353 10.539 8.88961 10.539H21.0794C21.4955 10.539 21.833 10.2012 21.833 9.78522V8.28979Z" fill="white"/>
</g>
</svg>
