<?xml version="1.0" encoding="UTF-8" standalone="no"?>
<!-- Created with Inkscape (http://www.inkscape.org/) -->

<svg
   width="45"
   height="45"
   viewBox="0 0 11.906249 11.906249"
   version="1.1"
   id="svg1"
   xml:space="preserve"
   inkscape:version="1.4.2 (1:1.4.2+202505120737+ebf0e940d0)"
   sodipodi:docname="mask_stats_analogs.svg"
   inkscape:export-filename="mask_radio_trainer.png"
   inkscape:export-xdpi="96"
   inkscape:export-ydpi="96"
   xmlns:inkscape="http://www.inkscape.org/namespaces/inkscape"
   xmlns:sodipodi="http://sodipodi.sourceforge.net/DTD/sodipodi-0.dtd"
   xmlns="http://www.w3.org/2000/svg"
   xmlns:svg="http://www.w3.org/2000/svg"><sodipodi:namedview
     id="namedview1"
     pagecolor="#ffffff"
     bordercolor="#999999"
     borderopacity="1"
     inkscape:showpageshadow="0"
     inkscape:pageopacity="0"
     inkscape:pagecheckerboard="0"
     inkscape:deskcolor="#d1d1d1"
     inkscape:document-units="px"
     inkscape:zoom="4"
     inkscape:cx="107.125"
     inkscape:cy="-17.25"
     inkscape:current-layer="layer1"
     inkscape:export-bgcolor="#ffffffff"
     showguides="false"
     showgrid="false"><sodipodi:guide
       position="39.584415,-49.527029"
       orientation="0,1"
       id="guide3"
       inkscape:locked="false" /></sodipodi:namedview><defs
     id="defs1"><inkscape:path-effect
       effect="perspective-envelope"
       up_left_point="106.49532,264.85378"
       up_right_point="126.54248,265.64754"
       down_left_point="97.367197,290.14567"
       down_right_point="125.48415,290.14567"
       id="path-effect2"
       is_visible="true"
       lpeversion="1"
       deform_type="perspective"
       horizontal_mirror="false"
       vertical_mirror="false"
       overflow_perspective="false" /><inkscape:path-effect
       effect="perspective-envelope"
       up_left_point="102.72306,268.22103"
       up_right_point="118.25084,266.50124"
       down_left_point="100.07723,295.78112"
       down_right_point="124.07167,295.78112"
       id="path-effect1"
       is_visible="true"
       lpeversion="1"
       deform_type="perspective"
       horizontal_mirror="false"
       vertical_mirror="false"
       overflow_perspective="false" /><inkscape:path-effect
       effect="spiro"
       id="path-effect5964-4-4"
       is_visible="true"
       lpeversion="0" /><inkscape:path-effect
       effect="spiro"
       id="path-effect5964-6"
       is_visible="true"
       lpeversion="0" /><linearGradient
       id="linearGradient11982-4-5-5-4-5-1"><stop
         id="stop11984-9-10-9-7-2-5"
         offset="0"
         style="stop-color:#fff773;stop-opacity:1;" /><stop
         id="stop11986-4-9-7-5-4-1"
         offset="1"
         style="stop-color:#fff773;stop-opacity:0;" /></linearGradient></defs><g
     inkscape:label="Vrstva 1"
     inkscape:groupmode="layer"
     id="layer1"
     transform="translate(0,-285.09374)"><path
       inkscape:connector-curvature="0"
       id="path2298-0"
       d="m 8.0646016,287.73648 c -0.3406622,-0.0265 -0.6794726,0.11036 -0.9077911,0.39716 -0.00781,0.01 -0.020925,0.0325 -0.028369,0.0425 l -0.6099222,0.75176 c -0.2742709,-0.0902 -0.5607744,-0.14184 -0.8652384,-0.14184 -1.539868,0 -2.7942947,1.25443 -2.7942947,2.7943 0,1.53986 1.2544267,2.78011 2.7942947,2.78011 1.539868,0 2.7801104,-1.24025 2.7801104,-2.78011 0,-0.45368 -0.1056306,-0.88381 -0.297869,-1.2624 l 0.6524749,-0.82269 c 0.00817,-0.01 0.020516,-0.0188 0.028368,-0.0284 0.3653088,-0.45889 0.2887139,-1.12405 -0.1702108,-1.48935 -0.1720946,-0.137 -0.3771555,-0.2252 -0.5815538,-0.24113 z m -2.4139801,1.85637 a 1.9857932,1.9857932 0 0 1 1.9857932,1.98579 1.9857932,1.9857932 0 0 1 -1.9857932,1.98579 1.9857932,1.9857932 0 0 1 -1.9857931,-1.98579 1.9857932,1.9857932 0 0 1 1.9857931,-1.98579 z"
       style="fill:#000000;fill-opacity:1;stroke:none;stroke-width:0.453896" /><rect
       ry="0.93286389"
       rx="0.9220823"
       y="285.5585"
       x="0.46476877"
       height="10.976705"
       width="10.976704"
       id="rect7803-0-2-1-4-5-9-0-3"
       style="fill:none;stroke:#000000;stroke-width:0.929545;stroke-miterlimit:4;stroke-dasharray:none;stroke-opacity:1" /></g></svg>
