<svg width="30" height="30" viewBox="0 0 30 30" fill="none" xmlns="http://www.w3.org/2000/svg">
<rect width="30" height="30" fill="white"/>
<g style="mix-blend-mode:difference">
<path d="M25.8889 1H4.11111C3.28599 1 2.49467 1.32778 1.91122 1.91122C1.32778 2.49467 1 3.28599 1 4.11111V25.8889C1 26.714 1.32778 27.5053 1.91122 28.0888C2.49467 28.6722 3.28599 29 4.11111 29H25.8889C26.714 29 27.5053 28.6722 28.0888 28.0888C28.6722 27.5053 29 26.714 29 25.8889V4.11111C29 3.28599 28.6722 2.49467 28.0888 1.91122C27.5053 1.32778 26.714 1 25.8889 1ZM25.8889 25.8889H4.11111V4.11111H25.8889V25.8889ZM22.7778 9.4L17.1778 15L22.7778 20.6L20.6 22.7778L15 17.1778L9.4 22.7778L7.22222 20.6L12.8222 15L7.22222 9.4L9.4 7.22222L15 12.8222L20.6 7.22222L22.7778 9.4Z" fill="white"/>
</g>
</svg>
