<svg width="30" height="30" viewBox="0 0 30 30" fill="none" xmlns="http://www.w3.org/2000/svg">
<rect width="30" height="30" fill="white"/>
<g style="mix-blend-mode:difference">
<path fill-rule="evenodd" clip-rule="evenodd" d="M15.0001 1C7.27314 1 1 7.27312 1 14.9999C1 22.7266 7.27314 29 15.0001 29C22.7269 29 29 22.7266 29 14.9999C29 7.27312 22.7269 1 15.0001 1ZM12.2691 26.616C13.1461 26.8217 14.0604 26.9305 15.0001 26.9305C21.5848 26.9305 26.9308 21.5845 26.9308 14.9999C26.9308 8.41521 21.5848 3.06921 15.0001 3.06921C9.75788 3.06921 5.30094 6.45742 3.70109 11.1623L7.49621 14.1928C8.49206 13.2478 9.83773 12.6676 11.318 12.6676C11.9852 12.6676 12.6249 12.7853 13.218 13.0014L13.9147 11.5773C13.099 10.9204 12.5764 9.9134 12.5764 8.78524C12.5764 6.8077 14.1821 5.20204 16.1598 5.20204C18.1374 5.20204 19.743 6.8077 19.743 8.78524C19.743 10.763 18.1374 12.3684 16.1598 12.3684C15.8295 12.3684 15.5096 12.3239 15.2058 12.2398L14.5045 13.673C15.6436 14.4727 16.469 15.6889 16.7592 17.0995L18.5339 17.0853C18.8491 15.9973 19.8535 15.2009 21.0425 15.2009C22.4838 15.2009 23.6538 16.3711 23.6538 17.8122C23.6538 19.2535 22.4838 20.4236 21.0425 20.4236C19.8524 20.4236 18.8472 19.6258 18.5329 18.5364L16.8634 18.5494C16.7126 21.1437 14.778 23.2626 12.2691 23.6962V26.616ZM3.29276 12.6927C3.14629 13.4388 3.06945 14.2104 3.06945 14.9999C3.06945 20.1135 6.29354 24.4801 10.8183 26.1761V23.7554C7.98625 23.5024 5.76311 21.12 5.76311 18.2226C5.76311 17.1587 6.0628 16.1642 6.58208 15.3193L3.29276 12.6927ZM11.318 15.0909C13.0465 15.0909 14.4497 16.4941 14.4497 18.2226C14.4497 19.951 13.0465 21.3543 11.318 21.3543C9.58959 21.3543 8.18634 19.951 8.18634 18.2226C8.18634 16.4941 9.58959 15.0909 11.318 15.0909Z" fill="white"/>
</g>
</svg>
