<svg width="17" height="17" viewBox="0 0 17 17" fill="none" xmlns="http://www.w3.org/2000/svg">
<rect width="17" height="17" fill="white"/>
<g style="mix-blend-mode:difference" clip-path="url(#clip0_4671_2948)">
<path d="M11.096 0V3.80281C9.61875 4.19614 8.54036 5.55466 8.54036 7.15577C8.54036 8.75689 9.61875 10.0951 11.096 10.4883V17H12.8134V10.5087C14.3269 10.1407 15.4509 8.78264 15.4509 7.15577C15.4509 5.5308 14.3246 4.17275 12.8134 3.80281V0H11.096ZM5.76115 4.79438C5.04373 4.75764 4.38536 4.87666 3.64392 5.19635C1.43986 6.14709 0.904114 8.98691 0.613945 11.0781C0.295513 13.3735 0 16.9899 0 16.9899H1.70805C1.70805 16.9899 1.99884 13.5516 2.37459 11.3957C2.73981 9.30064 3.23488 7.33571 4.34076 6.77783C5.43313 6.26767 6.8601 6.82101 7.37842 7.06847C7.50513 7.12923 7.64551 7.19707 7.78055 7.2561C7.77961 7.21999 7.78055 7.18482 7.78055 7.14886C7.78055 6.5679 7.8892 6.01739 8.10212 5.51399C8.09081 5.50551 8.08657 5.49248 8.07526 5.48714C7.3635 5.19383 6.56539 4.83599 5.76115 4.79438ZM11.9957 5.19305C13.0761 5.19305 13.9378 6.07533 13.9378 7.15577C13.9378 8.23637 13.0761 9.09808 11.9957 9.09808C10.9151 9.09808 10.033 8.23637 10.033 7.15577C10.033 6.07533 10.9151 5.19305 11.9957 5.19305ZM15.2847 1.68119C15.2847 1.68119 15.0973 2.7252 14.5342 3.82527C15.039 4.21185 15.4526 4.69954 15.7403 5.27265C16.7566 3.65333 17 1.92237 17 1.92237L15.2847 1.68119Z" fill="white"/>
</g>
<defs>
<clipPath id="clip0_4671_2948">
<rect width="17" height="17" fill="white"/>
</clipPath>
</defs>
</svg>
