<svg width="18" height="16" viewBox="0 0 18 16" fill="none" xmlns="http://www.w3.org/2000/svg">
<rect width="18" height="16" fill="white"/>
<g style="mix-blend-mode:difference">
<g clip-path="url(#clip0_4671_3020)">
<path d="M7.57043 0.844971C8.19934 0.797339 8.8153 0.870022 9.40247 1.04517C11.5678 1.69723 13.3455 3.76694 13.9845 6.45044C13.944 6.48623 13.9021 6.52107 13.8634 6.55981L13.3507 7.07251C12.8757 4.53256 11.2512 2.54935 9.24915 1.94653C8.73413 1.79173 8.19342 1.7259 7.64172 1.76782C4.69948 1.99021 2.53625 5.12723 2.81165 8.77271C3.03667 11.7513 4.82057 14.1469 7.07043 14.803C7.11821 15.1611 7.23979 15.5105 7.43665 15.8274C4.63261 15.3159 2.33908 12.4488 2.06555 8.82837C1.75169 4.6726 4.21637 1.09865 7.57043 0.844971ZM7.72864 2.93872C8.18254 2.90449 8.62815 2.95645 9.05188 3.08521C10.7612 3.60005 12.1355 5.33676 12.4659 7.54028L11.4865 6.55981C10.7074 5.78106 9.55775 5.60126 8.60559 6.01685C8.47706 5.94208 8.34291 5.88119 8.20325 5.83911C8.00274 5.77912 7.79102 5.75592 7.57629 5.77173C6.43032 5.8583 5.58734 7.07847 5.69446 8.49829C5.80176 9.91827 6.81988 10.999 7.96594 10.9124C8.11314 10.9012 8.25494 10.8701 8.39075 10.8235L8.99622 11.428L7.80676 12.6174C7.51033 12.914 7.30223 13.2653 7.17883 13.6379C5.36622 13.0651 3.93945 11.1148 3.75696 8.69946C3.53055 5.70029 5.30798 3.1217 7.72864 2.93872ZM1.58899 5.28833C0.795698 8.30198 1.05975 10.3733 2.20813 12.551C-0.456192 12.4257 -0.766219 5.87454 1.58899 5.28833ZM8.01868 6.37134C7.94577 6.42999 7.87444 6.49215 7.80676 6.55981C7.52567 6.84091 7.32489 7.17164 7.19934 7.52271C7.1329 7.06277 7.30938 6.62875 7.6759 6.45044C7.78464 6.39757 7.90075 6.37273 8.01868 6.37134Z" fill="white"/>
<path d="M9.64673 8.40015L15.7035 14.457" stroke="white" stroke-width="3.06067" stroke-linecap="round"/>
<path d="M15.7035 8.40015L9.64673 14.457" stroke="white" stroke-width="3.06067" stroke-linecap="round"/>
</g>
</g>
<defs>
<clipPath id="clip0_4671_3020">
<rect width="18" height="16" fill="white"/>
</clipPath>
</defs>
</svg>
