<svg width="30" height="30" viewBox="0 0 30 30" fill="none" xmlns="http://www.w3.org/2000/svg">
<rect width="30" height="30" fill="white"/>
<g style="mix-blend-mode:difference">
<path fill-rule="evenodd" clip-rule="evenodd" d="M15 1C7.27325 1 1 7.27307 1 15.0001C1 22.7269 7.27325 29 15 29C22.7267 29 29 22.7269 29 15.0001C29 7.27307 22.7267 1 15 1ZM15 2.96872C21.6401 2.96872 27.0313 8.35969 27.0313 15.0001C27.0313 21.6403 21.6401 27.0313 15 27.0313C8.35986 27.0313 2.96871 21.6403 2.96871 15.0001C2.96871 8.35969 8.35986 2.96872 15 2.96872Z" fill="white"/>
<path d="M12.8811 6.72184C12.8811 6.72184 13.5574 6.02484 14.8404 6.00004C16.3617 5.99356 16.7544 6.80694 16.7544 6.80694V9.31138L24 10.9246V15.5096H16.7544V19.9666H19.1696V24H10.6026V19.9666H12.8811V15.5096H6V10.9246L12.6987 9.26939H12.8811V6.72184Z" fill="white"/>
</g>
</svg>
