<svg width="22" height="10" viewBox="0 0 22 10" fill="none" xmlns="http://www.w3.org/2000/svg">
<rect width="22" height="10" fill="white"/>
<g style="mix-blend-mode:difference">
<g clip-path="url(#clip0_4671_3014)">
<path d="M13.3018 0.137713C12.8291 0.181555 12.3858 0.462117 12.1714 0.886205C11.3813 0.918709 10.5722 0.809146 9.79554 0.986784C9.02589 1.19793 8.53922 1.88329 7.97807 2.39703C7.34763 3.01436 6.75932 3.69038 6.10446 4.2402C5.75437 4.46798 5.29556 4.35857 4.89707 4.37999C4.66584 4.37495 4.39856 4.43295 4.3783 4.13916C3.8863 2.92807 2.16349 2.44121 1.1112 3.24272C-0.0327209 3.97303 -0.0927279 5.81736 0.96515 6.64616C1.89862 7.47735 3.50268 7.2184 4.19121 6.20317C4.3144 6.02931 4.3985 5.83162 4.45951 5.62869C5.9241 5.63372 7.39245 5.55611 8.85469 5.64883C9.26522 5.79472 9.52744 6.19294 9.84146 6.47806C10.601 7.2256 11.2654 8.08149 12.1263 8.71985C12.8512 9.22321 13.7819 9.04738 14.6114 9.10556C14.763 9.07633 14.8841 9.1156 14.9915 9.10048C14.9913 9.74509 14.9856 9.54924 14.9863 9.86312H17.8077V7.14912H15.0002V7.90661C14.3469 7.8799 13.6791 7.96453 13.0354 7.83779C12.5111 7.54957 12.1472 7.04177 11.7124 6.64016C11.3783 6.29413 11.0493 5.94325 10.7174 5.59508H19.097C19.1229 5.9008 19.0062 6.37217 19.3744 6.50513C20.0171 6.27584 20.5825 5.87061 21.1748 5.53849C21.3502 5.39965 21.6803 5.20719 21.8577 5.08781C21.9245 5.01323 21.9145 4.93636 21.883 4.85951C21.0794 4.35708 20.2491 3.88993 19.395 3.47756C19.0054 3.59573 19.1211 4.08439 19.097 4.39506H7.74283C8.46848 3.67043 9.13659 2.88431 9.91305 2.21241C10.3026 2.03124 10.7657 2.11892 11.1865 2.08415C11.5137 2.08289 11.8409 2.08394 12.1681 2.08369C12.4914 2.74148 13.3518 3.02298 14.0156 2.72445C14.7961 2.39591 15.0649 1.30802 14.5244 0.658597C14.2518 0.269533 13.7721 0.0782228 13.3018 0.137713Z" fill="white"/>
</g>
</g>
<defs>
<clipPath id="clip0_4671_3014">
<rect width="22" height="10" fill="white"/>
</clipPath>
</defs>
</svg>
