<svg width="30" height="30" viewBox="0 0 30 30" fill="none" xmlns="http://www.w3.org/2000/svg">
<rect width="30" height="30" fill="white"/>
<g style="mix-blend-mode:difference">
<path fill-rule="evenodd" clip-rule="evenodd" d="M20.0886 18.0392C20.0886 16.6638 21.1989 15.598 22.57 15.598C23.9412 15.598 25.0036 16.6638 25.0036 18.0392C25.0036 19.4146 23.9412 20.528 22.57 20.528C21.1989 20.528 20.0886 19.4146 20.0886 18.0392ZM5.07287 17.9901C5.07287 16.615 6.1353 15.5009 7.50645 15.5009C8.87759 15.5009 9.98788 16.615 9.98788 17.9901C9.98788 19.3655 8.87759 20.4313 7.50645 20.4313C6.1353 20.4313 5.07287 19.3655 5.07287 17.9901ZM20.1463 1C21.7696 1 23.088 2.3221 23.088 3.95083V8.0374C23.088 9.66613 21.7696 10.9882 20.1463 10.9882H10.8772C9.25388 10.9882 7.93553 9.66613 7.93553 8.0374V3.95083C7.93553 2.3221 9.25388 1 10.8772 1H20.1463Z" fill="white"/>
<path fill-rule="evenodd" clip-rule="evenodd" d="M6.59969 6.28677C3.996 6.91221 1 9.22199 1 12.0308V23.0644C1 26.355 4.70302 29 7.98374 29H22.8829C26.1636 29 29 26.355 29 23.0644V12.0308C29 9.27608 26.9375 7.01239 24.4101 6.33477V9.18251C24.4101 11.3944 22.6543 12.2703 20.4493 12.2703H10.6079C8.40333 12.2703 6.59969 10.4611 6.59969 8.24918V6.28677ZM22.57 14.0173C24.7747 14.0173 26.5783 15.8266 26.5783 18.0381C26.5783 20.2496 24.7747 22.0589 22.57 22.0589C20.3654 22.0589 18.5618 20.2496 18.5618 18.0381C18.5618 15.8266 20.3654 14.0173 22.57 14.0173ZM7.50645 13.9697C9.71106 13.9697 11.5147 15.7789 11.5147 17.9905C11.5147 20.202 9.71106 22.0112 7.50645 22.0112C5.30183 22.0112 3.49819 20.202 3.49819 17.9905C3.49819 15.7789 5.30183 13.9697 7.50645 13.9697Z" fill="white"/>
</g>
</svg>
