<svg width="30" height="30" viewBox="0 0 30 30" fill="none" xmlns="http://www.w3.org/2000/svg">
<rect width="30" height="30" fill="white"/>
<g style="mix-blend-mode:difference">
<path fill-rule="evenodd" clip-rule="evenodd" d="M3.956 1C2.46138 1 1 2.50287 1 4.61083V25.3889C1 27.4969 2.46138 29 3.956 29H22.4718C23.2638 29 23.9238 28.6138 24.4223 27.9205C24.831 27.3526 25.1218 26.5123 25.3589 25.8084L29 15.0001L25.3589 4.19131C25.1218 3.48745 24.831 2.64739 24.4223 2.0792C23.9235 1.38625 23.2638 1 22.4718 1H3.956V1ZM22.2609 3.64729C22.312 3.72709 22.3859 3.84745 22.426 3.93504C22.5874 4.28516 22.711 4.68257 22.8281 5.0306L26.1865 15.0001L22.8281 24.9694C22.711 25.3172 22.5874 25.7146 22.426 26.065C22.3859 26.1526 22.312 26.2732 22.2609 26.3527H4.00132C3.97093 26.3207 3.87346 26.2147 3.83259 26.1357C3.72439 25.9272 3.66834 25.6681 3.66834 25.3889V4.61083C3.66834 4.33168 3.7244 4.07279 3.83234 3.86433C3.87347 3.78532 3.97093 3.67927 4.00132 3.64729H22.2609V3.64729ZM6.01991 18.9593L11.1648 24.336L19.3277 14.1954L17.0642 12.358L11.0962 19.9124L8.07783 16.7135L6.01991 18.9593V18.9593Z" fill="white"/>
</g>
</svg>
