<svg width="23" height="23" viewBox="0 0 23 23" fill="none" xmlns="http://www.w3.org/2000/svg">
<rect width="23" height="23" fill="white"/>
<g style="mix-blend-mode:difference" clip-path="url(#clip0_4670_1647)">
<path d="M11.5 0C17.8481 9.69666e-05 23 5.23932 23 11.5C22.9999 17.7606 17.8391 22.9999 11.5 23C5.16081 23 8.61638e-05 17.8481 0 11.5C0 5.15186 5.15186 0 11.5 0ZM16.6113 11.5C16.6114 12.386 16.3813 13.2571 15.9434 14.0273C15.5053 14.7976 14.8739 15.4406 14.1123 15.8936C13.3508 16.3464 12.4845 16.5932 11.5986 16.6104C10.7129 16.6275 9.838 16.4142 9.05957 15.9912L10.2217 14.0557H4.26855C4.79717 15.5508 5.77637 16.8454 7.07129 17.7607C8.36636 18.6761 9.91407 19.1676 11.5 19.167C15.7358 19.1669 19.1669 15.7358 19.167 11.5H16.6113ZM11.5 3.83301C7.26407 3.83301 3.83301 7.26407 3.83301 11.5H6.38867C6.38857 10.6139 6.61865 9.74289 7.05664 8.97266C7.49459 8.20252 8.1253 7.55938 8.88672 7.10645C9.64817 6.65357 10.5146 6.40591 11.4004 6.38867C12.2863 6.37151 13.1619 6.58568 13.9404 7.00879L12.7773 8.94434H18.7305C18.2018 7.44914 17.2228 6.15465 15.9277 5.23926C14.6327 4.32391 13.0858 3.83248 11.5 3.83301Z" fill="white"/>
</g>
<defs>
<clipPath id="clip0_4670_1647">
<rect width="23" height="23" fill="white"/>
</clipPath>
</defs>
</svg>
