<svg width="30" height="30" viewBox="0 0 30 30" fill="none" xmlns="http://www.w3.org/2000/svg">
<rect width="30" height="30" fill="white"/>
<g style="mix-blend-mode:difference">
<path d="M29 4.18194C29 2.42572 27.5746 1 25.8189 1H4.18118C2.42539 1 1 2.42572 1 4.18194V25.8181C1 27.574 2.42539 29 4.18118 29H25.8189C27.5746 29 29 27.574 29 25.8181V4.18194ZM26.8439 4.18194V25.8181C26.8439 26.3838 26.3845 26.8432 25.8189 26.8432H4.18118C3.61532 26.8432 3.15606 26.3838 3.15606 25.8181V4.18194C3.15606 3.61594 3.61532 3.15657 4.18118 3.15657H25.8189C26.3845 3.15657 26.8439 3.61594 26.8439 4.18194Z" fill="white"/>
<path d="M20.2421 7.0076C19.4409 6.94528 18.6442 7.26712 18.1072 7.94159C18.0889 7.96511 18.058 8.01805 18.0405 8.04157L16.6061 9.80944C15.9611 9.59731 15.2874 9.47593 14.5714 9.47593C10.95 9.47593 8 12.4259 8 16.0473C8 19.6686 10.95 22.5853 14.5714 22.5853C18.1927 22.5853 21.1094 19.6686 21.1094 16.0473C21.1094 14.9803 20.861 13.9688 20.4089 13.0785L21.9433 11.1438C21.9625 11.1202 21.9915 11.0995 22.01 11.0769C22.8691 9.99776 22.689 8.4335 21.6097 7.57443C21.205 7.25224 20.7228 7.04506 20.2421 7.0076ZM14.5651 11.3733C15.8037 11.3733 16.9915 11.8652 17.8673 12.741C18.7431 13.6168 19.2351 14.8047 19.2351 16.0432C19.2351 17.2818 18.7431 18.4697 17.8673 19.3454C16.9915 20.2212 15.8037 20.7132 14.5651 20.7132C13.3265 20.7132 12.1387 20.2212 11.2629 19.3454C10.3871 18.4697 9.89511 17.2818 9.8951 16.0432C9.89511 14.8047 10.3871 13.6168 11.2629 12.741C12.1387 11.8652 13.3265 11.3733 14.5651 11.3733Z" fill="white"/>
</g>
</svg>
