<svg width="30" height="30" viewBox="0 0 30 30" fill="none" xmlns="http://www.w3.org/2000/svg">
<rect width="30" height="30" fill="white"/>
<g style="mix-blend-mode:difference">
<path d="M7.67038 20.9717C5.37646 22.9492 2.98448 24.2088 1 24.6484V29C4.37982 28.637 7.68668 26.7528 10.7361 24.0075L7.67038 20.9717V20.9717ZM22.3296 20.9701C24.6233 22.9476 27.0155 24.2072 29 24.6468V28.9984C25.6202 28.6355 22.3133 26.7513 19.2639 24.0059L22.3296 20.9701V20.9701ZM16.6626 5.64668C15.6851 4.6731 14.1022 4.6775 13.1301 5.65626L5.61268 13.2247C4.64062 14.2035 4.64501 15.7885 5.6225 16.7618L13.3485 24.4557C14.326 25.429 15.9087 25.4246 16.8807 24.4458L24.3982 16.8773C25.3702 15.8986 25.3658 14.3139 24.3886 13.3403L16.6626 5.64668V5.64668ZM15.7762 6.53866L23.5022 14.2325C23.9881 14.7162 23.9902 15.5038 23.5071 15.99L15.9896 23.5585C15.5068 24.0448 14.7203 24.0471 14.2347 23.5634L6.50867 15.8696C6.02303 15.3859 6.02069 14.5983 6.50375 14.112L14.0212 6.54358C14.5043 6.0573 15.2906 6.05523 15.7762 6.53866ZM20.9894 15.002L10.7286 10.797L13.4453 15.0286L10.9731 19.4136L20.9894 15.002ZM1 1.00157V5.35316C2.80259 5.74591 4.92652 6.83556 6.99664 8.49023L10.0624 5.42052C7.20569 2.99848 4.13195 1.34302 1 1.00157V1.00157ZM29 1V5.35161C27.1974 5.7441 25.0735 6.83399 23.0034 8.48867L19.9376 5.41895C22.7943 2.99691 25.868 1.34145 29 1V1Z" fill="white"/>
</g>
</svg>
