<svg width="30" height="30" viewBox="0 0 30 30" fill="none" xmlns="http://www.w3.org/2000/svg">
<rect width="30" height="30" fill="white"/>
<g style="mix-blend-mode:difference">
<path d="M2.15711 16.2729C1.52728 16.337 0.996428 16.9288 1.00002 17.562V27.7109C0.999762 28.3858 1.61421 29.0003 2.28917 29H12.438C13.1132 29.0003 13.7274 28.3858 13.7271 27.7109V17.562C13.7274 16.887 13.113 16.2726 12.438 16.2729H2.15711ZM17.5949 16.1931C16.9199 16.1929 16.3055 16.8073 16.3057 17.4825V27.6311C16.3055 28.3061 16.9199 28.9207 17.5949 28.9202H25.5618L23.5454 26.8377L20.2727 26.8046L18.2231 24.6889L18.1239 22.7053L19.3141 21.4161L21.1323 23.3667L23.2479 23.2672L23.3138 21.5482L21.2643 19.4325L22.5537 18.2095L24.7353 18.2426L26.752 20.226L26.8841 23.6972L29 25.8129V17.4823C29.0003 16.807 28.3858 16.1926 27.7106 16.1929L17.5949 16.1931ZM17.4628 1C16.8327 1.06411 16.3021 1.65625 16.3057 2.28941V12.438C16.3055 13.1132 16.9199 13.7276 17.5949 13.7271H27.7106C28.3858 13.7276 29 13.1132 29 12.438V2.28941C29.0003 1.61419 28.3858 0.999744 27.7106 1H17.4628ZM2.19019 1.03309C1.5601 1.0972 1.02951 1.68906 1.0331 2.32248V12.438C1.03284 13.1132 1.64729 13.7274 2.32225 13.7271H12.4711C13.146 13.7274 13.7605 13.1132 13.7602 12.438V2.32248C13.7605 1.64726 13.1463 1.03283 12.4711 1.03309H2.19019Z" fill="white"/>
</g>
</svg>
