<svg width="18" height="18" viewBox="0 0 18 18" fill="none" xmlns="http://www.w3.org/2000/svg">
<rect width="18" height="18" fill="white"/>
<g style="mix-blend-mode:difference">
<path d="M8.99998 0.546875C6.14902 0.546875 3.83722 2.85871 3.83722 5.70966C3.83722 8.56066 6.54009 11.8399 8.99998 14.1081C11.4599 11.7226 14.1627 8.56066 14.1627 5.70966C14.1627 2.85871 11.8509 0.546875 8.99998 0.546875ZM8.99998 2.83334C9.37772 2.83328 9.75176 2.90765 10.1008 3.05218C10.4497 3.19671 10.7669 3.40862 11.034 3.67572C11.3011 3.94282 11.5129 4.25992 11.6574 4.60891C11.802 4.95791 11.8763 5.33192 11.8763 5.70966C11.876 6.47231 11.5729 7.2036 11.0335 7.74276C10.4941 8.28191 9.76263 8.58479 8.99998 8.58468C8.23733 8.58479 7.50586 8.28191 6.96646 7.74276C6.42707 7.2036 6.12391 6.47231 6.12368 5.70966C6.12362 5.33192 6.19799 4.95791 6.34251 4.60891C6.48704 4.25992 6.69891 3.94282 6.96601 3.67572C7.23311 3.40862 7.55021 3.19671 7.8992 3.05218C8.2482 2.90765 8.62224 2.83328 8.99998 2.83334Z" fill="white"/>
<path d="M13.6875 9.55212L12.7252 10.9388C13.1344 11.0589 13.5081 11.1985 13.8385 11.3516C13.9642 11.4098 14.083 11.4706 14.1953 11.5326L15.6354 10.6081C15.2662 10.3056 14.834 10.0497 14.3502 9.82556C14.1393 9.7279 13.918 9.63679 13.6875 9.55212ZM4.3255 9.67323C4.20617 9.72209 4.09019 9.77287 3.97654 9.82556C3.41992 10.0834 2.93115 10.3844 2.52863 10.7488L3.92967 11.6498C4.09774 11.5463 4.28425 11.4462 4.48826 11.3516C4.72391 11.2425 4.98215 11.1401 5.25909 11.047L4.3255 9.67323ZM16.6054 11.8243L15.082 12.1849C15.0928 12.195 15.103 12.2077 15.1133 12.2188C15.3732 12.5035 15.4375 12.7063 15.4375 12.8711C15.4375 13.0359 15.3732 13.2453 15.1133 13.53C14.8533 13.8147 14.4131 14.1244 13.8385 14.3906C13.7444 14.4342 13.6465 14.477 13.5456 14.5183L15.3607 15.3464C15.6232 15.1612 15.861 14.9582 16.0677 14.7318C16.5136 14.2434 16.8359 13.5986 16.8359 12.8711C16.8359 12.4955 16.7499 12.144 16.6054 11.8243ZM1.68357 11.9063C1.55963 12.2037 1.48566 12.5277 1.48566 12.8711C1.48565 13.5986 1.81318 14.2434 2.25909 14.7318C2.44133 14.9314 2.64639 15.1129 2.87238 15.28L4.65753 14.4662C4.60013 14.441 4.54329 14.4161 4.48826 14.3906C3.91367 14.1244 3.4735 13.8148 3.21352 13.53C2.95355 13.2454 2.8893 13.036 2.8893 12.8711C2.8893 12.7144 2.94747 12.5228 3.17706 12.2592L1.68357 11.9063ZM6.08071 14.9311L4.36326 16.0873C5.68342 16.6213 7.3443 16.9272 9.16274 16.9272C10.9135 16.9272 12.5196 16.6447 13.8151 16.1472L12.0703 14.9714C11.1997 15.167 10.2091 15.28 9.16274 15.28C8.04504 15.28 6.99259 15.1514 6.08071 14.9311Z" fill="white"/>
</g>
</svg>
