<?xml version="1.0" encoding="UTF-8" standalone="no"?>
<!-- Created with Inkscape (http://www.inkscape.org/) -->

<svg
   width="27"
   height="24"
   viewBox="0 0 7.1437493 6.3499994"
   version="1.1"
   id="svg1"
   xml:space="preserve"
   inkscape:version="1.4.2 (1:1.4.2+202505120737+ebf0e940d0)"
   sodipodi:docname="mask_volume_0.svg"
   inkscape:export-filename="mask_volume_0.png"
   inkscape:export-xdpi="96"
   inkscape:export-ydpi="96"
   xmlns:inkscape="http://www.inkscape.org/namespaces/inkscape"
   xmlns:sodipodi="http://sodipodi.sourceforge.net/DTD/sodipodi-0.dtd"
   xmlns="http://www.w3.org/2000/svg"
   xmlns:svg="http://www.w3.org/2000/svg"><sodipodi:namedview
     id="namedview1"
     pagecolor="#ffffff"
     bordercolor="#999999"
     borderopacity="1"
     inkscape:showpageshadow="0"
     inkscape:pageopacity="0"
     inkscape:pagecheckerboard="0"
     inkscape:deskcolor="#d1d1d1"
     inkscape:document-units="px"
     inkscape:zoom="8"
     inkscape:cx="45.9375"
     inkscape:cy="14.875"
     inkscape:current-layer="layer1"
     inkscape:export-bgcolor="#ffffffff"
     showguides="true"
     showgrid="false" /><defs
     id="defs1"><inkscape:path-effect
       effect="perspective-envelope"
       up_left_point="106.49532,264.85378"
       up_right_point="126.54248,265.64754"
       down_left_point="97.367197,290.14567"
       down_right_point="125.48415,290.14567"
       id="path-effect2"
       is_visible="true"
       lpeversion="1"
       deform_type="perspective"
       horizontal_mirror="false"
       vertical_mirror="false"
       overflow_perspective="false" /><inkscape:path-effect
       effect="perspective-envelope"
       up_left_point="102.72306,268.22103"
       up_right_point="118.25084,266.50124"
       down_left_point="100.07723,295.78112"
       down_right_point="124.07167,295.78112"
       id="path-effect1"
       is_visible="true"
       lpeversion="1"
       deform_type="perspective"
       horizontal_mirror="false"
       vertical_mirror="false"
       overflow_perspective="false" /></defs><g
     inkscape:label="Vrstva 1"
     inkscape:groupmode="layer"
     id="layer1"
     transform="translate(0,-290.64999)"><path
       id="path5007-8-9-1-8-2-0-5-8-3"
       d="m 4.0244979,290.87599 c 1.0256117,0.30876 1.8361936,1.40617 1.9390184,2.76733 0.1265734,1.67527 -0.8660234,3.11643 -2.2181491,3.21858 -1.3521081,0.10207 -2.5516128,-1.17323 -2.6781793,-2.8485 -0.12657327,-1.67529 0.8670569,-3.11613 2.2191827,-3.21828 0.2535103,-0.0192 0.5014415,0.0102 0.7381273,0.0808 z m -0.061704,0.36338 c -0.2075989,-0.0624 -0.4253962,-0.0891 -0.6477814,-0.0722 -1.1860505,0.0896 -2.0580079,1.35418 -1.9469824,2.8237 0.1110188,1.46951 1.1629759,2.58774 2.3490251,2.49813 1.1860331,-0.0895 2.0576888,-1.35316 1.9466645,-2.82267 -0.090216,-1.19398 -0.8012788,-2.15602 -1.7009258,-2.42688 z"
       style="display:inline;fill:#000000;fill-opacity:1;stroke:none;stroke-width:0.185803"
       inkscape:connector-curvature="0" /><path
       id="path5779-5-0-9-0-5-1-5-0-6"
       d="m 3.8831884,291.6982 c 0.740197,0.22285 1.325499,1.01395 1.3997158,1.99633 0.091352,1.20905 -0.6264121,2.24912 -1.6022371,2.32284 -0.9758413,0.0737 -1.8401823,-0.84684 -1.931532,-2.05589 -0.091352,-1.20906 0.6250771,-2.24841 1.6009184,-2.32213 0.1829645,-0.0138 0.3623326,0.007 0.5331349,0.0589 z m -0.3420685,1.1102 c -0.080884,-0.0242 -0.1661102,-0.0335 -0.2527313,-0.0271 -0.4619751,0.0349 -0.8014778,0.52665 -0.7582348,1.09903 0.043255,0.57239 0.4533632,1.00782 0.9153369,0.97291 0.4619749,-0.0349 0.8014764,-0.52664 0.7582347,-1.09903 -0.035127,-0.46507 -0.3121754,-0.84035 -0.6626055,-0.94586 z"
       style="display:inline;fill:#000000;fill-opacity:1;stroke:none;stroke-width:0.185803"
       inkscape:connector-curvature="0" /><ellipse
       transform="matrix(-0.89923041,0.43747533,0.43747563,0.89923027,0,0)"
       id="path5783-5-7-9-5-9-5-4-3-1"
       style="display:inline;fill:#000000;fill-opacity:1;stroke:none;stroke-width:0.00657909"
       cx="125.21109"
       cy="265.46194"
       rx="0.38901535"
       ry="0.48199028" /><path
       sodipodi:nodetypes="ccc"
       inkscape:connector-curvature="0"
       id="path5787-9-1-7-6-4-0-3-1-0"
       d="m 1.1244975,295.51376 c -1.07397806,-0.0505 -1.1987971,-2.69101 -0.24942155,-2.92731 -0.31977276,1.21479 -0.21348662,2.04947 0.24942155,2.92731 z"
       style="display:inline;fill:#000000;fill-opacity:1;stroke:none;stroke-width:0.185803" /><path
       inkscape:connector-curvature="0"
       id="path6172-5-6-1-6"
       d="m 4.1231691,293.86457 2.4414704,2.44148"
       style="display:inline;fill:#ad5858;fill-opacity:1;stroke:#ffffff;stroke-width:1.37665;stroke-linecap:round;stroke-linejoin:miter;stroke-miterlimit:4;stroke-dasharray:none;stroke-opacity:1" /><path
       style="display:inline;fill:#ad5858;fill-opacity:1;stroke:#ffffff;stroke-width:1.37665;stroke-linecap:round;stroke-linejoin:miter;stroke-miterlimit:4;stroke-dasharray:none;stroke-opacity:1"
       d="m 6.5646395,293.86457 -2.4414704,2.44148"
       id="path6174-9-3-1-1"
       inkscape:connector-curvature="0" /><path
       style="display:inline;fill:#ad5858;fill-opacity:1;stroke:#000000;stroke-width:0.809803;stroke-linecap:round;stroke-linejoin:miter;stroke-miterlimit:4;stroke-dasharray:none;stroke-opacity:1"
       d="m 4.1231691,293.86457 2.4414704,2.44148"
       id="path6170-6-0-2-5"
       inkscape:connector-curvature="0" /><path
       inkscape:connector-curvature="0"
       id="path6176-4-5-7-5"
       d="m 6.5646395,293.86457 -2.4414704,2.44148"
       style="display:inline;fill:none;fill-opacity:1;stroke:#000000;stroke-width:0.809803;stroke-linecap:round;stroke-linejoin:miter;stroke-miterlimit:4;stroke-dasharray:none;stroke-opacity:1" /></g></svg>
