<?xml version="1.0" encoding="UTF-8" standalone="no"?>
<!-- Created with Inkscape (http://www.inkscape.org/) -->

<svg
   width="79.0271mm"
   height="82.240181mm"
   viewBox="0 0 79.0271 82.240181"
   version="1.1"
   id="svg711"
   inkscape:version="1.2.2 (732a01da63, 2022-12-09)"
   sodipodi:docname="ETX_color_logo.svg"
   xmlns:inkscape="http://www.inkscape.org/namespaces/inkscape"
   xmlns:sodipodi="http://sodipodi.sourceforge.net/DTD/sodipodi-0.dtd"
   xmlns="http://www.w3.org/2000/svg"
   xmlns:svg="http://www.w3.org/2000/svg">
  <sodipodi:namedview
     id="namedview713"
     pagecolor="#ffffff"
     bordercolor="#000000"
     borderopacity="0.25"
     inkscape:showpageshadow="2"
     inkscape:pageopacity="0.0"
     inkscape:pagecheckerboard="0"
     inkscape:deskcolor="#d1d1d1"
     inkscape:document-units="mm"
     showgrid="false"
     inkscape:zoom="0.71624579"
     inkscape:cx="152.1824"
     inkscape:cy="353.2307"
     inkscape:window-width="1450"
     inkscape:window-height="1020"
     inkscape:window-x="328"
     inkscape:window-y="0"
     inkscape:window-maximized="0"
     inkscape:current-layer="layer1" />
  <defs
     id="defs708" />
  <g
     inkscape:label="Layer 1"
     inkscape:groupmode="layer"
     id="layer1"
     transform="translate(-64.658089,-54.924687)">
    <g
       id="g39192"
       transform="matrix(1.4846207,0,0,1.4846207,-266.72824,551.23217)">
      <path
         style="fill:#14171c;fill-opacity:1;stroke:none;stroke-width:0.25281px;stroke-linecap:butt;stroke-linejoin:miter;stroke-opacity:1"
         d="m 230.24642,-306.87496 -0.91536,-17.23254 10.30282,0.55051 15.1524,-9.46286 5.21449,9.61769 15.39945,7.94368 -5.83942,9.23076 0.486,16.97822 -10.88654,-0.098 -14.084,8.87579 -5.06115,-8.93924 -15.77356,-8.15969 z"
         id="path5326-7-0-7"
         sodipodi:nodetypes="ccccccccccccc" />
      <g
         aria-label="X"
         transform="scale(0.89349519,1.1192002)"
         id="text46893-8-8-7-8-3-4-5-5-8-7-0-8-4-8-3-7-9-4-5-7-9-3-5"
         style="font-weight:800;font-size:23.0043px;line-height:1.25;font-family:'Open Sans';-inkscape-font-specification:'Open Sans, Ultra-Bold';letter-spacing:0px;word-spacing:0px;fill:#ffffff;stroke-width:0.237896">
        <path
           d="m 294.61482,-261.57199 h -5.13328 l -3.20128,-5.13328 -3.16759,5.13328 h -5.02096 l 5.4478,-8.40196 -5.12205,-8.02006 h 4.91986 l 2.9654,5.07713 2.85307,-5.07713 h 5.06589 l -5.20068,8.36827 z"
           id="path3019" />
      </g>
      <g
         aria-label="T"
         transform="scale(0.90235588,1.1082102)"
         id="text46893-8-8-7-8-3-4-5-5-8-5-0-2-2-0-4-9-1-2-9-6-0-9"
         style="font-weight:800;font-size:23.3472px;line-height:1.25;font-family:'Open Sans';-inkscape-font-specification:'Open Sans, Ultra-Bold';letter-spacing:0px;word-spacing:0px;fill:#ffffff;stroke-width:0.264838">
        <path
           d="m 270.59011,-264.19733 h -4.503 v -12.9846 h -4.0698 v -3.6822 h 12.6312 v 3.6822 h -4.0584 z"
           id="path3016" />
      </g>
      <g
         aria-label="EDGE"
         transform="scale(0.91200302,1.0964876)"
         id="text43103-3-6-3-0-9-7-7-6-1-9-1-0-7-4-8-0-2-6-6-6-2-7"
         style="font-size:12.3452px;line-height:1.25;font-family:'Cobalt Alien';-inkscape-font-specification:'Cobalt Alien, Normal';letter-spacing:0px;word-spacing:0px;fill:#fffefa;stroke-width:0.213263">
        <path
           d="m 264.66253,-288.94842 h -3.01223 v -1.19749 h 3.81467 v -1.20983 h -4.39489 q -0.9012,0 -1.37032,0.29629 -0.46912,0.29628 -0.46912,0.9012 v 4.24675 q 0,0.60491 0.46912,0.9012 0.46912,0.29628 1.37032,0.29628 h 4.39489 v -1.20983 h -3.81467 v -1.8024 h 3.01223 z"
           id="path2958" />
        <path
           d="m 270.82278,-290.14591 h -4.24675 v -1.20983 h 4.82697 q 0.9012,0 1.37032,0.29629 0.46912,0.29628 0.46912,0.9012 v 4.24675 q 0,0.60491 -0.46912,0.9012 -0.46912,0.29628 -1.37032,0.29628 h -4.82697 v -4.82697 h 2.41966 v 3.61714 h 1.82709 z"
           id="path2960" />
        <path
           d="m 278.60024,-285.92385 h -1.82709 v -4.22206 h 4.24675 v -1.20983 h -4.82697 q -0.9012,0 -1.37032,0.29629 -0.46912,0.29628 -0.46912,0.9012 v 4.24675 q 0,0.60491 0.46912,0.9012 0.46912,0.29628 1.37032,0.29628 h 2.98754 q 0.9012,0 1.37031,-0.29628 0.46912,-0.29629 0.46912,-0.9012 v -3.03692 h -2.41966 z"
           id="path2962" />
        <path
           d="m 287.56285,-288.94842 h -3.01223 v -1.19749 h 3.81467 v -1.20983 h -4.3949 q -0.90119,0 -1.37031,0.29629 -0.46912,0.29628 -0.46912,0.9012 v 4.24675 q 0,0.60491 0.46912,0.9012 0.46912,0.29628 1.37031,0.29628 h 4.3949 v -1.20983 h -3.81467 v -1.8024 h 3.01223 z"
           id="path2964" />
      </g>
      <path
         style="fill:#359ac8;fill-opacity:1;stroke:none;stroke-width:0.199459px;stroke-linecap:butt;stroke-linejoin:miter;stroke-opacity:1"
         d="m 239.15219,-325.10027 15.933,-9.19891 10.6816,18.50107 -12.1759,-12.17606 z"
         id="path43050-7-4-6-1-5"
         inkscape:transform-center-x="-5.1930621"
         inkscape:transform-center-y="-36.404377"
         inkscape:export-filename="/home/martin/Dokumenty/ExDokumenty/MojeDokumenty/OpenTXwip/Grafika/svg/logo/rect33036-7-2-7.png"
         inkscape:export-xdpi="96"
         inkscape:export-ydpi="96" />
      <path
         style="fill:#3bceae;fill-opacity:1;stroke:none;stroke-width:0.199459px;stroke-linecap:butt;stroke-linejoin:miter;stroke-opacity:1"
         d="m 260.51019,-325.09664 15.9331,9.19893 -10.6816,18.50105 4.4567,-16.63277 z"
         id="path43052-8-2-1-8-2"
         inkscape:transform-center-x="-36.802735"
         inkscape:transform-center-y="-9.1664762"
         inkscape:export-filename="/home/martin/Dokumenty/ExDokumenty/MojeDokumenty/OpenTXwip/Grafika/svg/logo/rect33036-7-2-7.png"
         inkscape:export-xdpi="96"
         inkscape:export-ydpi="96" />
      <path
         style="fill:#3b56c8;fill-opacity:1;stroke:none;stroke-width:0.199459px;stroke-linecap:butt;stroke-linejoin:miter;stroke-opacity:1"
         d="m 228.46999,-306.60541 v -18.39786 h 21.3632 l -16.6328,4.45672 z"
         id="path2282-9-7-3-9-1-2-5"
         inkscape:transform-center-x="21.069826"
         inkscape:transform-center-y="-18.160978"
         inkscape:export-filename="/home/martin/Dokumenty/ExDokumenty/MojeDokumenty/OpenTXwip/Grafika/svg/logo/rect33036-7-2-7.png"
         inkscape:export-xdpi="96"
         inkscape:export-ydpi="96" />
      <path
         style="fill:#c2b035;fill-opacity:1;stroke:none;stroke-width:0.199459px;stroke-linecap:butt;stroke-linejoin:miter;stroke-opacity:1"
         d="m 271.18619,-306.59821 v 18.39786 l -21.3633,-2e-5 16.6329,-4.4567 z"
         id="path43054-8-2-7-8-4"
         inkscape:transform-center-x="-21.06974"
         inkscape:transform-center-y="18.160967"
         inkscape:export-filename="/home/martin/Dokumenty/ExDokumenty/MojeDokumenty/OpenTXwip/Grafika/svg/logo/rect33036-7-2-7.png"
         inkscape:export-xdpi="96"
         inkscape:export-ydpi="96" />
      <path
         style="fill:#b54d65;fill-opacity:1;stroke:none;stroke-width:0.199459px;stroke-linecap:butt;stroke-linejoin:miter;stroke-opacity:1"
         d="m 260.50399,-288.10337 -15.9329,9.19893 -10.6818,-18.5011 12.1761,12.17608 z"
         id="path43056-6-6-1-0-7"
         inkscape:transform-center-x="5.1929982"
         inkscape:transform-center-y="36.404332"
         inkscape:export-filename="/home/martin/Dokumenty/ExDokumenty/MojeDokumenty/OpenTXwip/Grafika/svg/logo/rect33036-7-2-7.png"
         inkscape:export-xdpi="96"
         inkscape:export-ydpi="96" />
      <path
         style="fill:#a839c7;fill-opacity:1;stroke:none;stroke-width:0.199459px;stroke-linecap:butt;stroke-linejoin:miter;stroke-opacity:1"
         d="m 239.14579,-288.10698 -15.933,-9.19893 10.6817,-18.50108 -4.4568,16.63278 z"
         id="path43058-0-8-3-2-4"
         inkscape:transform-center-x="36.802772"
         inkscape:transform-center-y="9.1664399"
         inkscape:export-filename="/home/martin/Dokumenty/ExDokumenty/MojeDokumenty/OpenTXwip/Grafika/svg/logo/rect33036-7-2-7.png"
         inkscape:export-xdpi="96"
         inkscape:export-ydpi="96" />
    </g>
  </g>
</svg>
