<?xml version="1.0" encoding="UTF-8" standalone="no"?>
<!-- Created with Inkscape (http://www.inkscape.org/) -->

<svg
   width="45"
   height="45"
   viewBox="0 0 11.906249 11.906249"
   version="1.1"
   id="svg1"
   xml:space="preserve"
   inkscape:version="1.4.2 (1:1.4.2+202505120737+ebf0e940d0)"
   sodipodi:docname="mask_radio_sd_browser.svg"
   inkscape:export-filename="mask_radio_sd_browser.png"
   inkscape:export-xdpi="96"
   inkscape:export-ydpi="96"
   xmlns:inkscape="http://www.inkscape.org/namespaces/inkscape"
   xmlns:sodipodi="http://sodipodi.sourceforge.net/DTD/sodipodi-0.dtd"
   xmlns="http://www.w3.org/2000/svg"
   xmlns:svg="http://www.w3.org/2000/svg"><sodipodi:namedview
     id="namedview1"
     pagecolor="#ffffff"
     bordercolor="#999999"
     borderopacity="1"
     inkscape:showpageshadow="0"
     inkscape:pageopacity="0"
     inkscape:pagecheckerboard="0"
     inkscape:deskcolor="#d1d1d1"
     inkscape:document-units="px"
     inkscape:zoom="4"
     inkscape:cx="91.874999"
     inkscape:cy="14.25"
     inkscape:current-layer="layer1"
     inkscape:export-bgcolor="#ffffffff"
     showguides="true"
     showgrid="false"><sodipodi:guide
       position="39.584415,-49.527029"
       orientation="0,1"
       id="guide3"
       inkscape:locked="false" /></sodipodi:namedview><defs
     id="defs1"><inkscape:path-effect
       effect="perspective-envelope"
       up_left_point="106.49532,264.85378"
       up_right_point="126.54248,265.64754"
       down_left_point="97.367197,290.14567"
       down_right_point="125.48415,290.14567"
       id="path-effect2"
       is_visible="true"
       lpeversion="1"
       deform_type="perspective"
       horizontal_mirror="false"
       vertical_mirror="false"
       overflow_perspective="false" /><inkscape:path-effect
       effect="perspective-envelope"
       up_left_point="102.72306,268.22103"
       up_right_point="118.25084,266.50124"
       down_left_point="100.07723,295.78112"
       down_right_point="124.07167,295.78112"
       id="path-effect1"
       is_visible="true"
       lpeversion="1"
       deform_type="perspective"
       horizontal_mirror="false"
       vertical_mirror="false"
       overflow_perspective="false" /><inkscape:path-effect
       effect="spiro"
       id="path-effect5964-4-4"
       is_visible="true"
       lpeversion="0" /><inkscape:path-effect
       effect="spiro"
       id="path-effect5964-6"
       is_visible="true"
       lpeversion="0" /></defs><g
     inkscape:label="Vrstva 1"
     inkscape:groupmode="layer"
     id="layer1"
     transform="translate(0,-285.09374)"><path
       id="path6955-5-0-5"
       d="m 7.8615828,285.09402 -5.2739244,0.0433 c -0.8233444,0.0111 -1.59235338,0.73008 -1.60385094,1.77726 l 0.0144491,3.3233 -0.88139558,0.98254 -0.11559286,0.13002 v 0.17339 3.62675 0.0143 c 0.00227949,0.51924 0.12292834,0.98147 0.39012591,1.31489 0.26979369,0.33661 0.68975027,0.51416 1.11258127,0.52017 h 0.014449 6.4443021 0.014449 0.014449 c 0.4702212,-0.0213 0.8998489,-0.23026 1.1703778,-0.57797 0.1162471,-0.14943 0.1994111,-0.30951 0.2600839,-0.49127 l -0.80915,-0.70802 c -0.00826,0.30081 -0.089375,0.50916 -0.1878384,0.63576 -0.1035805,0.13316 -0.2260562,0.2027 -0.4623715,0.21676 -0.00609,3.2e-4 -0.00821,-3.3e-4 -0.014449,0 h -6.429853 c -0.184321,-0.005 -0.3015292,-0.0448 -0.404575,-0.17339 -0.1030457,-0.12859 -0.18796821,-0.36278 -0.18783838,-0.73693 v -3.45331 l 0.88139558,-1.01144 0.130042,-0.13007 -0.014449,-0.17339 -0.014449,-3.48221 c 0.00712,-0.6482 0.3397125,-0.84267 0.679108,-0.85252 h 0.014449 l 4.8115529,-0.0435 v 0.0143 l 0.4623715,-0.0143 h 0.014449 c 0.2501221,-0.007 0.4132491,0.0546 0.5201679,0.15891 0.1069188,0.10427 0.206262,0.30462 0.2022875,0.72246 v 2.54304 h 0.9247429 v -2.54304 c 0.00555,-0.58407 -0.1503096,-1.06877 -0.4768206,-1.38711 -0.2001786,-0.19517 -0.4526528,-0.28815 -0.7080063,-0.34678 v -0.0722 H 7.8760319 c -0.00468,10e-5 -0.00977,-1.3e-4 -0.014449,0 z"
       style="color:#000000;font-style:normal;font-variant:normal;font-weight:normal;font-stretch:normal;font-size:medium;line-height:normal;font-family:Sans;-inkscape-font-specification:Sans;text-indent:0;text-align:start;text-decoration:none;text-decoration-line:none;letter-spacing:normal;word-spacing:normal;text-transform:none;writing-mode:lr-tb;direction:ltr;baseline-shift:baseline;text-anchor:start;display:inline;overflow:visible;visibility:visible;fill:#000000;fill-opacity:1;stroke:none;stroke-width:0.924743;marker:none;enable-background:accumulate"
       inkscape:connector-curvature="0" /><path
       inkscape:connector-curvature="0"
       id="rect5232"
       d="m 2.6581256,286.66539 h 0.9426732 v 2.19353 H 2.6581256 Z"
       style="fill:#000000;fill-opacity:1;stroke:none;stroke-width:0.462371" /><path
       inkscape:connector-curvature="0"
       id="rect5232-9"
       d="m 4.1083921,286.65628 h 0.9426732 v 2.19353 H 4.1083921 Z"
       style="fill:#000000;fill-opacity:1;stroke:none;stroke-width:0.462371" /><path
       inkscape:connector-curvature="0"
       id="rect5232-4"
       d="m 5.5224022,286.65632 h 0.9426732 v 2.19349 H 5.5224022 Z"
       style="fill:#000000;fill-opacity:1;stroke:none;stroke-width:0.462371" /><path
       inkscape:connector-curvature="0"
       id="rect5232-7"
       d="m 6.8457693,286.63815 h 0.9426733 v 2.19354 H 6.8457693 Z"
       style="fill:#000000;fill-opacity:1;stroke:none;stroke-width:0.462371" /><ellipse
       transform="matrix(0.98879819,-0.1492586,0.16508754,0.98627892,0,0)"
       id="path4417"
       style="fill:none;stroke:#000000;stroke-width:0.801644;stroke-linecap:round;stroke-linejoin:round;stroke-miterlimit:4;stroke-dasharray:none;stroke-opacity:1"
       cx="-41.372593"
       cy="289.88806"
       rx="2.3076987"
       ry="2.3141332" /><path
       inkscape:connector-curvature="0"
       d="m 8.928614,293.00131 a 0.83778239,0.79540535 80.968135 0 0 -0.3347107,1.47704 l 2.0094267,1.77301 a 0.84317743,0.80052741 80.968135 0 0 1.006802,-1.29353 L 9.5869588,293.20447 A 0.83778239,0.79540535 80.968135 0 0 8.928614,293.00131 Z"
       style="color:#000000;font-style:normal;font-variant:normal;font-weight:normal;font-stretch:normal;font-size:medium;line-height:normal;font-family:Sans;-inkscape-font-specification:Sans;text-indent:0;text-align:start;text-decoration:none;text-decoration-line:none;letter-spacing:normal;word-spacing:normal;text-transform:none;writing-mode:lr-tb;direction:ltr;baseline-shift:baseline;text-anchor:start;display:inline;overflow:visible;visibility:visible;fill:#000000;fill-opacity:1;stroke:none;stroke-width:0.924743;marker:none;enable-background:accumulate"
       id="path5367" /></g></svg>
