<?xml version="1.0" encoding="UTF-8" standalone="no"?>
<!-- Created with Inkscape (http://www.inkscape.org/) -->

<svg
   width="45"
   height="45"
   viewBox="0 0 11.906249 11.906249"
   version="1.1"
   id="svg1"
   xml:space="preserve"
   inkscape:version="1.4.2 (1:1.4.2+202505120737+ebf0e940d0)"
   sodipodi:docname="mask_model_inputs.svg"
   inkscape:export-filename="mask_model_inputs.png"
   inkscape:export-xdpi="96"
   inkscape:export-ydpi="96"
   xmlns:inkscape="http://www.inkscape.org/namespaces/inkscape"
   xmlns:sodipodi="http://sodipodi.sourceforge.net/DTD/sodipodi-0.dtd"
   xmlns="http://www.w3.org/2000/svg"
   xmlns:svg="http://www.w3.org/2000/svg"><sodipodi:namedview
     id="namedview1"
     pagecolor="#ffffff"
     bordercolor="#999999"
     borderopacity="1"
     inkscape:showpageshadow="0"
     inkscape:pageopacity="0"
     inkscape:pagecheckerboard="0"
     inkscape:deskcolor="#d1d1d1"
     inkscape:document-units="px"
     inkscape:zoom="2.8284271"
     inkscape:cx="155.74027"
     inkscape:cy="-30.759145"
     inkscape:current-layer="layer1"
     inkscape:export-bgcolor="#ffffffff"
     showguides="true"
     showgrid="false"><sodipodi:guide
       position="39.584415,-49.527028"
       orientation="0,1"
       id="guide3"
       inkscape:locked="false" /></sodipodi:namedview><defs
     id="defs1"><inkscape:path-effect
       effect="perspective-envelope"
       up_left_point="106.49532,264.85378"
       up_right_point="126.54248,265.64754"
       down_left_point="97.367197,290.14567"
       down_right_point="125.48415,290.14567"
       id="path-effect2"
       is_visible="true"
       lpeversion="1"
       deform_type="perspective"
       horizontal_mirror="false"
       vertical_mirror="false"
       overflow_perspective="false" /><inkscape:path-effect
       effect="perspective-envelope"
       up_left_point="102.72306,268.22103"
       up_right_point="118.25084,266.50124"
       down_left_point="100.07723,295.78112"
       down_right_point="124.07167,295.78112"
       id="path-effect1"
       is_visible="true"
       lpeversion="1"
       deform_type="perspective"
       horizontal_mirror="false"
       vertical_mirror="false"
       overflow_perspective="false" /></defs><g
     inkscape:label="Vrstva 1"
     inkscape:groupmode="layer"
     id="layer1"
     transform="translate(0,-285.09374)"><g
       id="g5361"
       transform="matrix(0.46045796,0,0,0.46045796,-0.99997921,-186.63545)"><path
         inkscape:transform-center-y="4.6540719e-05"
         inkscape:transform-center-x="-1.5898024"
         transform="matrix(1.024245,0,0,1.024245,-4.875646,1054.9318)"
         d="m 8.1526785,-10.094587 5e-7,-7.005997 -5e-7,-7.005997 6.0673715,3.502999 6.067371,3.502998 -6.067372,3.502998 z"
         inkscape:randomized="0"
         inkscape:rounded="0"
         inkscape:flatsided="false"
         sodipodi:arg2="3.1415927"
         sodipodi:arg1="2.0943951"
         sodipodi:r2="4.0449138"
         sodipodi:r1="8.0898285"
         sodipodi:cy="-17.100584"
         sodipodi:cx="12.197593"
         sodipodi:sides="3"
         id="path7422-8-0"
         style="fill:none;stroke:#000000;stroke-width:2.54429;stroke-miterlimit:4;stroke-dasharray:none;stroke-opacity:1"
         sodipodi:type="star" /><path
         sodipodi:nodetypes="ccccccccccccccccccccccccccsccccc"
         id="path7443-83"
         d="m 16.936267,1024.499 v 0.04 c -0.105959,0 -0.659171,-0.016 -1.343705,0.2035 -0.745482,0.2385 -1.679405,0.7545 -2.524537,1.6695 -0.965656,1.0456 -1.784669,2.5687 -2.320945,4.764 l 0.366465,0.2037 3.216749,1.8322 c 0.394046,-2.3822 1.070606,-3.5929 1.588015,-4.1532 0.379518,-0.411 0.682079,-0.5554 0.855085,-0.6107 0.0519,-0.017 0.03195,-0.034 0.04072,-0.04 h 0.08144 0.04072 11.044428 v -3.909 z m -2.605973,17.0609 -3.216749,1.8731 -0.366465,0.2036 c 0.536829,2.1648 1.366613,3.69 2.320945,4.7233 0.845132,0.9151 1.779055,1.4309 2.524537,1.6694 0.684534,0.2191 1.237742,0.2051 1.343705,0.2037 0.0094,-10e-5 0.122155,0 0.122155,0 l 10.929971,0.082 0.04072,-3.909 -11.092844,-0.082 h -0.04072 -0.04072 c -0.01147,0 -0.04072,0 -0.04072,0 -0.0087,0 0.01121,-0.025 -0.04072,-0.04 -0.173006,-0.056 -0.475568,-0.1591 -0.855085,-0.57 -0.514598,-0.5573 -1.192804,-1.7848 -1.588015,-4.1533 z"
         style="color:#000000;font-style:normal;font-variant:normal;font-weight:normal;font-stretch:normal;font-size:medium;line-height:normal;font-family:Sans;-inkscape-font-specification:Sans;text-indent:0;text-align:start;text-decoration:none;text-decoration-line:none;letter-spacing:normal;word-spacing:normal;text-transform:none;writing-mode:lr-tb;direction:ltr;baseline-shift:baseline;text-anchor:start;display:inline;overflow:visible;visibility:visible;fill:#000000;fill-opacity:1;stroke:none;stroke-width:3;marker:none;enable-background:accumulate"
         inkscape:connector-curvature="0" /></g></g></svg>
