<svg width="122" height="25" viewBox="0 0 122 25" fill="none" xmlns="http://www.w3.org/2000/svg">
<rect width="122" height="25" fill="white"/>
<path d="M0 0H122L115.5 25H6.00005L0 0Z" fill="black"/>
<g clip-path="url(#clip0_79_6664)">
<path d="M112 22.0002H107.389L104.514 16.0611L101.669 22.0002H97.1592L102.052 12.2795L97.4516 3.00005H101.87L104.534 8.87427L107.097 3.00005H111.647L106.975 12.6824L112 22.0002Z" fill="white"/>
<path d="M91.7043 22.0002H87.6399V7.19772H83.9663V3.00032H95.3674V7.19772H91.7043V22.0002Z" fill="white"/>
<path d="M23.5698 9.88757H16.5995V6.4607H25.4271V2.9995H15.2566C13.8663 2.9995 12.8091 3.28216 12.0858 3.84741C11.3616 4.41166 11 5.27167 11 6.42539V18.5763C11 19.73 11.3616 20.59 12.0858 21.1553C12.8091 21.7205 13.8663 22.0032 15.2566 22.0032H25.4271V18.541H16.5995V13.3841H23.5698V9.88757Z" fill="white"/>
<path d="M37.8262 6.46059H27.9985V2.9994H39.1683C40.5586 2.9994 41.6158 3.28205 42.3399 3.84731C43.0633 4.41155 43.4249 5.27156 43.4249 6.42529V18.5762C43.4249 19.7299 43.0633 20.5899 42.3399 21.1552C41.6158 21.7204 40.5586 22.0031 39.1683 22.0031H27.9985V8.19171H33.5973V18.5409H37.8262V6.46059Z" fill="white"/>
<path d="M55.8242 18.5409H51.5962V6.46059H61.4237V2.9994H50.2532C48.8629 2.9994 47.8057 3.28205 47.0824 3.84731C46.3583 4.41155 45.9966 5.27156 45.9966 6.42529V18.5762C45.9966 19.7299 46.3583 20.5899 47.0824 21.1552C47.8057 21.7204 48.8629 22.0031 50.2532 22.0031H57.1671C58.5574 22.0031 59.6147 21.7204 60.338 21.1552C61.0621 20.5899 61.4237 19.7299 61.4237 18.5762V9.88746H55.8242V18.5409Z" fill="white"/>
<path d="M76.688 9.88862H69.7173V6.46215H78.5451V3.00032H68.3745C66.9841 3.00032 65.9271 3.28308 65.203 3.84795C64.4794 4.41345 64.1177 5.27286 64.1177 6.4268V18.5776C64.1177 19.7315 64.4794 20.5909 65.203 21.1564C65.9271 21.7213 66.9841 22.004 68.3745 22.004H78.5451V18.5422H69.7173V13.3852H76.688V9.88862Z" fill="white"/>
</g>
<defs>
<clipPath id="clip0_79_6664">
<rect width="101" height="19" fill="white" transform="translate(11 3)"/>
</clipPath>
</defs>
</svg>
