<?xml version="1.0" encoding="UTF-8" standalone="no"?>
<!-- Created with Inkscape (http://www.inkscape.org/) -->

<svg
   width="45"
   height="45"
   viewBox="0 0 11.906249 11.906249"
   version="1.1"
   id="svg1"
   xml:space="preserve"
   inkscape:version="1.4.2 (1:1.4.2+202505120737+ebf0e940d0)"
   sodipodi:docname="mask_model_outputs.svg"
   inkscape:export-filename="mask_model_outputs.png"
   inkscape:export-xdpi="96"
   inkscape:export-ydpi="96"
   xmlns:inkscape="http://www.inkscape.org/namespaces/inkscape"
   xmlns:sodipodi="http://sodipodi.sourceforge.net/DTD/sodipodi-0.dtd"
   xmlns="http://www.w3.org/2000/svg"
   xmlns:svg="http://www.w3.org/2000/svg"><sodipodi:namedview
     id="namedview1"
     pagecolor="#ffffff"
     bordercolor="#999999"
     borderopacity="1"
     inkscape:showpageshadow="0"
     inkscape:pageopacity="0"
     inkscape:pagecheckerboard="0"
     inkscape:deskcolor="#d1d1d1"
     inkscape:document-units="px"
     inkscape:zoom="4"
     inkscape:cx="107.875"
     inkscape:cy="-12"
     inkscape:current-layer="layer1"
     inkscape:export-bgcolor="#ffffffff"
     showguides="true"
     showgrid="false"><sodipodi:guide
       position="39.584415,-49.527028"
       orientation="0,1"
       id="guide3"
       inkscape:locked="false" /></sodipodi:namedview><defs
     id="defs1"><inkscape:path-effect
       effect="perspective-envelope"
       up_left_point="106.49532,264.85378"
       up_right_point="126.54248,265.64754"
       down_left_point="97.367197,290.14567"
       down_right_point="125.48415,290.14567"
       id="path-effect2"
       is_visible="true"
       lpeversion="1"
       deform_type="perspective"
       horizontal_mirror="false"
       vertical_mirror="false"
       overflow_perspective="false" /><inkscape:path-effect
       effect="perspective-envelope"
       up_left_point="102.72306,268.22103"
       up_right_point="118.25084,266.50124"
       down_left_point="100.07723,295.78112"
       down_right_point="124.07167,295.78112"
       id="path-effect1"
       is_visible="true"
       lpeversion="1"
       deform_type="perspective"
       horizontal_mirror="false"
       vertical_mirror="false"
       overflow_perspective="false" /></defs><g
     inkscape:label="Vrstva 1"
     inkscape:groupmode="layer"
     id="layer1"
     transform="translate(0,-285.09374)"><g
       id="g22"
       transform="matrix(1.0079808,0,0,1.0079808,-0.04753311,-2.3219965)"><path
         sodipodi:nodetypes="ccccccccccccccccccccccccscc"
         inkscape:connector-curvature="0"
         id="path7443-0-7-8"
         d="m 0.10938393,285.15591 v 1.89791 h 4.76843037 0.014036 0.042108 c 0.00418,0.005 -0.010721,0.006 0.014036,0.0143 0.08253,0.0269 0.2260014,0.10039 0.4070453,0.29967 0.2113527,0.23265 0.4948781,0.70416 0.6877662,1.55542 l 2.0352265,1.31284 c -0.1459282,-2.12333 -0.6739458,-3.39573 -1.3614964,-4.15256 -0.4031574,-0.44381 -1.142411,-0.69777 -1.4980318,-0.81339 -0.3265475,-0.10635 -0.5810761,-0.0999 -0.631622,-0.0999 v -0.0143 z m 5.17547567,9.67504 c -0.1467007,0.138 -0.2657978,0.19066 -0.3368651,0.21405 -0.041264,0.0132 -0.033534,0.0129 -0.028072,0.0143 h -0.028072 -0.014036 l -4.78246642,0.0428 0.01403605,1.89791 H 4.8216701 c 0,0 0.051669,-9e-5 0.056144,0 0.050548,0 0.3050744,-0.0366 0.631622,-0.1427 0.3556208,-0.11571 0.8039424,-0.36958 1.2070998,-0.81339 0.1863794,-0.20517 0.3587919,-0.456 0.5193337,-0.74204 z"
         style="color:#000000;font-style:normal;font-variant:normal;font-weight:normal;font-stretch:normal;font-size:medium;line-height:normal;font-family:Sans;-inkscape-font-specification:Sans;text-indent:0;text-align:start;text-decoration:none;text-decoration-line:none;letter-spacing:normal;word-spacing:normal;text-transform:none;writing-mode:lr-tb;direction:ltr;baseline-shift:baseline;text-anchor:start;display:inline;overflow:visible;visibility:visible;fill:#000000;fill-opacity:1;stroke:none;stroke-width:1.35864;marker:none;enable-background:accumulate" /><path
         sodipodi:nodetypes="csccscc"
         inkscape:connector-curvature="0"
         id="path7538-2"
         d="m 4.7326438,289.49604 c 0,0 -1.4473062,-0.72291 -2.2763733,1.17045 -0.7760307,1.77218 0.6567046,2.53326 0.667787,2.50298 l 7.2237995,1.72089 c 0,0 0.493974,0.18275 0.766866,-0.44047 0.26771,-0.6114 -0.185993,-0.88606 -0.185993,-0.88606 z"
         style="fill:none;stroke:#000000;stroke-width:1.25346;stroke-linecap:butt;stroke-linejoin:miter;stroke-miterlimit:4;stroke-dasharray:none;stroke-opacity:1" /><path
         sodipodi:nodetypes="cc"
         inkscape:connector-curvature="0"
         id="path7582-8"
         d="m 10.931216,291.45507 0.03885,-6.55977"
         style="fill:none;stroke:#000000;stroke-width:1.25001;stroke-linecap:butt;stroke-linejoin:miter;stroke-miterlimit:4;stroke-dasharray:1.25001, 1.25001;stroke-dashoffset:0;stroke-opacity:1" /></g></g></svg>
