<?xml version="1.0" encoding="UTF-8" standalone="no"?>
<!-- Created with Inkscape (http://www.inkscape.org/) -->

<svg
   width="17"
   height="24"
   viewBox="0 0 4.4979163 6.3499995"
   version="1.1"
   id="svg1"
   xml:space="preserve"
   inkscape:version="1.4.2 (1:1.4.2+202505120737+ebf0e940d0)"
   sodipodi:docname="mask_monitor_lockch.svg"
   inkscape:export-filename="mask_monitor_lockch.png"
   inkscape:export-xdpi="96"
   inkscape:export-ydpi="96"
   xmlns:inkscape="http://www.inkscape.org/namespaces/inkscape"
   xmlns:sodipodi="http://sodipodi.sourceforge.net/DTD/sodipodi-0.dtd"
   xmlns="http://www.w3.org/2000/svg"
   xmlns:svg="http://www.w3.org/2000/svg"><sodipodi:namedview
     id="namedview1"
     pagecolor="#ffffff"
     bordercolor="#999999"
     borderopacity="1"
     inkscape:showpageshadow="0"
     inkscape:pageopacity="0"
     inkscape:pagecheckerboard="0"
     inkscape:deskcolor="#d1d1d1"
     inkscape:document-units="px"
     inkscape:zoom="5.6568543"
     inkscape:cx="52.94462"
     inkscape:cy="5.4800775"
     inkscape:current-layer="layer1"
     inkscape:export-bgcolor="#ffffffff"
     showguides="true"
     showgrid="false"><sodipodi:guide
       position="39.584415,-55.083278"
       orientation="0,1"
       id="guide3"
       inkscape:locked="false" /><sodipodi:guide
       position="9.6720186,3.694477"
       orientation="1,0"
       id="guide27"
       inkscape:locked="false" /></sodipodi:namedview><defs
     id="defs1"><inkscape:path-effect
       effect="perspective-envelope"
       up_left_point="106.49532,264.85378"
       up_right_point="126.54248,265.64754"
       down_left_point="97.367197,290.14567"
       down_right_point="125.48415,290.14567"
       id="path-effect2"
       is_visible="true"
       lpeversion="1"
       deform_type="perspective"
       horizontal_mirror="false"
       vertical_mirror="false"
       overflow_perspective="false" /><inkscape:path-effect
       effect="perspective-envelope"
       up_left_point="102.72306,268.22103"
       up_right_point="118.25084,266.50124"
       down_left_point="100.07723,295.78112"
       down_right_point="124.07167,295.78112"
       id="path-effect1"
       is_visible="true"
       lpeversion="1"
       deform_type="perspective"
       horizontal_mirror="false"
       vertical_mirror="false"
       overflow_perspective="false" /></defs><g
     inkscape:label="Vrstva 1"
     inkscape:groupmode="layer"
     id="layer1"
     transform="translate(0,-290.64999)"><g
       transform="matrix(0.15690828,0,0,0.15690828,-19.385498,176.77019)"
       id="g2435"><path
         inkscape:export-ydpi="90"
         inkscape:export-xdpi="90"
         inkscape:export-filename="/home/martin/Dokumenty/MojeDokumenty/OpenTXwip/Grafika/Horus/icons/monitor/mask_monitor_lockchB.png"
         sodipodi:nodetypes="cccccsscsccccccccscccccccscsccccccccscscscccccc"
         inkscape:connector-curvature="0"
         id="path6654-5"
         d="m 136.98799,765.96182 c -0.74224,-0.25799 -2.01009,-0.77315 -2.16186,-0.87827 -0.0376,-0.0273 -0.25392,-0.14242 -0.48041,-0.25823 -0.4955,-0.25357 -1.64733,-0.96804 -2.04595,-1.26914 -0.15816,-0.11952 -0.378,-0.28305 -0.48858,-0.36349 -1.20108,-0.8739 -3.00116,-2.77185 -3.93005,-4.14369 -1.79052,-2.64434 -2.90329,-5.63204 -3.27782,-8.80061 -0.14015,-1.18625 -0.13924,-3.43226 0.001,-4.60601 0.12817,-1.06549 0.36327,-2.23184 0.65827,-3.2655 l 0.21406,-0.75043 0.76228,-0.39259 c 7.25003,-3.73409 16.03375,-3.73263 23.28807,0.004 0.67087,0.34556 0.77525,0.42178 0.8124,0.59336 0.0222,0.10815 0.10135,0.3809 0.17316,0.60583 0.19609,0.61357 0.52493,2.26111 0.64414,3.22615 0.13742,1.11309 0.13863,3.41418 0.003,4.55593 -0.38251,3.20537 -1.48761,6.18326 -3.27235,8.8178 -0.93674,1.38272 -2.58188,3.12713 -3.88149,4.11581 -0.81571,0.62054 -1.88203,1.30861 -2.59172,1.67236 -0.22639,0.11604 -0.44269,0.2323 -0.48044,0.25853 -0.28658,0.19757 -2.91731,1.1792 -3.10481,1.15859 -0.0289,-0.004 -0.40737,-0.12938 -0.84146,-0.28009 z m -9.81423,-29.5311 c 0,-2.41352 0.0547,-2.19919 0.40264,-3.32768 0.54304,-1.76143 1.36015,-3.05158 2.78742,-4.40108 2.0697,-1.95685 5.00788,-3.03908 7.92818,-2.92003 3.25641,0.13303 6.2493,1.61828 8.17126,4.05614 0.84839,1.07611 1.39242,2.11707 1.7519,3.35227 0.31461,1.08085 0.3687,0.89794 0.37017,3.25694 l 0.001,2.17595 -0.80855,-0.30928 c -1.05848,-0.40493 -2.29133,-0.78387 -3.4809,-1.06979 -0.52846,-0.1268 -0.98111,-0.25135 -1.00587,-0.27611 -0.0246,-0.0245 -0.0599,-0.67084 -0.0778,-1.43558 -0.034,-1.43087 -0.0662,-0.85846 -0.38777,-1.62101 -0.17293,-0.40992 -0.37879,-0.71554 -0.85004,-1.26112 -0.86348,-0.99967 -2.06045,-1.60839 -3.52915,-1.79481 -1.32137,-0.16776 -2.87938,0.27835 -3.98589,1.14127 -0.59881,0.46696 -1.27106,1.31058 -1.52575,1.91466 -0.32387,0.7682 -0.35442,0.18721 -0.38886,1.65813 l -0.0335,1.42755 -1.01867,0.24142 c -1.21341,0.28767 -2.41136,0.65462 -3.51365,1.07622 l -0.8064,0.30836 v -2.19251 z"
         style="fill:#000000" /><circle
         r="1.3135369"
         cy="129.36255"
         cx="13.119543"
         inkscape:export-ydpi="90"
         inkscape:export-xdpi="90"
         inkscape:export-filename="/home/martin/Dokumenty/MojeDokumenty/OpenTXwip/Grafika/Horus/icons/monitor/mask_monitor_lockchB.png"
         transform="matrix(3.3537933,0,0,3.3537933,93.778052,312.91418)"
         id="path6656-8"
         style="fill:#ffffff;fill-opacity:1;stroke:none" /><path
         inkscape:export-ydpi="90"
         inkscape:export-xdpi="90"
         inkscape:export-filename="/home/martin/Dokumenty/MojeDokumenty/OpenTXwip/Grafika/Horus/icons/monitor/mask_monitor_lockchB.png"
         inkscape:connector-curvature="0"
         id="path6658-4"
         d="m 136.56976,748.36783 -3.74259,10.99383 h 10.05818 l -4.4443,-11.14976 z"
         style="fill:#ffffff;fill-opacity:1;stroke:none" /></g></g></svg>
