<?xml version="1.0" encoding="UTF-8" standalone="no"?>
<!-- Created with Inkscape (http://www.inkscape.org/) -->

<svg
   width="45"
   height="45"
   viewBox="0 0 11.906249 11.906249"
   version="1.1"
   id="svg1"
   xml:space="preserve"
   inkscape:version="1.4.2 (1:1.4.2+202505120737+ebf0e940d0)"
   sodipodi:docname="mask_tools_apps.svg"
   inkscape:export-filename="mask_tools_apps.png"
   inkscape:export-xdpi="96"
   inkscape:export-ydpi="96"
   xmlns:inkscape="http://www.inkscape.org/namespaces/inkscape"
   xmlns:sodipodi="http://sodipodi.sourceforge.net/DTD/sodipodi-0.dtd"
   xmlns="http://www.w3.org/2000/svg"
   xmlns:svg="http://www.w3.org/2000/svg"><sodipodi:namedview
     id="namedview1"
     pagecolor="#ffffff"
     bordercolor="#999999"
     borderopacity="1"
     inkscape:showpageshadow="0"
     inkscape:pageopacity="0"
     inkscape:pagecheckerboard="0"
     inkscape:deskcolor="#d1d1d1"
     inkscape:document-units="px"
     inkscape:zoom="2"
     inkscape:cx="195.75"
     inkscape:cy="-32"
     inkscape:current-layer="layer1"
     inkscape:export-bgcolor="#ffffffff"
     showguides="true"
     showgrid="false"><sodipodi:guide
       position="39.584415,-49.527028"
       orientation="0,1"
       id="guide3"
       inkscape:locked="false" /></sodipodi:namedview><defs
     id="defs1"><inkscape:path-effect
       effect="perspective-envelope"
       up_left_point="106.49532,264.85378"
       up_right_point="126.54248,265.64754"
       down_left_point="97.367197,290.14567"
       down_right_point="125.48415,290.14567"
       id="path-effect2"
       is_visible="true"
       lpeversion="1"
       deform_type="perspective"
       horizontal_mirror="false"
       vertical_mirror="false"
       overflow_perspective="false" /><inkscape:path-effect
       effect="perspective-envelope"
       up_left_point="102.72306,268.22103"
       up_right_point="118.25084,266.50124"
       down_left_point="100.07723,295.78112"
       down_right_point="124.07167,295.78112"
       id="path-effect1"
       is_visible="true"
       lpeversion="1"
       deform_type="perspective"
       horizontal_mirror="false"
       vertical_mirror="false"
       overflow_perspective="false" /></defs><g
     inkscape:label="Vrstva 1"
     inkscape:groupmode="layer"
     id="layer1"
     transform="translate(0,-285.09374)"><circle
       id="path7542-1"
       style="fill:none;stroke:#000000;stroke-width:0.899561;stroke-miterlimit:4;stroke-dasharray:none;stroke-opacity:1"
       cx="5.9531245"
       cy="291.04688"
       r="5.5033436" /><g
       id="g6"
       transform="translate(-22.043341,-1.4650535)"
       style="stroke-width:1.00012492;stroke-dasharray:none"><path
         style="baseline-shift:baseline;display:inline;overflow:visible;opacity:1;vector-effect:none;stroke-linecap:round;enable-background:accumulate;stop-color:#000000;stop-opacity:1"
         d="m 28.779297,288.69922 c -0.127671,0.0344 -0.23652,0.11797 -0.302735,0.23242 l -2.425781,4.19141 c -0.138658,0.23892 -0.05733,0.54501 0.181641,0.68359 0.238921,0.13866 0.545014,0.0573 0.683594,-0.18164 l 2.425781,-4.19141 c 0.13833,-0.23943 0.05608,-0.54568 -0.183594,-0.68359 -0.114589,-0.0664 -0.250861,-0.0847 -0.378906,-0.0508 z m -3.424936,5.67904 -0.395377,0.64518 c -0.141662,0.2368 -0.06475,0.54359 0.171875,0.68554 0.236796,0.14167 0.54359,0.0648 0.685547,-0.17187 l 0.70957,-1.14128 z"
         id="path4"
         sodipodi:nodetypes="ccccccccccccccc" /><path
         style="baseline-shift:baseline;display:inline;overflow:visible;opacity:1;vector-effect:none;stroke-linecap:round;enable-background:accumulate;stop-color:#000000;stop-opacity:1"
         d="m 27.375,288.70117 c -0.127875,-0.0362 -0.264918,-0.0201 -0.380859,0.0449 -0.24064,0.13584 -0.325486,0.44111 -0.189454,0.68164 l 0.798829,1.41602 c 0.135841,0.24064 0.44111,0.32548 0.68164,0.18945 0.24064,-0.13584 0.325486,-0.44111 0.189453,-0.68164 l -0.798828,-1.41404 c -0.06498,-0.11553 -0.173162,-0.20053 -0.300781,-0.23633 z m 0.960547,3.36458 1.992578,3.46355 c 0.137857,0.2385 0.442645,0.3206 0.681641,0.18359 0.238505,-0.13786 0.320597,-0.44264 0.183593,-0.68164 l -2.271744,-3.96986 z"
         id="path5"
         sodipodi:nodetypes="cccccccccccccc" /><path
         style="baseline-shift:baseline;display:inline;overflow:visible;opacity:1;vector-effect:none;stroke-linecap:round;enable-background:accumulate;stop-color:#000000;stop-opacity:1"
         d="m 25.019531,293.00391 c -0.276128,3e-5 -0.499966,0.22387 -0.5,0.5 3.4e-5,0.27613 0.223872,0.49997 0.5,0.5 h 3.922461 l -0.578776,-1 z m 4.816406,0 c -0.276128,3e-5 -0.499966,0.22387 -0.5,0.5 3.4e-5,0.27613 0.223872,0.49997 0.5,0.5 h 1.136719 c 0.276128,-3e-5 0.499966,-0.22387 0.5,-0.5 -3.4e-5,-0.27613 -0.223872,-0.49997 -0.5,-0.5 z"
         id="path6"
         sodipodi:nodetypes="ccccccccccccc" /></g></g></svg>
