<?xml version="1.0" encoding="UTF-8" standalone="no"?>
<!-- Created with Inkscape (http://www.inkscape.org/) -->

<svg
   width="45"
   height="45"
   viewBox="0 0 11.906249 11.906249"
   version="1.1"
   id="svg1"
   xml:space="preserve"
   inkscape:version="1.4.2 (1:1.4.2+202505120737+ebf0e940d0)"
   sodipodi:docname="mask_radio_global_functions.svg"
   inkscape:export-filename="mask_radio_global_functions.png"
   inkscape:export-xdpi="96"
   inkscape:export-ydpi="96"
   xmlns:inkscape="http://www.inkscape.org/namespaces/inkscape"
   xmlns:sodipodi="http://sodipodi.sourceforge.net/DTD/sodipodi-0.dtd"
   xmlns="http://www.w3.org/2000/svg"
   xmlns:svg="http://www.w3.org/2000/svg"><sodipodi:namedview
     id="namedview1"
     pagecolor="#ffffff"
     bordercolor="#999999"
     borderopacity="1"
     inkscape:showpageshadow="0"
     inkscape:pageopacity="0"
     inkscape:pagecheckerboard="0"
     inkscape:deskcolor="#d1d1d1"
     inkscape:document-units="px"
     inkscape:zoom="5.6568543"
     inkscape:cx="62.667338"
     inkscape:cy="10.606602"
     inkscape:current-layer="layer1"
     inkscape:export-bgcolor="#ffffffff"
     showguides="true"
     showgrid="false"><sodipodi:guide
       position="39.584415,-49.527029"
       orientation="0,1"
       id="guide3"
       inkscape:locked="false" /></sodipodi:namedview><defs
     id="defs1"><inkscape:path-effect
       effect="perspective-envelope"
       up_left_point="106.49532,264.85378"
       up_right_point="126.54248,265.64754"
       down_left_point="97.367197,290.14567"
       down_right_point="125.48415,290.14567"
       id="path-effect2"
       is_visible="true"
       lpeversion="1"
       deform_type="perspective"
       horizontal_mirror="false"
       vertical_mirror="false"
       overflow_perspective="false" /><inkscape:path-effect
       effect="perspective-envelope"
       up_left_point="102.72306,268.22103"
       up_right_point="118.25084,266.50124"
       down_left_point="100.07723,295.78112"
       down_right_point="124.07167,295.78112"
       id="path-effect1"
       is_visible="true"
       lpeversion="1"
       deform_type="perspective"
       horizontal_mirror="false"
       vertical_mirror="false"
       overflow_perspective="false" /><inkscape:path-effect
       effect="spiro"
       id="path-effect5964-4-4"
       is_visible="true"
       lpeversion="0" /><inkscape:path-effect
       effect="spiro"
       id="path-effect5964-6"
       is_visible="true"
       lpeversion="0" /></defs><g
     inkscape:label="Vrstva 1"
     inkscape:groupmode="layer"
     id="layer1"
     transform="translate(0,-285.09374)"><g
       id="g5544"
       transform="matrix(0.45818995,0,0,0.45818995,-0.90202178,-184.23343)"><path
         sodipodi:nodetypes="ssscssssss"
         inkscape:connector-curvature="0"
         id="rect11250-56-9"
         d="M 4.6021534,1025.307 H 21.981289 c 0.843332,0 1.214314,1.2424 1.52226,2.1638 l 3.284912,9.8289 -3.284912,9.8285 c -0.307967,0.9215 -0.678928,2.1642 -1.52226,2.1642 H 4.6021534 c -0.8433322,0 -1.52226,-0.9652 -1.52226,-2.1642 v -19.6574 c 0,-1.1988 0.6789278,-2.1638 1.52226,-2.1638 z"
         style="fill:none;stroke:#000000;stroke-width:2;stroke-miterlimit:4;stroke-dasharray:none;stroke-opacity:1" /><path
         sodipodi:nodetypes="ccccccc"
         inkscape:connector-curvature="0"
         id="path7150-0-2-6-7-2"
         d="m 6.6192449,1041.0181 4.7130301,4.9646 7.478015,-9.3635 -2.073738,-1.6965 -5.467111,6.9755 -2.7649906,-2.9538 z"
         style="fill:#000000;fill-opacity:1;stroke:none" /><path
         sodipodi:nodetypes="ccccccccccccccccccc"
         inkscape:connector-curvature="0"
         id="rect4279-6-1-5-2-93-8-0-4-6-3-3-1-4-3-8-3-7-2-5"
         d="m 8.3835467,1030.0673 c -0.4407395,0.01 -0.6731103,0.2479 -0.6731103,0.2479 v 0.8754 c -0.0425,0 -0.012458,0 -0.062611,0 l -2.3011066,0.5687 v 1.5754 h 2.3637164 v 1.5316 H 6.9277488 v 1.3859 h 2.9429133 v -1.3859 h -0.829649 v -1.5316 h 2.4889519 v -1.5754 l -2.4889519,-0.5544 v -0.8605 c 0,0 -0.1349487,-0.2794 -0.6574594,-0.2771 z"
         style="fill:#000000;fill-opacity:1;stroke:none" /><path
         sodipodi:nodetypes="ccccccccccccccccccc"
         inkscape:connector-curvature="0"
         id="rect4279-6-1-5-2-93-8-0-4-6-3-3-1-4-3-8-3-7-2-5-0"
         d="m 14.435844,1027.1209 c -0.44074,0.01 -0.67311,0.2479 -0.67311,0.2479 v 0.8754 c -0.0425,0 -0.01246,0 -0.06262,0 l -2.301107,0.5687 v 1.5754 h 2.363716 v 1.5316 h -0.782686 v 1.3859 h 2.942913 v -1.3859 h -0.829649 v -1.5316 h 2.488953 v -1.5754 l -2.488953,-0.5543 v -0.8606 c 0,0 -0.134948,-0.2794 -0.657459,-0.2771 z"
         style="fill:#000000;fill-opacity:1;stroke:none" /></g></g></svg>
