<svg width="30" height="30" viewBox="0 0 30 30" fill="none" xmlns="http://www.w3.org/2000/svg">
<rect width="30" height="30" fill="white"/>
<g style="mix-blend-mode:difference">
<path d="M26 1C27.6569 1 29 2.34315 29 4V26C29 27.6569 27.6569 29 26 29H4C2.34315 29 1 27.6569 1 26V4C1 2.34315 2.34315 1 4 1H26ZM5 3C3.89543 3 3 3.89543 3 5V25C3 26.1046 3.89543 27 5 27H25C26.1046 27 27 26.1046 27 25V5C27 3.89543 26.1046 3 25 3H5Z" fill="white"/>
<path d="M9.12368 24L10.6632 17.3447L5.5 12.8684L12.3211 12.2763L14.9737 6L17.6263 12.2763L24.4474 12.8684L19.2842 17.3447L20.8237 24L14.9737 20.4711L9.12368 24Z" fill="white"/>
</g>
</svg>
