<?xml version="1.0" encoding="UTF-8" standalone="no"?>
<!-- Created with Inkscape (http://www.inkscape.org/) -->

<svg
   width="26"
   height="26"
   viewBox="0 0 6.8791661 6.8791661"
   version="1.1"
   id="svg1"
   xml:space="preserve"
   inkscape:version="1.4.2 (1:1.4.2+202505120737+ebf0e940d0)"
   sodipodi:docname="mask_textline_curve.svg"
   inkscape:export-filename="mask_textline_curve.png"
   inkscape:export-xdpi="96"
   inkscape:export-ydpi="96"
   xmlns:inkscape="http://www.inkscape.org/namespaces/inkscape"
   xmlns:sodipodi="http://sodipodi.sourceforge.net/DTD/sodipodi-0.dtd"
   xmlns="http://www.w3.org/2000/svg"
   xmlns:svg="http://www.w3.org/2000/svg"><sodipodi:namedview
     id="namedview1"
     pagecolor="#ffffff"
     bordercolor="#999999"
     borderopacity="1"
     inkscape:showpageshadow="0"
     inkscape:pageopacity="0"
     inkscape:pagecheckerboard="0"
     inkscape:deskcolor="#d1d1d1"
     inkscape:document-units="px"
     inkscape:zoom="5.6568543"
     inkscape:cx="72.566833"
     inkscape:cy="-15.379572"
     inkscape:current-layer="layer1"
     inkscape:export-bgcolor="#ffffffff"
     showguides="false"
     showgrid="false"><sodipodi:guide
       position="39.584415,-54.554112"
       orientation="0,1"
       id="guide3"
       inkscape:locked="false" /></sodipodi:namedview><defs
     id="defs1"><inkscape:path-effect
       effect="perspective-envelope"
       up_left_point="106.49532,264.85378"
       up_right_point="126.54248,265.64754"
       down_left_point="97.367197,290.14567"
       down_right_point="125.48415,290.14567"
       id="path-effect2"
       is_visible="true"
       lpeversion="1"
       deform_type="perspective"
       horizontal_mirror="false"
       vertical_mirror="false"
       overflow_perspective="false" /><inkscape:path-effect
       effect="perspective-envelope"
       up_left_point="102.72306,268.22103"
       up_right_point="118.25084,266.50124"
       down_left_point="100.07723,295.78112"
       down_right_point="124.07167,295.78112"
       id="path-effect1"
       is_visible="true"
       lpeversion="1"
       deform_type="perspective"
       horizontal_mirror="false"
       vertical_mirror="false"
       overflow_perspective="false" /><inkscape:path-effect
       effect="spiro"
       id="path-effect5964-4-4"
       is_visible="true"
       lpeversion="0" /><inkscape:path-effect
       effect="spiro"
       id="path-effect5964-6"
       is_visible="true"
       lpeversion="0" /><linearGradient
       id="linearGradient11982-4-5-5-4-5-1"><stop
         id="stop11984-9-10-9-7-2-5"
         offset="0"
         style="stop-color:#fff773;stop-opacity:1;" /><stop
         id="stop11986-4-9-7-5-4-1"
         offset="1"
         style="stop-color:#fff773;stop-opacity:0;" /></linearGradient></defs><g
     inkscape:label="Vrstva 1"
     inkscape:groupmode="layer"
     id="layer1"
     transform="translate(0,-290.12082)"><g
       id="g5452"
       transform="matrix(0.26474328,0,0,0.26474328,-0.53174112,18.925732)"><path
         id="path7756-9"
         transform="translate(0,1022.3622)"
         d="M 18.96875,2.0625 V 7.875 C 16.71079,8.4760677 15.0625,10.552766 15.0625,13 c 0,2.44715 1.64829,4.492684 3.90625,5.09375 v 9.84375 h 2.625 V 18.125 C 23.907218,17.562224 25.625,15.486541 25.625,13 c 0,-2.483944 -1.721563,-4.5595485 -4.03125,-5.125 V 2.0625 Z M 20.34375,10 c 1.651565,0 2.96875,1.3484 2.96875,3 0,1.6516 -1.317185,2.96875 -2.96875,2.96875 -1.651565,0 -3,-1.31715 -3,-2.96875 0,-1.6516 1.348435,-3 3,-3 z"
         style="fill:#000000;fill-opacity:1;stroke:none"
         inkscape:connector-curvature="0" /><path
         sodipodi:nodetypes="cccccsssccscscsccs"
         inkscape:connector-curvature="0"
         id="path7760-9"
         d="m 25.371066,1026.9944 c 0,0 -0.286529,1.5957 -1.147011,3.2772 0.771571,0.5907 1.40372,1.3361 1.843411,2.2121 1.553346,-2.475 1.92534,-5.1207 1.92534,-5.1207 z m -14.556573,4.7583 c -1.0965399,-0.056 -2.1029246,0.1259 -3.2362102,0.6144 -3.3688655,1.4533 -4.187832,5.7939 -4.6313182,8.9902 -0.486811,3.5085 -0.9384488,8.9271 -0.9384488,8.9271 H 4.619207 c 0,0 0.4446982,-5.1464 1.0190181,-8.4416 0.55813,-3.2022 1.3148079,-6.2057 3.0051395,-7.0583 1.6696854,-0.7797 3.8507684,0.066 4.6431194,0.4441 0.193528,0.093 0.408303,0.1967 0.61447,0.2868 -0.0014,-0.055 0,-0.1088 0,-0.1638 0,-0.8881 0.166127,-1.7294 0.491576,-2.4989 -0.01713,-0.013 -0.02377,-0.033 -0.04096,-0.041 -1.088025,-0.4484 -2.307956,-0.9957 -3.537073,-1.0593 z"
         style="color:#000000;font-style:normal;font-variant:normal;font-weight:normal;font-stretch:normal;font-size:medium;line-height:normal;font-family:Sans;-inkscape-font-specification:Sans;text-indent:0;text-align:start;text-decoration:none;text-decoration-line:none;letter-spacing:normal;word-spacing:normal;text-transform:none;writing-mode:lr-tb;direction:ltr;baseline-shift:baseline;text-anchor:start;display:inline;overflow:visible;visibility:visible;fill:#000000;fill-opacity:1;stroke:none;stroke-width:2;marker:none;enable-background:accumulate" /></g></g></svg>
