<?xml version="1.0" encoding="UTF-8" standalone="no"?>
<!-- Created with Inkscape (http://www.inkscape.org/) -->

<svg
   width="45"
   height="45"
   viewBox="0 0 11.906249 11.906249"
   version="1.1"
   id="svg1"
   xml:space="preserve"
   inkscape:version="1.4.2 (1:1.4.2+202505120737+ebf0e940d0)"
   sodipodi:docname="mask_menu_model_select.svg"
   inkscape:export-filename="mask_menu_model_select.png"
   inkscape:export-xdpi="96"
   inkscape:export-ydpi="96"
   xmlns:inkscape="http://www.inkscape.org/namespaces/inkscape"
   xmlns:sodipodi="http://sodipodi.sourceforge.net/DTD/sodipodi-0.dtd"
   xmlns="http://www.w3.org/2000/svg"
   xmlns:svg="http://www.w3.org/2000/svg"><sodipodi:namedview
     id="namedview1"
     pagecolor="#ffffff"
     bordercolor="#999999"
     borderopacity="1"
     inkscape:showpageshadow="0"
     inkscape:pageopacity="0"
     inkscape:pagecheckerboard="0"
     inkscape:deskcolor="#d1d1d1"
     inkscape:document-units="px"
     inkscape:zoom="2"
     inkscape:cx="229.75"
     inkscape:cy="9"
     inkscape:current-layer="layer1"
     inkscape:export-bgcolor="#ffffffff"
     showguides="true"
     showgrid="false"><sodipodi:guide
       position="39.584415,-49.527028"
       orientation="0,1"
       id="guide3"
       inkscape:locked="false" /><sodipodi:guide
       position="0.12862345,12.078911"
       orientation="1,0"
       id="guide18"
       inkscape:locked="false" /><sodipodi:guide
       position="2.8414089,11.763199"
       orientation="0,1"
       id="guide19"
       inkscape:locked="false" /><sodipodi:guide
       position="6.3806092,2.2372989"
       orientation="0,1"
       id="guide4"
       inkscape:locked="false" /><sodipodi:guide
       position="1.9914157,5.1253327"
       orientation="0,1"
       id="guide6"
       inkscape:locked="false" /></sodipodi:namedview><defs
     id="defs1"><inkscape:path-effect
       effect="perspective-envelope"
       up_left_point="106.49532,264.85378"
       up_right_point="126.54248,265.64754"
       down_left_point="97.367197,290.14567"
       down_right_point="125.48415,290.14567"
       id="path-effect2"
       is_visible="true"
       lpeversion="1"
       deform_type="perspective"
       horizontal_mirror="false"
       vertical_mirror="false"
       overflow_perspective="false" /><inkscape:path-effect
       effect="perspective-envelope"
       up_left_point="102.72306,268.22103"
       up_right_point="118.25084,266.50124"
       down_left_point="100.07723,295.78112"
       down_right_point="124.07167,295.78112"
       id="path-effect1"
       is_visible="true"
       lpeversion="1"
       deform_type="perspective"
       horizontal_mirror="false"
       vertical_mirror="false"
       overflow_perspective="false" /><filter
       inkscape:collect="always"
       style="color-interpolation-filters:sRGB"
       id="filter6"
       x="-0.012009998"
       y="-0.018356341"
       width="1.02402"
       height="1.0367127"><feGaussianBlur
         inkscape:collect="always"
         stdDeviation="0.022717579"
         id="feGaussianBlur6" /></filter></defs><g
     inkscape:label="Vrstva 1"
     inkscape:groupmode="layer"
     id="layer1"
     transform="translate(0,-285.09374)"><path
       sodipodi:nodetypes="cccccccccccccccccccc"
       inkscape:connector-curvature="0"
       id="path5"
       d="m 30.399602,285.24758 c -0.581164,0.0104 -0.887568,0.30588 -0.887568,0.30588 v 1.47591 h -0.08255 l -3.74538,0.89666 v 2.23653 h 3.827939 l 0.196833,2.89913 -1.523955,0.51479 v 1.10037 h 4.467716 v -1.10037 l -1.598059,-0.51479 0.211973,-2.89913 4.098184,-0.0479 0.0074,-2.17162 -4.10556,-0.89591 v -1.45769 c 0,0 -0.177944,-0.34461 -0.86693,-0.34191 z"
       style="fill:#000000;fill-opacity:1;stroke:#ffffff;stroke-width:0.477664;stroke-opacity:1" /><path
       sodipodi:nodetypes="cccccccccccccccccccc"
       inkscape:connector-curvature="0"
       id="path4"
       d="m 31.524081,286.50434 c -0.581164,0.0104 -0.887568,0.30588 -0.887568,0.30588 v 1.47591 h -0.08255 l -3.74538,0.89666 v 2.23653 h 3.827939 l 0.196833,2.89913 -1.523955,0.51479 v 1.10037 h 4.467716 v -1.10037 l -1.598059,-0.51479 0.211973,-2.89913 4.098185,-0.0479 0.0074,-2.17162 -4.105561,-0.89591 v -1.45769 c 0,0 -0.177944,-0.34461 -0.86693,-0.34191 z"
       style="fill:#000000;fill-opacity:1;stroke:#ffffff;stroke-width:0.477664;stroke-opacity:1" /><path
       sodipodi:nodetypes="cccccccccccccccccccc"
       inkscape:connector-curvature="0"
       id="path2066"
       d="m 32.582414,287.69496 c -0.581163,0.0104 -0.887567,0.30588 -0.887567,0.30588 v 1.47591 h -0.08255 l -3.74538,0.89666 v 2.23653 h 3.827938 l 0.196833,2.89913 -1.523955,0.51479 v 1.10037 h 4.467716 v -1.10037 l -1.598059,-0.51479 0.211974,-2.89913 4.098184,-0.0479 0.0074,-2.17162 -4.10556,-0.89591 v -1.45769 c 0,0 -0.177945,-0.34461 -0.866931,-0.34191 z"
       style="fill:#000000;fill-opacity:1;stroke:#ffffff;stroke-width:0.477664;stroke-opacity:1" /><circle
       id="circle1"
       style="fill:none;stroke:#000000;stroke-width:0.818555;stroke-miterlimit:4;stroke-dasharray:none;stroke-opacity:1"
       cx="18.862242"
       cy="291.04688"
       r="5.4115553" /><g
       id="g3"
       transform="matrix(0.50690916,0,0,0.50690916,-0.6497079,176.86656)"><path
         transform="matrix(0.26458333,0,0,0.26458333,0,244.08332)"
         sodipodi:nodetypes="ccccccccccccccccccccccccccc"
         inkscape:connector-curvature="0"
         id="path1"
         d="m 135.30957,-97.628906 c -3.33953,0.06841 -3.71065,1.996093 -3.71065,1.996094 v 6.714843 h -0.47461 l -17.18301,4.580078 v 11.84961 h 8.5792 v -8.896485 l 16.98858,-4.439453 h 0.041 v -2.634765 l -0.0157,-0.341797 v -6.595703 c 0,0 -0.26571,-2.250488 -4.22481,-2.232422 z m -5.1123,29.601562 v 7.812221 h -7.18165 v 12.049107 h 10.02437 v -11.022226 h 5.96336 v -1.116167 h 0.0259 v -5.322544 h -5.35352 v -2.400391 z"
         style="fill:#000000;fill-opacity:1;stroke:none;stroke-width:3.1123" /><path
         sodipodi:nodetypes="cccccccccccccccccccccccc"
         inkscape:connector-curvature="0"
         transform="matrix(0.26458333,0,0,0.26458333,0,244.08332)"
         id="path2"
         d="m 145.99805,-93.429688 c -2.66701,0.04989 -4.07422,1.566407 -4.07422,1.566407 v 7.173828 h -0.37891 l -16.37173,4.398437 v 10.058793 l 8.50259,-0.203125 V -78.0625 l 16.31334,-3.962891 h -0.004 v -2.351562 l -0.009,-0.220703 v -7.080078 c 0,0 -0.81669,-1.766013 -3.97851,-1.751954 z m -4.07422,27.758092 v 8.497768 h -6.43164 v 9.205078 h 8.66406 v -8.893695 h 5.82031 v -8.809151 z"
         style="fill:#000000;fill-opacity:1;stroke:none;stroke-width:2.31641;stroke-opacity:1" /><path
         sodipodi:nodetypes="cccccccccccccccccccc"
         inkscape:connector-curvature="0"
         id="path3"
         d="m 41.338726,220.6692 c -0.658019,0.0112 -1.004943,0.34633 -1.004943,0.34633 v 1.6711 h -0.09347 l -4.240684,1.01523 v 2.53228 h 4.33416 v 3.28254 h -1.502626 v 1.82875 h 5.058545 v -1.82875 h -1.569387 v -3.28254 l 4.640143,-0.0542 0.0084,-2.45879 -4.648495,-1.01439 v -1.65046 c 0,0 -0.201477,-0.3902 -0.981577,-0.38713 z"
         style="fill:#000000;fill-opacity:1;stroke:none;stroke-width:0.540833;stroke-opacity:1" /></g><g
       id="g18"
       transform="translate(0,-0.09921874)"><path
         sodipodi:nodetypes="ssccccs"
         inkscape:connector-curvature="0"
         id="rect10935-3-9-7-77"
         d="m 1.4398823,289.64743 h 9.0264827 c 0.471311,0 0.850747,0.39343 0.850747,0.88214 l -0.850747,5.6042 H 1.4398823 l -0.8507454,-5.6042 c 0,-0.48871 0.3794346,-0.88214 0.8507454,-0.88214 z"
         style="fill:#000000;fill-opacity:1;stroke:#000000;stroke-width:0.767604;stroke-miterlimit:4;stroke-dasharray:none;stroke-opacity:1" /><path
         sodipodi:nodetypes="cccccccccccccccccccc"
         inkscape:connector-curvature="0"
         id="path2066-8"
         d="m 5.8714256,289.96855 c -0.356221,0.006 -0.5440293,0.18748 -0.5440293,0.18748 v 0.90465 h -0.050604 l -2.45537,0.64845 0.1596638,1.27203 h 2.3463106 l 0.120647,1.777 -0.9340992,0.31554 0.079225,0.67446 H 7.173178 l 0.079225,-0.67446 -0.9795202,-0.31554 0.1299276,-1.777 2.5119555,-0.0294 0.2157618,-1.25186 -2.7277433,-0.62838 v -0.89346 c 0,0 -0.1090673,-0.21124 -0.5313805,-0.20959 z"
         style="fill:#ffffff;fill-opacity:1;stroke:none;stroke-width:0.292781;stroke-opacity:1" /><path
         sodipodi:nodetypes="sccccss"
         inkscape:connector-curvature="0"
         id="rect10935-1-2-6-6-6"
         d="m 2.0011402,287.33049 c -0.4114868,0 -0.7401762,0.24238 -0.7401762,0.54586 l 0.070246,0.71639 h 9.19832 l 0.08453,-0.71639 c 0,-0.30348 -0.32869,-0.54586 -0.7401814,-0.54586 z"
         style="fill:#000000;fill-opacity:1;stroke:none;stroke-width:0.674467" /><path
         sodipodi:nodetypes="sccccss"
         inkscape:connector-curvature="0"
         id="rect10935-1-9-7-7-6-4"
         d="m 2.5865101,285.85678 c -0.3519256,0 -0.6330387,0.1646 -0.6330387,0.37062 l 0.059795,0.59821 H 9.88943 l 0.063348,-0.59821 c 0,-0.20602 -0.281121,-0.37062 -0.6330452,-0.37062 z"
         style="fill:#000000;fill-opacity:1;stroke:none;stroke-width:0.674467" /></g><rect
       style="fill:#000000;fill-opacity:1;stroke:none;stroke-width:0.240771;stroke-linecap:round;stroke-linejoin:round;stroke-opacity:1"
       id="rect7"
       width="17.396353"
       height="20.43906"
       x="-0.016467378"
       y="299.05051"
       inkscape:export-filename="rect7.png"
       inkscape:export-xdpi="96"
       inkscape:export-ydpi="96" /><g
       id="g19"
       transform="matrix(0.93578339,0,0,0.93578339,-44.726036,20.173394)"><path
         sodipodi:nodetypes="ssccccs"
         inkscape:connector-curvature="0"
         id="rect10935-3-9-7-77-3"
         d="m 52.034542,304.36251 h 9.026483 c 0.471311,0 0.850747,0.39343 0.850747,0.88214 l -0.850747,5.6042 h -9.026483 l -0.850745,-5.6042 c 0,-0.48871 0.379434,-0.88214 0.850745,-0.88214 z"
         style="fill:#ffffff;fill-opacity:1;stroke:#ffffff;stroke-width:0.767604;stroke-miterlimit:4;stroke-dasharray:none;stroke-opacity:1" /><path
         sodipodi:nodetypes="cccccccccccccccccccc"
         inkscape:connector-curvature="0"
         id="path2066-8-8"
         d="m 56.466086,304.68363 c -0.356221,0.006 -0.54403,0.18748 -0.54403,0.18748 v 0.90465 h -0.0506 l -2.45537,0.64845 0.159664,1.27203 h 2.346311 l 0.120647,1.777 -0.934099,0.31554 0.07923,0.67446 h 2.580008 l 0.07923,-0.67446 -0.97952,-0.31554 0.129927,-1.777 2.511956,-0.0294 0.215762,-1.25186 -2.727744,-0.62838 v -0.89346 c 0,0 -0.109067,-0.21124 -0.53138,-0.20959 z"
         style="fill:#000000;fill-opacity:1;stroke:none;stroke-width:0.292781;stroke-opacity:1" /><path
         sodipodi:nodetypes="sccccss"
         inkscape:connector-curvature="0"
         id="rect10935-1-2-6-6-6-3"
         d="m 52.5958,302.04557 c -0.411487,0 -0.740176,0.24238 -0.740176,0.54586 l 0.07025,0.71639 h 9.19832 l 0.08453,-0.71639 c 0,-0.30348 -0.32869,-0.54586 -0.740181,-0.54586 z"
         style="fill:#ffffff;fill-opacity:1;stroke:none;stroke-width:0.674467" /><path
         sodipodi:nodetypes="sccccss"
         inkscape:connector-curvature="0"
         id="rect10935-1-9-7-7-6-4-3"
         d="m 53.18117,300.57186 c -0.351925,0 -0.633039,0.1646 -0.633039,0.37062 l 0.05979,0.59821 h 7.876164 l 0.06335,-0.59821 c 0,-0.20602 -0.281121,-0.37062 -0.633045,-0.37062 z"
         style="fill:#ffffff;fill-opacity:1;stroke:none;stroke-width:0.674467" /></g><text
       xml:space="preserve"
       style="font-style:normal;font-variant:normal;font-weight:normal;font-stretch:normal;font-size:2.46944px;line-height:1.25;font-family:Arial;-inkscape-font-specification:'Arial, Normal';font-variant-ligatures:none;font-variant-caps:normal;font-variant-numeric:normal;font-variant-east-asian:normal;text-align:center;letter-spacing:0px;word-spacing:0px;text-anchor:middle;fill:#ffffff;fill-opacity:1;stroke-width:0.264583"
       x="8.8479242"
       y="314.64966"
       id="text7"><tspan
         sodipodi:role="line"
         id="tspan7"
         style="font-style:normal;font-variant:normal;font-weight:normal;font-stretch:normal;font-size:2.46944px;font-family:Arial;-inkscape-font-specification:'Arial, Normal';font-variant-ligatures:none;font-variant-caps:normal;font-variant-numeric:normal;font-variant-east-asian:normal;fill:#ffffff;fill-opacity:1;stroke-width:0.264583"
         x="8.8479242"
         y="314.64966">MANAGE</tspan><tspan
         sodipodi:role="line"
         style="font-style:normal;font-variant:normal;font-weight:normal;font-stretch:normal;font-size:2.46944px;font-family:Arial;-inkscape-font-specification:'Arial, Normal';font-variant-ligatures:none;font-variant-caps:normal;font-variant-numeric:normal;font-variant-east-asian:normal;fill:#ffffff;fill-opacity:1;stroke-width:0.264583"
         x="8.8479242"
         y="317.73645"
         id="tspan8">MODELS</tspan></text><rect
       style="fill:#000000;fill-opacity:1;stroke:none;stroke-width:0.240771;stroke-linecap:round;stroke-linejoin:round;stroke-opacity:1"
       id="rect8"
       width="17.396353"
       height="20.43906"
       x="18.768948"
       y="299.05051" /><text
       xml:space="preserve"
       style="font-style:normal;font-variant:normal;font-weight:normal;font-stretch:normal;font-size:2.46944px;line-height:1.25;font-family:Arial;-inkscape-font-specification:'Arial, Normal';font-variant-ligatures:none;font-variant-caps:normal;font-variant-numeric:normal;font-variant-east-asian:normal;text-align:center;letter-spacing:0px;word-spacing:0px;text-anchor:middle;fill:#ffffff;fill-opacity:1;stroke-width:0.264583"
       x="27.633335"
       y="314.64966"
       id="text10"><tspan
         sodipodi:role="line"
         id="tspan9"
         style="font-style:normal;font-variant:normal;font-weight:normal;font-stretch:normal;font-size:2.46944px;font-family:Arial;-inkscape-font-specification:'Arial, Normal';font-variant-ligatures:none;font-variant-caps:normal;font-variant-numeric:normal;font-variant-east-asian:normal;fill:#ffffff;fill-opacity:1;stroke-width:0.264583"
         x="27.633335"
         y="314.64966">MANAGE</tspan><tspan
         sodipodi:role="line"
         style="font-style:normal;font-variant:normal;font-weight:normal;font-stretch:normal;font-size:2.46944px;font-family:Arial;-inkscape-font-specification:'Arial, Normal';font-variant-ligatures:none;font-variant-caps:normal;font-variant-numeric:normal;font-variant-east-asian:normal;fill:#ffffff;fill-opacity:1;stroke-width:0.264583"
         x="27.633335"
         y="317.73645"
         id="tspan10">MODELS</tspan></text><path
       sodipodi:nodetypes="cccccccccccccccccccc"
       inkscape:connector-curvature="0"
       id="path11"
       d="m 30.81453,306.10607 c -0.256819,0.004 -0.39222,0.13514 -0.39222,0.13514 v 0.65222 h -0.03648 l -1.770209,0.46749 0.115112,0.91708 h 1.691583 l 0.08698,1.28114 -0.673445,0.22749 0.05712,0.48626 h 1.86007 l 0.0571,-0.48626 -0.706191,-0.22749 0.09367,-1.28114 1.811006,-0.0211 0.155554,-0.90253 -1.96658,-0.45304 v -0.64413 c 0,0 -0.07864,-0.1523 -0.3831,-0.15112 z"
       style="mix-blend-mode:normal;fill:#ffffff;fill-opacity:1;stroke:none;stroke-width:0.211082;stroke-opacity:1" /><path
       style="mix-blend-mode:normal;fill:#ffffff;fill-opacity:1;stroke:none;stroke-width:0.0153435px;stroke-linecap:butt;stroke-linejoin:miter;stroke-opacity:1;filter:url(#filter6)"
       d="m 74.235723,305.16645 0.9478,-0.10665 -0.03754,0.0816 0.178299,0.34496 0.506745,0.12538 0.333137,-0.21324 0.164223,-0.012 0.412903,0.36377 -0.492668,0.37003 -0.0047,0.0565 0.09384,0.12538 0.04692,0.0252 0.689736,-0.31987 0.0047,0.20071 0.121994,0.0627 0.192376,0.0438 0.103226,-0.0501 0.05161,-0.10037 0.0094,-0.18815 -0.02346,-0.11911 0.0047,-0.13166 -0.07038,-0.11294 0.0563,-0.0375 0.0047,-0.0815 0.061,0.007 0.670967,-0.38886 0.01877,-0.0501 -0.121994,-0.0438 -0.750733,0.35122 -0.05161,-0.012 -0.201759,0.13798 -0.581818,-0.52057 0.117302,-0.16934 1.126099,-0.10666 v 0.0627 l 0.04692,0.0438 0.107917,-0.012 0.05161,-0.0502 0.01408,-0.0438 0.182991,0.23834 c 0,0 0.150146,-0.0312 0.126686,-0.0627 -0.02346,-0.0312 -0.24868,-0.57702 -0.24868,-0.57702 h -0.08446 l -0.0047,-0.0941 -0.33783,-0.52683 h -0.08446 l 0.150146,0.36376 0.159531,0.21324 -0.08915,0.007 -0.04692,0.0501 -0.01877,0.0375 -0.938416,0.0941 -0.07977,-0.39512 c -0.313914,-0.11977 -0.300293,-0.1171 -0.45044,-0.17562 l -0.394135,0.2446 -0.351905,-0.25714 0.0047,-0.11295 -0.06569,-0.0564 0.04692,-0.0753 h 0.08446 l 0.53959,-0.21325 -0.107918,-0.0438 -0.530205,0.16306 -0.03285,-0.0315 -0.262756,0.0941 -0.01408,0.0564 h -0.140762 l -0.502053,0.26342 0.07977,0.1191 0.558358,-0.14425 0.0563,-0.069 0.0047,0.13168 -0.02815,0.0375 c 0,0 -0.02815,0.13799 0.01408,0.13799 0.04223,0 0.117302,-0.007 0.117302,-0.007 l 0.211143,0.21951 c 0,0 -0.140762,0.21952 -0.192375,0.22578 -0.05161,0.007 -1.168327,0.20071 -1.168327,0.20071 l -0.07977,-0.10036 -0.01877,-0.0314 v -0.0753 c 0,0 0.03754,-0.012 0.061,-0.0252 0.02346,-0.012 0.03285,-0.0438 0.03285,-0.0438 l -0.11261,-0.47666 -0.150147,-0.0565 -0.06569,0.50173 0.0563,0.0878 0.01408,0.13166 -0.126686,0.22578 0.03285,0.64602 0.192376,-0.069 0.03284,-0.0627 0.01877,-0.20698 0.08446,0.012 z"
       id="path14"
       sodipodi:nodetypes="ccccccccccccccccccccccccccccccccccccccccsccccccccccccccccccccccccccccccccscccccccsccccccccccccc"
       transform="matrix(1.3555312,0,0,1.3555312,-74.179606,-109.68404)" /><g
       id="g17"
       transform="matrix(1.3555312,0,0,1.3555312,-74.179606,-109.68404)"><path
         style="fill:#ffffff;fill-opacity:1;fill-rule:evenodd;stroke:none;stroke-width:0.0759018px;stroke-linecap:butt;stroke-linejoin:miter;stroke-opacity:1"
         d="m 71.067939,307.65189 0.815377,1.05627 2.390536,-0.68565 0.315032,-0.63006 z"
         id="path15"
         inkscape:connector-curvature="0" /><path
         style="fill:#ffffff;fill-opacity:1;fill-rule:evenodd;stroke:none;stroke-width:0.0759018px;stroke-linecap:butt;stroke-linejoin:miter;stroke-opacity:1"
         d="m 72.057387,307.70532 v -3.36867 l 1.613735,2.78369 -1.371674,0.0605 0.0051,0.53959 z"
         id="path16"
         inkscape:connector-curvature="0" /><path
         style="fill:#ffffff;fill-opacity:1;stroke-width:0.0948769"
         d="m 71.788389,309.4023 c -0.278308,-0.0521 -0.680653,-0.17539 -0.795708,-0.24376 -0.123384,-0.0733 -0.121578,-0.0737 0.322342,-0.0548 0.514911,0.0219 0.817969,-0.0354 1.52,-0.28709 0.754708,-0.27065 1.191263,-0.48998 1.851587,-0.46035 0.382272,0.027 0.772977,0.21953 0.759469,0.33716 -0.002,0.0108 -0.179716,-0.0103 -0.333407,-0.01 -0.374425,0.002 -0.711814,0.0199 -1.147549,0.17791 -0.184502,0.067 -0.487096,0.17702 -0.672432,0.24465 -0.486249,0.17741 -1.151896,0.36193 -1.504302,0.29593 z"
         id="path17"
         inkscape:connector-curvature="0"
         sodipodi:nodetypes="csssccssscc" /></g></g></svg>
