<?xml version="1.0" encoding="UTF-8" standalone="no"?>
<!-- Created with Inkscape (http://www.inkscape.org/) -->

<svg
   width="45"
   height="45"
   viewBox="0 0 11.906249 11.906249"
   version="1.1"
   id="svg1"
   xml:space="preserve"
   inkscape:version="1.4.2 (1:1.4.2+202505120737+ebf0e940d0)"
   sodipodi:docname="mask_theme_view8.svg"
   inkscape:export-filename="mask_theme_view7.png"
   inkscape:export-xdpi="96"
   inkscape:export-ydpi="96"
   xmlns:inkscape="http://www.inkscape.org/namespaces/inkscape"
   xmlns:sodipodi="http://sodipodi.sourceforge.net/DTD/sodipodi-0.dtd"
   xmlns="http://www.w3.org/2000/svg"
   xmlns:svg="http://www.w3.org/2000/svg"><sodipodi:namedview
     id="namedview1"
     pagecolor="#ffffff"
     bordercolor="#999999"
     borderopacity="1"
     inkscape:showpageshadow="0"
     inkscape:pageopacity="0"
     inkscape:pagecheckerboard="0"
     inkscape:deskcolor="#d1d1d1"
     inkscape:document-units="px"
     inkscape:zoom="5.6568543"
     inkscape:cx="81.582444"
     inkscape:cy="0.53033008"
     inkscape:current-layer="layer1"
     inkscape:export-bgcolor="#ffffffff"
     showguides="true"
     showgrid="false"><sodipodi:guide
       position="39.584415,-49.527029"
       orientation="0,1"
       id="guide3"
       inkscape:locked="false" /><sodipodi:guide
       position="-2.6009707,1.3028605"
       orientation="0,1"
       id="guide1"
       inkscape:locked="false" /><sodipodi:guide
       position="8.2112552,4.2579112"
       orientation="1,0"
       id="guide2"
       inkscape:locked="false" /></sodipodi:namedview><defs
     id="defs1"><inkscape:path-effect
       effect="perspective-envelope"
       up_left_point="106.49532,264.85378"
       up_right_point="126.54248,265.64754"
       down_left_point="97.367197,290.14567"
       down_right_point="125.48415,290.14567"
       id="path-effect2"
       is_visible="true"
       lpeversion="1"
       deform_type="perspective"
       horizontal_mirror="false"
       vertical_mirror="false"
       overflow_perspective="false" /><inkscape:path-effect
       effect="perspective-envelope"
       up_left_point="102.72306,268.22103"
       up_right_point="118.25084,266.50124"
       down_left_point="100.07723,295.78112"
       down_right_point="124.07167,295.78112"
       id="path-effect1"
       is_visible="true"
       lpeversion="1"
       deform_type="perspective"
       horizontal_mirror="false"
       vertical_mirror="false"
       overflow_perspective="false" /><inkscape:path-effect
       effect="spiro"
       id="path-effect5964-4-4"
       is_visible="true"
       lpeversion="0" /><inkscape:path-effect
       effect="spiro"
       id="path-effect5964-6"
       is_visible="true"
       lpeversion="0" /><linearGradient
       id="linearGradient11982-4-5-5-4-5-1"><stop
         id="stop11984-9-10-9-7-2-5"
         offset="0"
         style="stop-color:#fff773;stop-opacity:1;" /><stop
         id="stop11986-4-9-7-5-4-1"
         offset="1"
         style="stop-color:#fff773;stop-opacity:0;" /></linearGradient></defs><g
     inkscape:label="Vrstva 1"
     inkscape:groupmode="layer"
     id="layer1"
     transform="translate(0,-285.09374)"><path
       style="color:#000000;font-style:normal;font-variant:normal;font-weight:normal;font-stretch:normal;font-size:medium;line-height:normal;font-family:Sans;-inkscape-font-specification:Sans;text-indent:0;text-align:start;text-decoration:none;text-decoration-line:none;letter-spacing:normal;word-spacing:normal;text-transform:none;writing-mode:lr-tb;direction:ltr;baseline-shift:baseline;text-anchor:start;display:inline;overflow:visible;visibility:visible;fill:#000000;fill-opacity:1;stroke:none;stroke-width:0.971101;marker:none;enable-background:accumulate"
       d="M 1.3595383,285.09374 C 0.61678065,285.09374 8.5e-8,285.71769 8.5e-8,286.46916 v 9.16932 c 0,0.75141 0.616780565,1.36151 1.359538215,1.36151 h 9.1871727 c 0.742758,0 1.359538,-0.6101 1.359538,-1.36151 v -9.16932 c 0,-0.75147 -0.61678,-1.37542 -1.359538,-1.37542 z"
       id="rect7803-0-2-1-4"
       inkscape:connector-curvature="0"
       sodipodi:nodetypes="sssssssss" /><path
       d="m 9.6867277,294.40106 q 0,0.62941 -0.4247803,0.96118 -0.4216797,0.33176 -1.0510986,0.33176 -0.6294189,0 -1.0572998,-0.33176 -0.4247802,-0.33487 -0.4247802,-0.96118 0,-0.37517 0.1953369,-0.66043 0.1984375,-0.28525 0.5333007,-0.43718 -0.291455,-0.14883 -0.4619873,-0.40928 -0.1674316,-0.26045 -0.1674316,-0.58911 0,-0.59841 0.3875732,-0.92397 0.3906739,-0.32557 0.9921875,-0.32557 0.6015137,0 0.9890869,0.32557 0.3906738,0.32556 0.3906738,0.92397 0,0.32866 -0.1705322,0.58911 -0.1705322,0.26045 -0.4619873,0.40928 0.3348633,0.15503 0.5333008,0.44028 0.1984375,0.28216 0.1984375,0.65733 z m -0.8526611,-2.06809 q 0,-0.29766 -0.1705323,-0.4837 -0.1674316,-0.18913 -0.4557861,-0.18913 -0.2852539,0 -0.4557861,0.18293 -0.1705322,0.17984 -0.1705322,0.4899 0,0.30385 0.1674316,0.48989 0.1705322,0.18603 0.4619873,0.18603 0.2883545,0 0.4557861,-0.18603 0.1674317,-0.18604 0.1674317,-0.48989 z m 0.099219,2.02778 q 0,-0.33486 -0.2015381,-0.5395 -0.1984375,-0.20774 -0.5270996,-0.20774 -0.3317627,0 -0.5270996,0.20774 -0.1953369,0.20464 -0.1953369,0.5395 0,0.34106 0.1953369,0.5364 0.1953369,0.19224 0.5333008,0.19224 0.3379639,0 0.5302002,-0.19224 0.1922363,-0.19534 0.1922363,-0.5364 z"
       id="text1"
       style="font-weight:500;font-size:6.35px;line-height:1.25;font-family:Roboto;-inkscape-font-specification:'Roboto, Medium';font-variant-ligatures:none;text-align:center;letter-spacing:0px;word-spacing:0px;text-anchor:middle;fill:#ffffff;stroke-width:0.264583"
       aria-label="8" /><text
       xml:space="preserve"
       style="font-style:normal;font-variant:normal;font-weight:500;font-stretch:normal;font-size:6.35px;line-height:1.25;font-family:Roboto;-inkscape-font-specification:'Roboto, Medium';font-variant-ligatures:none;font-variant-caps:normal;font-variant-numeric:normal;font-variant-east-asian:normal;text-align:center;letter-spacing:0px;word-spacing:0px;text-anchor:middle;fill:#ffffff;fill-opacity:1;stroke-width:0.264583"
       x="2.6192403"
       y="295.69031"
       id="text2"><tspan
         sodipodi:role="line"
         id="tspan2"
         style="font-style:normal;font-variant:normal;font-weight:500;font-stretch:normal;font-size:6.35px;font-family:Roboto;-inkscape-font-specification:'Roboto, Medium';font-variant-ligatures:none;font-variant-caps:normal;font-variant-numeric:normal;font-variant-east-asian:normal;fill:#ffffff;fill-opacity:1;stroke-width:0.264583"
         x="2.6192403"
         y="295.69031" /></text></g></svg>
