<?xml version="1.0" encoding="UTF-8" standalone="no"?>
<!-- Created with Inkscape (http://www.inkscape.org/) -->

<svg
   width="144"
   height="144"
   viewBox="0 0 38.099997 38.099997"
   version="1.1"
   id="svg1"
   xml:space="preserve"
   inkscape:version="1.4.2 (1:1.4.2+202505120737+ebf0e940d0)"
   sodipodi:docname="mask_busy.svg"
   inkscape:export-filename="mask_busy.png"
   inkscape:export-xdpi="96"
   inkscape:export-ydpi="96"
   xmlns:inkscape="http://www.inkscape.org/namespaces/inkscape"
   xmlns:sodipodi="http://sodipodi.sourceforge.net/DTD/sodipodi-0.dtd"
   xmlns="http://www.w3.org/2000/svg"
   xmlns:svg="http://www.w3.org/2000/svg"><sodipodi:namedview
     id="namedview1"
     pagecolor="#ffffff"
     bordercolor="#999999"
     borderopacity="1"
     inkscape:showpageshadow="0"
     inkscape:pageopacity="0"
     inkscape:pagecheckerboard="0"
     inkscape:deskcolor="#d1d1d1"
     inkscape:document-units="px"
     inkscape:zoom="2"
     inkscape:cx="202.75"
     inkscape:cy="65"
     inkscape:current-layer="g5"
     inkscape:export-bgcolor="#ffffffff"
     showguides="true"
     showgrid="false"><sodipodi:guide
       position="39.584415,-23.33328"
       orientation="0,1"
       id="guide3"
       inkscape:locked="false" /></sodipodi:namedview><defs
     id="defs1"><inkscape:path-effect
       effect="perspective-envelope"
       up_left_point="106.49532,264.85378"
       up_right_point="126.54248,265.64754"
       down_left_point="97.367197,290.14567"
       down_right_point="125.48415,290.14567"
       id="path-effect2"
       is_visible="true"
       lpeversion="1"
       deform_type="perspective"
       horizontal_mirror="false"
       vertical_mirror="false"
       overflow_perspective="false" /><inkscape:path-effect
       effect="perspective-envelope"
       up_left_point="102.72306,268.22103"
       up_right_point="118.25084,266.50124"
       down_left_point="100.07723,295.78112"
       down_right_point="124.07167,295.78112"
       id="path-effect1"
       is_visible="true"
       lpeversion="1"
       deform_type="perspective"
       horizontal_mirror="false"
       vertical_mirror="false"
       overflow_perspective="false" /></defs><g
     inkscape:label="Vrstva 1"
     inkscape:groupmode="layer"
     id="layer1"
     transform="translate(0,-258.89999)"><circle
       style="opacity:1;fill:#000000;fill-opacity:1;stroke-width:0.0476421;stroke-linecap:round;stroke-linejoin:round"
       id="path3"
       cx="19.049999"
       cy="277.94998"
       r="18.520832" /><path
       id="path2"
       style="fill:#ffffff;fill-opacity:1;stroke-width:0.12995"
       d="m 14.52386,264.13813 c -0.167719,0.007 -0.442951,0.0863 -1.555494,0.40623 -0.772544,0.22216 -0.916054,0.29926 -1.081806,0.58171 -0.142708,0.2432 -0.145867,0.52132 -0.02004,1.68309 0.155134,1.43237 0.166364,1.40407 -0.903867,2.25258 -0.781582,0.61961 -0.895293,0.67676 -1.2964084,0.65358 -0.2002895,-0.0115 -0.3631913,-0.0564 -0.9375979,-0.25957 -1.310961,-0.46362 -1.3506421,-0.47597 -1.4953661,-0.47124 -0.3074241,0.0105 -0.6167658,0.16265 -0.7601484,0.37396 -0.044555,0.0657 -0.3058767,0.5185 -0.5807437,1.00603 -0.4805918,0.85246 -0.5009569,0.89607 -0.533326,1.14194 -0.028101,0.21304 -0.022181,0.28685 0.035685,0.44191 0.038187,0.10236 0.1104921,0.2307 0.1608288,0.28499 0.050333,0.0544 0.4284086,0.37153 0.8403185,0.70491 0.8609577,0.69682 0.9846912,0.81509 1.0759401,1.02755 0.1377516,0.32066 0.1392688,0.39628 0.026886,1.33454 -0.1585241,1.32363 -0.1339125,1.29256 -1.5574489,1.97443 -0.5222816,0.25017 -1.0047588,0.49916 -1.0720292,0.55337 -0.1848522,0.14895 -0.2951141,0.35275 -0.3275238,0.60567 -0.030377,0.23625 -0.028026,0.24678 0.3954727,1.71486 0.2201785,0.76326 0.2881269,0.8929 0.5558127,1.06323 0.2577144,0.16399 0.4483371,0.16983 1.5579378,0.0464 1.5664,-0.1742 1.5509169,-0.18028 2.4036334,0.89557 0.6277774,0.79204 0.6789004,0.89593 0.6496704,1.31155 -0.01481,0.21063 -0.0582,0.36942 -0.2375771,0.87112 -0.1206633,0.33749 -0.2839211,0.80829 -0.3632091,1.04612 -0.140416,0.42125 -0.143628,0.43773 -0.1119448,0.63354 0.039929,0.24676 0.1786166,0.49313 0.345611,0.61447 0.1106637,0.0804 1.710986,0.98465 1.92408,1.08719 0.246157,0.11842 0.73318,0.0427 0.95764,-0.1491 0.05531,-0.0473 0.392231,-0.44727 0.748416,-0.88871 0.693916,-0.86001 0.769954,-0.93924 0.997725,-1.03782 0.291583,-0.12631 0.381351,-0.13648 1.147312,-0.0459 v -4.39469 c -0.08877,-0.0179 -0.164809,-0.0366 -0.222424,-0.0548 -0.593291,-0.18725 -1.30161,-0.57292 -1.752007,-0.95422 -1.013625,-0.85815 -1.649349,-2.09905 -1.773517,-3.46051 -0.03755,-0.41206 0.107109,-1.57107 0.24442,-1.95781 0.681235,-1.91869 2.325631,-3.20529 4.347268,-3.40087 0.397479,-0.0385 1.379809,0.0653 1.799914,0.19016 0.632538,0.18792 1.338529,0.56446 1.815068,0.96791 0.380294,0.32196 0.715902,0.71163 0.989416,1.14047 h 7.923631 c -0.524501,-1.88858 -0.564105,-1.98444 -0.893602,-2.1778 -0.243206,-0.14271 -0.520835,-0.14634 -1.682593,-0.0205 -1.432388,0.15513 -1.404569,0.16636 -2.25307,-0.90387 -0.62797,-0.79209 -0.679399,-0.8954 -0.650159,-1.31108 0.01479,-0.21034 0.05832,-0.37054 0.237088,-0.8716 0.434897,-1.21898 0.494265,-1.40659 0.489819,-1.54816 -0.0096,-0.30483 -0.162284,-0.61553 -0.373964,-0.75917 -0.06605,-0.0448 -0.518847,-0.30583 -1.006036,-0.58026 -0.850417,-0.479 -0.896022,-0.5002 -1.141445,-0.53283 -0.212641,-0.0283 -0.286278,-0.0226 -0.437513,0.0342 -0.1,0.0376 -0.226826,0.10728 -0.282061,0.15448 -0.05524,0.0473 -0.391701,0.44723 -0.747438,0.88872 -0.693511,0.86066 -0.73479,0.90462 -0.961063,1.02168 -0.291752,0.151 -0.423506,0.15509 -1.373644,0.0401 -1.310807,-0.15875 -1.295434,-0.14647 -1.972475,-1.56577 -0.236863,-0.49654 -0.471868,-0.96039 -0.522572,-1.03096 -0.140202,-0.19524 -0.371689,-0.32755 -0.630605,-0.36028 -0.05895,-0.007 -0.102968,-0.0131 -0.158874,-0.0108 z" /><g
       id="g5"
       transform="matrix(0.94596603,0,0,0.94596603,3.9544024,-18.48023)"><path
         id="rect3"
         style="opacity:1;fill:#ffffff;stroke-width:0.0403962;stroke-linecap:round;stroke-linejoin:round"
         d="m 13.913067,310.27286 h 12.21985 v 10.67631 c -0.301506,0.84978 -0.682692,1.66637 -2.106626,2.04849 h -8.220829 c -0.960038,-0.27673 -1.691254,-0.81089 -1.892395,-1.94138 z"
         sodipodi:nodetypes="ccccccc" /><path
         id="path4"
         style="opacity:1;fill:#ffffff;fill-opacity:1;stroke-width:0.0279629;stroke-linecap:round;stroke-linejoin:round"
         d="m 24.669944,310.36632 c -1.757391,0.27932 -3.466618,1.52423 -3.827247,3.33664 -0.338053,1.59364 0.573198,3.23424 1.948842,4.02718 2.137154,1.30649 5.255694,0.89932 6.803872,-1.13176 0.970383,-1.24007 0.997576,-3.09677 0.03758,-4.35032 -1.101464,-1.5346 -3.141475,-2.15992 -4.963052,-1.88174 z m 1.42689,2.21711 c 1.060269,0.16728 2.099359,1.21575 1.719621,2.3383 -0.659689,1.84038 -3.707658,1.8931 -4.465879,0.10862 -0.509147,-1.16094 0.621917,-2.33555 1.750228,-2.45412 0.334774,-0.0563 0.661226,-0.0376 0.99603,0.007 z" /><path
         id="rect5"
         style="opacity:1;fill:#ffffff;fill-opacity:1;stroke-width:0.0334377;stroke-linecap:round;stroke-linejoin:round"
         d="m 10.53751,323.9765 h 18.917707 c -0.550223,0.93779 -1.078138,1.88673 -2.478299,2.39955 H 12.657501 c -0.838759,-0.70078 -1.758952,-1.34048 -2.119991,-2.39955 z"
         sodipodi:nodetypes="ccccc" /></g></g></svg>
