<?xml version="1.0" encoding="UTF-8" standalone="no"?>
<!-- Created with Inkscape (http://www.inkscape.org/) -->

<svg
   width="45"
   height="45"
   viewBox="0 0 11.906249 11.906249"
   version="1.1"
   id="svg1"
   xml:space="preserve"
   inkscape:version="1.4.2 (1:1.4.2+202505120737+ebf0e940d0)"
   sodipodi:docname="mask_menu_radio.svg"
   inkscape:export-filename="mask_menu_radio.png"
   inkscape:export-xdpi="96"
   inkscape:export-ydpi="96"
   xmlns:inkscape="http://www.inkscape.org/namespaces/inkscape"
   xmlns:sodipodi="http://sodipodi.sourceforge.net/DTD/sodipodi-0.dtd"
   xmlns="http://www.w3.org/2000/svg"
   xmlns:svg="http://www.w3.org/2000/svg"><sodipodi:namedview
     id="namedview1"
     pagecolor="#ffffff"
     bordercolor="#999999"
     borderopacity="1"
     inkscape:showpageshadow="0"
     inkscape:pageopacity="0"
     inkscape:pagecheckerboard="0"
     inkscape:deskcolor="#d1d1d1"
     inkscape:document-units="px"
     inkscape:zoom="2.8284271"
     inkscape:cx="156.80093"
     inkscape:cy="11.313709"
     inkscape:current-layer="layer1"
     inkscape:export-bgcolor="#ffffffff"
     showguides="false"
     showgrid="false"><sodipodi:guide
       position="39.584415,-49.527028"
       orientation="0,1"
       id="guide3"
       inkscape:locked="false" /><sodipodi:guide
       position="0.12862345,12.078911"
       orientation="1,0"
       id="guide18"
       inkscape:locked="false" /><sodipodi:guide
       position="2.8414089,11.763199"
       orientation="0,1"
       id="guide19"
       inkscape:locked="false" /></sodipodi:namedview><defs
     id="defs1"><inkscape:path-effect
       effect="perspective-envelope"
       up_left_point="106.49532,264.85378"
       up_right_point="126.54248,265.64754"
       down_left_point="97.367197,290.14567"
       down_right_point="125.48415,290.14567"
       id="path-effect2"
       is_visible="true"
       lpeversion="1"
       deform_type="perspective"
       horizontal_mirror="false"
       vertical_mirror="false"
       overflow_perspective="false" /><inkscape:path-effect
       effect="perspective-envelope"
       up_left_point="102.72306,268.22103"
       up_right_point="118.25084,266.50124"
       down_left_point="100.07723,295.78112"
       down_right_point="124.07167,295.78112"
       id="path-effect1"
       is_visible="true"
       lpeversion="1"
       deform_type="perspective"
       horizontal_mirror="false"
       vertical_mirror="false"
       overflow_perspective="false" /></defs><g
     inkscape:label="Vrstva 1"
     inkscape:groupmode="layer"
     id="layer1"
     transform="translate(0,-285.09374)"><g
       id="g2"
       transform="translate(0,-0.02391896)"><rect
         ry="1.1380168"
         y="285.40784"
         x="3.0786736"
         height="4.2120595"
         width="5.7489018"
         id="rect9178-6"
         style="fill:#000000;fill-opacity:1;stroke:none;stroke-width:0.698237"
         rx="1.480998" /><path
         sodipodi:nodetypes="csssssscsssscssssssssssssssssssss"
         inkscape:connector-curvature="0"
         id="rect9178"
         d="m 2.5232982,287.13377 c -1.2818834,0.30703 -2.23173421,1.44048 -2.23173421,2.81905 v 3.86793 c 0,1.61505 1.29792821,2.91298 2.91300091,2.91298 h 5.4971185 c 1.6150726,0 2.9130016,-1.29793 2.9130016,-2.91298 v -3.86793 c 0,-1.35201 -0.916917,-2.46287 -2.1612593,-2.79553 v 0.93966 c 0,1.08546 -0.8644003,1.97332 -1.9498325,1.97332 h -3.006971 c -1.0854306,0 -1.973324,-0.88786 -1.973324,-1.97332 z m 0.4463479,3.3124 c 1.0853094,0 1.9733237,0.88794 1.9733237,1.97332 0,1.08531 -0.8880143,1.97333 -1.9733237,1.97333 -1.085311,0 -1.9733241,-0.88802 -1.9733241,-1.97333 0,-1.08538 0.8880131,-1.97332 1.9733241,-1.97332 z m 6.0374318,0.0234 c 1.0853101,0 1.9733241,0.88798 1.9733241,1.9733 0,1.08532 -0.888014,1.97334 -1.9733241,1.97334 -1.0853109,0 -1.9733239,-0.88802 -1.9733239,-1.97334 0,-1.08532 0.888013,-1.9733 1.9733239,-1.9733 z m -6.0374318,0.72825 c -0.6749648,0 -1.1980902,0.54661 -1.1980902,1.22161 0,0.67492 0.5231254,1.19803 1.1980902,1.19803 0.6749647,0 1.2215814,-0.52311 1.2215814,-1.19803 0,-0.675 -0.5466167,-1.22161 -1.2215814,-1.22161 z m 6.0374318,0.0474 c -0.6749645,0 -1.2215815,0.5231 -1.2215815,1.1981 0,0.67499 0.546617,1.22152 1.2215815,1.22152 0.6749645,0 1.1980901,-0.54653 1.1980901,-1.22152 0,-0.675 -0.5231256,-1.1981 -1.1980901,-1.1981 z"
         style="fill:#040404;fill-opacity:1;stroke:none;stroke-width:0.778893" /></g><circle
       id="circle1"
       style="fill:none;stroke:#000000;stroke-width:0.818555;stroke-miterlimit:4;stroke-dasharray:none;stroke-opacity:1"
       cx="19.423508"
       cy="291.04688"
       r="5.4115553" /><g
       id="g1"
       transform="matrix(0.75570021,0,0,0.75570021,-4.9261839,70.046669)"><rect
         ry="1.0042424"
         y="287.67978"
         x="30.299015"
         height="3.7169297"
         width="3.8982434"
         id="rect1"
         style="fill:#000000;fill-opacity:1;stroke:none;stroke-width:0.540119"
         rx="1.0042424" /><path
         sodipodi:nodetypes="csssssscsssscssssssssssssssssssss"
         inkscape:connector-curvature="0"
         id="path1"
         d="m 29.842972,289.79666 c -0.888914,0.21291 -1.547582,0.99889 -1.547582,1.95485 v 3.43726 c 0,1.11994 0.90004,2.01999 2.020002,2.01999 h 3.811942 c 1.119962,0 2.020003,-0.90005 2.020003,-2.01999 v -3.43726 c 0,-0.93754 -0.63583,-1.70786 -1.498712,-1.93854 v 0.6516 c 0,0.75271 -0.599413,1.36839 -1.352099,1.36839 h -2.085165 c -0.752685,0 -1.368389,-0.61568 -1.368389,-1.36839 z m 0.309517,2.29696 c 0.752601,0 1.368389,0.61574 1.368389,1.36839 0,0.7526 -0.615788,1.36839 -1.368389,1.36839 -0.752602,0 -1.368389,-0.61579 -1.368389,-1.36839 0,-0.75265 0.615787,-1.36839 1.368389,-1.36839 z m 4.186619,0.0162 c 0.752602,0 1.368389,0.61578 1.368389,1.36839 0,0.7526 -0.615787,1.36839 -1.368389,1.36839 -0.752602,0 -1.368389,-0.61579 -1.368389,-1.36839 0,-0.75261 0.615787,-1.36839 1.368389,-1.36839 z m -4.186619,0.50501 c -0.46805,0 -0.830808,0.37905 -0.830808,0.84712 0,0.46801 0.362758,0.83076 0.830808,0.83076 0.46805,0 0.847098,-0.36275 0.847098,-0.83076 0,-0.46807 -0.379048,-0.84712 -0.847098,-0.84712 z m 4.186619,0.0329 c -0.46805,0 -0.847098,0.36275 -0.847098,0.83081 0,0.46807 0.379048,0.84707 0.847098,0.84707 0.46805,0 0.830808,-0.379 0.830808,-0.84707 0,-0.46806 -0.362758,-0.83081 -0.830808,-0.83081 z"
         style="fill:#040404;fill-opacity:1;stroke:none;stroke-width:0.540119" /></g></g></svg>
