<?xml version="1.0" standalone="no"?>
<!DOCTYPE svg PUBLIC "-//W3C//DTD SVG 20010904//EN"
 "http://www.w3.org/TR/2001/REC-SVG-20010904/DTD/svg10.dtd">
<svg version="1.0" xmlns="http://www.w3.org/2000/svg"
 width="297.000000pt" height="20.000000pt" viewBox="0 0 297.000000 20.000000"
 preserveAspectRatio="xMidYMid meet">
<metadata>
Created by potrace 1.16, written by Peter Selinger 2001-2019
</metadata>
<g transform="translate(0.000000,20.000000) scale(0.100000,-0.100000)"
fill="#000000" stroke="none">
<path d="M1821 188 c-1 -11 -9 -18 -21 -18 -18 0 -20 -7 -20 -60 0 -52 2 -60
19 -60 11 0 22 -6 24 -12 4 -10 6 -10 6 0 1 6 8 12 16 12 8 0 15 -6 15 -12 0
-9 3 -9 8 -2 4 6 15 13 25 17 23 9 26 117 2 117 -7 0 -19 8 -24 18 -10 16 -10
16 -11 0 0 -10 -6 -18 -14 -18 -8 0 -17 8 -19 18 -4 16 -5 16 -6 0z"/>
<path d="M2080 115 l0 -75 65 0 65 0 0 75 0 75 -65 0 -65 0 0 -75z"/>
<path d="M2840 115 l0 -75 60 0 60 0 0 53 c0 66 -26 97 -83 97 l-37 0 0 -75z"/>
</g>
</svg>
