<?xml version="1.0" encoding="UTF-8" standalone="no"?>
<!-- Created with Inkscape (http://www.inkscape.org/) -->

<svg
   width="210mm"
   height="297mm"
   viewBox="0 0 210 297"
   version="1.1"
   id="svg1"
   xml:space="preserve"
   inkscape:version="1.4 (86a8ad7, 2024-10-11)"
   sodipodi:docname="folder-tree-read-outline.svg"
   xmlns:inkscape="http://www.inkscape.org/namespaces/inkscape"
   xmlns:sodipodi="http://sodipodi.sourceforge.net/DTD/sodipodi-0.dtd"
   xmlns:xlink="http://www.w3.org/1999/xlink"
   xmlns="http://www.w3.org/2000/svg"
   xmlns:svg="http://www.w3.org/2000/svg"><sodipodi:namedview
     id="namedview1"
     pagecolor="#ffffff"
     bordercolor="#666666"
     borderopacity="1.0"
     inkscape:showpageshadow="2"
     inkscape:pageopacity="0.0"
     inkscape:pagecheckerboard="0"
     inkscape:deskcolor="#d1d1d1"
     inkscape:document-units="mm"
     inkscape:zoom="1"
     inkscape:cx="529"
     inkscape:cy="298.5"
     inkscape:window-width="1920"
     inkscape:window-height="1055"
     inkscape:window-x="-7"
     inkscape:window-y="-7"
     inkscape:window-maximized="1"
     inkscape:current-layer="layer1" /><defs
     id="defs1"><linearGradient
       id="swatch3"
       inkscape:swatch="solid"><stop
         style="stop-color:#000000;stop-opacity:1;"
         offset="0"
         id="stop3" /></linearGradient><linearGradient
       id="swatch2"
       inkscape:swatch="solid"><stop
         style="stop-color:#000000;stop-opacity:1;"
         offset="0"
         id="stop2" /></linearGradient><linearGradient
       id="swatch1"
       inkscape:swatch="solid"><stop
         style="stop-color:#000000;stop-opacity:1;"
         offset="0"
         id="stop1" /></linearGradient><inkscape:perspective
       sodipodi:type="inkscape:persp3d"
       inkscape:vp_x="0 : 148.5 : 1"
       inkscape:vp_y="0 : 1000 : 0"
       inkscape:vp_z="210 : 148.5 : 1"
       inkscape:persp3d-origin="105 : 99 : 1"
       id="perspective8" /><linearGradient
       inkscape:collect="always"
       xlink:href="#swatch1"
       id="linearGradient1"
       x1="39.547974"
       y1="97.559678"
       x2="124.01052"
       y2="97.559678"
       gradientUnits="userSpaceOnUse" /><linearGradient
       inkscape:collect="always"
       xlink:href="#swatch2"
       id="linearGradient2"
       x1="110.06668"
       y1="43.875016"
       x2="123.51461"
       y2="43.875016"
       gradientUnits="userSpaceOnUse" /><linearGradient
       inkscape:collect="always"
       xlink:href="#swatch3"
       id="linearGradient3"
       x1="95.609878"
       y1="43.169433"
       x2="109.05782"
       y2="43.169433"
       gradientUnits="userSpaceOnUse"
       gradientTransform="translate(0,1.0583333)" /></defs><g
     inkscape:label="Layer 1"
     inkscape:groupmode="layer"
     id="layer1"><g
       id="g1"><path
         id="rect14-6"
         style="fill:#e6e6e6;fill-opacity:1;stroke-width:0.338152"
         d="M 141.52,29.104168 V 154.0214 H 16.933331 v 3.74728 H 145.5978 V 29.104168 Z"
         inkscape:export-filename="folder-tree-write-outline-16.png"
         inkscape:export-xdpi="3.1586032"
         inkscape:export-ydpi="3.1586032" /><path
         id="path4"
         style="fill:none;stroke:url(#linearGradient1);stroke-width:2.03;stroke-dasharray:none"
         d="m 43.387533,55.502555 c -0.0053,0 -0.0097,5.12e-4 -0.01499,5.17e-4 h -3.824572 v 18.388542 h 0.05374 c -0.03879,4.324912 -0.05374,9.388948 -0.05374,16.021761 v 34.410305 h 17.276464 17.276465 v 7.64656 7.64656 h 24.955066 24.954551 v -15.29312 -15.29364 h -11.21999 c -8.78222,0 -11.97519,-0.8309 -14.694709,-3.82354 -2.64889,-2.91493 -5.912142,-3.82302 -13.734562,-3.82302 H 74.100903 v 7.64656 7.64656 H 60.663997 47.226575 V 97.559937 78.443274 h 13.437422 13.436906 v 7.646562 7.646561 H 99.055969 124.01052 V 78.443274 63.149634 h -11.21999 c -8.78222,0 -11.97519,-0.830899 -14.694709,-3.823539 -2.64889,-2.91493 -5.912142,-3.82354 -13.734562,-3.82354 H 74.100903 v 7.647079 7.646561 H 60.663997 47.226575 v -7.646561 c 0,-0.134854 -0.0051,-0.235028 -0.0057,-0.365353 v -7.281209 h -3.825089 c -0.003,-2e-6 -0.0052,-5.17e-4 -0.0083,-5.17e-4 z m 43.853137,7.647079 c 3.02341,0 7.012418,1.706372 8.935888,3.823022 2.4589,2.70585 5.911972,3.823539 11.814782,3.823539 h 8.34109 v 7.647079 7.646562 H 99.055969 81.779504 V 74.619735 c 0,-11.33129 0.066,-11.470101 5.461166,-11.470101 z m 0,45.880406 c 3.02341,0 7.012418,1.70689 8.935888,3.82354 2.4589,2.70585 5.911972,3.82302 11.814782,3.82302 h 8.34109 v 7.64708 7.64656 H 99.055969 81.779504 v -11.4701 c 0,-11.33129 0.066,-11.4701 5.461166,-11.4701 z"
         inkscape:label="path4"
         inkscape:export-filename="folder-tree-write-mono.png"
         inkscape:export-xdpi="19.246401"
         inkscape:export-ydpi="19.246401"
         sodipodi:nodetypes="sccccscccccccccssscccccccccccccccssscccccscccsssscccccssssscccccss" /><path
         id="rect4"
         style="fill:none;fill-opacity:1;stroke:url(#linearGradient3);stroke-width:2.029;stroke-dasharray:none"
         d="m 95.735718,57.675698 13.322102,-13.409862 -13.397742,-13.486 -0.0502,0.05052 0.0249,5.318429 8.063912,8.117046 -7.988282,8.040901 z"
         inkscape:label="rect4"
         sodipodi:nodetypes="cccccccc" /><path
         id="rect4-3"
         style="fill:none;fill-opacity:1;stroke-width:2.029;stroke-dasharray:none;stroke:url(#linearGradient2)"
         d="m 110.19252,57.322947 13.32209,-13.409862 -13.39773,-13.486 -0.0502,0.05052 0.0249,5.318429 8.0639,8.117046 -7.98827,8.040901 z"
         inkscape:label="rect4"
         sodipodi:nodetypes="cccccccc" /></g></g></svg>
