<?xml version="1.0" encoding="UTF-8" standalone="no"?>
<!-- Created with Inkscape (http://www.inkscape.org/) -->

<svg
   width="210mm"
   height="297mm"
   viewBox="0 0 210 297"
   version="1.1"
   id="svg1"
   xml:space="preserve"
   inkscape:version="1.4 (86a8ad7, 2024-10-11)"
   sodipodi:docname="folder-tree-write-outline.svg"
   xmlns:inkscape="http://www.inkscape.org/namespaces/inkscape"
   xmlns:sodipodi="http://sodipodi.sourceforge.net/DTD/sodipodi-0.dtd"
   xmlns:xlink="http://www.w3.org/1999/xlink"
   xmlns="http://www.w3.org/2000/svg"
   xmlns:svg="http://www.w3.org/2000/svg"><sodipodi:namedview
     id="namedview1"
     pagecolor="#ffffff"
     bordercolor="#666666"
     borderopacity="1.0"
     inkscape:showpageshadow="2"
     inkscape:pageopacity="0.0"
     inkscape:pagecheckerboard="0"
     inkscape:deskcolor="#d1d1d1"
     inkscape:document-units="mm"
     inkscape:zoom="1"
     inkscape:cx="528"
     inkscape:cy="300.5"
     inkscape:window-width="1920"
     inkscape:window-height="1055"
     inkscape:window-x="-7"
     inkscape:window-y="-7"
     inkscape:window-maximized="1"
     inkscape:current-layer="layer1"
     showgrid="false" /><defs
     id="defs1"><linearGradient
       id="swatch3"
       inkscape:swatch="solid"><stop
         style="stop-color:#000000;stop-opacity:1;"
         offset="0"
         id="stop3" /></linearGradient><linearGradient
       id="swatch2"
       inkscape:swatch="solid"><stop
         style="stop-color:#000000;stop-opacity:1;"
         offset="0"
         id="stop2" /></linearGradient><linearGradient
       id="swatch1"
       inkscape:swatch="solid"><stop
         style="stop-color:#000000;stop-opacity:1;"
         offset="0"
         id="stop1" /></linearGradient><inkscape:perspective
       sodipodi:type="inkscape:persp3d"
       inkscape:vp_x="0 : 148.5 : 1"
       inkscape:vp_y="0 : 1000 : 0"
       inkscape:vp_z="210 : 148.5 : 1"
       inkscape:persp3d-origin="105 : 99 : 1"
       id="perspective8" /><linearGradient
       inkscape:collect="always"
       xlink:href="#swatch1"
       id="linearGradient1"
       x1="39.547974"
       y1="97.559678"
       x2="124.01052"
       y2="97.559678"
       gradientUnits="userSpaceOnUse" /><linearGradient
       inkscape:collect="always"
       xlink:href="#swatch2"
       id="linearGradient2"
       x1="95.609878"
       y1="43.169433"
       x2="109.05782"
       y2="43.169433"
       gradientUnits="userSpaceOnUse"
       gradientTransform="translate(0,2.1166667)" /><linearGradient
       inkscape:collect="always"
       xlink:href="#swatch3"
       id="linearGradient3"
       x1="110.06668"
       y1="43.875016"
       x2="123.51461"
       y2="43.875016"
       gradientUnits="userSpaceOnUse"
       gradientTransform="translate(0,1.5875)" /></defs><g
     inkscape:label="Layer 1"
     inkscape:groupmode="layer"
     id="layer1"><path
       id="rect14-6"
       style="fill:#e6e6e6;fill-opacity:1;stroke-width:0.338152"
       d="M 141.52,29.104168 V 154.0214 H 16.933331 v 3.74728 H 145.5978 V 29.104168 Z"
       inkscape:export-filename="folder-tree-write-outline-16.png"
       inkscape:export-xdpi="3.1586032"
       inkscape:export-ydpi="3.1586032" /><path
       id="path4"
       style="fill:none;stroke-width:2.03;stroke:url(#linearGradient1);stroke-dasharray:none"
       d="M 43.387533 55.502555 C 43.382223 55.502555 43.377842 55.503067 43.372546 55.503072 L 39.547974 55.503072 L 39.547974 73.891614 L 39.601717 73.891614 C 39.562929 78.216526 39.547974 83.280562 39.547974 89.913375 L 39.547974 124.32368 L 56.824438 124.32368 L 74.100903 124.32368 L 74.100903 131.97024 L 74.100903 139.6168 L 99.055969 139.6168 L 124.01052 139.6168 L 124.01052 124.32368 L 124.01052 109.03004 L 112.79053 109.03004 C 104.00831 109.03004 100.81534 108.19914 98.095821 105.2065 C 95.446931 102.29157 92.183679 101.38348 84.361259 101.38348 L 74.100903 101.38348 L 74.100903 109.03004 L 74.100903 116.6766 L 60.663997 116.6766 L 47.226575 116.6766 L 47.226575 97.559937 L 47.226575 78.443274 L 60.663997 78.443274 L 74.100903 78.443274 L 74.100903 86.089836 L 74.100903 93.736397 L 99.055969 93.736397 L 124.01052 93.736397 L 124.01052 78.443274 L 124.01052 63.149634 L 112.79053 63.149634 C 104.00831 63.149634 100.81534 62.318735 98.095821 59.326095 C 95.446931 56.411165 92.183679 55.502555 84.361259 55.502555 L 74.100903 55.502555 L 74.100903 63.149634 L 74.100903 70.796195 L 60.663997 70.796195 L 47.226575 70.796195 L 47.226575 63.149634 C 47.226575 63.01478 47.221481 62.914606 47.22089 62.784281 L 47.22089 55.503072 L 43.395801 55.503072 C 43.392754 55.50307 43.390584 55.502555 43.387533 55.502555 z M 87.24067 63.149634 C 90.26408 63.149634 94.253088 64.856006 96.176558 66.972656 C 98.635458 69.678506 102.08853 70.796195 107.99134 70.796195 L 116.33243 70.796195 L 116.33243 78.443274 L 116.33243 86.089836 L 99.055969 86.089836 L 81.779504 86.089836 L 81.779504 74.619735 C 81.779504 63.288445 81.8455 63.149634 87.24067 63.149634 z M 87.24067 109.03004 C 90.26408 109.03004 94.253088 110.73693 96.176558 112.85358 C 98.635458 115.55943 102.08853 116.6766 107.99134 116.6766 L 116.33243 116.6766 L 116.33243 124.32368 L 116.33243 131.97024 L 99.055969 131.97024 L 81.779504 131.97024 L 81.779504 120.50014 C 81.779504 109.16885 81.8455 109.03004 87.24067 109.03004 z "
       inkscape:label="path4"
       inkscape:export-filename="folder-tree-write-mono.png"
       inkscape:export-xdpi="19.246401"
       inkscape:export-ydpi="19.246401" /><path
       id="rect4"
       style="fill:none;fill-opacity:1;stroke:url(#linearGradient2);stroke-width:2.029;stroke-dasharray:none"
       d="m 108.93198,31.83817 -13.322102,13.409862 13.397742,13.486 0.0502,-0.05052 -0.0249,-5.318429 -8.06391,-8.117046 7.98828,-8.040901 z"
       inkscape:label="rect4" /><path
       id="rect4-3"
       style="fill:none;fill-opacity:1;stroke:url(#linearGradient3);stroke-width:2.029;stroke-dasharray:none"
       d="m 123.38877,32.014586 -13.32209,13.409862 13.39773,13.486 0.0502,-0.05052 -0.0249,-5.318429 -8.0639,-8.117046 7.98827,-8.040901 z"
       inkscape:label="rect4" /></g></svg>
